<svg width="83" height="83" viewBox="0 0 83 83" fill="none" xmlns="http://www.w3.org/2000/svg">
<rect x="30.0587" width="60.1173" height="60.1173" rx="16" transform="rotate(30 30.0587 0)" fill="#FFD0EF"/>
<path d="M40.4195 59.9084C37.0602 59.9084 33.7009 60.1095 30.5392 59.9084C25.9942 59.5061 24.2157 57.8971 23.4253 53.07C22.4372 47.4384 22.042 42.0079 22.6349 36.3763C22.8325 34.365 23.0301 32.1526 23.4253 30.1413C24.0181 25.9176 25.7966 24.1074 29.9463 23.1018C31.7248 22.6995 33.3057 22.4984 35.0841 22.6995C38.8387 22.9006 42.5932 22.9006 46.3478 22.4983C48.1262 22.2972 49.7071 22.4984 51.4855 22.6995C54.8449 23.1017 57.2162 24.9119 57.6114 28.3311C58.797 36.7786 59.7851 45.2259 58.2042 53.6734C57.4138 57.6959 55.6353 59.305 51.6832 60.1095C48.1262 60.3106 44.3717 60.1095 40.4195 59.9084ZM41.21 32.9571C36.665 32.756 32.7128 36.1752 32.3176 40.3989C31.9224 45.6282 35.0841 49.0474 40.4195 49.4497C44.5693 49.6508 48.5215 46.0305 48.9167 41.4045C49.3119 37.1808 45.7549 33.1582 41.21 32.9571ZM53.4616 29.739C53.264 28.5322 52.6712 27.7277 51.288 27.7277C49.7071 27.7277 48.9167 28.7334 48.9167 30.1413C48.9167 31.5492 49.7071 32.5548 51.288 32.5548C52.8688 32.3537 53.4616 31.348 53.4616 29.739Z" fill="#FF66CC"/>
</svg>
