<svg width="88" height="88" viewBox="0 0 88 88" fill="none" xmlns="http://www.w3.org/2000/svg">
<g clip-path="url(#clip0_9412_292525)">
<rect y="12.5962" width="76" height="76" rx="16" transform="rotate(-9.54036 0 12.5962)" fill="#FFD0EF"/>
<g clip-path="url(#clip1_9412_292525)">
<path d="M25.6586 34.5593C26.3984 35.4011 26.838 36.1625 27.4679 36.814C28.2077 37.6558 28.1567 38.4466 27.5053 39.0765C26.9637 39.8967 25.9825 39.9556 25.0818 39.7143C24.7816 39.6338 24.3715 39.363 24.0712 39.2826C18.8574 37.7247 15.9514 40.1638 17.2564 45.5012C17.645 47.0533 17.7332 48.5251 18.2611 50.7582C14.3581 49.7124 11.1067 48.0367 8.85782 45.0207C7.67846 43.4175 6.41861 42.1146 4.77812 41.0315C-0.143361 37.782 -2.78083 33.2139 -2.83394 27.4075C-2.78294 26.6167 -2.76139 25.3353 -3.09107 24.7643C-5.94037 21.5875 -3.31287 17.7864 -4.50012 14.4113C-4.63946 13.7304 -4.20778 12.7198 -3.1462 12.3607C-2.46529 12.2214 -1.94529 12.6824 -1.42528 13.1436C0.574339 15.2883 3.11547 16.6128 5.70766 17.1465C7.50905 17.6292 8.84141 16.86 8.80407 14.5975C8.77463 14.1069 8.74527 13.6163 8.71582 13.1257C8.62748 11.654 8.83938 10.2628 10.5819 9.76429C12.0241 9.18538 12.8738 10.2175 13.5332 11.3595C14.5516 13.5632 16.0743 12.684 17.4872 11.6146C21.184 9.22637 25.2185 9.18117 28.99 11.318C36.9432 15.8625 37.5322 25.6739 29.9775 31.0507C28.7041 32.8011 27.3717 33.5703 25.6586 34.5593Z" fill="#FF66CC"/>
</g>
<g clip-path="url(#clip2_9412_292525)">
<path d="M62.1769 32.8944L62.5495 19.5996L58.4278 19.4841L58.599 13.3748L62.7207 13.4903L62.7945 10.858C62.9852 4.05239 66.1524 0.984915 72.8331 1.17216C73.5012 1.19088 74.4222 1.28672 75.274 1.4123C75.9121 1.49763 76.544 1.62394 77.1658 1.79045L77.0106 7.32994C76.6497 7.28664 76.2874 7.25646 75.9244 7.23948C75.5177 7.21754 75.1107 7.20114 74.7036 7.19025C73.5257 7.15724 72.6016 7.29141 71.8986 7.62684C71.4268 7.84858 71.0253 8.19618 70.7383 8.6314C70.2889 9.31907 70.0688 10.2716 70.0334 11.5328L69.9729 13.6936L76.502 13.8766L75.7607 17.3622L75.2095 19.9544L69.8016 19.8029L69.4167 33.5391C79.3496 32.6204 87.2562 24.407 87.5426 14.186C87.8521 3.14537 79.1515 -6.057 68.1108 -6.36644C57.0701 -6.67587 47.8678 2.02473 47.5583 13.0654C47.2955 22.4417 53.5292 30.4895 62.1769 32.8944Z" fill="#FF66CC"/>
</g>
<g clip-path="url(#clip3_9412_292525)">
<path d="M52.9441 83.0279C48.4257 83.6099 44.8486 83.0279 41.2715 82.64C37.6944 82.252 36.5648 81.088 36.3765 77.2081C36.1883 73.7163 36 70.0304 36 66.5386C36 62.0767 37.5061 60.5248 41.8363 59.9428C48.9905 58.9729 56.1447 59.5548 63.2988 60.5248C65.3698 60.7188 66.6877 61.6888 67.0642 63.8227C68.1938 68.4785 68.1938 73.3283 67.629 78.1781C67.2525 80.894 65.1815 82.252 62.5458 82.64C59.3452 83.2219 55.7681 83.2219 52.9441 83.0279ZM48.4257 77.5961C52.0028 76.6262 55.0151 74.6863 57.8391 71.9704C54.8268 69.6425 51.8145 68.0905 48.0491 66.3445C48.0491 70.4184 47.6726 73.9103 48.4257 77.5961Z" fill="#FF66CC"/>
</g>
</g>
<rect x="0.575956" y="13.0064" width="75" height="75" rx="15.5" transform="rotate(-9.54036 0.575956 13.0064)" stroke="#D4B0FE"/>
<defs>
<clipPath id="clip0_9412_292525">
<rect y="12.5962" width="76" height="76" rx="16" transform="rotate(-9.54036 0 12.5962)" fill="white"/>
</clipPath>
<clipPath id="clip1_9412_292525">
<rect width="44" height="44" fill="white" transform="translate(25.1052 -4) rotate(60)"/>
</clipPath>
<clipPath id="clip2_9412_292525">
<rect width="40" height="40" fill="white" transform="translate(48.1206 -7) rotate(1.60541)"/>
</clipPath>
<clipPath id="clip3_9412_292525">
<rect width="32" height="32" fill="white" transform="translate(36 55)"/>
</clipPath>
</defs>
</svg>
