<svg width="24" height="24" viewBox="0 0 24 24" fill="none" xmlns="http://www.w3.org/2000/svg">
<path opacity="0.4" d="M16.084 2L7.916 2C4.377 2 2 4.276 2 7.665L2 16.335C2 19.724 4.377 22 7.916 22L16.084 22C19.622 22 22 19.723 22 16.334L22 7.665C22 4.276 19.622 2 16.084 2Z" fill="currentColor"/>
<path d="M11.145 7.72082L7.38003 11.4688C7.09703 11.7508 7.09703 12.2498 7.38003 12.5328L11.145 16.2808C11.439 16.5728 11.914 16.5718 12.206 16.2778C12.498 15.9838 12.498 15.5098 12.204 15.2168L9.72703 12.7498H16.082C16.497 12.7498 16.832 12.4138 16.832 11.9998C16.832 11.5858 16.497 11.2498 16.082 11.2498L9.72703 11.2498L12.204 8.78382C12.351 8.63682 12.424 8.44482 12.424 8.25182C12.424 8.06082 12.351 7.86882 12.206 7.72282C11.914 7.42982 11.439 7.42882 11.145 7.72082Z" fill="currentColor"/>
</svg>
