<svg width="24" height="24" viewBox="0 0 24 24" fill="none" xmlns="http://www.w3.org/2000/svg">
<path fill-rule="evenodd" clip-rule="evenodd" d="M2.768 9.012C2.346 9.012 2.003 8.669 2.003 8.247C2 4.392 4.392 2 8.244 2H15.747C19.608 2 22 4.392 22 8.244V15.744C22 19.607 19.608 22 15.747 22H8.247C4.41 22 2 19.607 2 15.747V13.178C2 12.761 2.339 12.422 2.756 12.422H2.765V12.439C3.187 12.439 3.529 12.781 3.53 13.203V13.205V15.747C3.53 18.8 5.2 20.47 8.244 20.47H15.744C18.79 20.47 20.47 18.79 20.47 15.747V8.247C20.47 5.213 18.79 3.533 15.747 3.533H8.247C5.204 3.533 3.533 5.213 3.533 8.247C3.533 8.669 3.19 9.012 2.768 9.012ZM7.9141 12.7499H14.2701L11.7931 15.2169C11.4991 15.5089 11.4981 15.9829 11.7911 16.2769C12.0831 16.5719 12.5581 16.5699 12.8511 16.2789L16.6151 12.5309C16.6161 12.5309 16.6161 12.5309 16.6161 12.5299C16.6851 12.4619 16.7401 12.3789 16.7781 12.2869C16.8161 12.1959 16.8361 12.0989 16.8361 12.0009V11.9999C16.8361 11.9929 16.8344 11.9871 16.8326 11.9812C16.8311 11.9761 16.8296 11.9709 16.8291 11.9649C16.8251 11.8799 16.8111 11.7949 16.7781 11.7139C16.7441 11.6319 16.6931 11.5599 16.6341 11.4939C16.6309 11.4907 16.6287 11.487 16.6265 11.4833C16.624 11.479 16.6214 11.4747 16.6171 11.4709C16.5481 11.4009 16.4651 11.3459 16.3741 11.3079C16.2811 11.2699 16.1851 11.2499 16.0861 11.2499H7.9141C7.5001 11.2499 7.1641 11.5859 7.1641 11.9999C7.1641 12.4139 7.5001 12.7499 7.9141 12.7499ZM14.1358 8.9989L12.8518 7.7209C12.7048 7.5749 12.5138 7.5019 12.3228 7.5019C12.1298 7.5019 11.9378 7.5749 11.7898 7.7229C11.4978 8.0169 11.4988 8.4909 11.7928 8.7829L13.0768 10.0609C13.3708 10.3529 13.8448 10.3529 14.1378 10.0599C14.4298 9.7659 14.4288 9.2909 14.1358 8.9989Z" fill="currentColor"/>
</svg>
