<svg width="24" height="24" viewBox="0 0 24 24" fill="none" xmlns="http://www.w3.org/2000/svg">
<path fill-rule="evenodd" clip-rule="evenodd" d="M2.11498 13.519C2.03898 13.021 2.00098 12.51 2.00098 12C2.00098 6.486 6.48698 2 12.001 2C17.515 2 22.001 6.486 22.001 12C22.001 17.514 17.515 22 12.001 22C8.87298 22 5.98398 20.577 4.07398 18.098C3.82898 17.78 3.88898 17.322 4.20598 17.078C4.52398 16.832 4.97998 16.893 5.22698 17.21C6.85798 19.331 9.32798 20.546 12.001 20.546C16.713 20.546 20.547 16.713 20.547 12C20.547 7.288 16.713 3.455 12.001 3.455C7.28898 3.455 3.45498 7.288 3.45498 12C3.45498 12.437 3.48798 12.874 3.55298 13.299C3.61298 13.695 3.34098 14.066 2.94398 14.127C2.54498 14.193 2.17598 13.916 2.11498 13.519ZM14.7952 12.0008C14.7952 12.1998 14.7162 12.3908 14.5742 12.5318L11.0882 16.0028C10.7942 16.2958 10.3192 16.2948 10.0272 16.0008C9.73518 15.7068 9.73518 15.2328 10.0292 14.9408L12.9822 12.0008L10.0292 9.0608C9.73518 8.7688 9.73518 8.2938 10.0272 7.9998C10.3192 7.7068 10.7942 7.7058 11.0882 7.9978L14.5742 11.4698C14.7162 11.6098 14.7952 11.8008 14.7952 12.0008Z" fill="currentColor"/>
</svg>
