<svg width="24" height="24" viewBox="0 0 24 24" fill="none" xmlns="http://www.w3.org/2000/svg">
<path fill-rule="evenodd" clip-rule="evenodd" d="M13.52 21.886C13.022 21.962 12.511 22 12.001 22C6.48698 22 2.00098 17.514 2.00098 12C2.00098 6.486 6.48698 2 12.001 2C17.515 2 22.001 6.486 22.001 12C22.001 15.128 20.578 18.017 18.099 19.927C17.781 20.172 17.323 20.112 17.079 19.795C16.833 19.477 16.894 19.021 17.211 18.774C19.332 17.143 20.547 14.673 20.547 12C20.547 7.288 16.714 3.454 12.001 3.454C7.28898 3.454 3.45598 7.288 3.45598 12C3.45598 16.712 7.28898 20.546 12.001 20.546C12.438 20.546 12.875 20.513 13.3 20.448C13.696 20.388 14.067 20.66 14.128 21.057C14.194 21.456 13.917 21.825 13.52 21.886ZM12.0018 9.2058C12.2008 9.2058 12.3918 9.2848 12.5328 9.4268L16.0038 12.9128C16.2968 13.2068 16.2958 13.6818 16.0018 13.9738C15.7078 14.2658 15.2338 14.2658 14.9418 13.9718L12.0018 11.0188L9.06178 13.9718C8.76978 14.2658 8.29478 14.2658 8.00078 13.9738C7.70778 13.6818 7.70678 13.2068 7.99878 12.9128L11.4708 9.4268C11.6108 9.2848 11.8018 9.2058 12.0018 9.2058Z" fill="currentColor"/>
</svg>
