<svg width="24" height="24" viewBox="0 0 24 24" fill="none" xmlns="http://www.w3.org/2000/svg">
<path fill-rule="evenodd" clip-rule="evenodd" d="M21.232 14.988C21.654 14.988 21.997 15.331 21.997 15.753C22 19.608 19.608 22 15.756 22L8.253 22C4.392 22 2 19.608 2 15.756L2 8.256C2 4.393 4.392 2 8.253 2L15.753 2C19.59 2 22 4.393 22 8.253V10.822C22 11.239 21.661 11.578 21.244 11.578H21.235V11.561C20.813 11.561 20.471 11.219 20.47 10.797V10.795V8.253C20.47 5.2 18.8 3.53 15.756 3.53L8.256 3.53C5.21 3.53 3.53 5.21 3.53 8.253L3.53 15.753C3.53 18.787 5.21 20.467 8.253 20.467L15.753 20.467C18.796 20.467 20.467 18.787 20.467 15.753C20.467 15.331 20.81 14.988 21.232 14.988ZM16.0859 11.2501H9.7299L12.2069 8.7831C12.5009 8.4911 12.5019 8.0171 12.2089 7.7231C11.9169 7.4281 11.4419 7.4301 11.1489 7.7211L7.3849 11.4691C7.3839 11.4691 7.3839 11.4691 7.3839 11.4701C7.3149 11.5381 7.2599 11.6211 7.2219 11.7131C7.1839 11.8041 7.1639 11.9011 7.1639 11.9991V12.0001C7.1639 12.0071 7.16563 12.0129 7.16739 12.0188C7.16891 12.0239 7.17044 12.0291 7.1709 12.0351C7.1749 12.1201 7.1889 12.2051 7.2219 12.2861C7.2559 12.3681 7.3069 12.4401 7.3659 12.5061C7.36914 12.5093 7.37131 12.513 7.37349 12.5167C7.37603 12.521 7.3786 12.5253 7.3829 12.5291C7.4519 12.5991 7.5349 12.6541 7.6259 12.6921C7.7189 12.7301 7.8149 12.7501 7.9139 12.7501H16.0859C16.4999 12.7501 16.8359 12.4141 16.8359 12.0001C16.8359 11.5861 16.4999 11.2501 16.0859 11.2501ZM9.8642 15.0011L11.1482 16.2791C11.2952 16.4251 11.4862 16.4981 11.6772 16.4981C11.8702 16.4981 12.0622 16.4251 12.2102 16.2771C12.5022 15.9831 12.5012 15.5091 12.2072 15.2171L10.9232 13.9391C10.6292 13.6471 10.1552 13.6471 9.8622 13.9401C9.5702 14.2341 9.5712 14.7091 9.8642 15.0011Z" fill="currentColor"/>
</svg>
