<svg width="24" height="24" viewBox="0 0 24 24" fill="none" xmlns="http://www.w3.org/2000/svg">
<path fill-rule="evenodd" clip-rule="evenodd" d="M9.012 21.232C9.012 21.654 8.669 21.997 8.247 21.997C4.392 22 2 19.608 2 15.756V8.253C2 4.392 4.392 2 8.244 2H15.744C19.607 2 22 4.392 22 8.253V15.753C22 19.59 19.607 22 15.747 22H13.178C12.761 22 12.422 21.661 12.422 21.244V21.235H12.439C12.439 20.813 12.781 20.471 13.203 20.47H13.205H15.747C18.8 20.47 20.47 18.8 20.47 15.756V8.256C20.47 5.21 18.79 3.53 15.747 3.53H8.247C5.213 3.53 3.533 5.21 3.533 8.253V15.753C3.533 18.796 5.213 20.467 8.247 20.467C8.669 20.467 9.012 20.81 9.012 21.232ZM12.7499 16.0859L12.7499 9.7299L15.2169 12.2069C15.5089 12.5009 15.9829 12.5019 16.2769 12.2089C16.5719 11.9169 16.5699 11.4419 16.2789 11.1489L12.5309 7.3849C12.5309 7.3839 12.5309 7.3839 12.5299 7.3839C12.4619 7.3149 12.3789 7.2599 12.2869 7.2219C12.1959 7.1839 12.0989 7.1639 12.0009 7.1639H11.9999C11.9929 7.1639 11.9871 7.16563 11.9812 7.16739C11.9761 7.16891 11.9709 7.17044 11.9649 7.1709C11.8799 7.1749 11.7949 7.1889 11.7139 7.2219C11.6319 7.2559 11.5599 7.3069 11.4939 7.3659C11.4907 7.36914 11.487 7.37131 11.4833 7.37349C11.479 7.37603 11.4747 7.3786 11.4709 7.3829C11.4009 7.4519 11.3459 7.5349 11.3079 7.6259C11.2699 7.7189 11.2499 7.8149 11.2499 7.9139L11.2499 16.0859C11.2499 16.4999 11.5859 16.8359 11.9999 16.8359C12.4139 16.8359 12.7499 16.4999 12.7499 16.0859ZM8.9989 9.8642L7.7209 11.1482C7.5749 11.2952 7.5019 11.4862 7.5019 11.6772C7.5019 11.8702 7.5749 12.0622 7.7229 12.2102C8.0169 12.5022 8.4909 12.5012 8.7829 12.2072L10.0609 10.9232C10.3529 10.6292 10.3529 10.1552 10.0599 9.8622C9.7659 9.5702 9.2909 9.5712 8.9989 9.8642Z" fill="currentColor"/>
</svg>
