<svg width="24" height="24" viewBox="0 0 24 24" fill="none" xmlns="http://www.w3.org/2000/svg">
<path fill-rule="evenodd" clip-rule="evenodd" d="M21.887 10.481C21.963 10.979 22.001 11.49 22.001 12C22.001 17.514 17.515 22 12.001 22C6.48698 22 2.00098 17.514 2.00098 12C2.00098 6.486 6.48698 2 12.001 2C15.129 2 18.018 3.423 19.928 5.902C20.173 6.22 20.113 6.678 19.796 6.922C19.478 7.168 19.022 7.107 18.775 6.79C17.144 4.669 14.674 3.454 12.001 3.454C7.28898 3.454 3.45498 7.287 3.45498 12C3.45498 16.712 7.28898 20.545 12.001 20.545C16.713 20.545 20.547 16.712 20.547 12C20.547 11.563 20.514 11.126 20.449 10.701C20.389 10.305 20.661 9.934 21.058 9.873C21.457 9.807 21.826 10.084 21.887 10.481ZM9.20678 11.9992C9.20678 11.8002 9.28578 11.6092 9.42778 11.4682L12.9138 7.9972C13.2078 7.7042 13.6828 7.7052 13.9748 7.9992C14.2668 8.2932 14.2668 8.7672 13.9728 9.0592L11.0198 11.9992L13.9728 14.9392C14.2668 15.2312 14.2668 15.7062 13.9748 16.0002C13.6828 16.2932 13.2078 16.2942 12.9138 16.0022L9.42778 12.5302C9.28578 12.3902 9.20678 12.1992 9.20678 11.9992Z" fill="currentColor"/>
</svg>
