<svg width="24" height="24" viewBox="0 0 24 24" fill="none" xmlns="http://www.w3.org/2000/svg">
<path fill-rule="evenodd" clip-rule="evenodd" d="M10.482 2.114C10.98 2.038 11.491 2 12.001 2C17.515 2 22.001 6.486 22.001 12C22.001 17.514 17.515 22 12.001 22C6.48698 22 2.00098 17.514 2.00098 12C2.00098 8.872 3.42398 5.983 5.90298 4.073C6.22098 3.828 6.67898 3.888 6.92298 4.205C7.16898 4.523 7.10798 4.979 6.79098 5.226C4.66998 6.857 3.45498 9.327 3.45498 12C3.45498 16.712 7.28798 20.546 12.001 20.546C16.713 20.546 20.546 16.712 20.546 12C20.546 7.288 16.713 3.454 12.001 3.454C11.564 3.454 11.127 3.487 10.702 3.552C10.306 3.612 9.93498 3.34 9.87398 2.943C9.80798 2.544 10.085 2.175 10.482 2.114ZM12.0002 14.7942C11.8012 14.7942 11.6102 14.7152 11.4692 14.5732L7.99818 11.0872C7.70518 10.7932 7.70618 10.3182 8.00018 10.0262C8.29418 9.7342 8.76818 9.7342 9.06018 10.0282L12.0002 12.9812L14.9402 10.0282C15.2322 9.7342 15.7072 9.7342 16.0012 10.0262C16.2942 10.3182 16.2952 10.7932 16.0032 11.0872L12.5312 14.5732C12.3912 14.7152 12.2002 14.7942 12.0002 14.7942Z" fill="currentColor"/>
</svg>
