<svg width="24" height="24" viewBox="0 0 24 24" fill="none" xmlns="http://www.w3.org/2000/svg">
<path fill-rule="evenodd" clip-rule="evenodd" d="M14.988 2.768C14.988 2.346 15.331 2.003 15.753 2.003C19.608 2 22 4.392 22 8.244V15.747C22 19.608 19.608 22 15.756 22H8.256C4.393 22 2 19.608 2 15.747V8.247C2 4.41 4.393 2 8.253 2H10.822C11.239 2 11.578 2.339 11.578 2.756V2.765H11.561C11.561 3.187 11.219 3.529 10.797 3.53H10.795H8.253C5.2 3.53 3.53 5.2 3.53 8.244V15.744C3.53 18.79 5.21 20.47 8.253 20.47H15.753C18.787 20.47 20.467 18.79 20.467 15.747V8.247C20.467 5.204 18.787 3.533 15.753 3.533C15.331 3.533 14.988 3.19 14.988 2.768ZM11.2501 7.9141V14.2701L8.7831 11.7931C8.4911 11.4991 8.0171 11.4981 7.7231 11.7911C7.4281 12.0831 7.4301 12.5581 7.7211 12.8511L11.4691 16.6151C11.4691 16.6161 11.4691 16.6161 11.4701 16.6161C11.5381 16.6851 11.6211 16.7401 11.7131 16.7781C11.8041 16.8161 11.9011 16.8361 11.9991 16.8361H12.0001C12.0071 16.8361 12.0129 16.8344 12.0188 16.8326C12.0239 16.8311 12.0291 16.8296 12.0351 16.8291C12.1201 16.8251 12.2051 16.8111 12.2861 16.7781C12.3681 16.7441 12.4401 16.6931 12.5061 16.6341C12.5093 16.6309 12.513 16.6287 12.5167 16.6265C12.521 16.624 12.5253 16.6214 12.5291 16.6171C12.5991 16.5481 12.6541 16.4651 12.6921 16.3741C12.7301 16.2811 12.7501 16.1851 12.7501 16.0861V7.9141C12.7501 7.5001 12.4141 7.1641 12.0001 7.1641C11.5861 7.1641 11.2501 7.5001 11.2501 7.9141ZM15.0011 14.1358L16.2791 12.8518C16.4251 12.7048 16.4981 12.5138 16.4981 12.3228C16.4981 12.1298 16.4251 11.9378 16.2771 11.7898C15.9831 11.4978 15.5091 11.4988 15.2171 11.7928L13.9391 13.0768C13.6471 13.3708 13.6471 13.8448 13.9401 14.1378C14.2341 14.4298 14.7091 14.4288 15.0011 14.1358Z" fill="currentColor"/>
</svg>
