<svg width="24" height="24" viewBox="0 0 24 24" fill="none" xmlns="http://www.w3.org/2000/svg">
<path fill-rule="evenodd" clip-rule="evenodd" d="M21.7491 17.1857C21.7661 17.2147 21.7801 17.2457 21.7931 17.2767C21.9121 17.5697 21.9801 17.8787 21.9971 18.1947C22.0361 18.9497 21.7791 19.6737 21.2721 20.2357C20.7661 20.7977 20.0711 21.1287 19.3161 21.1667L8.55906 21.1677C8.14506 21.1677 7.80906 20.8317 7.80906 20.4177C7.80906 20.0037 8.14506 19.6677 8.55906 19.6677H19.2781C19.5941 19.6497 19.9201 19.4957 20.1591 19.2307C20.3971 18.9667 20.5171 18.6277 20.4991 18.2727C20.4921 18.1387 20.4651 18.0067 20.4181 17.8807L13.1691 5.19469C12.8101 4.54569 11.9991 4.31169 11.3571 4.66669C11.1381 4.78769 10.9591 4.96669 10.8381 5.18569L3.58306 17.8817C3.46606 18.1997 3.47406 18.5447 3.60606 18.8577C3.74406 19.1847 4.00106 19.4387 4.33006 19.5717C4.46906 19.6287 4.61306 19.6607 4.76206 19.6687C5.17506 19.6887 5.49406 20.0417 5.47306 20.4557C5.45306 20.8557 5.12106 21.1677 4.72406 21.1677C4.71106 21.1677 4.69906 21.1677 4.68606 21.1667C4.36806 21.1507 4.05806 21.0817 3.76406 20.9617C3.06606 20.6777 2.51906 20.1377 2.22506 19.4417C1.93006 18.7457 1.92506 17.9757 2.21006 17.2757C2.22206 17.2447 2.23606 17.2147 2.25306 17.1857L9.53006 4.45069C9.78206 3.99469 10.1651 3.61269 10.6301 3.35369C11.9971 2.59769 13.7221 3.09369 14.4771 4.45969L21.7491 17.1857ZM12.0011 13.598C12.4151 13.598 12.7511 13.262 12.7511 12.848V10.021C12.7511 9.60699 12.4151 9.27099 12.0011 9.27099C11.5871 9.27099 11.2511 9.60699 11.2511 10.021V12.848C11.2511 13.262 11.5871 13.598 12.0011 13.598ZM12.0011 17.0189C12.4151 17.0189 12.7511 16.6829 12.7511 16.2689V16.2589C12.7511 15.8449 12.4151 15.5139 12.0011 15.5139C11.5871 15.5139 11.2511 15.8549 11.2511 16.2689C11.2511 16.6829 11.5871 17.0189 12.0011 17.0189Z" fill="currentColor"/>
</svg>
