<svg width="24" height="24" viewBox="0 0 24 24" fill="none" xmlns="http://www.w3.org/2000/svg">
<path fill-rule="evenodd" clip-rule="evenodd" d="M15.747 2H8.254C4.41 2 2 4.393 2 8.253V10.575C1.999 10.997 2.341 11.34 2.763 11.34H2.765H2.774C3.191 11.34 3.53 11.002 3.53 10.584V10.566V8.253C3.53 5.21 5.21 3.53 8.253 3.53H15.747C18.8 3.53 20.47 5.21 20.47 8.253V15.753C20.47 18.796 18.79 20.467 15.747 20.467H8.254C5.202 20.467 3.531 18.787 3.531 15.753C3.531 15.331 3.188 14.988 2.766 14.988C2.343 14.988 2.001 15.331 2.001 15.753C2 19.608 4.392 22 8.244 22H15.747C19.608 22 22 19.608 22 15.756V8.256C22 4.393 19.608 2 15.747 2ZM11.9945 16.5459C11.5805 16.5459 11.2445 16.2099 11.2445 15.7959V11.3759C11.2445 10.9619 11.5805 10.6259 11.9945 10.6259C12.4085 10.6259 12.7445 10.9619 12.7445 11.3759V15.7959C12.7445 16.2099 12.4085 16.5459 11.9945 16.5459ZM11.9948 8.9541H12.0048C12.4188 8.9541 12.7548 8.6181 12.7548 8.2041C12.7548 7.7901 12.4188 7.4541 12.0048 7.4541C11.5908 7.4541 11.2498 7.7901 11.2498 8.2041C11.2498 8.6181 11.5808 8.9541 11.9948 8.9541Z" fill="currentColor"/>
</svg>
