<svg width="24" height="24" viewBox="0 0 24 24" fill="none" xmlns="http://www.w3.org/2000/svg">
<path fill-rule="evenodd" clip-rule="evenodd" d="M2 12C2 6.485 6.486 2 12 2C17.514 2 22 6.485 22 12C22 17.514 17.514 22 12 22C8.872 22 5.983 20.577 4.073 18.098C3.828 17.779 3.887 17.322 4.205 17.078C4.523 16.832 4.979 16.893 5.225 17.21C6.857 19.33 9.327 20.546 12 20.546C16.712 20.546 20.545 16.713 20.545 12C20.545 7.288 16.712 3.454 12 3.454C7.288 3.454 3.454 7.288 3.454 12C3.454 12.438 3.487 12.873 3.552 13.299C3.612 13.695 3.339 14.066 2.943 14.127C2.544 14.193 2.175 13.916 2.114 13.519C2.038 13.021 2 12.51 2 12ZM7.5202 10.804C8.1812 10.804 8.7182 11.341 8.7182 12C8.7182 12.66 8.1812 13.197 7.5202 13.197C6.8602 13.197 6.3222 12.66 6.3222 12C6.3222 11.341 6.8602 10.804 7.5202 10.804ZM11.9997 10.804C12.6597 10.804 13.1977 11.341 13.1977 12C13.1977 12.66 12.6597 13.197 11.9997 13.197C11.3387 13.197 10.8017 12.66 10.8017 12C10.8017 11.341 11.3387 10.804 11.9997 10.804ZM17.6767 12C17.6767 11.341 17.1397 10.804 16.4787 10.804C15.8187 10.804 15.2807 11.341 15.2807 12C15.2807 12.66 15.8187 13.197 16.4787 13.197C17.1397 13.197 17.6767 12.66 17.6767 12Z" fill="currentColor"/>
</svg>
