<svg width="24" height="24" viewBox="0 0 24 24" fill="none" xmlns="http://www.w3.org/2000/svg">
<path fill-rule="evenodd" clip-rule="evenodd" d="M7.665 2H16.334C19.723 2 22 4.378 22 7.916V16.084C22 19.622 19.722 22 16.333 22H10.953C10.539 22 10.203 21.664 10.203 21.25C10.203 20.836 10.539 20.5 10.953 20.5H16.333C18.864 20.5 20.5 18.767 20.5 16.084V7.916C20.5 5.233 18.864 3.5 16.334 3.5H7.665C5.135 3.5 3.5 5.233 3.5 7.916V16.084C3.5 18.767 5.135 20.5 7.665 20.5C8.079 20.5 8.415 20.836 8.415 21.25C8.415 21.664 8.079 22 7.665 22C4.276 22 2 19.622 2 16.084V7.916C2 4.378 4.276 2 7.665 2ZM6.467 10.9326C6.637 10.5546 7.079 10.3856 7.459 10.5566C7.837 10.7256 8.005 11.1696 7.835 11.5476C7.771 11.6906 7.739 11.8426 7.739 11.9996C7.739 12.6076 8.233 13.1016 8.84 13.1016C9.448 13.1016 9.942 12.6076 9.942 11.9996C9.942 11.3926 9.448 10.8986 8.84 10.8986C8.426 10.8986 8.09 10.5626 8.09 10.1486C8.09 9.7346 8.426 9.3986 8.84 9.3986C10.013 9.3986 10.994 10.1826 11.318 11.2496H17.01C17.424 11.2496 17.76 11.5856 17.76 11.9996V13.8516C17.76 14.2656 17.424 14.6016 17.01 14.6016C16.596 14.6016 16.26 14.2656 16.26 13.8516V12.7496H14.931V13.8516C14.931 14.2656 14.595 14.6016 14.181 14.6016C13.767 14.6016 13.431 14.2656 13.431 13.8516V12.7496H11.318C10.994 13.8176 10.013 14.6016 8.84 14.6016C7.406 14.6016 6.239 13.4346 6.239 11.9996C6.239 11.6286 6.315 11.2706 6.467 10.9326Z" fill="currentColor"/>
</svg>
