<svg width="24" height="24" viewBox="0 0 24 24" fill="none" xmlns="http://www.w3.org/2000/svg">
<path fill-rule="evenodd" clip-rule="evenodd" d="M2 12C2 6.485 6.486 2 12 2C17.514 2 22 6.485 22 12C22 17.514 17.514 22 12 22C10.605 22 9.255 21.719 7.987 21.162C7.621 21.002 7.455 20.575 7.615 20.209C7.775 19.841 8.201 19.676 8.569 19.837C9.652 20.312 10.806 20.553 12 20.553C16.715 20.553 20.552 16.715 20.552 12C20.552 7.284 16.715 3.448 12 3.448C7.284 3.448 3.448 7.284 3.448 12C3.448 13.847 4.026 15.604 5.122 17.084C5.359 17.405 5.292 17.858 4.971 18.096C4.649 18.335 4.196 18.269 3.958 17.945C2.677 16.216 2 14.16 2 12ZM10.8198 15.9694H10.8558C11.1488 15.9624 11.7548 15.7104 11.7608 15.7074C12.7788 15.2784 14.7938 13.9544 15.6078 13.0784L15.6568 13.0264C15.7568 12.9204 15.9058 12.7554 15.9408 12.7084C16.0908 12.5014 16.1708 12.2554 16.1708 12.0004C16.1708 11.7314 16.0798 11.4664 15.9128 11.2534C15.8858 11.2194 15.7698 11.0934 15.6758 10.9944L15.5968 10.9094C14.8048 10.0644 12.7428 8.6734 11.6598 8.2534C11.4948 8.1884 11.0868 8.0364 10.8638 8.0304C10.6518 8.0274 10.4468 8.0724 10.2508 8.1754C10.0078 8.3074 9.81585 8.5194 9.71385 8.7664C9.63885 8.9424 9.53885 9.4654 9.53785 9.4734C9.43285 10.0524 9.37285 10.9734 9.37485 11.9994C9.37285 12.9694 9.42685 13.8584 9.52185 14.4364C9.52285 14.4424 9.63585 15.0894 9.75385 15.3184C9.95985 15.7164 10.3778 15.9694 10.8198 15.9694ZM10.9618 9.7334C10.9698 9.6874 10.9838 9.6194 10.9988 9.5504C11.0528 9.5704 11.1008 9.5884 11.1318 9.6004C11.9988 9.9374 13.9098 11.2254 14.5368 11.8964L14.6208 11.9854C14.6227 11.9873 14.6245 11.9892 14.6262 11.991C14.6267 11.9917 14.6273 11.9923 14.6279 11.9929C14.629 11.9942 14.6302 11.9955 14.6314 11.9968C14.6325 11.998 14.6336 11.9992 14.6348 12.0004C14.6238 12.0104 14.6138 12.0214 14.6048 12.0314C14.6038 12.0334 14.5518 12.0924 14.5468 12.0914C13.9398 12.7474 12.1258 13.9824 11.1998 14.3724C11.176 14.3821 11.1453 14.394 11.1117 14.407L11.1116 14.407C11.0763 14.4207 11.0378 14.4355 11.0008 14.4504C10.9798 14.3584 10.9608 14.2634 10.9508 14.2014C10.8688 13.7064 10.8208 12.8824 10.8218 11.9994C10.8208 11.0834 10.8748 10.2144 10.9618 9.7334Z" fill="currentColor"/>
</svg>
