<svg width="24" height="24" viewBox="0 0 24 24" fill="none" xmlns="http://www.w3.org/2000/svg">
<path fill-rule="evenodd" clip-rule="evenodd" d="M2 12C2 6.485 6.486 2 12 2C17.514 2 22 6.485 22 12C22 17.514 17.514 22 12 22C8.873 22 5.983 20.577 4.073 18.098C3.828 17.779 3.888 17.322 4.206 17.078C4.524 16.832 4.979 16.893 5.225 17.21C6.858 19.33 9.327 20.546 12 20.546C16.712 20.546 20.546 16.713 20.546 12C20.546 7.288 16.712 3.454 12 3.454C7.288 3.454 3.455 7.288 3.455 12C3.455 12.438 3.487 12.873 3.552 13.299C3.612 13.695 3.34 14.066 2.943 14.127C2.544 14.193 2.175 13.916 2.115 13.519C2.039 13.021 2 12.51 2 12ZM10.9341 7.8374C10.9341 7.4354 11.2601 7.1094 11.6611 7.1094C12.0621 7.1094 12.3881 7.4354 12.3881 7.8374V12.2834L15.8121 14.3254C16.1571 14.5314 16.2701 14.9774 16.0641 15.3224C15.9291 15.5494 15.6871 15.6764 15.4401 15.6764C15.3131 15.6764 15.1841 15.6434 15.0681 15.5744L11.2881 13.3204C11.0691 13.1884 10.9341 12.9514 10.9341 12.6954V7.8374Z" fill="currentColor"/>
</svg>
