<svg width="24" height="24" viewBox="0 0 24 24" fill="none" xmlns="http://www.w3.org/2000/svg">
<path fill-rule="evenodd" clip-rule="evenodd" d="M2.774 11.34C3.192 11.34 3.53 11.002 3.53 10.584V10.566V8.253C3.53 5.21 5.21 3.53 8.253 3.53H15.747C18.8 3.53 20.47 5.21 20.47 8.253V15.753C20.47 18.796 18.79 20.467 15.747 20.467H8.254C5.202 20.467 3.531 18.787 3.531 15.753C3.531 15.331 3.189 14.988 2.766 14.988C2.343 14.988 2.001 15.331 2.001 15.753C2 19.608 4.392 22 8.244 22H15.747C19.608 22 22 19.608 22 15.756V8.256C22 4.393 19.608 2 15.747 2H8.254C4.41 2 2 4.393 2 8.253V10.575C1.999 10.997 2.341 11.34 2.763 11.34H2.765H2.774ZM11.2502 7.6338C11.2502 7.2198 11.5862 6.8838 12.0002 6.8838C12.4142 6.8838 12.7502 7.2198 12.7502 7.6338V11.5688L15.7762 13.3728C16.1312 13.5858 16.2482 14.0458 16.0362 14.4018C15.8962 14.6368 15.6462 14.7678 15.3912 14.7678C15.2602 14.7678 15.1282 14.7338 15.0072 14.6618L11.6162 12.6388C11.3892 12.5028 11.2502 12.2578 11.2502 11.9938V7.6338Z" fill="currentColor"/>
</svg>
