<svg width="25" height="25" viewBox="0 0 25 25" fill="none" xmlns="http://www.w3.org/2000/svg">
<path opacity="0.4" fill-rule="evenodd" clip-rule="evenodd" d="M15.2048 4.93473C15.2048 4.73473 15.2148 4.53473 15.2448 4.34473H2.46484V22.5547H20.6748V9.21473C20.3448 9.30473 19.9848 9.34473 19.6248 9.34473C17.1848 9.34473 15.2048 7.36473 15.2048 4.93473Z" fill="currentColor"/>
<path d="M10.0855 13.1947L13.2855 15.7047L16.9555 10.9747L15.7655 10.0547L13.0255 13.5947L9.82547 11.0747L6.10547 15.9147L7.28547 16.8347L10.0855 13.1947Z" fill="currentColor"/>
<path fill-rule="evenodd" clip-rule="evenodd" d="M19.6251 2.51465C18.4951 2.51465 17.5451 3.29465 17.2851 4.34465C17.2351 4.53465 17.2051 4.73465 17.2051 4.93465C17.2051 6.26465 18.2951 7.34465 19.6251 7.34465C19.9951 7.34465 20.3551 7.25465 20.6751 7.10465C21.4751 6.71465 22.0351 5.88465 22.0351 4.93465C22.0351 3.59465 20.9551 2.51465 19.6251 2.51465Z" fill="currentColor"/>
</svg>
