<svg width="25" height="24" viewBox="0 0 25 24" fill="none" xmlns="http://www.w3.org/2000/svg">
<path opacity="0.4" fill-rule="evenodd" clip-rule="evenodd" d="M21.25 11L3.25024 11L3.25024 13L21.25 13L21.25 11Z" fill="currentColor"/>
<path fill-rule="evenodd" clip-rule="evenodd" d="M20.2499 13C16.579 13 13.5898 9.78058 13.5898 6.33995L13.5898 5.33995L15.5898 5.33995L15.5898 6.33995C15.5898 8.71881 17.7259 11 20.2499 11L21.2499 11L21.2499 13L20.2499 13Z" fill="currentColor"/>
<path fill-rule="evenodd" clip-rule="evenodd" d="M20.2499 11C16.579 11 13.5898 14.2194 13.5898 17.66L13.5898 18.66L15.5898 18.66L15.5898 17.66C15.5898 15.2812 17.7259 13 20.2499 13L21.2499 13L21.2499 11L20.2499 11Z" fill="currentColor"/>
</svg>
