<svg width="25" height="24" viewBox="0 0 25 24" fill="none" xmlns="http://www.w3.org/2000/svg">
<path opacity="0.4" fill-rule="evenodd" clip-rule="evenodd" d="M3.25 11L21.2498 11L21.2498 13L3.25 13L3.25 11Z" fill="currentColor"/>
<path fill-rule="evenodd" clip-rule="evenodd" d="M4.25011 13C7.92102 13 10.9102 9.78058 10.9102 6.33995L10.9102 5.33995L8.91016 5.33995L8.91016 6.33995C8.91016 8.71881 6.77413 11 4.25011 11L3.25011 11L3.25011 13L4.25011 13Z" fill="currentColor"/>
<path fill-rule="evenodd" clip-rule="evenodd" d="M4.25011 11C7.92102 11 10.9102 14.2194 10.9102 17.66L10.9102 18.66L8.91016 18.66L8.91016 17.66C8.91016 15.2812 6.77413 13 4.25011 13L3.25011 13L3.25011 11L4.25011 11Z" fill="currentColor"/>
</svg>
