<svg width="25" height="25" viewBox="0 0 25 25" fill="none" xmlns="http://www.w3.org/2000/svg">
<path opacity="0.4" fill-rule="evenodd" clip-rule="evenodd" d="M13.8515 16.2339C13.3315 16.0539 11.8365 15.4499 10.4695 14.0839C9.18645 12.8009 8.65145 11.3829 8.49445 10.8889L10.1935 7.93791L6.49545 2.85791L6.10445 3.08791C4.52245 4.01591 3.36245 5.17591 2.45345 6.73891L2.39445 6.89891C1.88045 9.64291 3.45145 13.6869 6.30045 16.9629C9.39045 20.5159 13.4025 22.5179 17.3845 22.5179C17.5645 22.5179 17.7455 22.5139 17.9245 22.5059L18.0435 22.5009L18.1465 22.4419C19.7485 21.5449 20.9135 20.3809 21.8095 18.7789L22.0245 18.3939L16.7965 14.5389L13.8515 16.2339Z" fill="currentColor"/>
<path fill-rule="evenodd" clip-rule="evenodd" d="M20.6275 10.6344L20.7105 11.3804L22.2015 11.2124L22.1175 10.4674C21.6605 6.39043 18.4935 3.22643 14.4155 2.77343L13.6695 2.69043L13.5045 4.18143L14.2495 4.26443C17.6265 4.63943 20.2485 7.25943 20.6275 10.6344Z" fill="currentColor"/>
<path fill-rule="evenodd" clip-rule="evenodd" d="M17.0961 10.7047L17.2401 11.4407L18.7121 11.1547L18.5691 10.4187C18.1631 8.33674 16.5571 6.72974 14.4761 6.32574L13.7401 6.18274L13.4531 7.65474L14.1891 7.79774C15.6671 8.08474 16.8081 9.22574 17.0961 10.7047Z" fill="currentColor"/>
</svg>
