<svg width="25" height="25" viewBox="0 0 25 25" fill="none" xmlns="http://www.w3.org/2000/svg">
<path opacity="0.4" fill-rule="evenodd" clip-rule="evenodd" d="M19.155 5.25809C17.32 3.42309 14.879 2.41309 12.279 2.41309C9.68 2.41309 7.237 3.42409 5.402 5.25909C3.562 7.09909 2.55 9.54309 2.552 12.1441C2.555 15.4951 2.504 21.3381 2.504 21.3381L2.5 21.8471L3.008 21.8431C3.066 21.8421 8.817 21.7911 12.068 21.8621C12.142 21.8631 12.215 21.8641 12.289 21.8641C14.882 21.8641 17.313 20.8571 19.155 19.0151C22.947 15.2221 22.947 9.05109 19.155 5.25809Z" fill="currentColor"/>
<path d="M16.7867 13.27H15.1887V11.77H16.7867V13.27Z" fill="currentColor"/>
<path d="M13.0527 13.27H11.4537V11.77H13.0527V13.27Z" fill="currentColor"/>
<path d="M9.31873 13.27H7.71973V11.77H9.31873V13.27Z" fill="currentColor"/>
</svg>
