<svg width="25" height="24" viewBox="0 0 25 24" fill="none" xmlns="http://www.w3.org/2000/svg">
<path fill-rule="evenodd" clip-rule="evenodd" d="M11.2237 5.2417H10.7237C9.08571 5.2417 7.49971 5.7227 6.13771 6.6327C4.77571 7.5427 3.72471 8.8237 3.09771 10.3367C2.47071 11.8497 2.30871 13.4997 2.62871 15.1057C2.94771 16.7137 3.72871 18.1747 4.88771 19.3317C6.04471 20.4897 7.50571 21.2707 9.11271 21.5907C9.64871 21.6977 10.1887 21.7507 10.7277 21.7507C11.8037 21.7507 12.8727 21.5387 13.8817 21.1207C15.3947 20.4937 16.6767 19.4437 17.5857 18.0817C18.4957 16.7197 18.9767 15.1347 18.9767 13.4957V12.9957H11.2237V5.2417Z" fill="currentColor"/>
<path opacity="0.4" fill-rule="evenodd" clip-rule="evenodd" d="M19.6143 4.667C18.0563 3.108 15.9833 2.25 13.7783 2.25H13.2783V11.003H22.0323V10.503C22.0323 8.299 21.1733 6.227 19.6143 4.667Z" fill="currentColor"/>
</svg>
