<svg width="25" height="25" viewBox="0 0 25 25" fill="none" xmlns="http://www.w3.org/2000/svg">
<path opacity="0.4" fill-rule="evenodd" clip-rule="evenodd" d="M18.88 10.4907L22.4054 14.016L20.9911 15.4303L17.4658 11.9049L18.88 10.4907Z" fill="currentColor"/>
<path opacity="0.4" fill-rule="evenodd" clip-rule="evenodd" d="M5.62094 10.4907L2.09562 14.016L3.50984 15.4303L7.03516 11.9049L5.62094 10.4907Z" fill="currentColor"/>
<path opacity="0.4" fill-rule="evenodd" clip-rule="evenodd" d="M15.3035 13.0737L16.7056 17.904L14.7848 18.4615L13.3828 13.6312L15.3035 13.0737Z" fill="currentColor"/>
<path opacity="0.4" fill-rule="evenodd" clip-rule="evenodd" d="M9.19646 13.0737L7.79445 17.904L9.71517 18.4615L11.1172 13.6312L9.19646 13.0737Z" fill="currentColor"/>
<path fill-rule="evenodd" clip-rule="evenodd" d="M22.404 8.50859C20.27 12.9996 16.475 15.6816 12.253 15.6836H12.249C8.02597 15.6816 4.23097 12.9996 2.09697 8.50859L1.66797 7.60559L3.47497 6.74659L3.90397 7.65059C5.69797 11.4276 8.81797 13.6826 12.251 13.6836C15.683 13.6826 18.803 11.4276 20.597 7.65059L21.027 6.74659L22.833 7.60559L22.404 8.50859Z" fill="currentColor"/>
</svg>
