<svg width="25" height="25" viewBox="0 0 25 25" fill="none" xmlns="http://www.w3.org/2000/svg">
<path opacity="0.4" d="M18.9402 9.03863V13.4086L20.5502 15.0486V18.4561H3.9502V15.0486L5.5602 13.4086V9.03863C5.5602 5.34863 8.5602 2.34863 12.2502 2.34863C12.9402 2.34863 13.6002 2.44863 14.2202 2.64863C13.8502 3.24863 13.6502 3.94863 13.6502 4.69863C13.6502 6.92863 15.4602 8.72863 17.6802 8.72863C18.1102 8.72863 18.5302 8.65863 18.9202 8.53863C18.9302 8.69863 18.9402 8.86863 18.9402 9.03863Z" fill="currentColor"/>
<path d="M18.6394 7.03857C18.3394 7.15869 18.0195 7.22852 17.6794 7.22852C16.2893 7.22852 15.1494 6.09863 15.1494 4.69873C15.1494 4.15869 15.3193 3.66895 15.5994 3.25879C16.0593 2.60889 16.8193 2.17871 17.6794 2.17871C19.0793 2.17871 20.2095 3.30859 20.2095 4.69873C20.2095 5.75879 19.5593 6.65869 18.6394 7.03857Z" fill="currentColor"/>
<path d="M16.1394 18.4585H14.6394C14.4995 19.6587 13.4895 20.5986 12.2495 20.5986C11.0095 20.5986 9.99951 19.6587 9.85938 18.4585H8.35938C8.50952 20.4888 10.1794 22.0986 12.2495 22.0986C14.3196 22.0986 15.9995 20.4888 16.1394 18.4585Z" fill="currentColor"/>
</svg>
