<svg width="25" height="24" viewBox="0 0 25 24" fill="none" xmlns="http://www.w3.org/2000/svg">
<path opacity="0.4" fill-rule="evenodd" clip-rule="evenodd" d="M2.5 21.75H22V2.25H2.5V21.75Z" fill="currentColor"/>
<path fill-rule="evenodd" clip-rule="evenodd" d="M18.0103 14.6019H16.5103V12.7499H15.1823V14.6019H13.6823V12.7499H11.5663C11.2423 13.8179 10.2593 14.6019 9.08733 14.6019C7.65333 14.6019 6.48633 13.4349 6.48633 11.9999C6.48633 10.5659 7.65333 9.39795 9.08733 9.39795C10.2603 9.39995 11.2423 10.1829 11.5663 11.2499H18.0103V14.6019ZM7.98544 12.0002C7.98544 11.3922 8.48044 10.8982 9.08944 10.8982C9.69644 10.8982 10.1904 11.3932 10.1904 12.0002C10.1904 12.6082 9.69544 13.1023 9.08744 13.1023C8.48044 13.1023 7.98544 12.6082 7.98544 12.0002Z" fill="currentColor"/>
</svg>
