<svg width="25" height="24" viewBox="0 0 25 24" fill="none" xmlns="http://www.w3.org/2000/svg">
<path fill-rule="evenodd" clip-rule="evenodd" d="M11.0405 3.54297C7.15321 3.54297 4.00195 6.69423 4.00195 10.5815C4.00195 14.4688 7.15321 17.62 11.0405 17.62C14.9278 17.62 18.079 14.4688 18.079 10.5815C18.079 6.69423 14.9278 3.54297 11.0405 3.54297ZM2.00195 10.5815C2.00195 5.58966 6.04864 1.54297 11.0405 1.54297C16.0323 1.54297 20.079 5.58966 20.079 10.5815C20.079 15.5734 16.0323 19.62 11.0405 19.62C6.04864 19.62 2.00195 15.5734 2.00195 10.5815Z" fill="currentColor"/>
<path opacity="0.4" fill-rule="evenodd" clip-rule="evenodd" d="M16.5276 15.0874L22.4971 21.0414L21.0848 22.4575L15.1152 16.5035L16.5276 15.0874Z" fill="currentColor"/>
</svg>
