<svg width="25" height="24" viewBox="0 0 25 24" fill="none" xmlns="http://www.w3.org/2000/svg">
<path opacity="0.4" fill-rule="evenodd" clip-rule="evenodd" d="M21.9682 9.12695L19.1682 8.00695L19.5982 5.01995L14.6222 2.14795L12.2512 4.01395L9.87923 2.14795L4.90323 5.01995L5.33323 8.00695L2.53223 9.12695V14.8729L5.33423 15.9939L4.90423 18.9789L9.88023 21.8519L12.2512 19.9869L14.6212 21.8519L19.5972 18.9789L19.1672 15.9929L21.9682 14.8729V9.12695Z" fill="currentColor"/>
<path d="M8.3125 12C8.3125 14.171 10.0785 15.937 12.2495 15.937C14.4205 15.937 16.1875 14.171 16.1875 12C16.1875 9.82901 14.4205 8.06201 12.2495 8.06201C10.0785 8.06201 8.3125 9.82901 8.3125 12Z" fill="currentColor"/>
</svg>
