<svg width="25" height="25" viewBox="0 0 25 25" fill="none" xmlns="http://www.w3.org/2000/svg">
<path opacity="0.4" fill-rule="evenodd" clip-rule="evenodd" d="M22.404 13.8962C20.27 9.40519 16.475 6.72319 12.253 6.72119H12.249C8.02597 6.72319 4.23097 9.40519 2.09697 13.8962L1.66797 14.7992L3.47497 15.6582L3.90397 14.7542C5.69797 10.9772 8.81797 8.72219 12.251 8.72119C15.683 8.72219 18.803 10.9772 20.597 14.7542L21.027 15.6582L22.833 14.7992L22.404 13.8962Z" fill="currentColor"/>
<path fill-rule="evenodd" clip-rule="evenodd" d="M12.2489 10.6641C10.2299 10.6641 8.58789 12.3071 8.58789 14.3261C8.58789 16.3451 10.2299 17.9871 12.2489 17.9871C14.2679 17.9871 15.9109 16.3451 15.9109 14.3261C15.9109 12.3071 14.2679 10.6641 12.2489 10.6641Z" fill="currentColor"/>
</svg>
