<svg width="25" height="24" viewBox="0 0 25 24" fill="none" xmlns="http://www.w3.org/2000/svg">
<path fill-rule="evenodd" clip-rule="evenodd" d="M12.19 9.44561H13.19V7.44561H12.19C10.311 7.44561 8.599 5.73161 8.599 3.84961V2.84961H6.599V3.84961C6.599 5.73161 4.883 7.44561 3 7.44561H2V9.44561H3C4.343 9.44561 5.61 8.91161 6.599 8.05661V18.7896H8.599V8.05961C9.586 8.91361 10.85 9.44561 12.19 9.44561Z" fill="currentColor"/>
<path opacity="0.4" fill-rule="evenodd" clip-rule="evenodd" d="M21.5005 14.555C20.1565 14.555 18.8905 15.089 17.9005 15.944V5.20996H15.9005V15.941C14.9135 15.087 13.6505 14.555 12.3105 14.555H11.3105V16.555H12.3105C14.1885 16.555 15.9005 18.269 15.9005 20.151V21.151H17.9005V20.151C17.9005 18.269 19.6165 16.555 21.5005 16.555H22.5005V14.555H21.5005Z" fill="currentColor"/>
</svg>
