<svg width="25" height="25" viewBox="0 0 25 25" fill="none" xmlns="http://www.w3.org/2000/svg">
<path opacity="0.4" fill-rule="evenodd" clip-rule="evenodd" d="M11.7373 2.78467C6.3613 2.78467 1.9873 7.15867 1.9873 12.5347C1.9873 17.9107 6.3613 22.2847 11.7373 22.2847C17.1133 22.2847 21.4873 17.9107 21.4873 12.5347C21.4873 7.15867 17.1133 2.78467 11.7373 2.78467Z" fill="currentColor"/>
<path fill-rule="evenodd" clip-rule="evenodd" d="M22.5137 6.35971L21.8666 6.7388C18.8844 8.48571 16.579 10.7875 15.015 12.6635C14.2346 13.5996 13.643 14.4246 13.248 15.0131C13.0505 15.3071 12.9025 15.5418 12.8047 15.7011C12.7559 15.7808 12.7196 15.8417 12.6961 15.8817L12.6704 15.9258L12.6647 15.9357L12.6638 15.9373L12.4485 16.3183H11.5764L11.3543 15.9825L11.3518 15.9788L11.3408 15.9624C11.3305 15.9473 11.3145 15.9239 11.293 15.893C11.25 15.8313 11.185 15.7397 11.1001 15.625C10.9301 15.3952 10.6813 15.0739 10.3701 14.713C9.74127 13.9841 8.88454 13.1257 7.92886 12.5215L7.29492 12.1207L8.09648 10.8528L8.73042 11.2536C9.86377 11.9701 10.832 12.9521 11.5059 13.7333C11.6684 13.9217 11.8153 14.1002 11.945 14.2631C11.9638 14.2349 11.9829 14.2062 12.0025 14.177C12.4218 13.5525 13.0442 12.685 13.8629 11.703C15.497 9.74289 17.93 7.3064 21.1084 5.44452L21.7555 5.06543L22.5137 6.35971Z" fill="currentColor"/>
</svg>
