<svg width="25" height="24" viewBox="0 0 25 24" fill="none" xmlns="http://www.w3.org/2000/svg">
<path fill-rule="evenodd" clip-rule="evenodd" d="M16.2905 11.2483C16.8025 11.5333 17.3815 11.6943 18.0075 11.6943C19.9705 11.6943 21.5635 10.1003 21.5635 8.13732C21.5635 6.18432 19.9705 4.59032 18.0075 4.59032C17.6185 4.59032 17.2485 4.65732 16.8975 4.77032C17.4095 5.59632 17.7035 6.57232 17.7035 7.60632C17.7035 9.01032 17.1815 10.2813 16.2905 11.2483Z" fill="currentColor"/>
<path fill-rule="evenodd" clip-rule="evenodd" d="M6.49352 11.694C7.11952 11.694 7.69752 11.533 8.21052 11.248C7.31852 10.281 6.79652 9.01001 6.79652 7.60601C6.79652 6.57301 7.09052 5.59601 7.60352 4.77101C7.25252 4.65701 6.88252 4.59001 6.49352 4.59001C4.53052 4.59001 2.93652 6.18401 2.93652 8.13701C2.93652 10.101 4.53052 11.694 6.49352 11.694Z" fill="currentColor"/>
<path fill-rule="evenodd" clip-rule="evenodd" d="M12.2502 12.1185C14.7362 12.1185 16.7582 10.0965 16.7582 7.61052C16.7582 5.12552 14.7362 3.10352 12.2502 3.10352C9.76425 3.10352 7.74225 5.12552 7.74225 7.61052C7.74225 10.0965 9.76425 12.1185 12.2502 12.1185Z" fill="currentColor"/>
<g opacity="0.4">
<path fill-rule="evenodd" clip-rule="evenodd" d="M23.3461 16.569C22.6161 14.283 20.6811 12.975 18.0261 12.975H18.0071C16.9251 12.965 15.9581 13.183 15.1421 13.6C17.4191 14.331 19.1071 15.953 19.8841 18.248C21.1171 18.077 22.1891 17.698 23.1371 17.119L23.4501 16.92L23.3461 16.569Z" fill="currentColor"/>
<path fill-rule="evenodd" clip-rule="evenodd" d="M9.30983 13.5816C8.51283 13.1836 7.57383 12.9746 6.51183 12.9746H6.47383C3.81883 12.9746 1.88383 14.2836 1.16283 16.5686L1.04883 16.9196L1.36183 17.1186C2.26283 17.6696 3.32583 18.0386 4.51083 18.2286C5.29783 15.9246 7.01483 14.2926 9.30983 13.5816Z" fill="currentColor"/>
<path fill-rule="evenodd" clip-rule="evenodd" d="M12.2155 14.1035C12.1995 14.1035 12.1845 14.1035 12.1695 14.1035C8.75552 14.1035 6.26652 15.7815 5.34052 18.7105L5.22852 19.0645L5.54552 19.2585C7.35352 20.3605 9.51352 20.8965 12.1485 20.8965H12.2335C14.8705 20.8965 17.0315 20.3605 18.8395 19.2585L19.1575 19.0645L19.0455 18.7105C18.1185 15.7815 15.6305 14.1035 12.2155 14.1035Z" fill="currentColor"/>
</g>
</svg>
