<svg width="25" height="24" viewBox="0 0 25 24" fill="none" xmlns="http://www.w3.org/2000/svg">
<path fill-rule="evenodd" clip-rule="evenodd" d="M14.2044 10.9901C14.8144 11.4201 15.5644 11.6801 16.3644 11.6801C18.4244 11.6801 20.1044 10.0001 20.1044 7.93012C20.1044 5.87012 18.4244 4.19012 16.3644 4.19012C15.7844 4.19012 15.2444 4.32012 14.7544 4.56012C15.2244 5.39012 15.4944 6.35012 15.4944 7.37012C15.4944 8.74012 15.0144 10.0001 14.2044 10.9901Z" fill="currentColor"/>
<path fill-rule="evenodd" clip-rule="evenodd" d="M9.73438 12.1301C11.2544 12.1301 12.6044 11.4101 13.4744 10.3001C14.1144 9.50012 14.4944 8.48012 14.4944 7.37012C14.4944 6.55012 14.2844 5.78012 13.9244 5.11012C13.1144 3.63012 11.5444 2.62012 9.73438 2.62012C7.11438 2.62012 4.98438 4.75012 4.98438 7.37012C4.98438 9.99012 7.11438 12.1301 9.73438 12.1301Z" fill="currentColor"/>
<g opacity="0.4">
<path fill-rule="evenodd" clip-rule="evenodd" d="M21.9845 16.8203C21.2245 14.4103 19.1845 13.0303 16.3845 13.0303H16.3445C15.1145 13.0303 14.0445 13.3003 13.1445 13.7903C15.4045 14.6103 17.0845 16.3003 17.8645 18.6503C19.3545 18.4903 20.6645 18.0703 21.7645 17.4003L22.1045 17.1903L21.9845 16.8203Z" fill="currentColor"/>
<path fill-rule="evenodd" clip-rule="evenodd" d="M16.8345 18.7203C16.0445 16.5703 14.4045 15.1103 12.1645 14.5203C11.4345 14.3203 10.6245 14.2203 9.76453 14.2203H9.71453C6.11453 14.2203 3.49453 15.9903 2.51453 19.0803L2.39453 19.4503L2.73453 19.6503C4.63453 20.8203 6.91453 21.3803 9.68453 21.3803H9.73453C12.5745 21.3903 14.8345 20.8203 16.7445 19.6503L17.0845 19.4503L16.9645 19.0803C16.9245 18.9603 16.8845 18.8403 16.8345 18.7203Z" fill="currentColor"/>
</g>
</svg>
