<svg width="25" height="24" viewBox="0 0 25 24" fill="none" xmlns="http://www.w3.org/2000/svg">
<path opacity="0.4" fill-rule="evenodd" clip-rule="evenodd" d="M7.07831 7.5643H2.38431V8.0643C2.38231 10.6883 2.38231 13.3123 2.38431 15.9373V16.4363H7.07831L11.2043 20.0133H12.6673V3.9873H11.2043L7.07831 7.5643Z" fill="currentColor"/>
<path fill-rule="evenodd" clip-rule="evenodd" d="M19.9172 4.94754L19.4892 4.33154L18.2572 5.18754L18.6852 5.80254C21.3022 9.57154 21.3022 14.4365 18.6852 18.1975L18.2572 18.8125L19.4882 19.6695L19.9172 19.0535C22.8492 14.8395 22.8492 9.17054 19.9172 4.94754Z" fill="currentColor"/>
<path fill-rule="evenodd" clip-rule="evenodd" d="M17.2307 7.62285L16.8577 6.97185L15.5567 7.71685L15.9287 8.36785C17.2137 10.6128 17.2137 13.3968 15.9297 15.6338L15.5557 16.2838L16.8567 17.0308L17.2307 16.3808C18.7787 13.6838 18.7787 10.3278 17.2307 7.62285Z" fill="currentColor"/>
</svg>
