<svg width="25" height="24" viewBox="0 0 25 24" fill="none" xmlns="http://www.w3.org/2000/svg">
<path opacity="0.4" fill-rule="evenodd" clip-rule="evenodd" d="M15.9727 14.3688C15.9727 15.3138 16.8527 16.0838 17.9317 16.0848H22.5057V12.6538H17.9317C16.8517 12.6538 15.9727 13.4238 15.9727 14.3688Z" fill="currentColor"/>
<path fill-rule="evenodd" clip-rule="evenodd" d="M1.99414 21.8699V5.34424H3.49414V5.35093H18.6231V5.34424H20.1231V5.35093H22.5051V11.1529H17.9311C16.0241 11.1539 14.4721 12.5959 14.4721 14.3689C14.4741 16.1409 16.0251 17.5829 17.9311 17.5839H22.5051V21.8749H2.24414V21.8699H1.99414ZM6.55908 11.1689H13.4921V9.66895H6.55908V11.1689Z" fill="currentColor"/>
<path opacity="0.4" d="M20.123 5.34424V2.12598L1.99414 2.125V5.34424H3.49414V3.625L18.623 3.62598V5.34424H20.123Z" fill="currentColor"/>
</svg>
