<svg width="25" height="24" viewBox="0 0 25 24" fill="none" xmlns="http://www.w3.org/2000/svg">
<path fill-rule="evenodd" clip-rule="evenodd" d="M9.66691 5.5048L10.2429 4.1748H14.2559L14.8319 5.5048H9.66691ZM16.4669 5.5048L15.2429 2.6748H9.25591L8.03191 5.5048H2.50391V12.7918L2.75091 12.9368C5.15291 14.3418 8.18591 15.1598 11.3699 15.2888V16.5858H13.1289V15.2888C16.3149 15.1588 19.3479 14.3408 21.7469 12.9368L21.9949 12.7918V5.5048H16.4669Z" fill="currentColor"/>
<path opacity="0.4" fill-rule="evenodd" clip-rule="evenodd" d="M20.3976 15.815C17.9376 16.795 15.1276 17.315 12.2476 17.315C9.36758 17.315 6.55758 16.795 4.10758 15.815C3.73758 15.665 3.37758 15.515 3.02758 15.345C2.85758 15.265 2.68758 15.185 2.51758 15.085L2.73758 21.325H21.7676L21.9776 15.085C21.8076 15.185 21.6376 15.265 21.4676 15.345C21.1176 15.515 20.7576 15.665 20.3976 15.815Z" fill="currentColor"/>
</svg>
