<svg width="24" height="24" viewBox="0 0 24 24" fill="none" xmlns="http://www.w3.org/2000/svg">
<path d="M6.89648 14.9021L9.88948 11.0131L13.3035 13.6931L16.2325 9.91309" stroke="currentColor" stroke-width="1.5" stroke-linecap="round" stroke-linejoin="round"/>
<path d="M21.5686 4.32044C21.5686 5.38144 20.7086 6.24244 19.6466 6.24244C18.5846 6.24244 17.7246 5.38144 17.7246 4.32044C17.7246 3.25844 18.5846 2.39844 19.6466 2.39844" stroke="currentColor" stroke-width="1.5" stroke-linecap="round" stroke-linejoin="round"/>
<path d="M8.11069 21.3166C3.92369 20.5156 2.42969 17.9276 2.42969 12.3516C2.42969 5.41456 4.74269 3.10156 11.6797 3.10156C12.7897 3.10156 13.7807 3.16056 14.6627 3.28856" stroke="currentColor" stroke-width="1.5" stroke-linecap="round" stroke-linejoin="round"/>
<path d="M20.7357 9.31738C20.8687 10.2124 20.9297 11.2204 20.9297 12.3514C20.9297 19.2894 18.6177 21.6014 11.6797 21.6014" stroke="currentColor" stroke-width="1.5" stroke-linecap="round" stroke-linejoin="round"/>
</svg>
