<svg width="24" height="24" viewBox="0 0 24 24" fill="none" xmlns="http://www.w3.org/2000/svg">
<path d="M8.16016 3.78664C8.45116 3.70564 8.15716 3.78564 8.47916 3.72564C9.49116 3.53764 10.6592 3.45164 11.9982 3.45164C12.6432 3.45164 13.2482 3.47164 13.8152 3.51264" stroke="currentColor" stroke-width="1.5" stroke-linecap="round" stroke-linejoin="round"/>
<path d="M11.9986 21.9998C5.04361 21.9998 2.72461 19.6818 2.72461 12.7258C2.72461 8.59881 3.54061 6.10381 5.65761 4.75781" stroke="currentColor" stroke-width="1.5" stroke-linecap="round" stroke-linejoin="round"/>
<path d="M16.02 3.83105C19.882 4.73105 21.274 7.33606 21.274 12.7261C21.274 18.5821 19.63 21.1511 14.959 21.8171" stroke="currentColor" stroke-width="1.5" stroke-linecap="round" stroke-linejoin="round"/>
<path d="M3 9.27344H21.008" stroke="currentColor" stroke-width="1.5" stroke-linecap="round" stroke-linejoin="round"/>
<path d="M16.4017 13.2109H16.4107" stroke="currentColor" stroke-width="1.5" stroke-linecap="round" stroke-linejoin="round"/>
<path d="M12.0033 13.2109H12.0123" stroke="currentColor" stroke-width="1.5" stroke-linecap="round" stroke-linejoin="round"/>
<path d="M7.59511 13.2109H7.60411" stroke="currentColor" stroke-width="1.5" stroke-linecap="round" stroke-linejoin="round"/>
<path d="M16.4017 17.0625H16.4107" stroke="currentColor" stroke-width="1.5" stroke-linecap="round" stroke-linejoin="round"/>
<path d="M12.0033 17.0625H12.0123" stroke="currentColor" stroke-width="1.5" stroke-linecap="round" stroke-linejoin="round"/>
<path d="M7.59511 17.0625H7.60411" stroke="currentColor" stroke-width="1.5" stroke-linecap="round" stroke-linejoin="round"/>
<path d="M16.0078 2V5.262" stroke="currentColor" stroke-width="1.5" stroke-linecap="round" stroke-linejoin="round"/>
<path d="M8 2V5.262" stroke="currentColor" stroke-width="1.5" stroke-linecap="round" stroke-linejoin="round"/>
</svg>
