<svg width="24" height="24" viewBox="0 0 24 24" fill="none" xmlns="http://www.w3.org/2000/svg">
<path d="M14.7675 14.3714C15.0085 13.9264 15.1445 13.4174 15.1445 12.8764C15.1445 11.1394 13.7365 9.73145 11.9995 9.73145C10.2625 9.73145 8.85352 11.1394 8.85352 12.8764C8.85352 14.6134 10.2625 16.0214 11.9995 16.0214" stroke="currentColor" stroke-width="1.5" stroke-linecap="round" stroke-linejoin="round"/>
<path d="M11.9991 20.5788C20.0451 20.5788 21.0031 18.1688 21.0031 12.9458C21.0031 9.28382 20.5181 7.32582 17.4691 6.48282C17.1891 6.39482 16.8781 6.22682 16.6271 5.94982C16.2211 5.50382 15.9241 4.13682 14.9431 3.72282C13.9621 3.31082 10.0221 3.32982 9.05609 3.72282C8.09209 4.11782 7.77809 5.50382 7.37209 5.94982C7.12109 6.22682 6.81109 6.39482 6.53009 6.48282C3.48109 7.32582 2.99609 9.28382 2.99609 12.9458C2.99609 16.6738 3.48409 18.9688 6.68909 19.9768" stroke="currentColor" stroke-width="1.5" stroke-linecap="round" stroke-linejoin="round"/>
<path d="M16.9115 9.37891H16.9205" stroke="currentColor" stroke-width="1.5" stroke-linecap="round" stroke-linejoin="round"/>
</svg>
