<svg width="24" height="24" viewBox="0 0 24 24" fill="none" xmlns="http://www.w3.org/2000/svg">
<path d="M12 21.25C18.937 21.25 21.25 18.937 21.25 12" stroke="currentColor" stroke-width="1.5" stroke-linecap="round" stroke-linejoin="round"/>
<path d="M12 2.75C5.063 2.75 2.75 5.063 2.75 12C2.75 17.553 4.232 20.143 8.382 20.955" stroke="currentColor" stroke-width="1.5" stroke-linecap="round" stroke-linejoin="round"/>
<path fill-rule="evenodd" clip-rule="evenodd" d="M19.53 4.30364V4.30364C18.537 3.42464 17.02 3.51664 16.141 4.50964C16.141 4.50964 11.772 9.44464 10.257 11.1576C8.73999 12.8696 9.85199 15.2346 9.85199 15.2346C9.85199 15.2346 12.356 16.0276 13.85 14.3396C15.345 12.6516 19.736 7.69264 19.736 7.69264C20.615 6.69964 20.522 5.18264 19.53 4.30364Z" stroke="currentColor" stroke-width="1.5" stroke-linecap="round" stroke-linejoin="round"/>
<path d="M15.0098 5.80078L16.8228 7.40578" stroke="currentColor" stroke-width="1.5" stroke-linecap="round" stroke-linejoin="round"/>
</svg>
