<svg width="24" height="24" viewBox="0 0 24 24" fill="none" xmlns="http://www.w3.org/2000/svg">
<path d="M4.30114 15.7261C3.31714 14.5471 2.74414 13.2211 2.74414 12.0041C2.74414 8.7241 6.88414 4.7041 11.9941 4.7041C14.0841 4.7041 16.0241 5.3741 17.5841 6.4141" stroke="currentColor" stroke-width="1.5" stroke-linecap="round" stroke-linejoin="round"/>
<path d="M19.8433 8.47363C20.7343 9.60363 21.2533 10.8536 21.2533 12.0036C21.2533 15.2836 17.1033 19.3036 11.9933 19.3036C11.0833 19.3036 10.1943 19.1736 9.36328 18.9436" stroke="currentColor" stroke-width="1.5" stroke-linecap="round" stroke-linejoin="round"/>
<path d="M9.76096 14.23C9.16596 13.641 8.83296 12.838 8.83596 12.001C8.83196 10.256 10.244 8.83796 11.99 8.83496" stroke="currentColor" stroke-width="1.5" stroke-linecap="round" stroke-linejoin="round"/>
<path d="M15.1034 12.5625C14.8694 13.8545 13.8584 14.8675 12.5664 15.1045" stroke="currentColor" stroke-width="1.5" stroke-linecap="round" stroke-linejoin="round"/>
<path d="M19.8873 4.11328L4.11328 19.8873" stroke="currentColor" stroke-width="1.5" stroke-linecap="round" stroke-linejoin="round"/>
</svg>
