<svg width="24" height="24" viewBox="0 0 24 24" fill="none" xmlns="http://www.w3.org/2000/svg">
<path fill-rule="evenodd" clip-rule="evenodd" d="M2.75 12C2.75 18.937 5.063 21.25 12 21.25C18.937 21.25 21.25 18.937 21.25 12C21.25 5.063 18.937 2.75 12 2.75C5.063 2.75 2.75 5.063 2.75 12Z" stroke="currentColor" stroke-width="1.5" stroke-linecap="round" stroke-linejoin="round"/>
<path d="M10.6001 8.78444C10.6001 9.75744 9.81213 10.5454 8.83913 10.5454C7.86713 10.5454 7.07812 9.75744 7.07812 8.78444C7.07812 7.81144 7.86713 7.02344 8.83913 7.02344" stroke="currentColor" stroke-width="1.5" stroke-linecap="round" stroke-linejoin="round"/>
<path d="M21.1197 14.6667C20.2387 13.7607 18.9927 11.9297 16.7037 11.9297C14.4147 11.9297 14.3647 15.9677 12.0287 15.9677C9.6917 15.9677 8.7507 14.5967 7.2277 15.3127C6.7247 15.5487 6.2527 16.0177 5.8457 16.5407" stroke="currentColor" stroke-width="1.5" stroke-linecap="round" stroke-linejoin="round"/>
</svg>
