<svg width="24" height="24" viewBox="0 0 24 24" fill="none" xmlns="http://www.w3.org/2000/svg">
<path d="M12 9.5C13.381 9.5 14.5 10.619 14.5 12C14.5 13.381 13.381 14.5 12 14.5C10.619 14.5 9.5 13.381 9.5 12" stroke="currentColor" stroke-width="1.5" stroke-linecap="round" stroke-linejoin="round"/>
<path d="M7.21183 6.33888C6.02783 5.64988 4.51483 6.05788 3.83183 7.24988C3.14883 8.44288 3.55383 9.96688 4.73783 10.6539C5.76483 11.2529 5.76483 12.7469 4.73783 13.3459C3.55383 14.0339 3.14883 15.5589 3.83183 16.7499C4.51483 17.9419 6.02783 18.3499 7.21083 17.6629H7.21183C8.23983 17.0639 9.52483 17.8119 9.52483 19.0079C9.52483 20.3839 10.6338 21.4999 11.9998 21.4999C13.3658 21.4999 14.4738 20.3839 14.4738 19.0079C14.4738 17.8119 15.7598 17.0639 16.7888 17.6629" stroke="currentColor" stroke-width="1.5" stroke-linecap="round" stroke-linejoin="round"/>
<path d="M20.1684 16.75C20.8524 15.559 20.4464 14.034 19.2634 13.346H19.2624C18.2344 12.747 18.2344 11.253 19.2634 10.654C20.4464 9.967 20.8524 8.443 20.1684 7.25C19.4844 6.058 17.9714 5.65 16.7894 6.339C15.7604 6.936 14.4744 6.189 14.4744 4.992C14.4744 3.616 13.3664 2.5 12.0004 2.5C10.6344 2.5 9.52539 3.616 9.52539 4.992" stroke="currentColor" stroke-width="1.5" stroke-linecap="round" stroke-linejoin="round"/>
</svg>
