<svg width="24" height="24" viewBox="0 0 24 24" fill="none" xmlns="http://www.w3.org/2000/svg">
<path d="M12 18.9758C13.866 18.9758 15.771 21.9948 17.541 20.6608C19.311 19.3258 17.241 16.6438 17.66 14.7348C18.079 12.8248 21.468 12.0698 20.945 9.84478C20.423 7.62078 16.653 9.05378 15.442 7.80078" stroke="currentColor" stroke-width="1.5" stroke-linecap="round" stroke-linejoin="round"/>
<path d="M14.1277 5.162C13.6537 4.022 13.0917 3 11.9997 3C9.96369 3 9.77069 6.547 8.55869 7.8C7.34669 9.053 3.57769 7.62 3.05469 9.844C2.53169 12.069 5.92169 12.824 6.33969 14.734C6.76069 16.643 4.68869 19.325 6.45869 20.66C7.41169 21.379 8.40469 20.835 9.40869 20.179" stroke="currentColor" stroke-width="1.5" stroke-linecap="round" stroke-linejoin="round"/>
</svg>
