<svg width="24" height="24" viewBox="0 0 24 24" fill="none" xmlns="http://www.w3.org/2000/svg">
<path d="M11.3315 3.47461C2.60547 3.55661 2.60547 5.28861 2.60547 9.94061C5.26647 9.94061 5.26647 14.0546 2.60547 14.0546C2.60547 18.8226 2.60547 20.5246 12.0005 20.5246C21.3955 20.5246 21.3955 18.8226 21.3955 14.0546C18.7345 14.0546 18.7345 9.94061 21.3955 9.94061C21.3955 5.62761 21.3955 3.82361 14.4395 3.51961" stroke="currentColor" stroke-width="1.5" stroke-linecap="round" stroke-linejoin="round"/>
<path d="M13.8977 12.8374C14.0387 12.2514 15.1757 12.0184 15.0007 11.3344C14.8247 10.6514 13.5617 11.0914 13.1547 10.7064C12.7487 10.3214 12.6837 9.23145 12.0007 9.23145C11.3177 9.23145 11.2527 10.3214 10.8467 10.7064C10.4397 11.0914 9.17668 10.6514 9.00068 11.3344C8.82568 12.0184 9.96268 12.2514 10.1037 12.8374C10.2437 13.4234 9.54968 14.2484 10.1427 14.6594C10.7367 15.0684 11.3757 14.1414 12.0007 14.1414C12.6257 14.1414 13.2647 15.0684 13.8587 14.6594" stroke="currentColor" stroke-width="1.5" stroke-linecap="round" stroke-linejoin="round"/>
</svg>
