<svg width="24" height="24" viewBox="0 0 24 24" fill="none" xmlns="http://www.w3.org/2000/svg">
<path d="M6.55778 21.2773C4.35578 20.9773 2.80078 20.2393 2.80078 18.6733C2.80078 16.4493 5.91778 14.4453 9.60978 14.4453C13.2818 14.4453 16.4178 16.4303 16.4178 18.6533C16.4178 20.8763 13.3018 21.4523 9.60978 21.4523" stroke="currentColor" stroke-width="1.5" stroke-linecap="round" stroke-linejoin="round"/>
<path d="M6.56512 3.78488C5.75212 4.57788 5.24612 5.68487 5.24612 6.91087C5.23712 9.31287 7.17812 11.2669 9.57912 11.2749H9.61013C12.0201 11.2749 13.9741 9.32087 13.9741 6.91087C13.9741 4.50087 12.0201 2.54688 9.61013 2.54688" stroke="currentColor" stroke-width="1.5" stroke-linecap="round" stroke-linejoin="round"/>
<path d="M16.8511 10.0757C18.2541 9.70071 19.2881 8.42171 19.2881 6.89971C19.2891 5.31171 18.1621 3.98571 16.6641 3.67871" stroke="currentColor" stroke-width="1.5" stroke-linecap="round" stroke-linejoin="round"/>
<path d="M17.5117 13.6504C19.4997 13.6504 21.1977 14.9984 21.1977 16.2014C21.1977 16.9104 20.6127 17.6384 19.7227 17.8474" stroke="currentColor" stroke-width="1.5" stroke-linecap="round" stroke-linejoin="round"/>
</svg>
