<svg width="24" height="24" viewBox="0 0 24 24" fill="none" xmlns="http://www.w3.org/2000/svg">
<path d="M8.92814 20.0614C7.18914 19.7644 5.99414 19.1114 5.99414 17.8214C5.99414 15.8594 8.74314 14.1514 12.0001 14.1514C15.2391 14.1514 18.0061 15.8434 18.0061 17.8044C18.0061 19.7654 15.2571 20.2734 12.0001 20.2734" stroke="currentColor" stroke-width="1.5" stroke-linecap="round" stroke-linejoin="round"/>
<path d="M11.2674 3.72559C9.49141 4.06759 8.15041 5.63059 8.15041 7.50559C8.14441 9.62359 9.85441 11.3476 11.9734 11.3546H12.0004C14.1264 11.3546 15.8504 9.63159 15.8504 7.50559C15.8504 6.12159 15.1184 4.90759 14.0214 4.22859" stroke="currentColor" stroke-width="1.5" stroke-linecap="round" stroke-linejoin="round"/>
<path d="M18.3887 10.2983C19.6257 9.96727 20.5377 8.83927 20.5377 7.49627C20.5377 6.09527 19.5447 4.92527 18.2227 4.65527" stroke="currentColor" stroke-width="1.5" stroke-linecap="round" stroke-linejoin="round"/>
<path d="M18.9688 13.4512C20.7227 13.4512 22.2208 14.6402 22.2208 15.7022C22.2208 16.3272 21.7037 17.0082 20.9197 17.1922" stroke="currentColor" stroke-width="1.5" stroke-linecap="round" stroke-linejoin="round"/>
<path d="M5.61094 10.2983C4.37294 9.96727 3.46094 8.83927 3.46094 7.49627C3.46094 6.09527 4.45494 4.92527 5.77594 4.65527" stroke="currentColor" stroke-width="1.5" stroke-linecap="round" stroke-linejoin="round"/>
<path d="M5.02934 13.4512C3.27534 13.4512 1.77734 14.6402 1.77734 15.7022C1.77734 16.3272 2.29434 17.0082 3.07934 17.1922" stroke="currentColor" stroke-width="1.5" stroke-linecap="round" stroke-linejoin="round"/>
</svg>
