<svg width="24" height="24" viewBox="0 0 24 24" fill="none" xmlns="http://www.w3.org/2000/svg">
<path d="M19.4395 5.82129C21.9325 9.54129 21.9405 14.4503 19.4395 18.1783" stroke="currentColor" stroke-width="1.5" stroke-linecap="round" stroke-linejoin="round"/>
<path d="M16.9919 8.26367C18.2739 10.5867 18.2739 13.4217 16.9919 15.7357" stroke="currentColor" stroke-width="1.5" stroke-linecap="round" stroke-linejoin="round"/>
<path d="M3.7147 8.41766C2.6857 9.29166 2.6837 10.7537 2.6857 11.9997C2.6837 13.2457 2.6857 14.7077 3.7147 15.5817C4.7447 16.4557 5.5617 16.0947 6.8937 16.5337C8.2257 16.9727 10.0927 19.6797 12.1537 18.4567C13.2687 17.6647 13.7937 16.1707 13.7937 11.9997C13.7937 7.82866 13.2927 6.35066 12.1537 5.54266C10.0927 4.32066 8.2257 7.02766 6.8937 7.46566" stroke="currentColor" stroke-width="1.5" stroke-linecap="round" stroke-linejoin="round"/>
</svg>
