<svg width="24" height="24" viewBox="0 0 24 24" fill="none" xmlns="http://www.w3.org/2000/svg">
<path d="M12 16.5147V13.8867" stroke="currentColor" stroke-width="1.5" stroke-linecap="round" stroke-linejoin="round"/>
<path d="M21.1291 11.4756L21.0991 11.4966C18.6791 12.9886 15.4791 13.8896 11.9991 13.8896C9.69809 13.8896 7.52709 13.4976 5.62109 12.8036" stroke="currentColor" stroke-width="1.5" stroke-linecap="round" stroke-linejoin="round"/>
<path d="M11.9991 21.5515C5.08906 21.5515 2.78906 19.5005 2.78906 13.3485C2.78906 7.19651 5.08906 5.14551 11.9991 5.14551C18.9091 5.14551 21.2091 7.19651 21.2091 13.3485C21.2091 18.1845 19.7881 20.4865 15.8241 21.2495" stroke="currentColor" stroke-width="1.5" stroke-linecap="round" stroke-linejoin="round"/>
<path d="M15.2583 5.36724V4.73724C15.2583 3.47324 14.3383 2.44824 13.1983 2.44824H10.7983C9.65828 2.44824 8.73828 3.47324 8.73828 4.73724V5.36724" stroke="currentColor" stroke-width="1.5" stroke-linecap="round" stroke-linejoin="round"/>
</svg>
