<svg width="24" height="24" viewBox="0 0 24 24" fill="none" xmlns="http://www.w3.org/2000/svg">
<path fill-rule="evenodd" clip-rule="evenodd" d="M12 3.5C7.313 3.5 3.5 7.313 3.5 12C3.5 16.687 7.313 20.5 12 20.5C16.687 20.5 20.5 16.687 20.5 12C20.5 7.313 16.687 3.5 12 3.5ZM12 22C6.486 22 2 17.514 2 12C2 6.486 6.486 2 12 2C17.514 2 22 6.486 22 12C22 17.514 17.514 22 12 22Z" fill="currentColor"/>
<path fill-rule="evenodd" clip-rule="evenodd" d="M10.5589 16.221C10.3669 16.221 10.1739 16.148 10.0279 16C9.73595 15.706 9.73695 15.232 10.0299 14.94L12.9819 12L10.0299 9.06105C9.73695 8.76905 9.73595 8.29405 10.0279 8.00005C10.3199 7.70505 10.7939 7.70705 11.0879 7.99805L14.5739 11.469C14.7149 11.61 14.7939 11.801 14.7939 12C14.7939 12.2 14.7149 12.391 14.5739 12.532L11.0879 16.002C10.9419 16.148 10.7499 16.221 10.5589 16.221Z" fill="currentColor"/>
</svg>
