<svg width="24" height="24" viewBox="0 0 24 24" fill="none" xmlns="http://www.w3.org/2000/svg">
<path fill-rule="evenodd" clip-rule="evenodd" d="M12 3.5C7.313 3.5 3.5 7.313 3.5 12C3.5 16.687 7.313 20.5 12 20.5C16.687 20.5 20.5 16.687 20.5 12C20.5 7.313 16.687 3.5 12 3.5ZM12 22C6.486 22 2 17.514 2 12C2 6.486 6.486 2 12 2C17.514 2 22 6.486 22 12C22 17.514 17.514 22 12 22Z" fill="currentColor"/>
<path fill-rule="evenodd" clip-rule="evenodd" d="M12 14.7944C11.801 14.7944 11.609 14.7154 11.469 14.5734L7.99805 11.0874C7.70505 10.7934 7.70705 10.3184 8.00005 10.0264C8.29405 9.73437 8.76905 9.73437 9.06105 10.0284L12 12.9824L14.94 10.0284C15.232 9.73437 15.707 9.73437 16.001 10.0264C16.294 10.3184 16.295 10.7934 16.003 11.0874L12.531 14.5734C12.391 14.7154 12.199 14.7944 12 14.7944Z" fill="currentColor"/>
</svg>
