<svg width="24" height="24" viewBox="0 0 24 24" fill="none" xmlns="http://www.w3.org/2000/svg">
<path fill-rule="evenodd" clip-rule="evenodd" d="M12 3.5C7.313 3.5 3.5 7.313 3.5 12C3.5 16.687 7.313 20.5 12 20.5C16.687 20.5 20.5 16.687 20.5 12C20.5 7.313 16.687 3.5 12 3.5ZM12 22C6.486 22 2 17.514 2 12C2 6.486 6.486 2 12 2C17.514 2 22 6.486 22 12C22 17.514 17.514 22 12 22Z" fill="currentColor"/>
<path fill-rule="evenodd" clip-rule="evenodd" d="M13.4421 16.221C13.2511 16.221 13.0591 16.148 12.9131 16.002L9.42605 12.532C9.28505 12.391 9.20605 12.2 9.20605 12C9.20605 11.801 9.28505 11.61 9.42605 11.469L12.9131 7.99805C13.2061 7.70605 13.6801 7.70605 13.9731 8.00005C14.2661 8.29405 14.2641 8.76905 13.9711 9.06105L11.0191 12L13.9711 14.94C14.2641 15.232 14.2661 15.706 13.9731 16C13.8271 16.148 13.6341 16.221 13.4421 16.221Z" fill="currentColor"/>
</svg>
