<svg width="24" height="24" viewBox="0 0 24 24" fill="none" xmlns="http://www.w3.org/2000/svg">
<path fill-rule="evenodd" clip-rule="evenodd" d="M12.7 13.5H3.75C3.336 13.5 3 13.164 3 12.75C3 12.336 3.336 12 3.75 12H12.7C13.114 12 13.45 12.336 13.45 12.75C13.45 13.164 13.114 13.5 12.7 13.5Z" fill="currentColor"/>
<mask id="mask0_296_48512" style="mask-type:luminance" maskUnits="userSpaceOnUse" x="11" y="7" width="11" height="12">
<path fill-rule="evenodd" clip-rule="evenodd" d="M11.9502 7H21.3872V18.501H11.9502V7Z" fill="white"/>
</mask>
<g mask="url(#mask0_296_48512)">
<path fill-rule="evenodd" clip-rule="evenodd" d="M13.4502 9.10881V16.3918L19.2302 12.7508L13.4502 9.10881ZM12.7002 18.5018C12.5752 18.5018 12.4512 18.4698 12.3382 18.4078C12.0982 18.2758 11.9502 18.0248 11.9502 17.7518V7.74981C11.9502 7.47581 12.0982 7.22481 12.3382 7.09281C12.5772 6.96181 12.8702 6.96981 13.0992 7.11481L21.0372 12.1158C21.2562 12.2538 21.3872 12.4928 21.3872 12.7508C21.3872 13.0078 21.2562 13.2478 21.0372 13.3848L13.0992 18.3858C12.9782 18.4628 12.8392 18.5018 12.7002 18.5018Z" fill="currentColor"/>
</g>
</svg>
