<svg width="24" height="24" viewBox="0 0 24 24" fill="none" xmlns="http://www.w3.org/2000/svg">
<mask id="mask0_296_48222" style="mask-type:luminance" maskUnits="userSpaceOnUse" x="2" y="2" width="10" height="14">
<path fill-rule="evenodd" clip-rule="evenodd" d="M2 2.00098H11.2953V15.105H2V2.00098Z" fill="white"/>
</mask>
<g mask="url(#mask0_296_48222)">
<path fill-rule="evenodd" clip-rule="evenodd" d="M6.72535 15.105C6.51835 15.105 6.31135 15.019 6.16335 14.851C0.821355 8.79898 1.58735 5.66498 3.17135 4.10098C3.18735 4.08098 3.24235 4.02698 3.25935 4.00898C4.66335 2.58398 5.62335 2.00098 6.56035 2.00098H6.58935C7.70035 2.01498 8.48535 2.85398 9.47935 3.91698C9.72335 4.17798 9.98935 4.46098 10.2834 4.75998C11.7134 6.21898 11.3074 7.40698 10.9804 8.36098C10.7444 9.05198 10.5384 9.64998 10.9124 10.501C11.0794 10.881 10.9074 11.324 10.5284 11.49C10.1464 11.656 9.70535 11.484 9.53935 11.105C8.93035 9.71598 9.29435 8.65198 9.56135 7.87498C9.85035 7.03198 9.99535 6.60898 9.21335 5.81198C8.91035 5.50398 8.63635 5.21098 8.38335 4.94198C7.60435 4.10798 7.04035 3.50598 6.57035 3.50098H6.56235C6.09535 3.50098 5.36435 4.01098 4.32835 5.06198C4.32935 5.05998 4.33135 5.05898 4.33135 5.05898C4.33335 5.05898 4.28635 5.10798 4.22535 5.16798C2.08335 7.28398 5.22435 11.521 7.28735 13.859C7.56135 14.169 7.53235 14.643 7.22135 14.918C7.07935 15.043 6.90235 15.105 6.72535 15.105Z" fill="currentColor"/>
</g>
<path fill-rule="evenodd" clip-rule="evenodd" d="M17.9628 22.8174C15.6718 22.8174 12.7338 21.0784 9.2258 17.6454C8.9298 17.3554 8.9238 16.8804 9.2138 16.5854C9.5048 16.2884 9.9798 16.2844 10.2748 16.5734C14.3338 20.5464 16.7058 21.3744 18.0278 21.3164C18.9928 21.2964 19.4488 20.8074 19.6678 20.5734C19.7288 20.5084 19.7768 20.4604 19.8128 20.4284C20.8058 19.4124 21.3068 18.6644 21.3008 18.1804C21.2938 17.6874 20.6988 17.1094 19.8748 16.3084C19.6138 16.0554 19.3318 15.7814 19.0328 15.4774C18.2658 14.6954 17.8858 14.8314 17.0508 15.1334C16.0228 15.5034 14.6128 16.0134 12.5658 14.3294C12.2448 14.0664 12.1978 13.5934 12.4618 13.2744C12.7238 12.9534 13.1998 12.9074 13.5168 13.1714C14.9078 14.3094 15.6268 14.0494 16.5428 13.7214C17.4368 13.3994 18.6618 12.9614 20.1038 14.4254C20.3938 14.7214 20.6678 14.9874 20.9198 15.2334C21.9628 16.2464 22.7858 17.0464 22.7998 18.1624C22.8128 19.1144 22.2438 20.0874 20.8418 21.5194L20.7459 21.6165L20.7939 21.568C20.4909 21.892 19.6568 22.7814 18.0618 22.8164C18.0278 22.8174 17.9948 22.8174 17.9628 22.8174Z" fill="currentColor"/>
<path fill-rule="evenodd" clip-rule="evenodd" d="M4.63941 22.3999C4.45541 22.3999 4.27141 22.3329 4.12641 22.1969C3.82441 21.9139 3.80941 21.4389 4.09241 21.1369L19.0924 5.13692C19.3744 4.83392 19.8504 4.81892 20.1524 5.10292C20.4544 5.38592 20.4694 5.86092 20.1864 6.16292L5.18641 22.1629C5.03841 22.3209 4.83941 22.3999 4.63941 22.3999Z" fill="currentColor"/>
</svg>
