<svg width="24" height="24" viewBox="0 0 24 24" fill="none" xmlns="http://www.w3.org/2000/svg">
<path d="M20.7851 3.21869C21.078 2.9258 21.5529 2.9258 21.8458 3.21869C22.112 3.48496 22.1362 3.90162 21.9184 4.19524L21.8458 4.27935L15.8458 10.2794C15.5529 10.5722 15.078 10.5722 14.7851 10.2794C14.5188 10.0131 14.4946 9.59642 14.7125 9.30281L14.7851 9.21869L20.7851 3.21869Z" fill="currentColor"/>
<path d="M14.7851 3.21869C15.0514 2.95243 15.468 2.92822 15.7616 3.14608L15.8458 3.21869L21.8458 9.21869C22.1387 9.51159 22.1387 9.98646 21.8458 10.2794C21.5795 10.5456 21.1628 10.5698 20.8692 10.352L20.7851 10.2794L14.7851 4.27935C14.4922 3.98646 14.4922 3.51159 14.7851 3.21869Z" fill="currentColor"/>
<path fill-rule="evenodd" clip-rule="evenodd" d="M2.47134 3.82906L2.54388 3.75325C4.4713 1.82565 5.72646 1.31472 7.06568 2.08483C7.45092 2.30636 7.81207 2.61644 8.30316 3.11522L9.80953 4.67724C10.6416 5.58514 10.8307 6.45599 10.5598 7.47586L10.5225 7.61088L10.481 7.74513L10.2797 8.33595C9.84864 9.66093 10.0286 10.4085 11.5621 11.9416C13.1568 13.5359 13.9012 13.6663 15.3284 13.1676L15.5827 13.0792L15.8903 12.9793L16.0249 12.9419C17.1089 12.6527 18.0246 12.8835 18.9958 13.854L20.2095 15.0264L20.5668 15.3778C20.9629 15.7817 21.2247 16.1018 21.4181 16.4401C22.1834 17.7789 21.6719 19.0333 19.6889 21.0089L19.5003 21.2001C19.2042 21.4854 18.9276 21.6899 18.5212 21.8828C17.8391 22.2067 17.0332 22.3288 16.0968 22.1986C13.7893 21.8777 10.8628 20.057 7.1545 16.3497C6.85263 16.0479 6.56352 15.7519 6.28687 15.4617L5.75009 14.8888C0.720241 9.42406 0.276505 6.06709 2.33779 3.96171L2.47134 3.82906ZM7.08903 4.02214C6.76324 3.70095 6.52658 3.50515 6.31793 3.38517C5.85641 3.11977 5.35811 3.23196 4.43591 4.02569L4.14615 4.28456C4.0956 4.33121 4.0439 4.37964 3.991 4.4299L3.65873 4.75352L3.62879 4.79093L3.40353 5.01724C2.85918 5.57325 2.60133 6.25185 2.82352 7.41888C3.18813 9.3339 4.85704 11.9317 8.21502 15.2889C11.7139 18.7869 14.3798 20.4453 16.3034 20.7128C17.4248 20.8688 17.9968 20.5972 18.5802 19.9996L19.025 19.5507C19.2336 19.3324 19.4118 19.1345 19.5624 18.9538L19.7677 18.6951C20.2923 17.9963 20.3402 17.577 20.1159 17.1845C20.0305 17.0351 19.9063 16.8714 19.7255 16.6713L19.4803 16.4122L19.3351 16.267L17.8039 14.7884C17.2922 14.3165 16.9425 14.2496 16.4116 14.3912L16.2583 14.4353L15.624 14.6506C13.7839 15.2449 12.4564 14.9568 10.5016 13.0024C8.47691 10.9783 8.23946 9.62658 8.91784 7.68038L8.96136 7.55532L9.0817 7.19275L9.14085 6.96164C9.24575 6.45867 9.12599 6.10799 8.58531 5.56722C8.56304 5.54496 8.53816 5.51987 8.51109 5.49241L7.08903 4.02214Z" fill="currentColor"/>
</svg>
