<svg width="24" height="24" viewBox="0 0 24 24" fill="none" xmlns="http://www.w3.org/2000/svg">
<path fill-rule="evenodd" clip-rule="evenodd" d="M8.982 6.3035C8.95 6.3035 8.918 6.3075 8.886 6.3155C5.916 7.0465 3.5 10.2645 3.5 13.4885C3.5 17.5445 6.8 20.8445 10.857 20.8445C14.514 20.8445 17.57 18.2395 18.124 14.6495C18.128 14.6195 18.142 14.5325 18.06 14.4355C17.982 14.3445 17.858 14.2905 17.728 14.2905C16.317 14.2905 15.24 14.3225 14.399 14.3465C12.363 14.4075 11.521 14.4305 10.689 13.8135C9.435 12.8845 9.329 11.2885 9.329 6.5945C9.329 6.5105 9.293 6.4405 9.221 6.3845C9.154 6.3315 9.069 6.3035 8.982 6.3035ZM10.857 22.3445C5.973 22.3445 2 18.3715 2 13.4885C2 9.6165 4.928 5.7445 8.527 4.8585C9.089 4.7215 9.693 4.8495 10.147 5.2035C10.58 5.5435 10.829 6.0505 10.829 6.5945C10.829 10.9795 10.977 12.1595 11.582 12.6085C11.979 12.9015 12.523 12.8985 14.356 12.8475C15.208 12.8225 16.299 12.7905 17.728 12.7905C18.298 12.7905 18.835 13.0345 19.199 13.4595C19.537 13.8545 19.685 14.3705 19.607 14.8785C18.939 19.2035 15.259 22.3445 10.857 22.3445Z" fill="currentColor"/>
<mask id="mask0_296_47745" style="mask-type:luminance" maskUnits="userSpaceOnUse" x="12" y="1" width="11" height="11">
<path fill-rule="evenodd" clip-rule="evenodd" d="M12.4736 1.00098H22.8926V11.2903H12.4736V1.00098Z" fill="white"/>
</mask>
<g mask="url(#mask0_296_47745)">
<path fill-rule="evenodd" clip-rule="evenodd" d="M14.0104 2.50272C13.9004 5.02172 14.0634 8.27572 14.1394 9.56472C14.1434 9.64172 14.1994 9.69772 14.2754 9.70172C15.3034 9.76072 18.8454 9.92472 21.3924 9.54972C21.3984 8.14572 20.4374 6.24172 18.9904 4.79572C17.5064 3.31372 15.7504 2.50272 14.0324 2.50272H14.0104ZM17.3144 11.2907C16.0044 11.2907 14.8514 11.2377 14.1884 11.1997C13.3544 11.1507 12.6904 10.4857 12.6424 9.65172C12.5644 8.32972 12.3954 4.97072 12.5154 2.37272C12.5484 1.61772 13.1584 1.01672 13.9044 1.00372C16.0414 0.941718 18.2464 1.93372 20.0504 3.73472C21.8084 5.49172 22.9244 7.80072 22.8924 9.61772C22.8804 10.3267 22.3654 10.9187 21.6694 11.0237C20.3114 11.2287 18.7214 11.2907 17.3144 11.2907Z" fill="currentColor"/>
</g>
</svg>
