<svg width="24" height="24" viewBox="0 0 24 24" fill="none" xmlns="http://www.w3.org/2000/svg">
<path fill-rule="evenodd" clip-rule="evenodd" d="M22.75 13.9551H1.75C1.336 13.9551 1 13.6191 1 13.2051C1 12.7911 1.336 12.4551 1.75 12.4551H22.75C23.164 12.4551 23.5 12.7911 23.5 13.2051C23.5 13.6191 23.164 13.9551 22.75 13.9551Z" fill="currentColor"/>
<path fill-rule="evenodd" clip-rule="evenodd" d="M20.8804 9.745C20.4664 9.745 20.1304 9.409 20.1304 8.995V7.481C20.1304 5.838 18.7924 4.5 17.1474 4.5H15.9424C15.5284 4.5 15.1924 4.164 15.1924 3.75C15.1924 3.336 15.5284 3 15.9424 3H17.1474C19.6194 3 21.6304 5.011 21.6304 7.481V8.995C21.6304 9.409 21.2944 9.745 20.8804 9.745Z" fill="currentColor"/>
<path fill-rule="evenodd" clip-rule="evenodd" d="M3.62012 9.745C3.20612 9.745 2.87012 9.409 2.87012 8.995V7.481C2.87012 5.011 4.88112 3 7.35312 3H8.58912C9.00312 3 9.33912 3.336 9.33912 3.75C9.33912 4.164 9.00312 4.5 8.58912 4.5H7.35312C5.70812 4.5 4.37012 5.838 4.37012 7.481V8.995C4.37012 9.409 4.03412 9.745 3.62012 9.745Z" fill="currentColor"/>
<path fill-rule="evenodd" clip-rule="evenodd" d="M17.1474 21.7601H15.9424C15.5284 21.7601 15.1924 21.4241 15.1924 21.0101C15.1924 20.5961 15.5284 20.2601 15.9424 20.2601H17.1474C18.7924 20.2601 20.1304 18.9221 20.1304 17.2781V13.2031C20.1304 12.7891 20.4664 12.4531 20.8804 12.4531C21.2944 12.4531 21.6304 12.7891 21.6304 13.2031V17.2781C21.6304 19.7491 19.6194 21.7601 17.1474 21.7601Z" fill="currentColor"/>
<path fill-rule="evenodd" clip-rule="evenodd" d="M8.58912 21.7601H7.35312C4.88112 21.7601 2.87012 19.7491 2.87012 17.2781V13.2031C2.87012 12.7891 3.20612 12.4531 3.62012 12.4531C4.03412 12.4531 4.37012 12.7891 4.37012 13.2031V17.2781C4.37012 18.9221 5.70812 20.2601 7.35312 20.2601H8.58912C9.00312 20.2601 9.33912 20.5961 9.33912 21.0101C9.33912 21.4241 9.00312 21.7601 8.58912 21.7601Z" fill="currentColor"/>
</svg>
