<svg width="24" height="24" viewBox="0 0 24 24" fill="none" xmlns="http://www.w3.org/2000/svg">
<mask id="mask0_296_48467" style="mask-type:luminance" maskUnits="userSpaceOnUse" x="3" y="5" width="13" height="16">
<path fill-rule="evenodd" clip-rule="evenodd" d="M3 5H15.02V20.5019H3V5Z" fill="white"/>
</mask>
<g mask="url(#mask0_296_48467)">
<path fill-rule="evenodd" clip-rule="evenodd" d="M12.208 6.50637C11.34 6.50637 10.23 7.38737 9.30598 8.12137C8.41698 8.82637 7.71498 9.38437 7.01498 9.43637C6.70498 9.45837 6.43898 9.46837 6.20498 9.47637C5.45798 9.50137 5.26898 9.51837 4.93198 9.79637C4.48998 10.1594 4.49698 11.6424 4.50098 12.5274L4.50198 12.7484V12.7524L4.50098 12.9734C4.49698 13.8594 4.48998 15.3424 4.93198 15.7054C5.26798 15.9834 5.45698 15.9994 6.20198 16.0264C6.43698 16.0334 6.70398 16.0434 7.01498 16.0664C7.71498 16.1174 8.41698 16.6754 9.30598 17.3804C10.409 18.2554 11.776 19.3404 12.681 18.8894C13.439 18.2324 13.52 16.4904 13.52 12.7504C13.52 9.01037 13.439 7.26937 12.681 6.61137C12.534 6.53837 12.375 6.50637 12.208 6.50637ZM12.218 20.5024C10.827 20.5024 9.44798 19.4074 8.37398 18.5554C7.88898 18.1704 7.15598 17.5884 6.90298 17.5624C6.61598 17.5404 6.36798 17.5314 6.14898 17.5254C5.35098 17.4964 4.71998 17.4754 3.97798 16.8634C2.98598 16.0464 2.99498 14.3384 3.00098 12.9664L3.00198 12.7504L3.00098 12.5344C2.99498 11.1624 2.98598 9.45537 3.97798 8.63837C4.72098 8.02637 5.35298 8.00437 6.15298 7.97737C6.37098 7.96937 6.61798 7.96137 6.90498 7.94037C7.15598 7.91337 7.88898 7.33137 8.37398 6.94637C9.77198 5.83537 11.689 4.31837 13.474 5.33537C13.505 5.35437 13.536 5.37437 13.564 5.39737C14.958 6.49237 15.02 8.55737 15.02 12.7504C15.02 16.9444 14.958 19.0094 13.564 20.1054C13.536 20.1274 13.505 20.1484 13.473 20.1664C13.059 20.4024 12.638 20.5024 12.218 20.5024Z" fill="currentColor"/>
</g>
<path fill-rule="evenodd" clip-rule="evenodd" d="M18.3306 17.1869C18.2036 17.1869 18.0756 17.1549 17.9576 17.0869C17.5986 16.8809 17.4746 16.4219 17.6806 16.0639C18.8516 14.0229 18.8516 11.4849 17.6806 9.43793C17.4746 9.07793 17.5996 8.61993 17.9586 8.41393C18.3186 8.21193 18.7756 8.33293 18.9816 8.69193C20.4166 11.1999 20.4166 14.3099 18.9816 16.8099C18.8426 17.0519 18.5906 17.1869 18.3306 17.1869Z" fill="currentColor"/>
</svg>
