<svg width="24" height="24" viewBox="0 0 24 24" fill="none" xmlns="http://www.w3.org/2000/svg">
<mask id="mask0_296_48444" style="mask-type:luminance" maskUnits="userSpaceOnUse" x="2" y="5" width="13" height="16">
<path fill-rule="evenodd" clip-rule="evenodd" d="M2 5H14.02V20.5019H2V5Z" fill="white"/>
</mask>
<g mask="url(#mask0_296_48444)">
<path fill-rule="evenodd" clip-rule="evenodd" d="M11.208 6.50637C10.34 6.50637 9.22998 7.38737 8.30598 8.12137C7.41698 8.82637 6.71498 9.38437 6.01498 9.43637C5.70498 9.45837 5.43898 9.46837 5.20498 9.47637C4.45798 9.50137 4.26898 9.51837 3.93198 9.79637C3.48998 10.1594 3.49698 11.6424 3.50098 12.5274L3.50198 12.7484V12.7524L3.50098 12.9734C3.49698 13.8594 3.48998 15.3424 3.93198 15.7054C4.26798 15.9834 4.45698 15.9994 5.20198 16.0264C5.43698 16.0334 5.70398 16.0434 6.01498 16.0664C6.71498 16.1174 7.41698 16.6754 8.30598 17.3804C9.40898 18.2554 10.775 19.3404 11.681 18.8894C12.439 18.2324 12.52 16.4904 12.52 12.7504C12.52 9.01037 12.439 7.26937 11.681 6.61137C11.534 6.53837 11.375 6.50637 11.208 6.50637ZM11.218 20.5024C9.82698 20.5024 8.44798 19.4074 7.37398 18.5554C6.88898 18.1704 6.15598 17.5884 5.90298 17.5624C5.61598 17.5404 5.36798 17.5314 5.14898 17.5254C4.35098 17.4964 3.71998 17.4754 2.97798 16.8634C1.98598 16.0464 1.99498 14.3384 2.00098 12.9664L2.00198 12.7504L2.00098 12.5344C1.99498 11.1624 1.98598 9.45537 2.97798 8.63837C3.72098 8.02637 4.35298 8.00437 5.15298 7.97737C5.37098 7.96937 5.61798 7.96137 5.90498 7.94037C6.15598 7.91337 6.88898 7.33137 7.37398 6.94637C8.77298 5.83537 10.689 4.31837 12.474 5.33537C12.505 5.35437 12.536 5.37437 12.564 5.39737C13.958 6.49237 14.02 8.55737 14.02 12.7504C14.02 16.9444 13.958 19.0094 12.564 20.1054C12.536 20.1274 12.505 20.1484 12.473 20.1664C12.059 20.4024 11.638 20.5024 11.218 20.5024Z" fill="currentColor"/>
</g>
<mask id="mask1_296_48444" style="mask-type:luminance" maskUnits="userSpaceOnUse" x="19" y="5" width="4" height="15">
<path fill-rule="evenodd" clip-rule="evenodd" d="M19.084 5.90332H22.4841V19.5956H19.084V5.90332Z" fill="white"/>
</mask>
<g mask="url(#mask1_296_48444)">
<path fill-rule="evenodd" clip-rule="evenodd" d="M19.8337 19.5956C19.6857 19.5956 19.5367 19.5516 19.4057 19.4606C19.0657 19.2246 18.9817 18.7576 19.2187 18.4166C21.6117 14.9766 21.6117 10.5276 19.2187 7.08164C18.9817 6.74164 19.0657 6.27464 19.4067 6.03764C19.7467 5.80064 20.2127 5.88564 20.4497 6.22664C23.1627 10.1306 23.1627 15.3736 20.4497 19.2746C20.3037 19.4836 20.0707 19.5956 19.8337 19.5956Z" fill="currentColor"/>
</g>
<path fill-rule="evenodd" clip-rule="evenodd" d="M17.3306 17.1869C17.2036 17.1869 17.0756 17.1549 16.9576 17.0869C16.5986 16.8809 16.4746 16.4219 16.6806 16.0639C17.8516 14.0229 17.8516 11.4849 16.6806 9.43793C16.4746 9.07793 16.5996 8.61993 16.9586 8.41393C17.3186 8.21193 17.7756 8.33293 17.9816 8.69193C19.4166 11.1999 19.4166 14.3099 17.9816 16.8099C17.8426 17.0519 17.5906 17.1869 17.3306 17.1869Z" fill="currentColor"/>
</svg>
