<svg width="1440" height="774" fill="none" xmlns="http://www.w3.org/2000/svg"><g opacity=".4" clip-path="url(#a)"><g opacity=".6" filter="url(#b)"><path fill-rule="evenodd" clip-rule="evenodd" d="M147.057 182.106c215.442-28.93 484.907-148.097 627.097 16.313 143.042 165.396-60.234 408.641-70.681 627.055-9.435 197.286 155.1 432.176 13.437 569.816-141.811 137.78-372.54-16.45-569.853-29.22-173.643-11.24-368.368 73.08-500.55-40.08-136.193-116.59-134.95-321.29-130.935-500.516 3.9-174.048 30.921-354.331 152.874-478.579C-208.689 221.718-26.789 205.45 147.057 182.106z" fill="#A354FD"/></g><g opacity=".8" filter="url(#c)"><path fill-rule="evenodd" clip-rule="evenodd" d="M603.103-501.03c147.409 7.673 276-175.723 414.037-123.38 135.93 51.544 163.93 230.132 220.75 364.085 62.9 148.267 191.03 306.645 126.35 454.142-65.33 149.001-289.11 126.059-421.902 219.886-129.722 91.66-180.613 311.056-339.235 317.931-157.551 6.829-276.478-154.433-361.267-287.567C174.509 338.35 218.871 202.696 188.736 81 161.933-27.241 80.874-113.845 76.095-225.261c-6.607-154.03-56.001-372.537 80.463-443.945 144.479-75.602 283.746 159.701 446.545 168.176z" fill="#C08AFE"/></g><g opacity=".6" filter="url(#d)"><path fill-rule="evenodd" clip-rule="evenodd" d="M1442.77 161.941c133.71-35.484 287.52-8.709 397.9 74.709 109.63 82.854 127.39 232.902 178.14 360.633 55.14 138.778 162.14 270.983 130.82 416.997-32.17 149.97-149.44 286.45-293.18 339.84-134.81 50.07-271.91-53.25-413.68-77.29-109.98-18.65-222.7 1.27-322.97-47.62-115.47-56.31-220.085-135.64-282.836-247.778-72.444-129.462-168.771-296.476-93.129-424.095 78.943-133.187 294.895-67.407 429.625-143.626 109.64-62.021 147.57-219.464 269.31-251.77z" fill="#7500FC"/></g></g><defs><filter id="b" x="-929.594" y="-330.719" width="2198.56" height="2226.88" filterUnits="userSpaceOnUse" color-interpolation-filters="sRGB"><feFlood flood-opacity="0" result="BackgroundImageFix"/><feBlend in="SourceGraphic" in2="BackgroundImageFix" result="shape"/><feGaussianBlur stdDeviation="222" result="effect1_foregroundBlur_9412_292499"/></filter><filter id="c" x="-382" y="-1128.16" width="2208" height="2304" filterUnits="userSpaceOnUse" color-interpolation-filters="sRGB"><feFlood flood-opacity="0" result="BackgroundImageFix"/><feBlend in="SourceGraphic" in2="BackgroundImageFix" result="shape"/><feGaussianBlur stdDeviation="222" result="effect1_foregroundBlur_9412_292499"/></filter><filter id="d" x="272.266" y="-297.359" width="2327" height="2109" filterUnits="userSpaceOnUse" color-interpolation-filters="sRGB"><feFlood flood-opacity="0" result="BackgroundImageFix"/><feBlend in="SourceGraphic" in2="BackgroundImageFix" result="shape"/><feGaussianBlur stdDeviation="222" result="effect1_foregroundBlur_9412_292499"/></filter><clipPath id="a"><path fill="#fff" transform="translate(0 -.156)" d="M0 0H1440V1076H0z"/></clipPath></defs></svg>