<svg viewBox="0 0 243 40" fill="none" xmlns="http://www.w3.org/2000/svg">
    <g clip-path="url(#clip0_9394_239000)">
        <path
            d="M78.2154 35.0913V13.1434H71.7531V9.34473H89.3596V13.1434H79.2981L82.4694 15.8193V35.0913H78.2154Z"
            fill="currentColor" />
        <path
            d="M89.3212 35.0913V15.946H93.297V18.1956H93.9261C94.1972 17.4469 94.7338 16.8202 95.4368 16.4313C96.2314 16.0341 97.1142 15.8396 98.0046 15.8658H100.328V19.4787H97.8463C96.674 19.4306 95.525 19.8108 94.6194 20.5466C93.7635 21.2585 93.3426 22.3516 93.3569 23.8261V35.0913H89.3212Z"
            fill="currentColor" />
        <path
            d="M109.988 35.6315C108.198 35.6701 106.428 35.2498 104.852 34.4117C103.394 33.6061 102.199 32.4069 101.407 30.9549C100.544 29.3604 100.11 27.5747 100.144 25.7676V25.3245C100.102 23.5109 100.521 21.7157 101.364 20.1034C102.143 18.6495 103.332 17.4489 104.788 16.6466C106.335 15.8063 108.08 15.384 109.846 15.4226C111.564 15.384 113.259 15.8072 114.751 16.6466C116.145 17.4475 117.283 18.6172 118.038 20.0232C118.855 21.5951 119.261 23.3433 119.219 25.1092V26.6244H104.283C104.273 27.3743 104.42 28.118 104.714 28.8094C105.009 29.5007 105.445 30.1248 105.995 30.6426C107.103 31.6455 108.565 32.1816 110.069 32.1367C111.593 32.1367 112.74 31.8033 113.514 31.128C114.27 30.4827 114.88 29.6892 115.307 28.7981L118.654 30.4864C118.218 31.3106 117.684 32.08 117.062 32.7783C116.299 33.6288 115.367 34.3156 114.323 34.7958C112.961 35.394 111.478 35.6797 109.988 35.6315ZM104.321 23.556H115.072C115.056 22.9141 114.908 22.2821 114.637 21.6981C114.367 21.1141 113.979 20.5903 113.497 20.1583C112.46 19.3111 111.14 18.8747 109.795 18.9342C108.445 18.8762 107.12 19.3121 106.076 20.1583C105.083 21.036 104.457 22.2475 104.321 23.556Z"
            fill="currentColor" />
        <path
            d="M121.333 35.0913V15.946H125.309V18.8203H125.938C126.395 17.9404 127.073 17.1906 127.907 16.6424C128.851 15.9586 130.256 15.6168 132.122 15.6168C133.492 15.5926 134.843 15.9276 136.038 16.5875C137.179 17.2333 138.114 18.1825 138.734 19.3268C139.424 20.6379 139.763 22.1008 139.719 23.5771V35.0913H135.666V23.9063C135.666 22.249 135.245 21.0249 134.403 20.2343C133.562 19.4436 132.413 19.0496 130.958 19.0524C130.203 19.018 129.45 19.1459 128.75 19.4272C128.05 19.7086 127.421 20.1366 126.905 20.6816C125.898 21.7706 125.395 23.3506 125.395 25.4215V35.0913H121.333Z"
            fill="currentColor" />
        <path
            d="M150.824 35.6315C149.239 35.6446 147.681 35.2304 146.317 34.4337C144.954 33.6371 143.837 32.4882 143.087 31.1111C142.219 29.4781 141.792 27.6526 141.846 25.8098V25.2274C141.795 23.3928 142.215 21.5754 143.065 19.943C143.813 18.5375 144.946 17.3675 146.335 16.5664C147.699 15.7901 149.249 15.3879 150.824 15.4015C151.901 15.3743 152.974 15.5314 153.996 15.8658C154.765 16.1301 155.479 16.5321 156.101 17.0518C156.607 17.4729 157.033 17.9787 157.359 18.5459H157.989V10.2057H162.046V35.1081H158.07V32.3731H157.441C156.862 33.274 156.089 34.0379 155.177 34.6101C154.162 35.2981 152.716 35.6315 150.824 35.6315ZM151.967 32.1367C152.77 32.1613 153.57 32.0243 154.317 31.7341C155.065 31.4438 155.745 31.0064 156.315 30.4484C157.456 29.3229 158.027 27.7303 158.027 25.6706V25.3245C158.027 23.2816 157.456 21.7031 156.315 20.5888C155.131 19.5163 153.581 18.9211 151.973 18.9211C150.365 18.9211 148.816 19.5163 147.632 20.5888C146.49 21.7143 145.92 23.2929 145.92 25.3245V25.6748C145.92 27.7486 146.49 29.3412 147.632 30.4527C148.2 31.0099 148.877 31.4467 149.623 31.7363C150.369 32.0259 151.166 32.1621 151.967 32.1367Z"
            fill="currentColor" />
        <path
            d="M165.277 35.0913V15.106L168.778 15.1693L165.277 13.6077V10.2057H169.33V35.1081L165.277 35.0913Z"
            fill="currentColor" />
        <path
            d="M183.821 35.6315C181.929 35.6315 180.478 35.2953 179.468 34.6228C178.554 34.0469 177.781 33.2786 177.204 32.3731H176.575V35.0913H172.599V10.1889H176.652V18.5459H177.286C177.629 17.99 178.053 17.4866 178.544 17.0518C179.153 16.5234 179.863 16.1202 180.632 15.8658C181.66 15.5322 182.739 15.3751 183.821 15.4015C185.394 15.3887 186.943 15.7909 188.306 16.5664C189.694 17.3687 190.827 18.5384 191.575 19.943C192.426 21.5754 192.845 23.3928 192.795 25.2274V25.8099C192.849 27.6526 192.421 29.4781 191.554 31.1111C190.809 32.4919 189.692 33.6439 188.328 34.4411C186.963 35.2384 185.402 35.6502 183.816 35.6315H183.821ZM182.639 32.1367C183.443 32.1612 184.243 32.0241 184.992 31.7339C185.74 31.4436 186.42 31.0063 186.992 30.4485C188.133 29.3229 188.704 27.7303 188.704 25.6706V25.3245C188.704 23.2816 188.133 21.7031 186.992 20.5888C185.808 19.5175 184.259 18.9231 182.652 18.9231C181.045 18.9231 179.497 19.5175 178.313 20.5888C177.171 21.7143 176.601 23.2929 176.601 25.3245V25.6748C176.601 27.7486 177.171 29.3412 178.313 30.4527C178.879 31.0096 179.555 31.4464 180.3 31.736C181.044 32.0256 181.84 32.162 182.639 32.1367Z"
            fill="currentColor" />
        <path
            d="M206.302 35.6315C204.413 35.6315 202.964 35.2953 201.954 34.6228C201.039 34.0481 200.266 33.2796 199.69 32.3731H199.061V35.0913H195.081V10.1889H199.138V18.5459H199.767C200.12 17.9895 200.552 17.4862 201.051 17.0518C201.658 16.5234 202.367 16.1202 203.135 15.8658C204.163 15.5325 205.241 15.3755 206.323 15.4015C207.898 15.3875 209.449 15.7897 210.813 16.5664C212.202 17.3675 213.335 18.5375 214.082 19.943C214.921 21.5784 215.329 23.3957 215.268 25.2274V25.8099C215.324 27.6528 214.896 29.4788 214.027 31.1111C213.282 32.4928 212.166 33.6456 210.802 34.443C209.437 35.2404 207.875 35.6516 206.289 35.6315H206.302ZM205.121 32.1367C205.924 32.1612 206.725 32.0241 207.473 31.7339C208.221 31.4436 208.902 31.0063 209.473 30.4484C210.614 29.3229 211.185 27.7303 211.185 25.6706V25.3245C211.185 23.2816 210.622 21.7031 209.495 20.5888C208.31 19.5163 206.761 18.9211 205.153 18.9211C203.545 18.9211 201.995 19.5163 200.811 20.5888C199.67 21.7143 199.099 23.2929 199.099 25.3245V25.6748C199.099 27.7486 199.67 29.3412 200.811 30.4527C201.376 31.0069 202.049 31.442 202.79 31.7316C203.531 32.0211 204.324 32.1589 205.121 32.1367Z"
            fill="currentColor" />
        <path d="M217.566 35.0913V10.1889H221.619V35.0913H217.566Z" fill="currentColor" />
        <path
            d="M233.786 35.6315C231.996 35.6696 230.226 35.2493 228.65 34.4117C227.193 33.6048 225.998 32.406 225.205 30.9549C224.352 29.3577 223.925 27.5726 223.964 25.7676V25.3245C223.921 23.5109 224.341 21.7157 225.184 20.1034C225.965 18.6513 227.154 17.4514 228.607 16.6466C230.157 15.8067 231.903 15.3845 233.67 15.4226C235.386 15.3839 237.08 15.8071 238.571 16.6466C239.964 17.4475 241.103 18.6172 241.857 20.0232C242.674 21.5951 243.08 23.3433 243.039 25.1092V26.6245H228.077C228.067 27.3742 228.214 28.1179 228.509 28.8092C228.803 29.5005 229.239 30.1246 229.789 30.6426C230.896 31.6471 232.359 32.1835 233.863 32.1367C235.382 32.1367 236.533 31.8033 237.287 31.128C238.041 30.4816 238.651 29.6884 239.08 28.7981L242.427 30.4864C241.989 31.3106 241.453 32.08 240.83 32.7783C240.068 33.6278 239.137 34.3144 238.096 34.7958C236.741 35.3896 235.268 35.6752 233.786 35.6315ZM228.107 23.556H238.853C238.838 22.9139 238.69 22.2817 238.419 21.6976C238.149 21.1136 237.76 20.5898 237.278 20.1583C236.241 19.3111 234.921 18.8748 233.576 18.9343C232.226 18.8778 230.902 19.3135 229.857 20.1583C228.865 21.0364 228.241 22.248 228.107 23.556Z"
            fill="currentColor" />
        <path
            d="M29.487 25.5946V25.7465L29.4485 25.7212V32.3056C29.4463 32.4239 29.4133 32.5396 29.3526 32.6416C29.2919 32.7437 29.2055 32.8285 29.1018 32.888L27.3899 33.8546L16.7721 39.9071C16.6668 39.9671 16.5473 39.9987 16.4257 39.9987C16.3041 39.9988 16.1847 39.9673 16.0793 39.9074C15.9739 39.8476 15.8864 39.7614 15.8255 39.6577C15.7645 39.5539 15.7323 39.4361 15.7321 39.3162C15.7321 34.6734 15.7321 30.9718 15.7064 26.2319C15.7063 26.1115 15.7383 25.9931 15.7991 25.8887C15.86 25.7842 15.9475 25.6974 16.0531 25.6368C16.8619 25.1683 18.8819 24.016 19.7764 23.5011C19.8832 23.4407 20.0042 23.409 20.1273 23.409C20.2504 23.409 20.3714 23.4407 20.4783 23.5011L26.3543 26.9283C26.46 26.9861 26.5791 27.0158 26.6999 27.0145C26.8207 27.0132 26.9392 26.981 27.0436 26.921C27.148 26.861 27.2348 26.7753 27.2955 26.6723C27.3562 26.5692 27.3888 26.4524 27.3899 26.3332V24.8264C27.389 24.7078 27.357 24.5915 27.297 24.4887C27.237 24.3859 27.1511 24.3001 27.0476 24.2397L25.815 23.518L29.487 25.5946Z"
            fill="currentColor" />
        <path
            d="M31.9008 25.5904V25.7465L31.9436 25.7212V32.3056C31.9452 32.4262 31.9783 32.5443 32.0398 32.6486C32.1013 32.7528 32.189 32.8397 32.2945 32.9007C32.8651 33.2187 33.4357 33.538 34.0064 33.8588L44.6756 39.8734C44.7832 39.9322 44.9047 39.962 45.0277 39.9596C45.1507 39.9572 45.2709 39.9227 45.3761 39.8597C45.4813 39.7967 45.5677 39.7074 45.6265 39.6008C45.6854 39.4943 45.7146 39.3742 45.7113 39.2529C45.7113 34.6101 45.7113 30.9127 45.6856 26.1686C45.6861 26.0481 45.6543 25.9296 45.5935 25.825C45.5326 25.7205 45.4448 25.6338 45.3389 25.5735L41.6071 23.4631C41.5005 23.4019 41.3794 23.3697 41.2561 23.3697C41.1328 23.3697 41.0117 23.4019 40.9052 23.4631L35.0378 26.9115C34.9323 26.972 34.8127 27.0042 34.6907 27.0049C34.5687 27.0055 34.4487 26.9747 34.3425 26.9153C34.2364 26.8559 34.148 26.7702 34.086 26.6665C34.024 26.5629 33.9906 26.4451 33.9892 26.3248V24.8138C33.9893 24.6955 34.0205 24.5792 34.0798 24.4764C34.139 24.3736 34.2243 24.2877 34.3273 24.2271L35.5599 23.5011L31.9008 25.5904Z"
            fill="currentColor" />
        <path
            d="M29.457 10.1002L29.487 25.5946L25.8279 23.518L11.1486 14.9625L10.8704 14.7979L0.33812 8.6103C0.234378 8.54929 0.148475 8.46276 0.0888198 8.35918C0.029165 8.2556 -0.00219727 8.13852 -0.00219727 8.01939C-0.00219727 7.90027 0.029165 7.78319 0.0888198 7.67961C0.148475 7.57603 0.234378 7.4895 0.33812 7.42849L13.0616 0.156144C13.1695 0.0921375 13.293 0.0583191 13.4189 0.0583191C13.5449 0.0583191 13.6684 0.0921375 13.7763 0.156144L29.1318 9.52198C29.2314 9.58307 29.3136 9.66826 29.3705 9.76945C29.4275 9.87064 29.4572 9.9845 29.457 10.1002Z"
            fill="currentColor" />
        <path
            d="M31.8451 10.096L31.8751 25.5904L35.5256 23.48L50.1707 14.8697L50.4488 14.7008L60.9555 8.47525C61.0603 8.41564 61.1475 8.32984 61.208 8.22648C61.2686 8.12311 61.3005 8.00584 61.3005 7.88645C61.3005 7.76707 61.2686 7.64979 61.208 7.54643C61.1475 7.44306 61.0603 7.35726 60.9555 7.29766L48.202 0.0886251C48.0938 0.0254938 47.9704 -0.0078125 47.8447 -0.0078125C47.7189 -0.0078125 47.5955 0.0254938 47.4873 0.0886251L32.1704 9.51355C32.0704 9.57532 31.988 9.66123 31.9311 9.76316C31.8742 9.86509 31.8446 9.97965 31.8451 10.096Z"
            fill="currentColor" />
    </g>
    <defs>
        <clipPath id="clip0_9394_239000">
            <rect width="243" height="40" fill="white" />
        </clipPath>
    </defs>
</svg>