<svg width="25" height="25" viewBox="0 0 25 25" fill="none" xmlns="http://www.w3.org/2000/svg">
<path fill-rule="evenodd" clip-rule="evenodd" d="M16.5206 11.1997L13.5906 14.9797C13.4706 15.1397 13.2906 15.2397 13.0906 15.2597C12.8906 15.2897 12.6906 15.2297 12.5306 15.1097L9.71063 12.8997L7.18062 16.1897C7.04063 16.3797 6.81062 16.4797 6.59062 16.4797C6.43062 16.4797 6.27063 16.4297 6.13063 16.3197C5.80063 16.0697 5.74063 15.5997 5.99063 15.2697L8.99063 11.3797C9.11063 11.2197 9.29063 11.1197 9.49063 11.0997C9.69063 11.0697 9.89062 11.1297 10.0506 11.2497L12.8706 13.4597L15.3306 10.2797C15.5906 9.94971 16.0606 9.88971 16.3906 10.1497C16.7106 10.3997 16.7706 10.8697 16.5206 11.1997ZM21.6206 8.80971C21.0906 9.05971 20.4906 9.19971 19.8706 9.19971C17.5306 9.19971 15.6206 7.28971 15.6206 4.94971C15.6206 4.30971 15.7606 3.70971 16.0206 3.16971C14.9206 2.93971 13.6406 2.82971 12.1606 2.82971C4.95063 2.82971 2.39062 5.37971 2.39062 12.5997C2.39062 19.8197 4.95063 22.3697 12.1606 22.3697C19.3806 22.3697 21.9406 19.8197 21.9406 12.5997C21.9406 11.1497 21.8406 9.88971 21.6206 8.80971Z" fill="currentColor"/>
<path fill-rule="evenodd" clip-rule="evenodd" d="M19.8706 7.19971C20.2906 7.19971 20.6906 7.07971 21.0206 6.87971C21.6706 6.48971 22.1106 5.76971 22.1106 4.94971C22.1106 3.70971 21.1106 2.69971 19.8706 2.69971C19.0606 2.69971 18.3506 3.12971 17.9506 3.77971C17.7406 4.11971 17.6206 4.51971 17.6206 4.94971C17.6206 6.18971 18.6306 7.19971 19.8706 7.19971Z" fill="currentColor"/>
</svg>
