<svg width="25" height="24" viewBox="0 0 25 24" fill="none" xmlns="http://www.w3.org/2000/svg">
<path fill-rule="evenodd" clip-rule="evenodd" d="M10.0329 14.0304C5.92894 14.0304 2.46094 16.2794 2.46094 18.9414C2.46094 21.9774 6.78194 22.3284 10.0329 22.3284C11.9059 22.3284 17.6049 22.3284 17.6049 18.9214C17.6049 16.2694 14.1369 14.0304 10.0329 14.0304Z" fill="currentColor"/>
<path fill-rule="evenodd" clip-rule="evenodd" d="M10.0006 11.7364H10.0326C12.8086 11.7364 15.0656 9.47839 15.0656 6.70339C15.0656 3.92839 12.8086 1.67139 10.0326 1.67139C7.25761 1.67139 4.99961 3.92839 4.99961 6.70139C4.98961 9.46739 7.23161 11.7264 10.0006 11.7364Z" fill="currentColor"/>
<path fill-rule="evenodd" clip-rule="evenodd" d="M21.2887 9.40435H19.9917V8.14935C19.9917 7.73535 19.6557 7.39935 19.2417 7.39935C18.8277 7.39935 18.4917 7.73535 18.4917 8.14935V9.40435H17.1987C16.7847 9.40435 16.4487 9.74035 16.4487 10.1544C16.4487 10.5684 16.7847 10.9044 17.1987 10.9044H18.4917V12.1594C18.4917 12.5734 18.8277 12.9094 19.2417 12.9094C19.6557 12.9094 19.9917 12.5734 19.9917 12.1594V10.9044H21.2887C21.7027 10.9044 22.0387 10.5684 22.0387 10.1544C22.0387 9.74035 21.7027 9.40435 21.2887 9.40435Z" fill="currentColor"/>
</svg>
