<svg width="25" height="24" viewBox="0 0 25 24" fill="none" xmlns="http://www.w3.org/2000/svg">
<path fill-rule="evenodd" clip-rule="evenodd" d="M20.4242 11.0001H12.1972C12.1312 9.09213 11.8782 7.37113 11.4352 6.92713C10.8722 6.36413 9.93922 6.65013 9.18722 6.96113C7.61622 7.61113 3.07422 10.3571 3.07422 12.0071C3.07422 13.7101 7.82122 16.4451 9.26222 17.0421C9.71322 17.2291 10.1952 17.3941 10.6232 17.3941C10.9322 17.3941 11.2132 17.3091 11.4362 17.0851C11.8802 16.6391 12.1332 14.9121 12.1982 13.0001H20.4242C20.9772 13.0001 21.4242 12.5531 21.4242 12.0001C21.4242 11.4471 20.9772 11.0001 20.4242 11.0001Z" fill="currentColor"/>
</svg>
