<svg width="25" height="24" viewBox="0 0 25 24" fill="none" xmlns="http://www.w3.org/2000/svg">
<path fill-rule="evenodd" clip-rule="evenodd" d="M18.7491 12.57C18.2621 12.306 17.6561 12.49 17.3951 12.975C16.4341 14.757 14.6681 17.217 13.2441 18.133V4.5C13.2441 3.947 12.7971 3.5 12.2441 3.5C11.6911 3.5 11.2441 3.947 11.2441 4.5V18.128C9.82411 17.218 8.09111 14.802 7.10411 12.975C6.84211 12.49 6.23711 12.308 5.75011 12.57C5.26411 12.832 5.08211 13.438 5.34511 13.924C5.93411 15.02 9.03511 20.472 12.2331 20.497C12.2371 20.497 12.2401 20.5 12.2441 20.5C12.2451 20.5 12.2471 20.499 12.2481 20.499C12.2501 20.499 12.2521 20.5 12.2551 20.5C15.4501 20.5 18.5631 15.022 19.1541 13.924C19.4171 13.438 19.2351 12.832 18.7491 12.57Z" fill="currentColor"/>
</svg>
