<svg width="25" height="24" viewBox="0 0 25 24" fill="none" xmlns="http://www.w3.org/2000/svg">
<path fill-rule="evenodd" clip-rule="evenodd" d="M15.2382 6.95745C14.4622 6.63645 13.5962 6.38045 13.0642 6.91445C12.6202 7.36045 12.3672 9.08745 12.3022 10.9994H4.07617C3.52317 10.9994 3.07617 11.4464 3.07617 11.9994C3.07617 12.5524 3.52317 12.9994 4.07617 12.9994H12.3032C12.3682 14.9074 12.6212 16.6284 13.0652 17.0724C13.2992 17.3064 13.5962 17.3944 13.9192 17.3944C14.3722 17.3944 14.8742 17.2204 15.3132 17.0384C16.8842 16.3884 21.4252 13.6424 21.4252 11.9924C21.4252 10.2894 16.6782 7.55445 15.2382 6.95745Z" fill="currentColor"/>
</svg>
