<svg width="25" height="25" viewBox="0 0 25 25" fill="none" xmlns="http://www.w3.org/2000/svg">
<path fill-rule="evenodd" clip-rule="evenodd" d="M15.1883 13.0139H15.1423C14.5903 13.0139 14.1423 12.5659 14.1423 12.0139C14.1423 11.4619 14.5903 11.0139 15.1423 11.0139C15.6963 11.0139 16.1653 11.4719 16.1653 12.0139C16.1653 12.5749 15.7363 13.0139 15.1883 13.0139ZM8.72932 6.91094C8.85232 6.18094 9.19032 5.50594 9.72732 4.97394C10.4003 4.30694 11.2923 3.93994 12.2423 3.93994H12.2593C14.0233 3.93994 15.4823 5.22794 15.7693 6.91094C14.7373 6.77194 13.5793 6.69494 12.2493 6.69494C10.9203 6.69494 9.76132 6.77194 8.72932 6.91094ZM9.35732 13.0139H9.31132C8.76032 13.0139 8.31132 12.5659 8.31132 12.0139C8.31132 11.4619 8.76032 11.0139 9.31132 11.0139C9.86632 11.0139 10.3343 11.4719 10.3343 12.0139C10.3343 12.5749 9.90532 13.0139 9.35732 13.0139ZM20.9163 9.24694C20.1763 8.28194 18.9803 7.61194 17.2983 7.19794C17.1333 4.54994 14.9483 2.43994 12.2623 2.43994H12.2393C10.8943 2.43994 9.62732 2.96094 8.67132 3.90894C7.78332 4.78894 7.28232 5.94394 7.20132 7.19794C5.51832 7.61094 4.32232 8.28094 3.58232 9.24694C2.57232 10.5659 2.39732 12.3789 3.04832 14.7909C4.55132 20.3669 5.43332 22.6289 12.2493 22.6289C19.0643 22.6289 19.9463 20.3669 21.4503 14.7909C22.1003 12.3789 21.9263 10.5659 20.9163 9.24694Z" fill="currentColor"/>
</svg>
