<svg width="25" height="25" viewBox="0 0 25 25" fill="none" xmlns="http://www.w3.org/2000/svg">
<path fill-rule="evenodd" clip-rule="evenodd" d="M16.7805 7.14449V7.76449C16.3205 7.66449 15.8205 7.57449 15.2805 7.51449V7.14449C15.2805 5.47449 13.9305 4.10449 12.2605 4.10449H12.2505C10.5805 4.10449 9.22046 5.46449 9.22046 7.12449V7.51449C8.68046 7.57449 8.18046 7.66449 7.72046 7.76449V7.12449C7.72046 4.63449 9.76046 2.60449 12.2505 2.60449H12.2605C14.7605 2.61449 16.7905 4.64449 16.7805 7.14449Z" fill="currentColor"/>
<path fill-rule="evenodd" clip-rule="evenodd" d="M21.7705 14.9145C21.7705 20.4945 19.2805 22.4645 12.2505 22.4645C5.22047 22.4645 2.73047 20.4945 2.73047 14.9145C2.73047 10.7645 4.11046 8.60449 7.72046 7.76449L7.72047 10.1745C7.72047 10.5945 8.05047 10.9245 8.47047 10.9245C8.88047 10.9245 9.22047 10.5945 9.22047 10.1745L9.22046 7.51449C10.1205 7.40449 11.1305 7.35449 12.2505 7.35449C13.3705 7.35449 14.3805 7.40449 15.2805 7.51449L15.2805 10.1745C15.2805 10.5945 15.6205 10.9245 16.0305 10.9245C16.4405 10.9245 16.7805 10.5945 16.7805 10.1745L16.7805 7.76449C20.3905 8.60449 21.7705 10.7645 21.7705 14.9145Z" fill="currentColor"/>
</svg>
