<svg width="25" height="25" viewBox="0 0 25 25" fill="none" xmlns="http://www.w3.org/2000/svg">
<path fill-rule="evenodd" clip-rule="evenodd" d="M17.2046 4.26316V2.66016C17.2046 2.24616 16.8686 1.91016 16.4546 1.91016C16.0406 1.91016 15.7046 2.24616 15.7046 2.66016V5.92316C15.7046 6.18316 15.8456 6.40216 16.0476 6.53616C15.9286 6.61616 15.7936 6.67316 15.6396 6.67316C15.2256 6.67316 14.8896 6.33716 14.8896 5.92316V3.75716C14.0876 3.66116 13.2136 3.61216 12.2506 3.61216C11.1166 3.61216 10.1056 3.68016 9.19656 3.81716V2.66016C9.19656 2.24616 8.86056 1.91016 8.44656 1.91016C8.03256 1.91016 7.69656 2.24616 7.69656 2.66016V5.92316C7.69656 6.18316 7.83756 6.40216 8.03956 6.53616C7.92056 6.61616 7.78556 6.67316 7.63156 6.67316C7.21756 6.67316 6.88156 6.33716 6.88156 5.92316V4.39316C4.74756 5.21616 3.49556 6.74716 2.90356 9.18516H21.5986C20.9706 6.59916 19.5826 5.04716 17.2046 4.26316Z" fill="currentColor"/>
<path fill-rule="evenodd" clip-rule="evenodd" d="M16.6636 14.6215C16.2496 14.6215 15.9096 14.2855 15.9096 13.8715C15.9096 13.4575 16.2406 13.1215 16.6546 13.1215H16.6636C17.0776 13.1215 17.4136 13.4575 17.4136 13.8715C17.4136 14.2855 17.0776 14.6215 16.6636 14.6215ZM16.6636 18.4745C16.2496 18.4745 15.9096 18.1385 15.9096 17.7245C15.9096 17.3095 16.2406 16.9745 16.6546 16.9745H16.6636C17.0776 16.9745 17.4136 17.3095 17.4136 17.7245C17.4136 18.1385 17.0776 18.4745 16.6636 18.4745ZM12.2646 14.6215C11.8506 14.6215 11.5096 14.2855 11.5096 13.8715C11.5096 13.4575 11.8416 13.1215 12.2556 13.1215H12.2646C12.6786 13.1215 13.0146 13.4575 13.0146 13.8715C13.0146 14.2855 12.6786 14.6215 12.2646 14.6215ZM12.2646 18.4745C11.8506 18.4745 11.5096 18.1385 11.5096 17.7245C11.5096 17.3095 11.8416 16.9745 12.2556 16.9745H12.2646C12.6786 16.9745 13.0146 17.3095 13.0146 17.7245C13.0146 18.1385 12.6786 18.4745 12.2646 18.4745ZM7.85656 14.6215C7.44256 14.6215 7.10156 14.2855 7.10156 13.8715C7.10156 13.4575 7.43356 13.1215 7.84756 13.1215H7.85656C8.27056 13.1215 8.60656 13.4575 8.60656 13.8715C8.60656 14.2855 8.27056 14.6215 7.85656 14.6215ZM7.85656 18.4745C7.44256 18.4745 7.10156 18.1385 7.10156 17.7245C7.10156 17.3095 7.43356 16.9745 7.84756 16.9745H7.85656C8.27056 16.9745 8.60656 17.3095 8.60656 17.7245C8.60656 18.1385 8.27056 18.4745 7.85656 18.4745ZM21.8706 10.6845H2.63156C2.52956 11.5045 2.47656 12.3975 2.47656 13.3865C2.47656 20.6015 5.03456 23.1595 12.2506 23.1595C19.4676 23.1595 22.0256 20.6015 22.0256 13.3865C22.0256 12.3975 21.9726 11.5045 21.8706 10.6845Z" fill="currentColor"/>
</svg>
