<svg width="25" height="25" viewBox="0 0 25 25" fill="none" xmlns="http://www.w3.org/2000/svg">
<path fill-rule="evenodd" clip-rule="evenodd" d="M14.8618 2.35982C14.4488 2.30782 14.0788 2.61082 14.0338 3.02182C13.9878 3.43382 14.2848 3.80382 14.6958 3.84982C18.0728 4.22482 20.6948 6.84482 21.0738 10.2208C21.1168 10.6038 21.4408 10.8868 21.8178 10.8868C21.8458 10.8868 21.8748 10.8848 21.9028 10.8818C22.3137 10.8368 22.6098 10.4648 22.5638 10.0528C22.1068 5.97682 18.9398 2.81282 14.8618 2.35982Z" fill="currentColor"/>
<path fill-rule="evenodd" clip-rule="evenodd" d="M17.5425 10.2914C17.6125 10.6494 17.9265 10.8974 18.2775 10.8974C18.3255 10.8974 18.3735 10.8934 18.4225 10.8844C18.8285 10.8054 19.0945 10.4104 19.0155 10.0044C18.6085 7.92241 17.0015 6.31541 14.9215 5.91141C14.5245 5.83241 14.1215 6.09841 14.0425 6.50541C13.9635 6.91141 14.2295 7.30541 14.6365 7.38441C16.1125 7.67141 17.2545 8.81241 17.5425 10.2914Z" fill="currentColor"/>
<path fill-rule="evenodd" clip-rule="evenodd" d="M15.7769 14.4516C14.7789 14.9376 13.9149 15.3596 11.6679 13.1126C9.42185 10.8656 9.84185 10.0026 10.3289 9.00362C11.0339 7.55562 11.3189 6.23862 8.11685 3.60162C7.35185 2.97662 6.52185 2.73662 5.65485 2.90462C3.82185 3.24762 2.52685 5.28762 2.52885 5.28762C1.71685 6.42362 0.604853 9.83962 7.77185 17.0076C12.4859 21.7226 15.5779 22.8536 17.4539 22.8536C18.4299 22.8536 19.0769 22.5476 19.4509 22.2786C19.4709 22.2666 21.5289 20.9916 21.8769 19.1226C22.0389 18.2536 21.8029 17.4266 21.1769 16.6616C18.5409 13.4626 17.2239 13.7466 15.7769 14.4516Z" fill="currentColor"/>
</svg>
