<svg width="25" height="25" viewBox="0 0 25 25" fill="none" xmlns="http://www.w3.org/2000/svg">
<path fill-rule="evenodd" clip-rule="evenodd" d="M6.71455 14.287H6.73455C6.86655 14.287 6.99355 14.234 7.08755 14.141L10.5905 10.637C10.7195 10.508 10.7685 10.318 10.7165 10.142C10.5105 9.43896 10.7495 8.94796 11.0265 8.38096C11.7295 6.93296 12.0135 5.61596 8.81155 2.97396C8.04655 2.34896 7.21455 2.11696 6.34555 2.27996C4.49955 2.63096 3.22355 4.66596 3.22555 4.66596C2.38855 5.84896 1.68355 8.65096 6.35455 14.112C6.44455 14.218 6.57555 14.281 6.71455 14.287Z" fill="currentColor"/>
<path fill-rule="evenodd" clip-rule="evenodd" d="M21.8748 16.038C19.2397 12.842 17.9237 13.127 16.4738 13.831C15.5577 14.278 14.7597 14.664 12.9067 13.008L21.6548 4.26C21.9478 3.967 21.9478 3.492 21.6548 3.199C21.3618 2.906 20.8877 2.906 20.5947 3.199L2.09475 21.699C1.80175 21.992 1.80175 22.467 2.09475 22.76C2.24075 22.906 2.43275 22.979 2.62475 22.979C2.81675 22.979 3.00875 22.906 3.15475 22.76L9.00875 16.906C13.4257 21.177 16.3518 22.233 18.1488 22.233C19.1287 22.233 19.7727 21.923 20.1437 21.653C20.1637 21.642 22.2307 20.361 22.5767 18.499C22.7377 17.631 22.5018 16.804 21.8748 16.038Z" fill="currentColor"/>
</svg>
