<svg width="25" height="25" viewBox="0 0 25 25" fill="none" xmlns="http://www.w3.org/2000/svg">
<path fill-rule="evenodd" clip-rule="evenodd" d="M19.8445 6.10522L22.3145 3.63522C22.6075 3.34222 22.6075 2.86822 22.3145 2.57522C22.0215 2.28222 21.5465 2.28222 21.2535 2.57522L18.7835 5.04422L16.3145 2.57522C16.0215 2.28222 15.5465 2.28222 15.2535 2.57522C14.9605 2.86822 14.9605 3.34222 15.2535 3.63522L17.7235 6.10522L15.2535 8.57522C14.9605 8.86822 14.9605 9.34222 15.2535 9.63522C15.4005 9.78222 15.5915 9.85522 15.7835 9.85522C15.9765 9.85522 16.1675 9.78222 16.3145 9.63522L18.7835 7.16622L21.2535 9.63522C21.4005 9.78222 21.5915 9.85522 21.7835 9.85522C21.9765 9.85522 22.1675 9.78222 22.3145 9.63522C22.6075 9.34222 22.6075 8.86822 22.3145 8.57522L19.8445 6.10522Z" fill="currentColor"/>
<path fill-rule="evenodd" clip-rule="evenodd" d="M15.8074 14.4519C14.8094 14.9379 13.9464 15.3599 11.6994 13.1129C9.45338 10.8659 9.87238 10.0029 10.3604 9.00393C11.0644 7.55593 11.3494 6.23893 8.14738 3.60193C7.38438 2.97793 6.56238 2.74093 5.68838 2.90393C3.82838 3.24993 2.55738 5.28693 2.55938 5.28693C1.74838 6.42393 0.636384 9.84193 7.80338 17.0079C12.5154 21.7199 15.6074 22.8529 17.4834 22.8529C18.4604 22.8529 19.1094 22.5459 19.4854 22.2769C19.5054 22.2639 21.5744 20.9599 21.9104 19.1089C22.0664 18.2449 21.8304 17.4229 21.2074 16.6619C18.5744 13.4649 17.2564 13.7469 15.8074 14.4519Z" fill="currentColor"/>
</svg>
