<svg width="25" height="24" viewBox="0 0 25 24" fill="none" xmlns="http://www.w3.org/2000/svg">
<path fill-rule="evenodd" clip-rule="evenodd" d="M17.1711 10.1269C16.7571 10.1269 16.4171 9.79085 16.4171 9.37685C16.4171 8.96285 16.7481 8.62685 17.1621 8.62685H17.1711C17.5851 8.62685 17.9211 8.96285 17.9211 9.37685C17.9211 9.79085 17.5851 10.1269 17.1711 10.1269ZM12.2501 16.7709C10.1021 16.7709 8.35509 15.0229 8.35509 12.8749C8.35509 10.7279 10.1021 8.98085 12.2501 8.98085C14.3981 8.98085 16.1451 10.7279 16.1451 12.8749C16.1451 15.0229 14.3981 16.7709 12.2501 16.7709ZM17.8691 6.00285C17.7001 5.94985 17.4541 5.83885 17.2471 5.61185C17.1611 5.51785 17.0451 5.28285 16.9331 5.05685C16.6311 4.44585 16.2181 3.60985 15.3871 3.25985C14.3191 2.81185 10.2191 2.80985 9.11609 3.25785C8.29609 3.59485 7.87809 4.43485 7.57309 5.04785C7.45809 5.27785 7.34009 5.51585 7.25209 5.61185C7.04609 5.83985 6.80009 5.94985 6.64709 5.99885C3.35009 6.91085 2.74609 9.05385 2.74609 12.9439C2.74609 18.5679 4.11809 21.0769 12.2501 21.0769C20.3811 21.0769 21.7531 18.5679 21.7531 12.9439C21.7531 9.05385 21.1501 6.91085 17.8691 6.00285Z" fill="currentColor"/>
<path fill-rule="evenodd" clip-rule="evenodd" d="M12.2502 10.4803C10.9292 10.4803 9.85522 11.5543 9.85522 12.8753C9.85522 14.1963 10.9292 15.2703 12.2502 15.2703C13.5712 15.2703 14.6452 14.1963 14.6452 12.8753C14.6452 11.5543 13.5712 10.4803 12.2502 10.4803Z" fill="currentColor"/>
</svg>
