<svg width="25" height="25" viewBox="0 0 25 25" fill="none" xmlns="http://www.w3.org/2000/svg">
<path fill-rule="evenodd" clip-rule="evenodd" d="M17.4797 17.4529C17.4797 17.8669 17.1437 18.2029 16.7297 18.2029C16.3157 18.2029 15.9797 17.8669 15.9797 17.4529V14.2959C15.9797 13.8819 16.3157 13.5459 16.7297 13.5459C17.1437 13.5459 17.4797 13.8819 17.4797 14.2959V17.4529ZM13.0007 17.4529C13.0007 17.8669 12.6647 18.2029 12.2507 18.2029C11.8367 18.2029 11.5007 17.8669 11.5007 17.4529V7.55485C11.5007 7.13985 11.8367 6.80485 12.2507 6.80485C12.6647 6.80485 13.0007 7.13985 13.0007 7.55485V17.4529ZM8.44667 17.4529C8.44667 17.8669 8.11067 18.2029 7.69667 18.2029C7.28267 18.2029 6.94667 17.8669 6.94667 17.4529V10.7589C6.94667 10.3449 7.28267 10.0089 7.69667 10.0089C8.11067 10.0089 8.44667 10.3449 8.44667 10.7589V17.4529ZM12.2507 2.29785C4.69167 2.29785 2.01367 4.97585 2.01367 12.5349C2.01367 20.0939 4.69167 22.7719 12.2507 22.7719C19.8087 22.7719 22.4877 20.0939 22.4877 12.5349C22.4877 4.97585 19.8087 2.29785 12.2507 2.29785Z" fill="currentColor"/>
</svg>
