<svg width="25" height="24" viewBox="0 0 25 24" fill="none" xmlns="http://www.w3.org/2000/svg">
<path fill-rule="evenodd" clip-rule="evenodd" d="M16.2014 13.4159C15.6494 13.4159 15.1964 12.9689 15.1964 12.4159C15.1964 11.8629 15.6394 11.4159 16.1924 11.4159H16.2014C16.7534 11.4159 17.2014 11.8629 17.2014 12.4159C17.2014 12.9689 16.7534 13.4159 16.2014 13.4159ZM12.1924 13.4159C11.6394 13.4159 11.1874 12.9689 11.1874 12.4159C11.1874 11.8629 11.6314 11.4159 12.1834 11.4159H12.1924C12.7444 11.4159 13.1924 11.8629 13.1924 12.4159C13.1924 12.9689 12.7444 13.4159 12.1924 13.4159ZM8.18337 13.4159C7.63137 13.4159 7.17937 12.9689 7.17937 12.4159C7.17937 11.8629 7.62137 11.4159 8.17437 11.4159H8.18337C8.73537 11.4159 9.18337 11.8629 9.18337 12.4159C9.18337 12.9689 8.73537 13.4159 8.18337 13.4159ZM19.6774 4.57593C17.6964 2.59493 15.0594 1.50293 12.2534 1.50293C9.44737 1.50293 6.81037 2.59493 4.82937 4.57593C1.72737 7.67893 0.881368 12.4409 2.70637 16.3749C2.73937 16.5369 2.65037 17.1959 2.58637 17.6779C2.34437 19.4839 2.22037 20.8099 2.83337 21.4239C3.44537 22.0369 4.77037 21.9129 6.57637 21.6699C7.05837 21.6059 7.72537 21.5199 7.82937 21.5309C9.23537 22.1819 10.7384 22.4969 12.2304 22.4969C14.9684 22.4969 17.6704 21.4349 19.6774 19.4269C23.7704 15.3319 23.7714 8.66993 19.6774 4.57593Z" fill="currentColor"/>
</svg>
