<svg width="25" height="25" viewBox="0 0 25 25" fill="none" xmlns="http://www.w3.org/2000/svg">
<path fill-rule="evenodd" clip-rule="evenodd" d="M12.2556 17.1797C11.8416 17.1797 11.5016 16.8437 11.5016 16.4297C11.5016 16.0157 11.8326 15.6797 12.2466 15.6797H12.2556C12.6696 15.6797 13.0056 16.0157 13.0056 16.4297C13.0056 16.8437 12.6696 17.1797 12.2556 17.1797ZM11.5006 9.03467C11.5006 8.62067 11.8366 8.28467 12.2506 8.28467C12.6646 8.28467 13.0006 8.62067 13.0006 9.03467V12.9297C13.0006 13.3437 12.6646 13.6797 12.2506 13.6797C11.8366 13.6797 11.5006 13.3437 11.5006 12.9297V9.03467ZM19.3106 10.6927L19.0986 10.3187C16.1126 5.00867 14.2566 3.03467 12.2506 3.03467C10.2446 3.03467 8.38857 5.00867 5.40257 10.3187L5.19157 10.6927C4.11857 12.5747 1.88857 16.4897 2.30257 18.8257C2.79057 21.5887 5.63557 22.0347 12.2506 22.0347C18.8666 22.0347 21.7116 21.5887 22.1986 18.8257C22.6126 16.4897 20.3826 12.5747 19.3106 10.6927Z" fill="currentColor"/>
</svg>
