<svg width="25" height="24" viewBox="0 0 25 24" fill="none" xmlns="http://www.w3.org/2000/svg">
<path fill-rule="evenodd" clip-rule="evenodd" d="M15.8454 12.6875H8.62537C8.21137 12.6875 7.87537 12.3515 7.87537 11.9375C7.87537 11.5235 8.21137 11.1875 8.62537 11.1875H15.8454C16.2594 11.1875 16.5954 11.5235 16.5954 11.9375C16.5954 12.3515 16.2594 12.6875 15.8454 12.6875ZM15.8454 16.4465H8.62537C8.21137 16.4465 7.87537 16.1105 7.87537 15.6965C7.87537 15.2825 8.21137 14.9465 8.62537 14.9465H15.8454C16.2594 14.9465 16.5954 15.2825 16.5954 15.6965C16.5954 16.1105 16.2594 16.4465 15.8454 16.4465ZM8.62537 7.42651H11.3804C11.7944 7.42651 12.1304 7.76251 12.1304 8.17651C12.1304 8.59051 11.7944 8.92651 11.3804 8.92651H8.62537C8.21137 8.92651 7.87537 8.59051 7.87537 8.17651C7.87537 7.76251 8.21137 7.42651 8.62537 7.42651ZM12.2504 2.24951C5.68537 2.24951 3.35938 4.80151 3.35938 12.0005C3.35938 19.1985 5.68537 21.7505 12.2504 21.7505C18.8144 21.7505 21.1414 19.1985 21.1414 12.0005C21.1414 4.80151 18.8144 2.24951 12.2504 2.24951Z" fill="currentColor"/>
</svg>
