<svg width="25" height="24" viewBox="0 0 25 24" fill="none" xmlns="http://www.w3.org/2000/svg">
<path fill-rule="evenodd" clip-rule="evenodd" d="M12.8801 2.81982C12.8801 2.40982 12.5401 2.06982 12.1301 2.06982C11.7201 2.06982 11.3801 2.40982 11.3801 2.81982V6.70982C11.8801 6.68982 12.3801 6.68982 12.8801 6.69982V2.81982Z" fill="currentColor"/>
<path fill-rule="evenodd" clip-rule="evenodd" d="M16.67 6.82983H16.65C15.4 6.74983 14.1501 6.70982 12.8801 6.69982L12.88 13.0498L14.52 11.3998C14.81 11.1098 15.29 11.1098 15.58 11.3998C15.87 11.6998 15.87 12.1698 15.58 12.4598L12.66 15.3898C12.59 15.4598 12.51 15.5098 12.42 15.5498C12.33 15.5898 12.23 15.6098 12.13 15.6098C12.03 15.6098 11.93 15.5898 11.84 15.5498C11.75 15.5098 11.67 15.4598 11.6 15.3898L8.68 12.4598C8.39 12.1698 8.39 11.6998 8.68 11.3998C8.97 11.1098 9.45 11.1098 9.74 11.3998L11.38 13.0498L11.3801 6.70982C10.1901 6.70982 9.01 6.75983 7.83 6.82983C3.8 7.19983 2.5 9.02983 2.5 14.3298C2.5 21.9298 5.35 21.9298 12.25 21.9298C19.15 21.9298 22 21.9298 22 14.3298C22 9.02983 20.7 7.19983 16.67 6.82983Z" fill="currentColor"/>
</svg>
