<svg width="25" height="25" viewBox="0 0 25 25" fill="none" xmlns="http://www.w3.org/2000/svg">
<path fill-rule="evenodd" clip-rule="evenodd" d="M19.8578 19.3516H13.4808C13.0668 19.3516 12.7308 19.6876 12.7308 20.1016C12.7308 20.5156 13.0668 20.8516 13.4808 20.8516H19.8578C20.2718 20.8516 20.6078 20.5156 20.6078 20.1016C20.6078 19.6876 20.2718 19.3516 19.8578 19.3516Z" fill="currentColor"/>
<path fill-rule="evenodd" clip-rule="evenodd" d="M9.61593 8.34312C9.71538 8.21086 9.90314 8.18409 10.0356 8.28331L15.2156 12.1637C15.3483 12.2631 15.3751 12.4513 15.2756 12.5839L10.4559 19.0038C9.2959 20.5538 7.5459 20.8638 6.3359 20.8638C5.5859 20.8638 5.0459 20.7438 4.9859 20.7338C4.8559 20.7038 4.7359 20.6138 4.6659 20.4938C4.5959 20.3638 2.8759 17.3038 4.7959 14.7538L9.61593 8.34312Z" fill="currentColor"/>
<path fill-rule="evenodd" clip-rule="evenodd" d="M17.2059 10.0138L16.5359 10.9045C16.4364 11.0367 16.2487 11.0634 16.1163 10.9642L10.9355 7.08321C10.8031 6.98403 10.7759 6.7964 10.8748 6.66378L11.5459 5.76375C12.2359 4.83375 13.3059 4.34375 14.3859 4.34375C15.1259 4.34375 15.8659 4.57375 16.5059 5.05375C17.2559 5.62375 17.7459 6.45375 17.8859 7.38375C18.0159 8.32375 17.7759 9.25375 17.2059 10.0138Z" fill="currentColor"/>
</svg>
