<svg width="25" height="25" viewBox="0 0 25 25" fill="none" xmlns="http://www.w3.org/2000/svg">
<path fill-rule="evenodd" clip-rule="evenodd" d="M10.7347 16.8483H4.26172C3.70972 16.8483 3.26172 17.2953 3.26172 17.8483C3.26172 18.4013 3.70972 18.8483 4.26172 18.8483H10.7347C11.2867 18.8483 11.7347 18.4013 11.7347 17.8483C11.7347 17.2953 11.2867 16.8483 10.7347 16.8483Z" fill="currentColor"/>
<path fill-rule="evenodd" clip-rule="evenodd" d="M17.5175 14.6276C15.1995 14.6276 14.2955 15.5306 14.2955 17.8496C14.2955 20.1686 15.1995 21.0716 17.5175 21.0716C19.8365 21.0716 20.7395 20.1686 20.7395 17.8496C20.7395 15.5306 19.8365 14.6276 17.5175 14.6276Z" fill="currentColor"/>
<path fill-rule="evenodd" clip-rule="evenodd" d="M20.2386 6.35913H13.7676C13.2156 6.35913 12.7676 6.80613 12.7676 7.35913C12.7676 7.91213 13.2156 8.35913 13.7676 8.35913H20.2386C20.7906 8.35913 21.2386 7.91213 21.2386 7.35913C21.2386 6.80613 20.7906 6.35913 20.2386 6.35913Z" fill="currentColor"/>
<path fill-rule="evenodd" clip-rule="evenodd" d="M6.98378 10.5807C9.30278 10.5807 10.2058 9.67772 10.2058 7.35772C10.2058 5.03972 9.30278 4.13672 6.98378 4.13672C4.66478 4.13672 3.76178 5.03972 3.76178 7.35772C3.76178 9.67772 4.66478 10.5807 6.98378 10.5807Z" fill="currentColor"/>
</svg>
