<svg width="25" height="24" viewBox="0 0 25 24" fill="none" xmlns="http://www.w3.org/2000/svg">
<path fill-rule="evenodd" clip-rule="evenodd" d="M17.0396 15.4756H7.44663C7.03263 15.4756 6.69663 15.1396 6.69663 14.7256C6.69663 14.3116 7.03263 13.9756 7.44663 13.9756H17.0396C17.4536 13.9756 17.7896 14.3116 17.7896 14.7256C17.7896 15.1396 17.4536 15.4756 17.0396 15.4756ZM20.5426 7.25362C19.4456 6.07162 18.0466 6.09962 16.8136 6.12162C16.0406 6.13562 15.3096 6.15062 14.7876 5.85262C14.1426 5.48562 13.9196 5.06962 13.6606 4.58662C13.3746 4.05262 13.0506 3.44762 12.1696 2.97162C10.5436 2.09562 8.63462 1.92462 6.16262 2.43462C3.71962 2.93462 2.14062 5.09962 2.14062 7.94962V14.0156C2.14062 21.2876 6.33162 21.8506 12.2506 21.8506C17.9786 21.8506 22.3606 21.2736 22.3606 13.9886C22.3606 12.2036 22.3606 9.21562 20.5426 7.25362Z" fill="currentColor"/>
</svg>
