<svg width="25" height="25" viewBox="0 0 25 25" fill="none" xmlns="http://www.w3.org/2000/svg">
<path fill-rule="evenodd" clip-rule="evenodd" d="M17.1932 17.2306H17.0912C16.6772 17.2306 16.3412 16.8946 16.3412 16.4806C16.3412 16.0666 16.6772 15.7306 17.0912 15.7306H17.1932C17.6072 15.7306 17.9432 16.0666 17.9432 16.4806C17.9432 16.8946 17.6072 17.2306 17.1932 17.2306ZM15.4622 13.8186H15.3602C14.9462 13.8186 14.6102 13.4826 14.6102 13.0686C14.6102 12.6546 14.9462 12.3186 15.3602 12.3186H15.4622C15.8762 12.3186 16.2122 12.6546 16.2122 13.0686C16.2122 13.4826 15.8762 13.8186 15.4622 13.8186ZM11.0642 15.4976H9.99017V16.5356C9.99017 16.9496 9.65417 17.2856 9.24017 17.2856C8.82617 17.2856 8.49017 16.9496 8.49017 16.5356V15.4976H7.41617C7.00217 15.4976 6.66617 15.1616 6.66617 14.7476C6.66617 14.3336 7.00217 13.9976 7.41617 13.9976H8.49017V12.9596C8.49017 12.5456 8.82617 12.2096 9.24017 12.2096C9.65417 12.2096 9.99017 12.5456 9.99017 12.9596V13.9976H11.0642C11.4782 13.9976 11.8142 14.3336 11.8142 14.7476C11.8142 15.1616 11.4782 15.4976 11.0642 15.4976ZM13.5832 6.90356V6.36056C13.5632 4.85156 12.3392 3.59656 10.8132 3.64356H9.79217C9.64917 3.64356 9.51417 3.58856 9.41217 3.48856C9.30817 3.38656 9.25117 3.25156 9.24917 3.10656C9.24517 2.69156 8.88917 2.33856 8.49217 2.36356C8.07817 2.36756 7.74517 2.70656 7.74917 3.12056C7.76017 4.24056 8.67417 5.14356 9.78517 5.14356H10.8272C11.5112 5.14356 12.0742 5.69756 12.0832 6.37156V6.88256C4.79617 6.91456 2.20117 8.99456 2.20117 14.7926C2.20117 20.6346 4.83117 22.7066 12.2502 22.7066C19.6682 22.7066 22.2972 20.6346 22.2972 14.7926C22.2972 9.31356 19.9862 7.15156 13.5832 6.90356Z" fill="currentColor"/>
</svg>
