<svg width="25" height="24" viewBox="0 0 25 24" fill="none" xmlns="http://www.w3.org/2000/svg">
<path fill-rule="evenodd" clip-rule="evenodd" d="M17.9078 10.698H17.8828C17.4688 10.683 17.1438 10.337 17.1578 9.92304C17.1898 8.97204 16.7248 8.35504 15.9138 8.27204C15.5018 8.23004 15.2018 7.86204 15.2438 7.45004C15.2868 7.03904 15.6568 6.73604 16.0668 6.78004C17.6748 6.94404 18.7158 8.22704 18.6568 9.97304C18.6428 10.379 18.3098 10.698 17.9078 10.698ZM17.8258 3.28404C16.1058 2.73404 13.7248 2.96204 12.2388 4.64804C10.6778 2.97404 8.37777 2.73104 6.66977 3.28504C2.75477 4.54504 1.53377 9.08104 2.64777 12.56V12.561C4.40577 18.032 10.2508 20.983 12.2528 20.983C14.0398 20.983 20.1168 18.087 21.8548 12.56C22.9688 9.08204 21.7448 4.54604 17.8258 3.28404Z" fill="currentColor"/>
</svg>
