<svg width="25" height="25" viewBox="0 0 25 25" fill="none" xmlns="http://www.w3.org/2000/svg">
<path fill-rule="evenodd" clip-rule="evenodd" d="M9.088 7.12749C10.334 7.12749 11.349 8.14249 11.349 9.38849C11.349 10.6345 10.334 11.6485 9.088 11.6485C7.842 11.6485 6.827 10.6345 6.827 9.38849C6.827 8.14249 7.842 7.12749 9.088 7.12749ZM6.726 15.2305C7.911 14.6745 8.869 15.0185 9.796 15.3525C10.495 15.6045 11.219 15.8645 12.22 15.8645C12.998 15.8645 13.457 15.1775 14.12 14.0435C14.78 12.9165 15.601 11.5135 17.259 11.5135C19.563 11.5135 20.991 12.9665 21.959 14.0375C21.984 13.5795 22 13.1055 22 12.6045C22 5.40549 19.448 2.85449 12.25 2.85449C5.052 2.85449 2.5 5.40549 2.5 12.6045C2.5 15.2895 2.856 17.3275 3.676 18.8285C4.192 17.8115 5.314 15.8935 6.726 15.2305Z" fill="currentColor"/>
<path fill-rule="evenodd" clip-rule="evenodd" d="M21.4815 15.7359C21.3345 15.5849 21.1785 15.4119 21.0115 15.2249C20.1275 14.2399 19.0265 13.0129 17.2585 13.0129C16.5145 13.0129 16.0655 13.6889 15.4155 14.8009C14.7465 15.9439 13.9155 17.3649 12.2195 17.3649C10.9565 17.3649 10.0315 17.0319 9.2875 16.7629C8.4115 16.4469 7.9595 16.3069 7.3645 16.5879C6.2325 17.1199 5.0965 19.2659 4.7545 20.0479C4.7345 20.0959 4.7035 20.1349 4.6745 20.1769C6.2115 21.7159 8.6495 22.3539 12.2505 22.3539C18.2095 22.3539 20.9775 20.5959 21.7565 15.9099C21.6555 15.8719 21.5615 15.8179 21.4815 15.7359Z" fill="currentColor"/>
</svg>
