<svg width="25" height="25" viewBox="0 0 25 25" fill="none" xmlns="http://www.w3.org/2000/svg">
<path fill-rule="evenodd" clip-rule="evenodd" d="M16.0598 9.34841C15.0138 9.10541 13.7528 8.99441 12.2498 8.99441C10.7468 8.99441 9.48584 9.10541 8.43984 9.34841V7.91641C8.47284 5.84241 10.1238 4.19741 12.1998 4.17041C13.2308 4.14241 14.1818 4.54241 14.9108 5.25341C15.6388 5.96441 16.0478 6.91541 16.0598 7.92441V9.34841ZM12.9998 17.0474C12.9998 17.4614 12.6638 17.7974 12.2498 17.7974C11.8358 17.7974 11.4998 17.4614 11.4998 17.0474V14.8264C11.4998 14.4124 11.8358 14.0764 12.2498 14.0764C12.6638 14.0764 12.9998 14.4124 12.9998 14.8264V17.0474ZM17.5598 9.86141V7.91541C17.5418 6.49641 16.9738 5.16941 15.9568 4.17941C14.9418 3.18941 13.5878 2.69841 12.1798 2.67041C9.28884 2.70741 6.98684 5.00141 6.93984 7.90541V9.86241C4.90584 10.8324 4.08984 12.6834 4.08984 15.7654C4.08984 20.7654 6.22584 22.5374 12.2498 22.5374C18.2748 22.5374 20.4108 20.7654 20.4108 15.7654C20.4108 12.6834 19.5938 10.8314 17.5598 9.86141Z" fill="currentColor"/>
</svg>
