<svg width="25" height="25" viewBox="0 0 25 25" fill="none" xmlns="http://www.w3.org/2000/svg">
<path fill-rule="evenodd" clip-rule="evenodd" d="M18.3956 10.0645C18.0436 10.4865 14.8846 14.1875 12.2616 14.1875C9.64156 14.1875 6.45056 10.4895 6.09456 10.0675C5.82856 9.75048 5.86856 9.27748 6.18556 9.01048C6.50156 8.74248 6.97456 8.78448 7.24156 9.10048C8.41256 10.4875 10.8096 12.6875 12.2616 12.6875C13.7126 12.6875 16.0876 10.4895 17.2436 9.10348C17.5086 8.78648 17.9816 8.74448 18.2996 9.00748C18.6176 9.27348 18.6606 9.74648 18.3956 10.0645ZM12.2506 2.91748C4.84956 2.91748 2.22656 5.43348 2.22656 12.5345C2.22656 19.6345 4.84956 22.1515 12.2506 22.1515C19.6516 22.1515 22.2746 19.6345 22.2746 12.5345C22.2746 5.43348 19.6516 2.91748 12.2506 2.91748Z" fill="currentColor"/>
</svg>
