<svg width="25" height="24" viewBox="0 0 25 24" fill="none" xmlns="http://www.w3.org/2000/svg">
<path fill-rule="evenodd" clip-rule="evenodd" d="M19.8781 13.9622C19.0311 12.0992 19.0531 11.3982 19.0921 10.1242C19.1021 9.82317 19.1121 9.49617 19.1121 9.12117C19.1121 6.14417 16.9831 1.95117 12.2511 1.95117C7.51909 1.95117 5.39009 6.14417 5.39009 9.12117C5.39009 9.49517 5.40009 9.82317 5.41009 10.1242C5.44909 11.3982 5.47009 12.0992 4.61409 13.9872C4.24809 14.9312 4.29209 15.7462 4.74709 16.4102C5.83909 18.0082 8.99909 18.2282 12.2511 18.2282C15.5031 18.2282 18.6631 18.0082 19.7551 16.4102C20.2111 15.7462 20.2551 14.9312 19.8781 13.9622Z" fill="currentColor"/>
<path fill-rule="evenodd" clip-rule="evenodd" d="M14.9484 19.2405C13.3174 19.4215 11.5494 19.4205 9.53939 19.2385C9.23839 19.2145 8.94039 19.3735 8.80239 19.6485C8.66339 19.9245 8.70739 20.2555 8.91239 20.4855C9.81239 21.4925 10.9964 22.0485 12.2464 22.0485H12.2484C13.5014 22.0485 14.6884 21.4935 15.5904 20.4855C15.7974 20.2545 15.8404 19.9185 15.6984 19.6415C15.5554 19.3665 15.2614 19.2125 14.9484 19.2405Z" fill="currentColor"/>
</svg>
