<svg width="25" height="24" viewBox="0 0 25 24" fill="none" xmlns="http://www.w3.org/2000/svg">
<path fill-rule="evenodd" clip-rule="evenodd" d="M17.2605 8.674C15.6145 8.674 14.2705 7.34 14.2705 5.694V3.652L19.5525 8.674H17.2605ZM13.9815 13.823H12.2825V15.523C12.2825 15.937 11.9465 16.273 11.5325 16.273C11.1185 16.273 10.7825 15.937 10.7825 15.523V13.823H9.08247C8.66747 13.823 8.33247 13.488 8.33247 13.073C8.33247 12.659 8.66747 12.323 9.08247 12.323H10.7825V10.623C10.7825 10.209 11.1185 9.873 11.5325 9.873C11.9465 9.873 12.2825 10.209 12.2825 10.623V12.323H13.9815C14.3955 12.323 14.7315 12.659 14.7315 13.073C14.7315 13.488 14.3955 13.823 13.9815 13.823ZM20.9555 8.85C20.9555 8.81 20.9555 8.78 20.9455 8.74C20.9155 8.56 20.8855 8.38 20.8555 8.21C20.8355 8.1 20.7855 8.01 20.7055 7.93L15.0355 2.53C14.9655 2.46 14.8655 2.41 14.7655 2.4C14.5955 2.38 14.4155 2.36 14.2355 2.34C14.2055 2.33 14.1655 2.33 14.1355 2.33C13.5555 2.28 12.9155 2.25 12.2455 2.25C5.68547 2.25 3.35547 4.8 3.35547 12C3.35547 19.19 5.68547 21.75 12.2455 21.75C18.8155 21.75 21.1455 19.19 21.1455 12C21.1455 10.8 21.0855 9.76 20.9555 8.85Z" fill="currentColor"/>
</svg>
