<svg width="25" height="24" viewBox="0 0 25 24" fill="none" xmlns="http://www.w3.org/2000/svg">
<path fill-rule="evenodd" clip-rule="evenodd" d="M17.2605 8.674C15.6145 8.674 14.2705 7.34 14.2705 5.694V3.652L19.5525 8.674H17.2605ZM14.0885 16.292H8.68947C8.27547 16.292 7.93947 15.956 7.93947 15.542C7.93947 15.128 8.27547 14.792 8.68947 14.792H14.0885C14.5035 14.792 14.8385 15.128 14.8385 15.542C14.8385 15.956 14.5035 16.292 14.0885 16.292ZM8.68747 10.781H12.0435C12.4575 10.781 12.7935 11.117 12.7935 11.531C12.7935 11.946 12.4575 12.281 12.0435 12.281H8.68747C8.27347 12.281 7.93747 11.946 7.93747 11.531C7.93747 11.117 8.27347 10.781 8.68747 10.781ZM20.9555 8.85C20.9555 8.81 20.9555 8.78 20.9455 8.74C20.9155 8.56 20.8855 8.38 20.8555 8.21C20.8355 8.1 20.7855 8.01 20.7055 7.93L15.0355 2.53C14.9655 2.46 14.8655 2.41 14.7655 2.4C14.5955 2.38 14.4155 2.36 14.2355 2.34C14.2055 2.33 14.1655 2.33 14.1355 2.33C13.5555 2.28 12.9155 2.25 12.2455 2.25C5.68547 2.25 3.35547 4.8 3.35547 12C3.35547 19.19 5.68547 21.75 12.2455 21.75C18.8155 21.75 21.1455 19.19 21.1455 12C21.1455 10.8 21.0855 9.76 20.9555 8.85Z" fill="currentColor"/>
</svg>
