<svg width="25" height="24" viewBox="0 0 25 24" fill="none" xmlns="http://www.w3.org/2000/svg">
<path fill-rule="evenodd" clip-rule="evenodd" d="M17.2605 8.674C15.6145 8.674 14.2705 7.34 14.2705 5.694V3.652L19.5525 8.674H17.2605ZM13.7685 13.365C13.6225 13.511 13.4305 13.584 13.2395 13.584C13.0465 13.584 12.8545 13.511 12.7085 13.364L11.6445 12.295V16.519C11.6445 16.933 11.3085 17.269 10.8945 17.269C10.4805 17.269 10.1445 16.933 10.1445 16.519V12.294L9.08047 13.364C8.78847 13.657 8.31347 13.657 8.01947 13.365C7.72647 13.073 7.72547 12.599 8.01747 12.305L10.3625 9.95C10.4985 9.813 10.6865 9.728 10.8945 9.728C11.1025 9.728 11.2905 9.813 11.4265 9.95L13.7705 12.305C14.0635 12.599 14.0615 13.073 13.7685 13.365ZM20.9555 8.85C20.9555 8.81 20.9555 8.78 20.9455 8.74C20.9155 8.56 20.8855 8.38 20.8555 8.21C20.8355 8.1 20.7855 8.01 20.7055 7.93L15.0355 2.53C14.9655 2.46 14.8655 2.41 14.7655 2.4C14.5955 2.38 14.4155 2.36 14.2355 2.34C14.2055 2.33 14.1655 2.33 14.1355 2.33C13.5555 2.28 12.9155 2.25 12.2455 2.25C5.68547 2.25 3.35547 4.8 3.35547 12C3.35547 19.19 5.68547 21.75 12.2455 21.75C18.8155 21.75 21.1455 19.19 21.1455 12C21.1455 10.8 21.0855 9.76 20.9555 8.85Z" fill="currentColor"/>
</svg>
