<svg width="25" height="24" viewBox="0 0 25 24" fill="none" xmlns="http://www.w3.org/2000/svg">
<path fill-rule="evenodd" clip-rule="evenodd" d="M17.2605 8.674C15.6145 8.674 14.2705 7.34 14.2705 5.694V3.652L19.5525 8.674H17.2605ZM13.8155 14.277C14.1085 14.57 14.1085 15.044 13.8155 15.337C13.6695 15.484 13.4775 15.557 13.2855 15.557C13.0935 15.557 12.9015 15.484 12.7555 15.337L11.5535 14.135L10.3505 15.337C10.2045 15.484 10.0135 15.557 9.82047 15.557C9.62847 15.557 9.43647 15.484 9.29047 15.337C8.99747 15.044 8.99747 14.57 9.29047 14.277L10.4925 13.074L9.28947 11.871C8.99647 11.578 8.99647 11.104 9.28947 10.811C9.58247 10.518 10.0575 10.518 10.3495 10.811L11.5535 12.014L12.7565 10.811C13.0495 10.518 13.5235 10.518 13.8165 10.811C14.1095 11.104 14.1095 11.578 13.8165 11.871L12.6135 13.074L13.8155 14.277ZM20.9555 8.85C20.9555 8.81 20.9555 8.78 20.9455 8.74C20.9155 8.56 20.8855 8.38 20.8555 8.21C20.8355 8.1 20.7855 8.01 20.7055 7.93L15.0355 2.53C14.9655 2.46 14.8655 2.41 14.7655 2.4C14.5955 2.38 14.4155 2.36 14.2355 2.34C14.2055 2.33 14.1655 2.33 14.1355 2.33C13.5555 2.28 12.9155 2.25 12.2455 2.25C5.68547 2.25 3.35547 4.8 3.35547 12C3.35547 19.19 5.68547 21.75 12.2455 21.75C18.8155 21.75 21.1455 19.19 21.1455 12C21.1455 10.8 21.0855 9.76 20.9555 8.85Z" fill="currentColor"/>
</svg>
