<svg width="25" height="24" viewBox="0 0 25 24" fill="none" xmlns="http://www.w3.org/2000/svg">
<path fill-rule="evenodd" clip-rule="evenodd" d="M17.2605 8.674C15.6145 8.674 14.2705 7.34 14.2705 5.694V3.652L19.5525 8.674H17.2605ZM13.7705 14.693L11.4255 17.046C11.2895 17.183 11.1015 17.269 10.8935 17.269C10.6855 17.269 10.4975 17.183 10.3615 17.046L8.01747 14.693C7.72547 14.399 7.72647 13.924 8.01947 13.632C8.31347 13.34 8.78847 13.34 9.08047 13.634L10.1435 14.702V10.478C10.1435 10.064 10.4795 9.728 10.8935 9.728C11.3075 9.728 11.6435 10.064 11.6435 10.478V14.703L12.7085 13.634C13.0005 13.34 13.4745 13.34 13.7685 13.632C14.0625 13.924 14.0625 14.4 13.7705 14.693ZM20.9555 8.85C20.9555 8.81 20.9555 8.78 20.9455 8.74C20.9155 8.56 20.8855 8.38 20.8555 8.21C20.8355 8.1 20.7855 8.01 20.7055 7.93L15.0355 2.53C14.9655 2.46 14.8655 2.41 14.7655 2.4C14.5955 2.38 14.4155 2.36 14.2355 2.34C14.2055 2.33 14.1655 2.33 14.1355 2.33C13.5555 2.28 12.9155 2.25 12.2455 2.25C5.68547 2.25 3.35547 4.8 3.35547 12C3.35547 19.19 5.68547 21.75 12.2455 21.75C18.8155 21.75 21.1455 19.19 21.1455 12C21.1455 10.8 21.0855 9.76 20.9555 8.85Z" fill="currentColor"/>
</svg>
