<svg width="25" height="25" viewBox="0 0 25 25" fill="none" xmlns="http://www.w3.org/2000/svg">
<path fill-rule="evenodd" clip-rule="evenodd" d="M15.8287 13.2849H13.0007V16.1089C13.0007 16.5229 12.6647 16.8589 12.2507 16.8589C11.8367 16.8589 11.5007 16.5229 11.5007 16.1089V13.2849H8.67267C8.25867 13.2849 7.92267 12.9489 7.92267 12.5349C7.92267 12.1209 8.25867 11.7849 8.67267 11.7849H11.5007V8.96085C11.5007 8.54685 11.8367 8.21085 12.2507 8.21085C12.6647 8.21085 13.0007 8.54685 13.0007 8.96085V11.7849H15.8287C16.2427 11.7849 16.5787 12.1209 16.5787 12.5349C16.5787 12.9489 16.2427 13.2849 15.8287 13.2849ZM12.2507 2.29785C4.69167 2.29785 2.01367 4.97585 2.01367 12.5349C2.01367 20.0939 4.69167 22.7719 12.2507 22.7719C19.8087 22.7719 22.4877 20.0939 22.4877 12.5349C22.4877 4.97585 19.8087 2.29785 12.2507 2.29785Z" fill="currentColor"/>
</svg>
