<svg width="25" height="25" viewBox="0 0 25 25" fill="none" xmlns="http://www.w3.org/2000/svg">
<path fill-rule="evenodd" clip-rule="evenodd" d="M5.94555 11.1145H18.7556C18.3556 7.62453 16.5255 6.33453 12.3555 6.33453C8.18555 6.33453 6.35555 7.62453 5.94555 11.1145Z" fill="currentColor"/>
<path fill-rule="evenodd" clip-rule="evenodd" d="M22.8155 12.6145H1.68555C1.27555 12.6145 0.935547 12.9545 0.935547 13.3645C0.935547 13.7745 1.27555 14.1145 1.68555 14.1145H2.30555C2.34555 14.7545 2.39555 15.3745 2.49555 15.9145V15.9545C3.12555 19.7145 5.09555 21.6645 8.87555 22.2945C8.91555 22.3045 8.96555 22.3045 9.00555 22.3045C9.36555 22.3045 9.67555 22.0445 9.74555 21.6745C9.80555 21.2745 9.53555 20.8845 9.12555 20.8145C5.93555 20.2845 4.49555 18.8345 3.97555 15.6645C3.96555 15.6445 3.96555 15.6345 3.96555 15.6145C3.88555 15.1645 3.84555 14.6545 3.80555 14.1145H5.90555C6.21555 17.9345 8.01555 19.3345 12.3555 19.3345C16.6955 19.3345 18.4955 17.9345 18.8055 14.1145H20.6855C20.6555 14.6645 20.6055 15.1945 20.5255 15.6645V15.7045C19.9955 18.8545 18.5455 20.2845 15.3755 20.8145C14.9655 20.8845 14.6955 21.2745 14.7655 21.6745C14.8255 22.0445 15.1355 22.3045 15.4955 22.3045C15.5455 22.3045 15.5855 22.3045 15.6255 22.2945C19.4255 21.6645 21.3955 19.6945 22.0155 15.9045V15.8645C22.1055 15.3345 22.1555 14.7345 22.1955 14.1145H22.8155C23.2355 14.1145 23.5655 13.7745 23.5655 13.3645C23.5655 12.9545 23.2355 12.6145 22.8155 12.6145Z" fill="currentColor"/>
<path fill-rule="evenodd" clip-rule="evenodd" d="M3.11055 10.0245C3.15155 10.0315 3.19255 10.0345 3.23255 10.0345C3.59355 10.0345 3.91155 9.77352 3.97155 9.40552C4.48655 6.26152 5.97955 4.76952 9.12255 4.25452C9.53155 4.18752 9.80855 3.80252 9.74155 3.39352C9.67555 2.98452 9.28655 2.70852 8.88055 2.77452C5.08355 3.39552 3.11355 5.36652 2.49155 9.16352C2.42455 9.57152 2.70155 9.95752 3.11055 10.0245Z" fill="currentColor"/>
<path fill-rule="evenodd" clip-rule="evenodd" d="M15.3805 4.25491C18.5245 4.76991 20.0165 6.26191 20.5315 9.40491C20.5915 9.77391 20.9095 10.0339 21.2705 10.0339C21.3116 10.0339 21.3515 10.0309 21.3925 10.0249C21.8015 9.95691 22.0785 9.57091 22.0115 9.16291C21.3895 5.36591 19.4195 3.39591 15.6225 2.77491C15.2145 2.70691 14.8285 2.98391 14.7615 3.39391C14.6945 3.80291 14.9715 4.18791 15.3805 4.25491Z" fill="currentColor"/>
</svg>
