<svg width="25" height="24" viewBox="0 0 25 24" fill="none" xmlns="http://www.w3.org/2000/svg">
<path fill-rule="evenodd" clip-rule="evenodd" d="M21.7166 2.74155C21.6695 2.65355 21.5986 2.58155 21.5106 2.53455C19.4246 1.42455 6.94555 5.29255 3.71755 7.15455C2.87655 7.63955 2.50155 8.20955 2.60455 8.84555C2.90155 10.6876 7.86455 12.0836 10.5576 12.7086L15.6146 7.65255C15.9076 7.35955 16.3826 7.35955 16.6756 7.65255C16.9686 7.94556 16.9686 8.42055 16.6756 8.71355L11.5696 13.8176C12.2106 16.5386 13.5916 21.3536 15.4046 21.6456C15.4726 21.6566 15.5406 21.6626 15.6076 21.6626C16.1616 21.6626 16.6616 21.2826 17.0946 20.5326C18.9566 17.3076 22.8276 4.83055 21.7166 2.74155Z" fill="currentColor"/>
</svg>
