<svg width="25" height="25" viewBox="0 0 25 25" fill="none" xmlns="http://www.w3.org/2000/svg">
<path fill-rule="evenodd" clip-rule="evenodd" d="M15.9707 10.8258L12.0727 14.7248C11.9317 14.8658 11.7417 14.9448 11.5427 14.9448C11.3437 14.9448 11.1527 14.8658 11.0117 14.7248L9.11969 12.8308C8.82669 12.5378 8.82669 12.0618 9.12069 11.7698C9.41269 11.4768 9.88769 11.4768 10.1807 11.7698L11.5427 13.1338L14.9097 9.76476C15.2027 9.47176 15.6777 9.47176 15.9707 9.76476C16.2637 10.0578 16.2637 10.5328 15.9707 10.8258ZM19.9377 5.42976C19.3317 4.82276 16.0037 2.67676 12.2497 2.67676C8.49369 2.67676 5.16769 4.82276 4.56169 5.42976C3.98069 6.01176 3.98969 6.46476 4.03369 8.97876C4.05269 9.99876 4.07769 11.3868 4.07769 13.3048C4.07769 19.8248 9.39969 22.5318 12.2497 22.5318C15.0987 22.5318 20.4217 19.8248 20.4217 13.3048C20.4217 11.3858 20.4467 9.99676 20.4657 8.97776C20.5107 6.46376 20.5187 6.01176 19.9377 5.42976Z" fill="currentColor"/>
</svg>
