<svg width="25" height="24" viewBox="0 0 25 24" fill="none" xmlns="http://www.w3.org/2000/svg">
<path fill-rule="evenodd" clip-rule="evenodd" d="M21.681 9.72949C21.294 8.08349 19.576 7.99849 18.195 7.92949C17.326 7.88549 16.427 7.84149 16.051 7.45249C15.668 7.05649 15.369 6.29749 15.078 5.56349C14.511 4.12749 13.868 2.50049 12.249 2.50049C10.631 2.50049 9.98904 4.12749 9.42104 5.56349C9.13104 6.29749 8.83104 7.05649 8.44904 7.45249C8.07204 7.84149 7.17304 7.88549 6.30404 7.92949C4.92304 7.99849 3.20504 8.08349 2.81804 9.72949C2.45104 11.2915 3.59804 12.2365 4.61004 13.0705C5.30204 13.6405 5.95604 14.1805 6.10104 14.8405C6.24204 15.4815 6.03004 16.3095 5.82504 17.1115C5.47304 18.4905 5.07304 20.0525 6.40804 21.0595C6.82504 21.3745 7.24804 21.4995 7.66604 21.4995C8.57104 21.4995 9.45304 20.9155 10.208 20.4155C10.907 19.9535 11.63 19.4745 12.249 19.4745C12.868 19.4745 13.592 19.9535 14.29 20.4155C15.395 21.1465 16.769 22.0545 18.092 21.0595C19.427 20.0525 19.027 18.4895 18.674 17.1095C18.469 16.3085 18.258 15.4805 18.398 14.8405C18.543 14.1805 19.197 13.6415 19.889 13.0705C20.901 12.2365 22.048 11.2915 21.681 9.72949Z" fill="currentColor"/>
</svg>
