<svg width="25" height="24" viewBox="0 0 25 24" fill="none" xmlns="http://www.w3.org/2000/svg">
<path fill-rule="evenodd" clip-rule="evenodd" d="M12.2541 8.21845C11.8451 7.44545 9.68213 3.58545 7.29113 3.58545C4.90013 3.58545 2.73613 7.44545 2.32713 8.21845C2.06913 8.70645 2.25513 9.31145 2.74313 9.57045C3.22913 9.82545 3.83613 9.64245 4.09513 9.15445C4.68513 8.04245 5.54913 6.85745 6.29113 6.17145V17.2044C6.29113 17.7575 6.73813 18.2044 7.29113 18.2044C7.84413 18.2044 8.29113 17.7575 8.29113 17.2044V6.17145C9.03313 6.85845 9.89713 8.04245 10.4861 9.15445C10.6661 9.49245 11.0131 9.68645 11.3711 9.68645C11.5291 9.68645 11.6901 9.64845 11.8381 9.57045C12.3261 9.31145 12.5121 8.70645 12.2541 8.21845Z" fill="currentColor"/>
<path fill-rule="evenodd" clip-rule="evenodd" d="M21.7589 14.4323C21.2749 14.1733 20.6659 14.3593 20.4069 14.8463C19.8189 15.9563 18.9589 17.1383 18.2209 17.8253V6.79535C18.2209 6.24335 17.7739 5.79535 17.2209 5.79535C16.6679 5.79535 16.2209 6.24335 16.2209 6.79535V17.8293C15.4789 17.1433 14.6149 15.9593 14.0249 14.8463C13.7659 14.3593 13.1559 14.1723 12.6729 14.4323C12.1849 14.6903 11.9989 15.2943 12.2569 15.7833C12.6659 16.5563 14.8289 20.4143 17.2209 20.4143C19.6029 20.4143 21.7659 16.5563 22.1749 15.7833C22.4329 15.2943 22.2469 14.6903 21.7589 14.4323Z" fill="currentColor"/>
</svg>
