<svg width="25" height="25" viewBox="0 0 25 25" fill="none" xmlns="http://www.w3.org/2000/svg">
<path fill-rule="evenodd" clip-rule="evenodd" d="M20.1495 12.5338C20.1495 13.3098 20.6125 14.0918 21.6455 14.0918C21.9215 14.0918 22.1455 14.3148 22.1455 14.5918C22.1455 19.8868 21.6945 21.5608 12.2505 21.5608C2.80647 21.5608 2.35547 19.8868 2.35547 14.5918C2.35547 14.3148 2.57847 14.0918 2.85547 14.0918C3.32847 14.0918 3.70447 13.9338 3.97347 13.6218C4.21347 13.3438 4.35047 12.9468 4.35047 12.5338C4.35047 11.7598 3.88847 10.9768 2.85547 10.9768C2.57847 10.9768 2.35547 10.7538 2.35547 10.4768C2.35547 5.18379 2.80647 3.50879 12.2505 3.50879C21.6945 3.50879 22.1455 5.18379 22.1455 10.4768C22.1455 10.7538 21.9215 10.9768 21.6455 10.9768C20.6125 10.9768 20.1495 11.7598 20.1495 12.5338ZM11.2492 9.95249C11.4207 9.59172 11.6939 9.13452 12.2504 9.13452C12.8069 9.13452 13.0802 9.59172 13.2517 9.95249C13.2973 10.0485 13.34 10.1474 13.3803 10.241L13.3824 10.2457C13.4226 10.339 13.4605 10.4269 13.4997 10.5099C13.5815 10.6831 13.6567 10.8069 13.7366 10.8829C13.7921 10.9353 13.9006 10.9783 14.0933 11.0038C14.2239 11.021 14.3607 11.0272 14.5103 11.034C14.5804 11.0372 14.6533 11.0405 14.7297 11.0451C14.952 11.0586 15.2017 11.0837 15.4135 11.1699C15.6393 11.2618 15.835 11.4295 15.9092 11.7174C15.9792 11.991 15.9145 12.2259 15.7859 12.4199C15.6653 12.6021 15.4875 12.7505 15.327 12.8747C15.2788 12.9121 15.2323 12.9472 15.1874 12.9811C15.0715 13.0685 14.9668 13.1476 14.8731 13.2346C14.7462 13.3525 14.6772 13.453 14.654 13.5493C14.6274 13.6609 14.6374 13.8003 14.6761 13.9779C14.6951 14.0649 14.7194 14.1549 14.746 14.2504L14.7589 14.2968C14.7813 14.3767 14.8048 14.4606 14.8252 14.5431C14.8733 14.7371 14.9145 14.9587 14.8839 15.1733C14.8511 15.403 14.738 15.6127 14.5088 15.7714C14.0307 16.1008 13.544 15.8631 13.1964 15.6619C13.1241 15.62 13.0575 15.5795 12.9934 15.5406C12.8835 15.4739 12.7814 15.4119 12.6721 15.3559C12.5055 15.2704 12.3691 15.2256 12.2504 15.2256C12.1318 15.2256 11.9954 15.2704 11.8287 15.3559C11.7195 15.4119 11.6173 15.4739 11.5075 15.5406C11.4434 15.5795 11.3767 15.6201 11.3044 15.6619C10.9568 15.8631 10.4706 16.1011 9.99251 15.7717C9.76358 15.613 9.65006 15.4028 9.61741 15.1732C9.5869 14.9587 9.628 14.7371 9.676 14.5432C9.69641 14.4608 9.71983 14.3769 9.74213 14.2971L9.75513 14.2505C9.78169 14.155 9.80596 14.0651 9.82487 13.978C9.86347 13.8004 9.87345 13.661 9.84682 13.5493C9.8236 13.453 9.75465 13.3525 9.62772 13.2346C9.53408 13.1476 9.4293 13.0685 9.31346 12.9811C9.26862 12.9472 9.22196 12.912 9.17381 12.8747C9.01338 12.7505 8.83556 12.6021 8.71493 12.4199C8.58638 12.2259 8.52154 11.9914 8.59154 11.7178C8.66573 11.4299 8.86158 11.2618 9.08737 11.1699C9.29916 11.0837 9.54887 11.0586 9.77115 11.0451C9.84753 11.0405 9.92045 11.0372 9.99058 11.034C10.1401 11.0272 10.277 11.021 10.4076 11.0038C10.6003 10.9783 10.7087 10.9353 10.7642 10.8829C10.8442 10.8069 10.9193 10.6831 11.0011 10.5099C11.0403 10.4269 11.0782 10.3391 11.1184 10.2457L11.1205 10.241C11.1608 10.1474 11.2035 10.0485 11.2492 9.95249Z" fill="currentColor"/>
</svg>
