<svg width="25" height="25" viewBox="0 0 25 25" fill="none" xmlns="http://www.w3.org/2000/svg">
<path fill-rule="evenodd" clip-rule="evenodd" d="M12.9998 17.047C12.9998 17.461 12.6638 17.797 12.2498 17.797C11.8358 17.797 11.4998 17.461 11.4998 17.047V14.826C11.4998 14.412 11.8358 14.076 12.2498 14.076C12.6638 14.076 12.9998 14.412 12.9998 14.826V17.047ZM12.2498 8.99401C10.7468 8.99401 9.48584 9.10501 8.43884 9.34801V7.91701C8.47284 5.84201 10.1238 4.19601 12.1988 4.17101H12.2468C13.9138 4.17101 15.4128 5.27801 15.9028 6.87801C16.0238 7.27401 16.4398 7.49901 16.8398 7.37501C17.2348 7.25401 17.4588 6.83501 17.3368 6.43901C16.6478 4.19101 14.4858 2.65601 12.1808 2.67101C9.28784 2.70701 6.98584 5.00001 6.93884 7.90501V9.86201C4.90584 10.831 4.08984 12.683 4.08984 15.765C4.08984 20.765 6.22584 22.537 12.2498 22.537C18.2738 22.537 20.4098 20.765 20.4098 15.765C20.4098 10.766 18.2738 8.99401 12.2498 8.99401Z" fill="currentColor"/>
</svg>
