<svg width="25" height="24" viewBox="0 0 25 24" fill="none" xmlns="http://www.w3.org/2000/svg">
<path fill-rule="evenodd" clip-rule="evenodd" d="M13.1199 4.16904L14.7589 5.81204C14.9049 5.95904 15.0979 6.03304 15.2899 6.03304C15.4809 6.03304 15.6729 5.95904 15.8189 5.81404C16.1129 5.52104 16.1129 5.04604 15.8209 4.75304L12.9009 1.82504C12.6199 1.54204 12.1199 1.54204 11.8389 1.82504L8.91895 4.75304C8.62695 5.04604 8.62695 5.52104 8.92095 5.81404C9.21495 6.10604 9.68895 6.10604 9.98095 5.81204L11.6199 4.16904V7.15704C12.1299 7.14704 12.6299 7.14704 13.1199 7.15704V4.16904Z" fill="currentColor"/>
<path fill-rule="evenodd" clip-rule="evenodd" d="M16.65 7.28686C15.53 7.20686 14.3499 7.16704 13.1199 7.15704L13.12 14.3969C13.12 14.8069 12.78 15.1469 12.37 15.1469C11.96 15.1469 11.62 14.8069 11.62 14.3969L11.6199 7.15704C10.4099 7.16704 9.15 7.21686 7.85 7.28686H7.83C3.8 7.65686 2.5 9.48686 2.5 14.7869C2.5 22.3869 5.35 22.3869 12.25 22.3869C19.15 22.3869 22 22.3869 22 14.7869C22 9.48686 20.7 7.65686 16.65 7.28686Z" fill="currentColor"/>
</svg>
