<svg width="25" height="24" viewBox="0 0 25 24" fill="none" xmlns="http://www.w3.org/2000/svg">
<path fill-rule="evenodd" clip-rule="evenodd" d="M18.7252 12.3083C17.5852 12.3083 16.5152 12.5383 15.6152 12.9283C18.7652 13.8383 20.9952 16.0183 21.0552 18.5683C22.6952 18.3583 24.4652 17.7383 24.4652 16.0483C24.4652 14.0183 21.8352 12.3083 18.7252 12.3083Z" fill="currentColor"/>
<path fill-rule="evenodd" clip-rule="evenodd" d="M18.6952 10.8683H18.7152C20.8451 10.8683 22.5852 9.12831 22.5852 7.00831C22.5852 4.87831 20.8451 3.13831 18.7152 3.13831C18.2952 3.13831 17.8952 3.20831 17.5152 3.32831C18.2052 4.34831 18.6052 5.57831 18.6052 6.90831C18.6152 8.25831 18.1952 9.55831 17.4052 10.6383C17.8152 10.7883 18.2452 10.8683 18.6952 10.8683Z" fill="currentColor"/>
<path fill-rule="evenodd" clip-rule="evenodd" d="M8.87516 12.9183C7.97516 12.5383 6.90516 12.3083 5.77516 12.3083C2.66516 12.3083 0.0351562 14.0183 0.0351562 16.0483C0.0351562 17.7383 1.79516 18.3483 3.43516 18.5683C3.48516 16.0183 5.71516 13.8383 8.87516 12.9183Z" fill="currentColor"/>
<path fill-rule="evenodd" clip-rule="evenodd" d="M5.77516 10.8683H5.80516C6.25516 10.8683 6.68516 10.7883 7.09516 10.6383C6.33516 9.59831 5.88516 8.30831 5.88516 6.90831C5.88516 5.57831 6.28516 4.34831 6.97516 3.32831C6.59516 3.20831 6.19516 3.13831 5.77516 3.13831C3.64516 3.13831 1.91516 4.87831 1.91516 7.00831C1.91516 9.12831 3.64516 10.8683 5.77516 10.8683Z" fill="currentColor"/>
<path fill-rule="evenodd" clip-rule="evenodd" d="M12.2448 13.9453C8.28377 13.9453 4.93677 16.1013 4.93677 18.6533C4.93677 21.9533 10.4368 21.9533 12.2448 21.9533C15.3828 21.9533 19.5548 21.6133 19.5548 18.6743C19.5548 16.1103 16.2068 13.9453 12.2448 13.9453Z" fill="currentColor"/>
<path fill-rule="evenodd" clip-rule="evenodd" d="M12.2458 11.7744H12.2788C13.5738 11.7704 14.7898 11.2614 15.7018 10.3424C16.6148 9.42339 17.1148 8.20439 17.1098 6.91139C17.1098 4.22839 14.9288 2.04639 12.2458 2.04639C9.56375 2.04639 7.38275 4.22839 7.38275 6.91139C7.38275 9.59239 9.56375 11.7744 12.2458 11.7744Z" fill="currentColor"/>
</svg>
