<svg width="25" height="24" viewBox="0 0 25 24" fill="none" xmlns="http://www.w3.org/2000/svg">
<path fill-rule="evenodd" clip-rule="evenodd" d="M16.2707 12.3071C15.1407 12.3071 14.0707 12.5371 13.1707 12.9171C16.3307 13.8371 18.5607 16.0271 18.6107 18.5771C20.2507 18.3571 22.0107 17.7471 22.0107 16.0471C22.0107 14.0171 19.3807 12.3071 16.2707 12.3071Z" fill="currentColor"/>
<path fill-rule="evenodd" clip-rule="evenodd" d="M16.2407 10.8671H16.2707C18.4007 10.8671 20.1307 9.13709 20.1307 7.00709C20.1307 4.87709 18.4007 3.14709 16.2707 3.14709C15.8507 3.14709 15.4507 3.21709 15.0707 3.33709C15.7607 4.35709 16.1607 5.58709 16.1607 6.90709C16.1607 8.29709 15.7107 9.58709 14.9507 10.6371C15.3507 10.7871 15.7907 10.8671 16.2407 10.8671Z" fill="currentColor"/>
<path fill-rule="evenodd" clip-rule="evenodd" d="M9.79923 13.9463C5.83723 13.9463 2.49023 16.1113 2.49023 18.6743C2.49023 21.6133 6.66123 21.9533 9.79923 21.9533C11.6072 21.9533 17.1082 21.9533 17.1082 18.6543C17.1082 16.1023 13.7612 13.9463 9.79923 13.9463Z" fill="currentColor"/>
<path fill-rule="evenodd" clip-rule="evenodd" d="M9.76797 11.7754H9.79797C12.481 11.7754 14.663 9.59339 14.663 6.91139C14.663 4.22839 12.481 2.04639 9.79797 2.04639C7.11697 2.04639 4.93497 4.22839 4.93497 6.90939C4.92997 8.20439 5.42897 9.42339 6.34197 10.3424C7.25497 11.2614 8.47097 11.7704 9.76797 11.7754Z" fill="currentColor"/>
</svg>
