<svg width="25" height="25" viewBox="0 0 25 25" fill="none" xmlns="http://www.w3.org/2000/svg">
<path fill-rule="evenodd" clip-rule="evenodd" d="M22.1524 7.46986C21.3724 6.62986 18.9724 8.13986 17.6124 9.09986C17.8424 10.0899 17.9524 11.2399 17.9524 12.5399C17.9524 13.8299 17.8424 14.9599 17.6224 15.9499C18.7124 16.7199 20.4924 17.8499 21.5324 17.8499C21.7924 17.8499 22.0124 17.7799 22.1524 17.6199C23.0824 16.6299 23.0824 8.46986 22.1524 7.46986Z" fill="currentColor"/>
<path fill-rule="evenodd" clip-rule="evenodd" d="M9.06234 5.10986C3.59234 5.10986 1.65234 7.05986 1.65234 12.5399C1.65234 18.0199 3.59234 19.9599 9.06234 19.9599C14.5223 19.9599 16.4523 18.0199 16.4523 12.5399C16.4523 7.05986 14.5223 5.10986 9.06234 5.10986Z" fill="currentColor"/>
</svg>
