<svg width="25" height="25" viewBox="0 0 25 25" fill="none" xmlns="http://www.w3.org/2000/svg">
<path fill-rule="evenodd" clip-rule="evenodd" d="M6.57954 11.402H17.9185C18.1955 11.402 18.4185 11.178 18.4185 10.902V8.648C18.4185 5.247 15.6515 2.479 12.2485 2.479C8.84754 2.479 6.07954 5.247 6.07954 8.648V10.902C6.07954 11.178 6.30354 11.402 6.57954 11.402Z" fill="currentColor"/>
<path fill-rule="evenodd" clip-rule="evenodd" d="M19.3832 13.4068H5.11523C4.70123 13.4068 4.36523 13.7428 4.36523 14.1568C4.36523 14.5708 4.70123 14.9068 5.11523 14.9068H6.13023C6.47223 17.7088 8.69723 19.9338 11.4992 20.2758V21.9788C11.4992 22.3928 11.8352 22.7288 12.2492 22.7288C12.6632 22.7288 12.9992 22.3928 12.9992 21.9788V20.2758C15.8022 19.9338 18.0262 17.7088 18.3682 14.9068H19.3832C19.7972 14.9068 20.1332 14.5708 20.1332 14.1568C20.1332 13.7428 19.7972 13.4068 19.3832 13.4068Z" fill="currentColor"/>
</svg>
