<svg width="25" height="25" viewBox="0 0 25 25" fill="none" xmlns="http://www.w3.org/2000/svg">
<path fill-rule="evenodd" clip-rule="evenodd" d="M13.7446 9.64264H10.7546C10.3446 9.64264 10.0046 9.30264 10.0046 8.89264C10.0046 8.48264 10.3446 8.14264 10.7546 8.14264H13.7446C14.1546 8.14264 14.4946 8.48264 14.4946 8.89264C14.4946 9.30264 14.1546 9.64264 13.7446 9.64264ZM11.7446 5.37264H12.7546C13.1646 5.37264 13.5046 5.71264 13.5046 6.12264C13.5046 6.53264 13.1646 6.87264 12.7546 6.87264H11.7446C11.3346 6.87264 10.9946 6.53264 10.9946 6.12264C10.9946 5.71264 11.3346 5.37264 11.7446 5.37264ZM12.2546 2.95264C9.00456 2.95264 6.36456 5.59264 6.36456 8.84264V10.9826C6.36456 11.2626 6.58456 11.4826 6.86456 11.4826H17.6346C17.9146 11.4826 18.1346 11.2626 18.1346 10.9826V8.84264C18.1346 5.59264 15.4946 2.95264 12.2546 2.95264Z" fill="currentColor"/>
<path fill-rule="evenodd" clip-rule="evenodd" d="M19.0287 13.3246H5.47266C5.05866 13.3246 4.72266 13.6606 4.72266 14.0746C4.72266 14.4886 5.05866 14.8246 5.47266 14.8246H6.41766C6.75666 17.4696 8.85466 19.5686 11.5007 19.9066V21.5056C11.5007 21.9196 11.8367 22.2556 12.2507 22.2556C12.6647 22.2556 13.0007 21.9196 13.0007 21.5056V19.9076C15.6467 19.5686 17.7447 17.4696 18.0837 14.8246H19.0287C19.4427 14.8246 19.7787 14.4886 19.7787 14.0746C19.7787 13.6606 19.4427 13.3246 19.0287 13.3246Z" fill="currentColor"/>
</svg>
