<svg width="25" height="24" viewBox="0 0 25 24" fill="none" xmlns="http://www.w3.org/2000/svg">
<path fill-rule="evenodd" clip-rule="evenodd" d="M20.1958 5.40824C19.9658 5.06424 19.4978 4.97124 19.1548 5.20324C18.8108 5.43324 18.7188 5.89924 18.9498 6.24424C21.2608 9.69124 21.2608 14.3212 18.9498 17.7652C18.7188 18.1092 18.8108 18.5752 19.1548 18.8062C19.2828 18.8922 19.4278 18.9332 19.5718 18.9332C19.8138 18.9332 20.0508 18.8172 20.1958 18.6012C22.8418 14.6582 22.8418 9.35624 20.1958 5.40824Z" fill="currentColor"/>
<path fill-rule="evenodd" clip-rule="evenodd" d="M16.7637 7.61231C16.4007 7.81131 16.2687 8.26831 16.4697 8.63131C17.6197 10.7163 17.6197 13.3013 16.4697 15.3783C16.2687 15.7403 16.4007 16.1963 16.7627 16.3973C16.8777 16.4613 17.0027 16.4913 17.1257 16.4913C17.3887 16.4913 17.6447 16.3513 17.7827 16.1043C19.1797 13.5813 19.1807 10.4393 17.7827 7.90631C17.5817 7.54331 17.1257 7.41231 16.7637 7.61231Z" fill="currentColor"/>
<path fill-rule="evenodd" clip-rule="evenodd" d="M12.5425 5.11824C10.8365 4.10324 9.26752 5.30824 8.12152 6.18524C7.65152 6.54524 7.20752 6.88524 6.87052 6.99624C6.41252 7.14624 6.01752 7.19424 5.63452 7.24024C4.96752 7.31924 4.27852 7.40124 3.52352 8.04224C2.31452 9.06924 2.31652 10.6972 2.31852 12.0052C2.31652 13.3122 2.31452 14.9402 3.52452 15.9682C4.27852 16.6082 4.96752 16.6902 5.63452 16.7692C6.01752 16.8152 6.41252 16.8632 6.87052 17.0142C7.20752 17.1252 7.65052 17.4652 8.12052 17.8242C8.95152 18.4612 10.0055 19.2682 11.1875 19.2682C11.6345 19.2682 12.0995 19.1532 12.5775 18.8692C13.9435 17.8982 14.4275 16.1012 14.4275 12.0052C14.4275 7.85424 13.9605 6.12224 12.5425 5.11824Z" fill="currentColor"/>
</svg>
