<svg width="25" height="24" viewBox="0 0 25 24" fill="none" xmlns="http://www.w3.org/2000/svg">
<path fill-rule="evenodd" clip-rule="evenodd" d="M19.3106 7.99005C19.1106 7.62705 18.6536 7.49605 18.2916 7.69605C17.9286 7.89505 17.7966 8.35205 17.9976 8.71505C19.1186 10.748 19.1186 13.269 17.9976 15.295C17.7966 15.657 17.9286 16.114 18.2906 16.314C18.4056 16.378 18.5306 16.408 18.6536 16.408C18.9166 16.408 19.1736 16.268 19.3106 16.021C20.6786 13.549 20.6786 10.47 19.3106 7.99005Z" fill="currentColor"/>
<path fill-rule="evenodd" clip-rule="evenodd" d="M14.1774 5.26141C12.5034 4.26641 10.9654 5.44541 9.84336 6.30541C9.38436 6.65741 8.95036 6.98841 8.62136 7.09641C8.17536 7.24341 7.78836 7.29041 7.41536 7.33441C6.76136 7.41241 6.08636 7.49341 5.34636 8.12141C4.15836 9.13041 4.16136 10.7234 4.16436 12.0044C4.16136 13.2844 4.15836 14.8774 5.34736 15.8884C6.08836 16.5174 6.76436 16.5974 7.41836 16.6754C7.79136 16.7204 8.17736 16.7664 8.62236 16.9114C8.94936 17.0204 9.38236 17.3524 9.84036 17.7024C10.6554 18.3274 11.6874 19.1184 12.8454 19.1184C13.2844 19.1184 13.7414 19.0054 14.2114 18.7264C15.5514 17.7764 16.0254 16.0174 16.0254 12.0044C16.0254 7.94241 15.5684 6.24541 14.1774 5.26141Z" fill="currentColor"/>
</svg>
