<svg width="25" height="24" viewBox="0 0 25 24" fill="none" xmlns="http://www.w3.org/2000/svg">
<path fill-rule="evenodd" clip-rule="evenodd" d="M15.4257 12.8707C15.2377 12.7877 15.0177 12.8287 14.8717 12.9747L10.3627 17.4847C10.2577 17.5907 10.2047 17.7377 10.2187 17.8867C10.2327 18.0347 10.3127 18.1687 10.4357 18.2527C10.9807 18.6207 11.7107 19.0277 12.5437 19.0277C12.9787 19.0277 13.4427 18.9167 13.9227 18.6307C15.1057 17.7897 15.6107 16.3087 15.7247 13.3487C15.7337 13.1417 15.6137 12.9527 15.4257 12.8707Z" fill="currentColor"/>
<path fill-rule="evenodd" clip-rule="evenodd" d="M20.4618 3.79739C20.1688 3.50439 19.6938 3.50439 19.4008 3.79739L15.4418 7.75739C15.1718 6.46139 14.6938 5.64639 13.8868 5.07739C12.2028 4.08339 10.6578 5.26939 9.52978 6.13439C9.06878 6.48839 8.63378 6.82239 8.30578 6.93039C7.85678 7.07739 7.46778 7.12439 7.09178 7.17039C6.43278 7.24939 5.75078 7.33239 5.00578 7.96539C3.79778 8.99039 3.80978 10.6574 3.81778 11.8664C3.80978 13.0834 3.79778 14.7504 5.00778 15.7784C5.60278 16.2794 6.15578 16.4294 6.68978 16.5094L4.05678 19.1424C3.76378 19.4354 3.76378 19.9094 4.05678 20.2024C4.20378 20.3494 4.39578 20.4224 4.58678 20.4224C4.77878 20.4224 4.97078 20.3494 5.11778 20.2024L20.4618 4.85839C20.7548 4.56539 20.7548 4.09039 20.4618 3.79739Z" fill="currentColor"/>
</svg>
