<svg width="25" height="24" viewBox="0 0 25 24" fill="none" xmlns="http://www.w3.org/2000/svg">
<path fill-rule="evenodd" clip-rule="evenodd" d="M18.41 11.8C18.41 12.214 18.074 12.55 17.66 12.55C17.246 12.55 16.91 12.214 16.91 11.8C16.91 11.386 17.246 11.05 17.66 11.05C18.074 11.05 18.41 11.386 18.41 11.8ZM15.707 11.86C15.707 12.859 16.521 13.672 17.52 13.672H21.98C22.022 13.144 22.05 12.595 22.05 12C22.05 11.298 22.015 10.655 21.956 10.046H17.52C16.521 10.046 15.707 10.86 15.707 11.86Z" fill="currentColor"/>
<path fill-rule="evenodd" clip-rule="evenodd" d="M11.9012 8.64094H7.84122C7.42722 8.64094 7.09122 8.30494 7.09122 7.89094C7.09122 7.47694 7.42722 7.14094 7.84122 7.14094H11.9012C12.3152 7.14094 12.6512 7.47694 12.6512 7.89094C12.6512 8.30494 12.3152 8.64094 11.9012 8.64094ZM17.5202 15.1719C15.6932 15.1719 14.2072 13.6859 14.2072 11.8599C14.2072 10.0329 15.6932 8.54594 17.5202 8.54594H21.7302C20.8522 4.49194 18.0592 2.96094 12.2502 2.96094C5.01422 2.96094 2.44922 5.32694 2.44922 11.9999C2.44922 18.6739 5.01422 21.0389 12.2502 21.0389C18.1922 21.0389 20.9802 19.4389 21.7882 15.1719H17.5202Z" fill="currentColor"/>
</svg>
