<svg width="25" height="24" viewBox="0 0 25 24" fill="none" xmlns="http://www.w3.org/2000/svg">
<path fill-rule="evenodd" clip-rule="evenodd" d="M9.73923 4.86273C9.73923 4.01373 10.3272 3.32373 11.0492 3.32373H13.4492C14.1712 3.32373 14.7592 4.01373 14.7592 4.86273V4.88673C13.9932 4.80973 13.1592 4.77173 12.2492 4.77173C11.3382 4.77173 10.5042 4.80973 9.73923 4.88673V4.86273ZM2.75523 10.7817C5.36423 12.3897 8.74423 13.2767 12.2692 13.2797C15.7872 13.2767 19.1582 12.3927 21.7652 10.7917C21.2372 7.52873 19.5722 5.79273 16.2592 5.11773V4.86273C16.2592 3.18673 14.9982 1.82373 13.4492 1.82373H11.0492C9.50023 1.82373 8.23923 3.18673 8.23923 4.86273V5.11773C4.93123 5.79173 3.26723 7.52273 2.73523 10.7737C2.74223 10.7777 2.74923 10.7777 2.75523 10.7817Z" fill="currentColor"/>
<path fill-rule="evenodd" clip-rule="evenodd" d="M12.9991 14.8176V16.9806C12.9991 17.3946 12.6631 17.7306 12.2491 17.7306C11.8351 17.7306 11.4991 17.3946 11.4991 16.9806V14.8166C8.23806 14.7076 5.12006 13.8936 2.56306 12.4846C2.54806 12.8036 2.53906 13.1316 2.53906 13.4736C2.53906 19.8996 5.08006 22.1766 12.2491 22.1766C19.4181 22.1766 21.9591 19.8996 21.9591 13.4736C21.9591 13.1396 21.9511 12.8186 21.9371 12.5076C19.3761 13.9086 16.2581 14.7146 12.9991 14.8176Z" fill="currentColor"/>
</svg>
