<svg width="25" height="24" viewBox="0 0 25 24" fill="none" xmlns="http://www.w3.org/2000/svg">
<path fill-rule="evenodd" clip-rule="evenodd" d="M22.0108 9.94143H19.9658V7.93643H18.4658V9.94143H16.4208V11.4414H18.4658V13.4464H19.9658V11.4414H22.0108V9.94143Z" fill="currentColor"/>
<path fill-rule="evenodd" clip-rule="evenodd" d="M10.1542 14.3364H10.1012C6.35423 14.3364 3.62423 16.1774 2.60823 19.3904L2.49023 19.7644L2.82423 19.9684C4.78223 21.1624 7.22323 21.7674 10.0812 21.7674C10.1122 21.7684 10.1432 21.7684 10.1752 21.7674C13.0722 21.7674 15.4462 21.1784 17.4312 19.9684L17.7652 19.7644L17.6472 19.3904C16.6322 16.1774 13.9012 14.3364 10.1542 14.3364Z" fill="currentColor"/>
<path fill-rule="evenodd" clip-rule="evenodd" d="M10.1279 12.1084C12.8509 12.1084 15.0659 9.89345 15.0659 7.17045C15.0659 4.44645 12.8509 2.23145 10.1279 2.23145C7.40494 2.23145 5.18994 4.44645 5.18994 7.17045C5.18994 9.89345 7.40494 12.1084 10.1279 12.1084Z" fill="currentColor"/>
</svg>
