<svg width="25" height="25" viewBox="0 0 25 25" fill="none" xmlns="http://www.w3.org/2000/svg">
<path fill-rule="evenodd" clip-rule="evenodd" d="M9.90785 15.7295L8.84685 14.6685L14.3829 9.13352L15.4429 10.1945L9.90785 15.7295ZM15.0739 15.3565H13.5739L13.5659 13.8565H15.0739V15.3565ZM10.7209 9.50352V11.0035H9.22085L9.21485 9.50352H10.7209ZM21.8019 12.1365C19.9299 10.7165 18.9669 8.38952 19.2859 6.06252L19.3759 5.40952L18.7219 5.49952C16.4019 5.81952 14.0679 4.85452 12.6479 2.98252L12.2499 2.45752L11.8509 2.98252C10.4309 4.85452 8.09785 5.82052 5.77685 5.49952L5.12385 5.40952L5.21385 6.06252C5.53285 8.38952 4.56885 10.7165 2.69785 12.1365L2.17285 12.5345L2.69785 12.9335C4.56885 14.3525 5.53285 16.6795 5.21385 19.0075L5.12385 19.6605L5.77685 19.5705C8.09685 19.2525 10.4309 20.2145 11.8509 22.0865L12.2499 22.6115L12.6479 22.0865C14.0679 20.2145 16.4029 19.2535 18.7219 19.5705L19.3759 19.6605L19.2859 19.0075C18.9669 16.6795 19.9299 14.3525 21.8019 12.9335L22.3269 12.5345L21.8019 12.1365Z" fill="currentColor"/>
</svg>
