<svg width="25" height="25" viewBox="0 0 25 25" fill="none" xmlns="http://www.w3.org/2000/svg">
<path fill-rule="evenodd" clip-rule="evenodd" d="M16.1523 17.2337H17.7563V15.7337H16.1523V17.2337ZM14.3863 13.7517H15.9903V12.2517H14.3863V13.7517ZM11.5023 15.4657H9.64229V17.2887H8.14229V15.4657H6.28029V13.9657H8.14229V12.1417H9.64229V13.9657H11.5023V15.4657ZM16.0123 7.32767H13.0003V6.97967C12.9933 5.46067 11.7343 4.22067 10.1903 4.21567H9.16129C8.84029 4.21567 8.57829 3.96567 8.57829 3.65967V2.90967H7.07829V3.65967C7.07829 4.79267 8.01329 5.71567 9.16129 5.71567H10.1873C10.9083 5.71767 11.4973 6.28867 11.5003 6.98367V7.32767H8.48729C4.39729 7.32767 1.07129 10.6547 1.07129 14.7437C1.07129 18.8327 4.39729 22.1597 8.48729 22.1597H16.0123C20.1023 22.1597 23.4283 18.8327 23.4283 14.7437C23.4283 10.6547 20.1023 7.32767 16.0123 7.32767Z" fill="currentColor"/>
</svg>
