<svg width="25" height="25" viewBox="0 0 25 25" fill="none" xmlns="http://www.w3.org/2000/svg">
<path fill-rule="evenodd" clip-rule="evenodd" d="M22.833 7.58359L21.026 6.72559L20.597 7.62859C19.26 10.4426 17.186 12.4086 14.796 13.2306L14.595 13.2886C13.838 13.5266 13.054 13.6616 12.25 13.6616C8.81797 13.6606 5.69797 11.4056 3.90397 7.62859L3.47497 6.72559L1.66797 7.58359L2.09697 8.48659C2.69797 9.75059 3.43397 10.8656 4.26997 11.8236L2.05697 14.0386L3.47097 15.4516L5.69697 13.2246C6.59597 13.9686 7.57697 14.5516 8.61497 14.9616L7.75397 17.9246L9.67497 18.4826L10.539 15.5076C11.099 15.6066 11.669 15.6616 12.249 15.6616H12.252C12.806 15.6616 13.351 15.6126 13.886 15.5226L14.746 18.4826L16.666 17.9246L15.814 14.9886C16.862 14.5836 17.854 14.0056 18.762 13.2616L20.951 15.4516L22.366 14.0386L20.194 11.8656C21.046 10.8986 21.794 9.76959 22.404 8.48659L22.833 7.58359Z" fill="currentColor"/>
</svg>
