<svg width="25" height="25" viewBox="0 0 25 25" fill="none" xmlns="http://www.w3.org/2000/svg">
<path fill-rule="evenodd" clip-rule="evenodd" d="M12.2502 20.5987C11.0102 20.5987 10.0002 19.6587 9.8602 18.4587H14.6402C14.5002 19.6587 13.4902 20.5987 12.2502 20.5987ZM18.9402 13.4087V9.03871C18.9402 8.86871 18.9302 8.69871 18.9202 8.53871C18.5302 8.65871 18.1102 8.72871 17.6802 8.72871C15.4602 8.72871 13.6502 6.92871 13.6502 4.69871C13.6502 3.94871 13.8502 3.24871 14.2202 2.64871C13.6002 2.44871 12.9402 2.34871 12.2502 2.34871C8.5602 2.34871 5.5602 5.34871 5.5602 9.03871V13.4087L3.9502 15.0487V18.4587H8.3602C8.5102 20.4887 10.1802 22.0987 12.2502 22.0987C14.3202 22.0987 16.0002 20.4887 16.1402 18.4587H20.5502V15.0487L18.9402 13.4087Z" fill="currentColor"/>
<path fill-rule="evenodd" clip-rule="evenodd" d="M17.6802 7.22871C18.0202 7.22871 18.3402 7.15871 18.6402 7.03871C19.5602 6.65871 20.2102 5.75871 20.2102 4.69871C20.2102 3.30871 19.0802 2.17871 17.6802 2.17871C16.8202 2.17871 16.0602 2.60871 15.6002 3.25871C15.3202 3.66871 15.1502 4.15871 15.1502 4.69871C15.1502 6.09871 16.2902 7.22871 17.6802 7.22871Z" fill="currentColor"/>
</svg>
