<svg width="25" height="24" viewBox="0 0 25 24" fill="none" xmlns="http://www.w3.org/2000/svg">
<path fill-rule="evenodd" clip-rule="evenodd" d="M19.7693 19.3911C18.7533 16.1781 16.0233 14.3371 12.2763 14.3371H12.2493C8.4923 14.3161 5.7483 16.1701 4.7303 19.3911L4.6123 19.7651L4.9463 19.9691C6.9043 21.1631 9.3463 21.7681 12.2023 21.7681C12.2343 21.7681 12.2663 21.7681 12.2973 21.7681C15.1933 21.7681 17.5673 21.1791 19.5533 19.9691L19.8873 19.7651L19.7693 19.3911Z" fill="currentColor"/>
<path fill-rule="evenodd" clip-rule="evenodd" d="M12.2498 12.1089C14.9728 12.1089 17.1888 9.89393 17.1888 7.17093C17.1888 4.44693 14.9728 2.23193 12.2498 2.23193C9.52683 2.23193 7.31183 4.44693 7.31183 7.17093C7.31183 9.89393 9.52683 12.1089 12.2498 12.1089Z" fill="currentColor"/>
</svg>
