<svg width="25" height="25" viewBox="0 0 25 25" fill="none" xmlns="http://www.w3.org/2000/svg">
<path fill-rule="evenodd" clip-rule="evenodd" d="M6.15 18.279H7.65V16.689H6.15V18.279ZM2.75 21.639H11.06V13.329H2.75V21.639Z" fill="currentColor"/>
<path fill-rule="evenodd" clip-rule="evenodd" d="M16.85 18.279H18.35V16.689H16.85V18.279ZM13.44 21.639H21.75V13.329H13.44V21.639Z" fill="currentColor"/>
<path fill-rule="evenodd" clip-rule="evenodd" d="M14.9443 4.13818H17.3753V2.63818H13.4443V8.25718H14.9443V4.13818Z" fill="currentColor"/>
<path fill-rule="evenodd" clip-rule="evenodd" d="M13.445 10.943H17.165V9.44298H13.445V10.943Z" fill="currentColor"/>
<path fill-rule="evenodd" clip-rule="evenodd" d="M18.5483 2.63818V4.13818H20.2503V5.83918H21.7503V2.63818H18.5483Z" fill="currentColor"/>
<path fill-rule="evenodd" clip-rule="evenodd" d="M20.25 9.44277H18.548V10.9428H21.75V7.01277H20.25V9.44277Z" fill="currentColor"/>
<path fill-rule="evenodd" clip-rule="evenodd" d="M15.7676 5.00288V8.72188H19.0966V7.22188H17.2676V5.00288H15.7676Z" fill="currentColor"/>
<path fill-rule="evenodd" clip-rule="evenodd" d="M19.6934 4.99307L18.1934 5.00307V6.50307H19.6934V4.99307Z" fill="currentColor"/>
<path fill-rule="evenodd" clip-rule="evenodd" d="M6.15 7.58898H7.65V5.98898H6.15V7.58898ZM2.75 10.939H11.06V2.63898H2.75V10.939Z" fill="currentColor"/>
</svg>
