<svg width="25" height="24" viewBox="0 0 25 24" fill="none" xmlns="http://www.w3.org/2000/svg">
<path fill-rule="evenodd" clip-rule="evenodd" d="M4.00195 10.5815C4.00195 6.70046 7.15995 3.54346 11.041 3.54346C14.921 3.54346 18.079 6.70046 18.079 10.5815C18.079 14.4625 14.921 17.6205 11.041 17.6205C7.15995 17.6205 4.00195 14.4625 4.00195 10.5815ZM22.497 21.0405L17.898 16.4535C19.254 14.8725 20.079 12.8235 20.079 10.5815C20.079 5.59846 16.024 1.54346 11.041 1.54346C6.05695 1.54346 2.00195 5.59846 2.00195 10.5815C2.00195 15.5655 6.05695 19.6205 11.041 19.6205C13.063 19.6205 14.926 18.9445 16.433 17.8175L21.085 22.4565L22.497 21.0405Z" fill="currentColor"/>
</svg>
