<svg width="25" height="25" viewBox="0 0 25 25" fill="none" xmlns="http://www.w3.org/2000/svg">
<path fill-rule="evenodd" clip-rule="evenodd" d="M12.2497 10.9138C10.2307 10.9138 8.58868 12.5568 8.58868 14.5758C8.58868 16.5948 10.2307 18.2368 12.2497 18.2368C14.2687 18.2368 15.9117 16.5948 15.9117 14.5758C15.9117 12.5568 14.2687 10.9138 12.2497 10.9138Z" fill="currentColor"/>
<path fill-rule="evenodd" clip-rule="evenodd" d="M22.404 14.1457C20.27 9.6547 16.475 6.9727 12.253 6.9707H12.249C8.02597 6.9727 4.23097 9.6547 2.09697 14.1457L1.66797 15.0487L3.47497 15.9077L3.90397 15.0037C5.69797 11.2267 8.81797 8.9717 12.251 8.9707C15.683 8.9717 18.803 11.2267 20.597 15.0037L21.027 15.9077L22.833 15.0487L22.404 14.1457Z" fill="currentColor"/>
</svg>
