<svg width="25" height="24" viewBox="0 0 25 24" fill="none" xmlns="http://www.w3.org/2000/svg">
<path fill-rule="evenodd" clip-rule="evenodd" d="M23.3461 16.5688C22.6161 14.2828 20.6811 12.9748 18.0261 12.9748H18.0071C16.9251 12.9648 15.9581 13.1828 15.1421 13.5998C17.4191 14.3308 19.1071 15.9528 19.8841 18.2478C21.1171 18.0768 22.1891 17.6978 23.1371 17.1188L23.4501 16.9198L23.3461 16.5688Z" fill="currentColor"/>
<path fill-rule="evenodd" clip-rule="evenodd" d="M16.29 11.2483C16.802 11.5333 17.381 11.6943 18.007 11.6943C19.97 11.6943 21.563 10.1003 21.563 8.13732C21.563 6.18432 19.97 4.59032 18.007 4.59032C17.618 4.59032 17.248 4.65732 16.897 4.77032C17.409 5.59632 17.703 6.57232 17.703 7.60632C17.703 9.01032 17.181 10.2813 16.29 11.2483Z" fill="currentColor"/>
<path fill-rule="evenodd" clip-rule="evenodd" d="M9.30983 13.5814C8.51283 13.1834 7.57383 12.9744 6.51183 12.9744H6.47383C3.81883 12.9744 1.88383 14.2834 1.16283 16.5684L1.04883 16.9194L1.36183 17.1184C2.26283 17.6694 3.32583 18.0384 4.51083 18.2284C5.29783 15.9244 7.01483 14.2924 9.30983 13.5814Z" fill="currentColor"/>
<path fill-rule="evenodd" clip-rule="evenodd" d="M6.49297 11.694C7.11897 11.694 7.69697 11.533 8.20997 11.248C7.31797 10.281 6.79597 9.01001 6.79597 7.60601C6.79597 6.57301 7.08997 5.59601 7.60297 4.77101C7.25197 4.65701 6.88197 4.59001 6.49297 4.59001C4.52997 4.59001 2.93597 6.18401 2.93597 8.13701C2.93597 10.101 4.52997 11.694 6.49297 11.694Z" fill="currentColor"/>
<path fill-rule="evenodd" clip-rule="evenodd" d="M12.2155 14.1033C12.1995 14.1033 12.1845 14.1033 12.1695 14.1033C8.75552 14.1033 6.26652 15.7813 5.34052 18.7103L5.22852 19.0643L5.54552 19.2583C7.35352 20.3603 9.51352 20.8963 12.1485 20.8963H12.2335C14.8705 20.8963 17.0315 20.3603 18.8395 19.2583L19.1575 19.0643L19.0455 18.7103C18.1185 15.7813 15.6305 14.1033 12.2155 14.1033Z" fill="currentColor"/>
<path fill-rule="evenodd" clip-rule="evenodd" d="M12.2497 12.1185C14.7357 12.1185 16.7577 10.0965 16.7577 7.61052C16.7577 5.12552 14.7357 3.10352 12.2497 3.10352C9.7637 3.10352 7.7417 5.12552 7.7417 7.61052C7.7417 10.0965 9.7637 12.1185 12.2497 12.1185Z" fill="currentColor"/>
</svg>
