<svg width="25" height="24" viewBox="0 0 25 24" fill="none" xmlns="http://www.w3.org/2000/svg">
<path fill-rule="evenodd" clip-rule="evenodd" d="M21.9845 16.8201C21.2245 14.4101 19.1845 13.0301 16.3845 13.0301H16.3445C15.1145 13.0301 14.0445 13.3001 13.1445 13.7901C15.4045 14.6101 17.0845 16.3001 17.8645 18.6501C19.3545 18.4901 20.6645 18.0701 21.7645 17.4001L22.1045 17.1901L21.9845 16.8201Z" fill="currentColor"/>
<path fill-rule="evenodd" clip-rule="evenodd" d="M14.2045 10.9901C14.8145 11.4201 15.5645 11.6801 16.3645 11.6801C18.4245 11.6801 20.1045 10.0001 20.1045 7.93012C20.1045 5.87012 18.4245 4.19012 16.3645 4.19012C15.7845 4.19012 15.2445 4.32012 14.7545 4.56012C15.2245 5.39012 15.4945 6.35012 15.4945 7.37012C15.4945 8.74012 15.0145 10.0001 14.2045 10.9901Z" fill="currentColor"/>
<path fill-rule="evenodd" clip-rule="evenodd" d="M16.8345 18.7201C16.0445 16.5701 14.4045 15.1101 12.1645 14.5201C11.4345 14.3201 10.6245 14.2201 9.76453 14.2201H9.71453C6.11453 14.2201 3.49453 15.9901 2.51453 19.0801L2.39453 19.4501L2.73453 19.6501C4.63453 20.8201 6.91453 21.3801 9.68453 21.3801H9.73453C12.5745 21.3901 14.8345 20.8201 16.7445 19.6501L17.0845 19.4501L16.9645 19.0801C16.9245 18.9601 16.8845 18.8401 16.8345 18.7201Z" fill="currentColor"/>
<path fill-rule="evenodd" clip-rule="evenodd" d="M9.7345 12.1301C11.2545 12.1301 12.6045 11.4101 13.4745 10.3001C14.1145 9.50012 14.4945 8.48012 14.4945 7.37012C14.4945 6.55012 14.2845 5.78012 13.9245 5.11012C13.1145 3.63012 11.5445 2.62012 9.7345 2.62012C7.1145 2.62012 4.9845 4.75012 4.9845 7.37012C4.9845 9.99012 7.1145 12.1301 9.7345 12.1301Z" fill="currentColor"/>
</svg>
