<svg width="25" height="24" viewBox="0 0 25 24" fill="none" xmlns="http://www.w3.org/2000/svg">
<path fill-rule="evenodd" clip-rule="evenodd" d="M19.9172 4.94712L19.4892 4.33112L18.2572 5.18712L18.6852 5.80212C21.3022 9.57112 21.3022 14.4361 18.6852 18.1971L18.2572 18.8121L19.4882 19.6691L19.9172 19.0531C22.8492 14.8391 22.8492 9.17012 19.9172 4.94712Z" fill="currentColor"/>
<path fill-rule="evenodd" clip-rule="evenodd" d="M17.2307 7.62242L16.8577 6.97142L15.5567 7.71642L15.9287 8.36742C17.2137 10.6124 17.2137 13.3964 15.9297 15.6334L15.5557 16.2834L16.8567 17.0304L17.2307 16.3804C18.7787 13.6834 18.7787 10.3274 17.2307 7.62242Z" fill="currentColor"/>
<path fill-rule="evenodd" clip-rule="evenodd" d="M7.07831 7.56382H2.38431V8.06382C2.38231 10.6878 2.38231 13.3118 2.38431 15.9368V16.4358H7.07831L11.2043 20.0128H12.6673V3.98682H11.2043L7.07831 7.56382Z" fill="currentColor"/>
</svg>
