<svg width="25" height="24" viewBox="0 0 25 24" fill="none" xmlns="http://www.w3.org/2000/svg">
<path fill-rule="evenodd" clip-rule="evenodd" d="M20.3971 15.8149C17.9371 16.7949 15.1271 17.3149 12.2471 17.3149C9.36709 17.3149 6.55709 16.7949 4.10709 15.8149C3.73709 15.6649 3.37709 15.5149 3.02709 15.3449C2.85709 15.2649 2.68709 15.1849 2.51709 15.0849L2.73709 21.3249H21.7671L21.9771 15.0849C21.8071 15.1849 21.6371 15.2649 21.4671 15.3449C21.1171 15.5149 20.7571 15.6649 20.3971 15.8149Z" fill="currentColor"/>
<path fill-rule="evenodd" clip-rule="evenodd" d="M9.66691 5.5048L10.2429 4.1748H14.2559L14.8319 5.5048H9.66691ZM16.4669 5.5048L15.2429 2.6748H9.25591L8.03191 5.5048H2.50391V12.7918L2.75091 12.9368C5.15291 14.3418 8.18591 15.1598 11.3699 15.2888V16.5858H13.1289V15.2888C16.3149 15.1588 19.3479 14.3408 21.7469 12.9368L21.9949 12.7918V5.5048H16.4669Z" fill="currentColor"/>
</svg>
