<svg width="24" height="24" viewBox="0 0 24 24" fill="none" xmlns="http://www.w3.org/2000/svg">
<path fill-rule="evenodd" clip-rule="evenodd" d="M9.877 15.2061C6.033 15.2061 2.75 15.7871 2.75 18.1151C2.75 20.4431 6.013 21.0451 9.877 21.0451C13.722 21.0451 17.004 20.4631 17.004 18.1361C17.004 15.8091 13.742 15.2061 9.877 15.2061Z" stroke="currentColor" stroke-width="1.5" stroke-linecap="round" stroke-linejoin="round"/>
<path opacity="0.4" fill-rule="evenodd" clip-rule="evenodd" d="M9.8766 11.886C12.3996 11.886 14.4446 9.841 14.4446 7.318C14.4446 4.795 12.3996 2.75 9.8766 2.75C7.3546 2.75 5.3096 4.795 5.3096 7.318C5.3006 9.832 7.3306 11.877 9.8456 11.886H9.8766Z" stroke="currentColor" stroke-width="1.5" stroke-linecap="round" stroke-linejoin="round"/>
<path d="M19.2041 8.66895V12.6789" stroke="currentColor" stroke-width="1.5" stroke-linecap="round" stroke-linejoin="round"/>
<path d="M21.2502 10.6738H17.1602" stroke="currentColor" stroke-width="1.5" stroke-linecap="round" stroke-linejoin="round"/>
</svg>
