<svg width="24" height="24" viewBox="0 0 24 24" fill="none" xmlns="http://www.w3.org/2000/svg">
<path opacity="0.4" fill-rule="evenodd" clip-rule="evenodd" d="M10.1319 9.0625C9.83909 8.76957 9.36421 8.76953 9.07129 9.06239C8.77836 9.35525 8.77831 9.83012 9.07118 10.123L10.939 11.9913L9.07373 13.8565C8.78084 14.1494 8.78084 14.6243 9.07373 14.9172C9.36663 15.2101 9.8415 15.2101 10.1344 14.9172L11.9995 13.052L13.8672 14.92C14.16 15.213 14.6349 15.213 14.9278 14.9202C15.2208 14.6273 15.2208 14.1524 14.9279 13.8595L13.0602 11.9914L14.9264 10.1252C15.2193 9.83229 15.2193 9.35741 14.9264 9.06452C14.6335 8.77163 14.1586 8.77163 13.8657 9.06452L11.9997 10.9306L10.1319 9.0625Z" fill="currentColor"/>
<path fill-rule="evenodd" clip-rule="evenodd" d="M16.335 2.75H7.66598C4.64498 2.75 2.75098 4.889 2.75098 7.916V16.084C2.75098 19.111 4.63598 21.25 7.66598 21.25H16.334C19.365 21.25 21.251 19.111 21.251 16.084V7.916C21.251 4.889 19.365 2.75 16.335 2.75Z" stroke="currentColor" stroke-width="1.5" stroke-linecap="round" stroke-linejoin="round"/>
</svg>
