<svg width="24" height="24" viewBox="0 0 24 24" fill="none" xmlns="http://www.w3.org/2000/svg">
<path d="M4.79413 7.05623C4.79413 5.80723 5.80713 4.79423 7.05513 4.79423H8.08413C8.68013 4.79423 9.25313 4.55823 9.67713 4.13723L10.3961 3.41723C11.2771 2.53223 12.7091 2.52823 13.5941 3.40923L13.6031 3.41723L14.3231 4.13723C14.7461 4.55823 15.3191 4.79423 15.9161 4.79423H16.9441C18.1931 4.79423 19.2061 5.80723 19.2061 7.05623V8.08323C19.2061 8.68123 19.4421 9.25323 19.8631 9.67723L20.5831 10.3972C21.4681 11.2782 21.4731 12.7092 20.5921 13.5952L20.5831 13.6042L19.8631 14.3242C19.4421 14.7462 19.2061 15.3202 19.2061 15.9162V16.9452C19.2061 18.1942 18.1931 19.2062 16.9441 19.2062H15.9161C15.3191 19.2062 14.7461 19.4432 14.3231 19.8642L13.6031 20.5832C12.7231 21.4692 11.2911 21.4732 10.4051 20.5922C10.4021 20.5892 10.3991 20.5862 10.3961 20.5832L9.67713 19.8642C9.25313 19.4432 8.68013 19.2062 8.08413 19.2062H7.05513C5.80713 19.2062 4.79413 18.1942 4.79413 16.9452V15.9162C4.79413 15.3202 4.55713 14.7462 4.13613 14.3242L3.41713 13.6042C2.53113 12.7232 2.52713 11.2912 3.40813 10.4062L3.41713 10.3972L4.13613 9.67723C4.55713 9.25323 4.79413 8.68123 4.79413 8.08323V7.05623" stroke="currentColor" stroke-width="1.5" stroke-linecap="round" stroke-linejoin="round"/>
<path opacity="0.4" d="M9.42969 14.5697L14.5697 9.42969" stroke="currentColor" stroke-width="1.5" stroke-linecap="round" stroke-linejoin="round"/>
<path opacity="0.4" d="M14.5664 15.323C14.3664 15.323 14.1764 15.243 14.0364 15.103C13.9664 15.033 13.9164 14.943 13.8764 14.853C13.8364 14.763 13.8164 14.674 13.8164 14.573C13.8164 14.473 13.8364 14.373 13.8764 14.283C13.9164 14.193 13.9664 14.113 14.0364 14.043C14.3164 13.763 14.8164 13.763 15.0964 14.043C15.1664 14.113 15.2264 14.193 15.2664 14.283C15.2964 14.373 15.3164 14.473 15.3164 14.573C15.3164 14.674 15.2964 14.763 15.2664 14.853C15.2264 14.943 15.1664 15.033 15.0964 15.103C14.9564 15.243 14.7664 15.323 14.5664 15.323Z" fill="currentColor"/>
<path opacity="0.4" d="M9.42676 10.1831C9.32676 10.1831 9.23676 10.1621 9.14676 10.1221C9.05676 10.0821 8.96676 10.0331 8.89676 9.96313C8.82676 9.88313 8.77676 9.80313 8.73676 9.71313C8.69676 9.62213 8.67676 9.53313 8.67676 9.43313C8.67676 9.33213 8.69676 9.23313 8.73676 9.14313C8.77676 9.05313 8.82676 8.96313 8.89676 8.90313C9.18676 8.62213 9.67676 8.62213 9.95676 8.90313C10.0968 9.04213 10.1768 9.23313 10.1768 9.43313C10.1768 9.53313 10.1668 9.62213 10.1268 9.71313C10.0868 9.80313 10.0268 9.88313 9.95676 9.96313C9.88676 10.0331 9.80676 10.0821 9.71676 10.1221C9.62676 10.1621 9.52676 10.1831 9.42676 10.1831Z" fill="currentColor"/>
</svg>
