<svg width="24" height="24" viewBox="0 0 24 24" fill="none" xmlns="http://www.w3.org/2000/svg">
<path fill-rule="evenodd" clip-rule="evenodd" d="M16.335 2.75H7.66598C4.64498 2.75 2.75098 4.889 2.75098 7.916V16.084C2.75098 19.111 4.63498 21.25 7.66598 21.25H16.334C19.365 21.25 21.251 19.111 21.251 16.084V7.916C21.251 4.889 19.365 2.75 16.335 2.75Z" stroke="currentColor" stroke-width="1.5" stroke-linecap="round" stroke-linejoin="round"/>
<path opacity="0.4" d="M7.52124 13.1968C6.86024 13.1968 6.32324 12.6598 6.32324 11.9998C6.32324 11.3398 6.86024 10.8018 7.52124 10.8018C8.18224 10.8018 8.71924 11.3398 8.71924 11.9998C8.71924 12.6598 8.18224 13.1968 7.52124 13.1968Z" fill="currentColor"/>
<path opacity="0.4" d="M12.0007 13.1968C11.3397 13.1968 10.8027 12.6598 10.8027 11.9998C10.8027 11.3398 11.3397 10.8018 12.0007 10.8018C12.6617 10.8018 13.1987 11.3398 13.1987 11.9998C13.1987 12.6598 12.6617 13.1968 12.0007 13.1968Z" fill="currentColor"/>
<path opacity="0.4" d="M16.4792 13.1968C15.8182 13.1968 15.2812 12.6598 15.2812 11.9998C15.2812 11.3398 15.8182 10.8018 16.4792 10.8018C17.1402 10.8018 17.6772 11.3398 17.6772 11.9998C17.6772 12.6598 17.1402 13.1968 16.4792 13.1968Z" fill="currentColor"/>
</svg>
