<svg width="24" height="24" viewBox="0 0 24 24" fill="none" xmlns="http://www.w3.org/2000/svg">
<path fill-rule="evenodd" clip-rule="evenodd" d="M14.736 2.76172H8.084C6.025 2.76172 4.25 4.43072 4.25 6.49072V17.2277C4.25 19.4037 5.908 21.1147 8.084 21.1147H16.072C18.132 21.1147 19.802 19.2877 19.802 17.2277V8.03772L14.736 2.76172Z" stroke="currentColor" stroke-width="1.5" stroke-linecap="round" stroke-linejoin="round"/>
<path d="M14.4736 2.75V5.659C14.4736 7.079 15.6226 8.231 17.0426 8.234C18.3586 8.237 19.7056 8.238 19.7966 8.232" stroke="currentColor" stroke-width="1.5" stroke-linecap="round" stroke-linejoin="round"/>
<path opacity="0.4" fill-rule="evenodd" clip-rule="evenodd" d="M12.1712 8.91024C12.0304 8.76889 11.8392 8.68944 11.6397 8.68945C11.4402 8.68947 11.249 8.76896 11.1082 8.91034L8.27022 11.7613C7.97799 12.0549 7.97908 12.5298 8.27264 12.822C8.5662 13.1142 9.04108 13.1131 9.3333 12.8196L10.8902 11.2555V16.0129C10.8902 16.4272 11.226 16.7629 11.6402 16.7629C12.0544 16.7629 12.3902 16.4272 12.3902 16.0129V11.256L13.9473 12.8197C14.2396 13.1132 14.7145 13.1142 15.008 12.8219C15.3015 12.5296 15.3025 12.0548 15.0102 11.7612L12.1712 8.91024Z" fill="currentColor"/>
</svg>
