<svg width="24" height="24" viewBox="0 0 24 24" fill="none" xmlns="http://www.w3.org/2000/svg">
<path fill-rule="evenodd" clip-rule="evenodd" d="M14.737 2.76172H7.979C5.92 2.76172 4.25 4.43072 4.25 6.49072V17.3397C4.25 19.5157 6.014 21.1147 8.19 21.1147H16.073C18.133 21.1147 19.802 19.3997 19.802 17.3397V8.03772L14.737 2.76172Z" stroke="currentColor" stroke-width="1.5" stroke-linecap="round" stroke-linejoin="round"/>
<path d="M14.4746 2.75V5.659C14.4746 7.079 15.6236 8.231 17.0426 8.234C18.3596 8.237 19.7066 8.238 19.7976 8.232" stroke="currentColor" stroke-width="1.5" stroke-linecap="round" stroke-linejoin="round"/>
<path opacity="0.4" fill-rule="evenodd" clip-rule="evenodd" d="M10.6407 10.6513C10.3478 10.3584 9.87291 10.3584 9.58002 10.6513C9.28713 10.9442 9.28713 11.4191 9.58002 11.712L10.7828 12.9148L9.58027 14.1173C9.28737 14.4102 9.28737 14.8851 9.58027 15.178C9.87316 15.4709 10.348 15.4709 10.6409 15.178L11.8435 13.9754L13.046 15.178C13.3389 15.4709 13.8138 15.4709 14.1067 15.178C14.3996 14.8851 14.3996 14.4102 14.1067 14.1173L12.9041 12.9148L14.1069 11.712C14.3998 11.4191 14.3998 10.9442 14.1069 10.6513C13.814 10.3584 13.3392 10.3584 13.0463 10.6513L11.8435 11.8541L10.6407 10.6513Z" fill="currentColor"/>
</svg>
