<svg width="24" height="24" viewBox="0 0 24 24" fill="none" xmlns="http://www.w3.org/2000/svg">
<path fill-rule="evenodd" clip-rule="evenodd" d="M14.736 2.76172H8.084C6.025 2.76172 4.25 4.43072 4.25 6.49072V17.3397C4.25 19.5157 5.908 21.1147 8.084 21.1147H16.072C18.132 21.1147 19.802 19.3997 19.802 17.3397V8.03772L14.736 2.76172Z" stroke="currentColor" stroke-width="1.5" stroke-linecap="round" stroke-linejoin="round"/>
<path d="M14.4736 2.75V5.659C14.4736 7.079 15.6226 8.231 17.0426 8.234C18.3586 8.237 19.7056 8.238 19.7966 8.232" stroke="currentColor" stroke-width="1.5" stroke-linecap="round" stroke-linejoin="round"/>
<path opacity="0.4" fill-rule="evenodd" clip-rule="evenodd" d="M12.5938 10.4639C12.5938 10.0497 12.258 9.71387 11.8438 9.71387C11.4296 9.71387 11.0938 10.0497 11.0938 10.4639V12.1636H9.39355C8.97934 12.1636 8.64355 12.4994 8.64355 12.9136C8.64355 13.3278 8.97934 13.6636 9.39355 13.6636H11.0938V15.3649C11.0938 15.7791 11.4296 16.1149 11.8438 16.1149C12.258 16.1149 12.5938 15.7791 12.5938 15.3649V13.6636H14.2946C14.7088 13.6636 15.0446 13.3278 15.0446 12.9136C15.0446 12.4994 14.7088 12.1636 14.2946 12.1636H12.5938V10.4639Z" fill="currentColor"/>
</svg>
