<svg width="24" height="24" viewBox="0 0 24 24" fill="none" xmlns="http://www.w3.org/2000/svg">
<path fill-rule="evenodd" clip-rule="evenodd" d="M14.736 2.76172H8.084C6.025 2.76172 4.25 4.43072 4.25 6.49072V17.2277C4.25 19.4037 5.908 21.1147 8.084 21.1147H16.072C18.132 21.1147 19.802 19.2877 19.802 17.2277V8.03772L14.736 2.76172Z" stroke="currentColor" stroke-width="1.5" stroke-linecap="round" stroke-linejoin="round"/>
<path d="M14.4736 2.75V5.659C14.4736 7.079 15.6226 8.231 17.0426 8.234C18.3586 8.237 19.7056 8.238 19.7966 8.232" stroke="currentColor" stroke-width="1.5" stroke-linecap="round" stroke-linejoin="round"/>
<path opacity="0.4" fill-rule="evenodd" clip-rule="evenodd" d="M12.3902 9.44043C12.3902 9.02622 12.0544 8.69043 11.6402 8.69043C11.226 8.69043 10.8902 9.02622 10.8902 9.44043V14.1978L9.3333 12.6337C9.04108 12.3402 8.5662 12.3391 8.27264 12.6313C7.97908 12.9235 7.97799 13.3984 8.27022 13.692L11.1082 16.543C11.249 16.6843 11.4402 16.7638 11.6397 16.7638C11.8291 16.7639 12.0111 16.6922 12.1494 16.564C12.1584 16.5558 12.1671 16.5473 12.1756 16.5387L15.0102 13.6921C15.3025 13.3985 15.3015 12.9237 15.008 12.6314C14.7145 12.3391 14.2396 12.3401 13.9473 12.6336L12.3902 14.1973V9.44043Z" fill="currentColor"/>
</svg>
