<svg width="24" height="24" viewBox="0 0 24 24" fill="none" xmlns="http://www.w3.org/2000/svg">
<path opacity="0.4" fill-rule="evenodd" clip-rule="evenodd" d="M16.334 2.75H7.665C4.644 2.75 2.75 4.889 2.75 7.916V16.084C2.75 19.111 4.635 21.25 7.665 21.25H16.333C19.364 21.25 21.25 19.111 21.25 16.084V7.916C21.25 4.889 19.364 2.75 16.334 2.75Z" stroke="currentColor" stroke-width="1.5" stroke-linecap="round" stroke-linejoin="round"/>
<path fill-rule="evenodd" clip-rule="evenodd" d="M10.6923 12.0004C10.6923 13.0224 9.86326 13.8524 8.84026 13.8524C7.81826 13.8524 6.98926 13.0224 6.98926 12.0004C6.98926 10.9784 7.81826 10.1484 8.84026 10.1484C9.86326 10.1484 10.6923 10.9784 10.6923 12.0004Z" stroke="currentColor" stroke-width="1.5" stroke-linecap="round" stroke-linejoin="round"/>
<path d="M10.6924 12H17.0104V13.852" stroke="currentColor" stroke-width="1.5" stroke-linecap="round" stroke-linejoin="round"/>
<path d="M14.1816 13.851V11.999" stroke="currentColor" stroke-width="1.5" stroke-linecap="round" stroke-linejoin="round"/>
</svg>
