<svg width="24" height="24" viewBox="0 0 24 24" fill="none" xmlns="http://www.w3.org/2000/svg">
<path opacity="0.4" fill-rule="evenodd" clip-rule="evenodd" d="M12.7497 8.32715C12.7497 7.91293 12.4139 7.57715 11.9997 7.57715C11.5855 7.57715 11.2497 7.91293 11.2497 8.32715V11.2404H8.33301C7.91879 11.2404 7.58301 11.5762 7.58301 11.9904C7.58301 12.4046 7.91879 12.7404 8.33301 12.7404H11.2497V15.6535C11.2497 16.0677 11.5855 16.4035 11.9997 16.4035C12.4139 16.4035 12.7497 16.0677 12.7497 15.6535V12.7404H15.6663C16.0806 12.7404 16.4163 12.4046 16.4163 11.9904C16.4163 11.5762 16.0806 11.2404 15.6663 11.2404H12.7497V8.32715Z" fill="currentColor"/>
<path fill-rule="evenodd" clip-rule="evenodd" d="M16.6857 2H7.31429C4.04762 2 2 4.31208 2 7.58516V16.4148C2 19.6879 4.0381 22 7.31429 22H16.6857C19.9619 22 22 19.6879 22 16.4148V7.58516C22 4.31208 19.9619 2 16.6857 2Z" stroke="currentColor" stroke-width="1.5" stroke-linecap="round" stroke-linejoin="round"/>
</svg>
