<svg width="24" height="24" viewBox="0 0 24 24" fill="none" xmlns="http://www.w3.org/2000/svg">
<path opacity="0.4" fill-rule="evenodd" clip-rule="evenodd" d="M5.46484 10.9316C5.46484 10.5174 5.12906 10.1816 4.71484 10.1816C4.30063 10.1816 3.96484 10.5174 3.96484 10.9316C3.96484 15.1827 7.21676 18.6731 11.369 19.0515V21.1464C11.369 21.5606 11.7048 21.8964 12.119 21.8964C12.5332 21.8964 12.869 21.5606 12.869 21.1464V19.0514C17.0209 18.6727 20.2734 15.1825 20.2734 10.9316C20.2734 10.5174 19.9376 10.1816 19.5234 10.1816C19.1092 10.1816 18.7734 10.5174 18.7734 10.9316C18.7734 14.6068 15.7941 17.5855 12.1187 17.5855C8.44334 17.5855 5.46484 14.607 5.46484 10.9316Z" fill="currentColor"/>
<path fill-rule="evenodd" clip-rule="evenodd" d="M11.993 3.46387C10.3863 3.46387 9.08301 4.76713 9.08301 6.37387V10.9243C9.08301 12.5319 10.3861 13.8343 11.993 13.8343H12.2454C13.8531 13.8343 15.1554 12.532 15.1554 10.9243V10.7985H13.05C12.6357 10.7985 12.3 10.4627 12.3 10.0485C12.3 9.63424 12.6357 9.29846 13.05 9.29846H15.1554V7.62695H14.0023C13.5881 7.62695 13.2523 7.29116 13.2523 6.87695C13.2523 6.46273 13.5881 6.12695 14.0023 6.12695H15.1451C15.0198 4.6356 13.7698 3.46387 12.2454 3.46387H11.993ZM7.58301 6.37387C7.58301 3.9387 9.55784 1.96387 11.993 1.96387H12.2454C14.6816 1.96387 16.6554 3.93883 16.6554 6.37387V10.9243C16.6554 13.3605 14.6815 15.3343 12.2454 15.3343H11.993C9.55797 15.3343 7.58301 13.3606 7.58301 10.9243V6.37387Z" fill="currentColor"/>
</svg>
