<svg width="24" height="24" viewBox="0 0 24 24" fill="none" xmlns="http://www.w3.org/2000/svg">
<path d="M6.09491 16.6504C5.85991 16.5774 5.64691 16.4694 5.45991 16.3094C4.69491 15.6564 4.75091 13.9124 4.75091 12.6334C4.75091 11.3554 4.69491 9.61044 5.45991 8.95844C6.16891 8.35144 6.67291 8.51044 7.96991 8.40744C9.26591 8.30444 12.0089 4.34944 14.1259 5.59944C14.6109 5.99344 14.8959 6.58144 15.0639 7.48644" stroke="currentColor" stroke-width="1.5" stroke-linecap="round" stroke-linejoin="round"/>
<path d="M15.2832 14.668C15.2462 17.541 15.0212 18.94 14.1262 19.668C13.1462 20.247 12.0362 19.715 10.9912 18.959" stroke="currentColor" stroke-width="1.5" stroke-linecap="round" stroke-linejoin="round"/>
<path opacity="0.4" d="M4.75195 20.75L8.46495 17.037L15.284 10.217L20.751 4.75" stroke="currentColor" stroke-width="1.5" stroke-linecap="round" stroke-linejoin="round"/>
</svg>
