<svg width="24" height="24" viewBox="0 0 24 24" fill="none" xmlns="http://www.w3.org/2000/svg">
<path opacity="0.4" d="M2.80469 15.4775C2.80469 15.4775 2.94669 17.2155 2.97969 17.7635C3.02369 18.4985 3.30769 19.3195 3.78169 19.8895C4.45069 20.6975 5.23869 20.9825 6.29069 20.9845C7.52769 20.9865 16.5227 20.9865 17.7597 20.9845C18.8117 20.9825 19.5997 20.6975 20.2687 19.8895C20.7427 19.3195 21.0267 18.4985 21.0717 17.7635C21.1037 17.2155 21.2457 15.4775 21.2457 15.4775" stroke="currentColor" stroke-width="1.5" stroke-linecap="round" stroke-linejoin="round"/>
<path d="M8.49609 5.32998V4.95898C8.49609 3.73898 9.48409 2.75098 10.7041 2.75098H13.2861C14.5051 2.75098 15.4941 3.73898 15.4941 4.95898L15.4951 5.32998" stroke="currentColor" stroke-width="1.5" stroke-linecap="round" stroke-linejoin="round"/>
<path d="M11.9951 16.6788V15.3848" stroke="currentColor" stroke-width="1.5" stroke-linecap="round" stroke-linejoin="round"/>
<path fill-rule="evenodd" clip-rule="evenodd" d="M2.75 8.39003V11.857C4.668 13.122 6.966 14.008 9.488 14.359C9.79 13.258 10.783 12.451 11.99 12.451C13.178 12.451 14.191 13.258 14.473 14.369C17.005 14.018 19.312 13.132 21.24 11.857V8.39003C21.24 6.69603 19.877 5.33203 18.183 5.33203H5.817C4.123 5.33203 2.75 6.69603 2.75 8.39003Z" stroke="currentColor" stroke-width="1.5" stroke-linecap="round" stroke-linejoin="round"/>
</svg>
