<svg width="24" height="24" viewBox="0 0 24 24" fill="none" xmlns="http://www.w3.org/2000/svg">
<path d="M6.91602 14.8533L9.90902 10.9643L13.323 13.6443L16.252 9.86426" stroke="currentColor" stroke-width="1.5" stroke-linecap="round" stroke-linejoin="round"/>
<path fill-rule="evenodd" clip-rule="evenodd" d="M19.6661 2.34961C20.7281 2.34961 21.5881 3.20961 21.5881 4.27161C21.5881 5.33261 20.7281 6.19361 19.6661 6.19361C18.6041 6.19361 17.7441 5.33261 17.7441 4.27161C17.7441 3.20961 18.6041 2.34961 19.6661 2.34961Z" stroke="currentColor" stroke-width="1.5" stroke-linecap="round" stroke-linejoin="round"/>
<path opacity="0.4" d="M20.7552 9.26873C20.8882 10.1637 20.9492 11.1717 20.9492 12.3027C20.9492 19.2407 18.6372 21.5527 11.6992 21.5527C4.76222 21.5527 2.44922 19.2407 2.44922 12.3027C2.44922 5.36573 4.76222 3.05273 11.6992 3.05273C12.8092 3.05273 13.8002 3.11173 14.6822 3.23973" stroke="currentColor" stroke-width="1.5" stroke-linecap="round" stroke-linejoin="round"/>
</svg>
