<svg width="24" height="24" viewBox="0 0 24 24" fill="none" xmlns="http://www.w3.org/2000/svg">
<path d="M5.40877 6.6416C7.71877 6.5326 10.0278 6.4196 12.3388 6.3376C13.4118 6.2996 14.4848 6.2666 15.5578 6.2526C16.5828 6.2396 17.6928 6.1056 18.6558 6.5386C21.9588 8.0256 20.5658 14.0006 18.2828 15.7746C16.6918 17.0106 14.1478 17.1026 12.2168 17.0526C10.4248 17.0076 8.26277 16.8026 6.75477 15.7286C4.15577 13.8776 5.51377 8.8336 5.42877 5.3846C5.47977 3.4546 3.38477 3.1416 3.38477 3.1416" stroke="currentColor" stroke-width="1.5" stroke-linecap="round" stroke-linejoin="round"/>
<path opacity="0.4" d="M12.8848 10.1416H15.6578" stroke="currentColor" stroke-width="1.5" stroke-linecap="round" stroke-linejoin="round"/>
<path fill-rule="evenodd" clip-rule="evenodd" d="M7.14852 19.7686C7.44852 19.7686 7.69252 20.0126 7.69252 20.3126C7.69252 20.6136 7.44852 20.8576 7.14852 20.8576C6.84752 20.8576 6.60352 20.6136 6.60352 20.3126C6.60352 20.0126 6.84752 19.7686 7.14852 19.7686Z" fill="currentColor"/>
<path opacity="0.4" fill-rule="evenodd" clip-rule="evenodd" d="M7.14852 19.7686C7.44852 19.7686 7.69252 20.0126 7.69252 20.3126C7.69252 20.6136 7.44852 20.8576 7.14852 20.8576C6.84752 20.8576 6.60352 20.6136 6.60352 20.3126C6.60352 20.0126 6.84752 19.7686 7.14852 19.7686Z" stroke="currentColor" stroke-width="1.5" stroke-linecap="round" stroke-linejoin="round"/>
<path fill-rule="evenodd" clip-rule="evenodd" d="M17.4795 19.7686C17.7805 19.7686 18.0245 20.0126 18.0245 20.3126C18.0245 20.6136 17.7805 20.8576 17.4795 20.8576C17.1795 20.8576 16.9355 20.6136 16.9355 20.3126C16.9355 20.0126 17.1795 19.7686 17.4795 19.7686Z" fill="currentColor"/>
<path opacity="0.4" fill-rule="evenodd" clip-rule="evenodd" d="M17.4795 19.7686C17.7805 19.7686 18.0245 20.0126 18.0245 20.3126C18.0245 20.6136 17.7805 20.8576 17.4795 20.8576C17.1795 20.8576 16.9355 20.6136 16.9355 20.3126C16.9355 20.0126 17.1795 19.7686 17.4795 19.7686Z" stroke="currentColor" stroke-width="1.5" stroke-linecap="round" stroke-linejoin="round"/>
</svg>
