<svg width="24" height="24" viewBox="0 0 24 24" fill="none" xmlns="http://www.w3.org/2000/svg">
<path opacity="0.4" d="M10.4842 17.2442H4.01172" stroke="currentColor" stroke-width="1.5" stroke-linecap="round" stroke-linejoin="round"/>
<path fill-rule="evenodd" clip-rule="evenodd" d="M14.5469 17.2452C14.5469 19.287 15.2278 19.967 17.2687 19.967C19.3096 19.967 19.9905 19.287 19.9905 17.2452C19.9905 15.2034 19.3096 14.5234 17.2687 14.5234C15.2278 14.5234 14.5469 15.2034 14.5469 17.2452Z" stroke="currentColor" stroke-width="1.5" stroke-linecap="round" stroke-linejoin="round"/>
<path opacity="0.4" d="M13.5176 6.75499H19.9892" stroke="currentColor" stroke-width="1.5" stroke-linecap="round" stroke-linejoin="round"/>
<path fill-rule="evenodd" clip-rule="evenodd" d="M9.45619 6.75402C9.45619 4.71312 8.7753 4.03223 6.7344 4.03223C4.69261 4.03223 4.01172 4.71312 4.01172 6.75402C4.01172 8.79581 4.69261 9.47581 6.7344 9.47581C8.7753 9.47581 9.45619 8.79581 9.45619 6.75402Z" stroke="currentColor" stroke-width="1.5" stroke-linecap="round" stroke-linejoin="round"/>
</svg>
