<svg width="24" height="24" viewBox="0 0 24 24" fill="none" xmlns="http://www.w3.org/2000/svg">
<path fill-rule="evenodd" clip-rule="evenodd" d="M10.6884 12.0004C10.6884 13.0234 9.85938 13.8524 8.83637 13.8524C7.81337 13.8524 6.98438 13.0234 6.98438 12.0004C6.98438 10.9774 7.81337 10.1484 8.83637 10.1484H8.83938C9.86137 10.1494 10.6884 10.9784 10.6884 12.0004Z" stroke="currentColor" stroke-width="1.5" stroke-linecap="round" stroke-linejoin="round"/>
<path d="M10.6914 12H17.0094V13.852" stroke="currentColor" stroke-width="1.5" stroke-linecap="round" stroke-linejoin="round"/>
<path d="M14.1816 13.852V12" stroke="currentColor" stroke-width="1.5" stroke-linecap="round" stroke-linejoin="round"/>
<path opacity="0.4" fill-rule="evenodd" clip-rule="evenodd" d="M2.75 12C2.75 5.063 5.063 2.75 12 2.75C18.937 2.75 21.25 5.063 21.25 12C21.25 18.937 18.937 21.25 12 21.25C5.063 21.25 2.75 18.937 2.75 12Z" stroke="currentColor" stroke-width="1.5" stroke-linecap="round" stroke-linejoin="round"/>
</svg>
