<svg width="24" height="24" viewBox="0 0 24 24" fill="none" xmlns="http://www.w3.org/2000/svg">
<path fill-rule="evenodd" clip-rule="evenodd" d="M21.4404 13.9942C18.7794 13.9942 18.7794 9.87976 21.4404 9.87976C21.4404 5.11261 21.4404 3.41113 12.0454 3.41113C2.65039 3.41113 2.65039 5.11261 2.65039 9.87976C5.31139 9.87976 5.31139 13.9942 2.65039 13.9942C2.65039 18.7623 2.65039 20.4638 12.0454 20.4638C21.4404 20.4638 21.4404 18.7623 21.4404 13.9942Z" stroke="currentColor" stroke-width="1.5" stroke-linecap="round" stroke-linejoin="round"/>
<path opacity="0.4" fill-rule="evenodd" clip-rule="evenodd" d="M12.0456 9.1709C11.3626 9.1709 11.2976 10.2604 10.8916 10.646C10.4846 11.0306 9.2216 10.591 9.0456 11.2741C8.8706 11.9581 10.0076 12.1902 10.1486 12.7766C10.2886 13.363 9.5946 14.1872 10.1876 14.5984C10.7816 15.0076 11.4206 14.0802 12.0456 14.0802C12.6706 14.0802 13.3096 15.0076 13.9036 14.5984C14.4976 14.1872 13.8026 13.363 13.9426 12.7766C14.0836 12.1902 15.2206 11.9581 15.0456 11.2741C14.8696 10.591 13.6066 11.0306 13.1996 10.646C12.7936 10.2604 12.7286 9.1709 12.0456 9.1709Z" stroke="currentColor" stroke-width="1.5" stroke-linecap="round" stroke-linejoin="round"/>
</svg>
