<svg width="24" height="24" viewBox="0 0 24 24" fill="none" xmlns="http://www.w3.org/2000/svg">
<g id="Iconly/Curved/Light/Add User">
<g id="Add User">
<path id="Stroke 1" fill-rule="evenodd" clip-rule="evenodd" d="M9.92161 21.8087C6.10761 21.8087 2.84961 21.2317 2.84961 18.9217C2.84961 16.6117 6.08661 14.5107 9.92161 14.5107C13.7356 14.5107 16.9936 16.5917 16.9936 18.9007C16.9936 21.2097 13.7566 21.8087 9.92161 21.8087Z" stroke="currentColor" stroke-width="1.5" stroke-linecap="round" stroke-linejoin="round"/>
<path id="Stroke 3" fill-rule="evenodd" clip-rule="evenodd" d="M9.9217 11.2164C12.4247 11.2164 14.4547 9.18639 14.4547 6.68339C14.4547 4.17939 12.4247 2.15039 9.9217 2.15039C7.4187 2.15039 5.3887 4.17939 5.3887 6.68339C5.3797 9.17739 7.3957 11.2074 9.8897 11.2164H9.9217Z" stroke="currentColor" stroke-width="1.5" stroke-linecap="round" stroke-linejoin="round"/>
<path id="Stroke 5" d="M19.1309 8.12988V12.1399" stroke="currentColor" stroke-width="1.5" stroke-linecap="round" stroke-linejoin="round"/>
<path id="Stroke 7" d="M21.1759 10.1348H17.0859" stroke="currentColor" stroke-width="1.5" stroke-linecap="round" stroke-linejoin="round"/>
</g>
</g>
</svg>
