<svg width="24" height="24" viewBox="0 0 24 24" fill="none" xmlns="http://www.w3.org/2000/svg">
<g id="Iconly/Curved/Light/Volume Down">
<g id="Volume Down">
<path id="Stroke 1" d="M18.6543 8.63379C19.9076 10.9049 19.9076 13.6765 18.6543 15.9396" stroke="currentColor" stroke-width="1.5" stroke-linecap="round" stroke-linejoin="round"/>
<path id="Stroke 3" fill-rule="evenodd" clip-rule="evenodd" d="M4.66637 12.2869C4.66282 13.5055 4.66637 14.9349 5.6726 15.7891C6.67882 16.6442 7.47793 16.2913 8.78015 16.7197C10.0833 17.1491 11.9082 19.7962 13.9242 18.6006C15.0139 17.8264 15.5277 16.3651 15.5277 12.2869C15.5277 8.20863 15.037 6.7633 13.9242 5.97308C11.9082 4.77841 10.0833 7.42552 8.78015 7.85397C7.47793 8.2833 6.67882 7.93041 5.6726 8.78463C4.66637 9.63885 4.66282 11.0682 4.66637 12.2869Z" stroke="currentColor" stroke-width="1.5" stroke-linecap="round" stroke-linejoin="round"/>
</g>
</g>
</svg>
