<svg width="24" height="24" viewBox="0 0 24 24" fill="none" xmlns="http://www.w3.org/2000/svg">
<path fill-rule="evenodd" clip-rule="evenodd" d="M16.7114 9.27144C17.0389 9.52515 17.0986 9.99625 16.8449 10.3237L13.9159 14.1037C13.7936 14.2616 13.6133 14.3641 13.4151 14.3886C13.2169 14.4131 13.0171 14.3576 12.8599 14.2342L10.0416 12.0218L7.51041 15.3107C7.25778 15.639 6.78689 15.7003 6.45863 15.4477C6.13037 15.195 6.06906 14.7241 6.32169 14.3959L9.31469 10.5069C9.43677 10.3482 9.61719 10.245 9.81579 10.2201C10.0144 10.1952 10.2147 10.2508 10.3722 10.3744L13.1925 12.5883L15.6592 9.40491C15.9129 9.07749 16.384 9.01774 16.7114 9.27144Z" fill="currentColor"/>
<path fill-rule="evenodd" clip-rule="evenodd" d="M19.6661 3.09961C19.0184 3.09961 18.4941 3.62382 18.4941 4.27161C18.4941 4.91865 19.0186 5.44361 19.6661 5.44361C20.3137 5.44361 20.8381 4.91865 20.8381 4.27161C20.8381 3.62382 20.3139 3.09961 19.6661 3.09961ZM16.9941 4.27161C16.9941 2.7954 18.1899 1.59961 19.6661 1.59961C21.1424 1.59961 22.3381 2.7954 22.3381 4.27161C22.3381 5.74657 21.1426 6.94361 19.6661 6.94361C18.1897 6.94361 16.9941 5.74657 16.9941 4.27161Z" fill="currentColor"/>
<path fill-rule="evenodd" clip-rule="evenodd" d="M5.00317 5.60669C3.7802 6.82966 3.19922 8.87583 3.19922 12.3027C3.19922 15.7302 3.78021 17.7763 5.00315 18.9991C6.2261 20.222 8.27225 20.8027 11.6992 20.8027C15.1267 20.8027 17.1728 20.222 18.3956 18.9992C19.6184 17.7763 20.1992 15.7302 20.1992 12.3027C20.1992 11.1971 20.1395 10.2276 20.0134 9.37898C19.9525 8.96926 20.2353 8.58777 20.645 8.52688C21.0547 8.466 21.4362 8.74878 21.4971 9.15849C21.637 10.0999 21.6992 11.1464 21.6992 12.3027C21.6992 15.8132 21.124 18.3921 19.4563 20.0598C17.7886 21.7275 15.2097 22.3027 11.6992 22.3027C8.18919 22.3027 5.61033 21.7275 3.94254 20.0598C2.27472 18.3922 1.69922 15.8133 1.69922 12.3027C1.69922 8.79264 2.27474 6.21381 3.94251 4.54603C5.61029 2.87825 8.18912 2.30273 11.6992 2.30273C12.8343 2.30273 13.8628 2.36296 14.7899 2.49751C15.1999 2.557 15.4839 2.93753 15.4244 3.34745C15.365 3.75737 14.9844 4.04145 14.5745 3.98196C13.7376 3.86051 12.7842 3.80273 11.6992 3.80273C8.27232 3.80273 6.22615 4.38372 5.00317 5.60669Z" fill="currentColor"/>
</svg>
