<svg width="24" height="24" viewBox="0 0 24 24" fill="none" xmlns="http://www.w3.org/2000/svg">
<path fill-rule="evenodd" clip-rule="evenodd" d="M9.87554 11.9859H9.90754C12.8205 11.9859 15.1905 9.6159 15.1905 6.7029C15.1905 3.7899 12.8205 1.4209 9.90754 1.4209C6.99454 1.4209 4.62454 3.7899 4.62454 6.6999C4.61454 9.6049 6.96854 11.9769 9.87554 11.9859ZM6.12454 6.7029C6.12454 4.6169 7.82154 2.9209 9.90754 2.9209C11.9935 2.9209 13.6905 4.6169 13.6905 6.7029C13.6905 8.7889 11.9935 10.4859 9.90754 10.4859H9.87854C7.80154 10.4799 6.11754 8.7829 6.12454 6.7029Z" fill="currentColor"/>
<path fill-rule="evenodd" clip-rule="evenodd" d="M2.08594 18.9413C2.08594 22.2013 6.54994 22.5783 9.90794 22.5783C11.8429 22.5783 17.7299 22.5783 17.7299 18.9213C17.7299 16.1343 14.1479 13.7803 9.90794 13.7803C5.66794 13.7803 2.08594 16.1433 2.08594 18.9413ZM3.58594 18.9413C3.58594 17.2133 6.28994 15.2803 9.90794 15.2803C13.5259 15.2803 16.2299 17.2023 16.2299 18.9213C16.2299 20.3523 14.1029 21.0783 9.90794 21.0783C5.71294 21.0783 3.58594 20.3593 3.58594 18.9413Z" fill="currentColor"/>
<path d="M19.1157 12.9092C18.7017 12.9092 18.3657 12.5732 18.3657 12.1592V10.9043H17.0728C16.6588 10.9043 16.3228 10.5683 16.3228 10.1543C16.3228 9.7403 16.6588 9.4043 17.0728 9.4043H18.3657V8.14917C18.3657 7.73517 18.7017 7.39917 19.1157 7.39917C19.5297 7.39917 19.8657 7.73517 19.8657 8.14917V9.4043H21.1628C21.5768 9.4043 21.9128 9.7403 21.9128 10.1543C21.9128 10.5683 21.5768 10.9043 21.1628 10.9043H19.8657V12.1592C19.8657 12.5732 19.5297 12.9092 19.1157 12.9092Z" fill="currentColor"/>
</svg>
