<svg width="24" height="24" viewBox="0 0 24 24" fill="none" xmlns="http://www.w3.org/2000/svg">
<path d="M18.6848 10.195C18.7468 10.307 18.7748 10.429 18.7748 10.549C18.7748 10.817 18.6318 11.074 18.3808 11.21C18.0158 11.406 17.5608 11.271 17.3648 10.906C16.3498 9.0248 14.3581 6.19506 12.7505 5.44049L12.7505 19.5005C12.7505 19.9145 12.4145 20.2505 12.0005 20.2505C11.5865 20.2505 11.2505 19.9145 11.2505 19.5005L11.2505 5.4421C9.64133 6.19909 7.65092 9.02614 6.63578 10.906C6.43878 11.271 5.98478 11.406 5.61978 11.21C5.25578 11.013 5.12078 10.556 5.31578 10.195C5.67078 9.534 8.87978 3.75 12.0028 3.75C15.1218 3.75 18.3298 9.534 18.6848 10.195Z" fill="currentColor"/>
</svg>
