<svg width="24" height="24" viewBox="0 0 24 24" fill="none" xmlns="http://www.w3.org/2000/svg">
<path d="M18.6848 13.805C18.7468 13.693 18.7748 13.571 18.7748 13.451C18.7748 13.183 18.6318 12.926 18.3808 12.79C18.0158 12.594 17.5608 12.729 17.3648 13.094C16.3498 14.9752 14.3581 17.8049 12.7505 18.5595L12.7505 4.49951C12.7505 4.08551 12.4145 3.74951 12.0005 3.74951C11.5865 3.74951 11.2505 4.08551 11.2505 4.49951L11.2505 18.5579C9.64133 17.8009 7.65092 14.9739 6.63578 13.094C6.43878 12.729 5.98478 12.594 5.61978 12.79C5.25578 12.987 5.12078 13.444 5.31578 13.805C5.67078 14.466 8.87978 20.25 12.0028 20.25C15.1218 20.25 18.3298 14.466 18.6848 13.805Z" fill="currentColor"/>
</svg>
