<svg width="24" height="24" viewBox="0 0 24 24" fill="none" xmlns="http://www.w3.org/2000/svg">
<path fill-rule="evenodd" clip-rule="evenodd" d="M17.0393 14.8627C17.2273 14.4097 17.3933 13.9267 17.3933 13.4967C17.3933 13.1877 17.3083 12.9067 17.0843 12.6837C16.6189 12.2201 14.7603 11.9629 12.7495 11.9123L12.7495 3.69551C12.7495 3.28151 12.4135 2.94551 11.9995 2.94551C11.5855 2.94551 11.2495 3.28151 11.2495 3.69551L11.2495 11.9127C9.24297 11.9642 7.39046 12.2215 6.92634 12.6847C6.36334 13.2487 6.65034 14.1817 6.96034 14.9347C7.61134 16.5077 10.3583 21.0547 12.0063 21.0547C13.7073 21.0547 16.4423 16.3047 17.0393 14.8627ZM15.8743 13.6847C15.6343 14.9807 12.9633 19.0477 12.0043 19.5337C11.0083 19.0497 8.31334 14.9817 8.11534 13.7087C9.36934 13.2957 14.6723 13.3027 15.8743 13.6847Z" fill="currentColor"/>
</svg>
