<svg width="24" height="24" viewBox="0 0 24 24" fill="none" xmlns="http://www.w3.org/2000/svg">
<path fill-rule="evenodd" clip-rule="evenodd" d="M6.96066 9.13731C6.77266 9.59031 6.60666 10.0733 6.60666 10.5033C6.60666 10.8123 6.69166 11.0933 6.91566 11.3163C7.38107 11.7799 9.23971 12.0371 11.2505 12.0877L11.2505 20.3045C11.2505 20.7185 11.5865 21.0545 12.0005 21.0545C12.4145 21.0545 12.7505 20.7185 12.7505 20.3045L12.7505 12.0873C14.757 12.0358 16.6095 11.7785 17.0737 11.3153C17.6367 10.7513 17.3497 9.81831 17.0397 9.06531C16.3887 7.49231 13.6417 2.94531 11.9937 2.94531C10.2927 2.94531 7.55766 7.69531 6.96066 9.13731ZM8.12566 10.3153C8.36566 9.01931 11.0367 4.95231 11.9957 4.46631C12.9917 4.95031 15.6867 9.01831 15.8847 10.2913C14.6307 10.7043 9.32766 10.6973 8.12566 10.3153Z" fill="currentColor"/>
</svg>
