<svg width="24" height="24" viewBox="0 0 24 24" fill="none" xmlns="http://www.w3.org/2000/svg">
<path d="M13.805 5.3162C13.693 5.2542 13.571 5.22619 13.451 5.22619C13.183 5.22619 12.926 5.3692 12.79 5.6202C12.594 5.9852 12.729 6.44019 13.094 6.63619C14.9752 7.6512 17.8049 9.64286 18.5595 11.2505L4.49951 11.2505C4.08551 11.2505 3.74951 11.5865 3.74951 12.0005C3.74951 12.4145 4.08551 12.7505 4.49951 12.7505L18.5579 12.7505C17.8009 14.3596 14.9739 16.3501 13.094 17.3652C12.729 17.5622 12.594 18.0162 12.79 18.3812C12.987 18.7452 13.444 18.8802 13.805 18.6852C14.466 18.3302 20.25 15.1212 20.25 11.9982C20.25 8.87919 14.466 5.6712 13.805 5.3162Z" fill="currentColor"/>
</svg>
