<svg width="24" height="24" viewBox="0 0 24 24" fill="none" xmlns="http://www.w3.org/2000/svg">
<path fill-rule="evenodd" clip-rule="evenodd" d="M7.4375 6.42063C7.44349 3.9185 9.47592 1.89463 11.9789 1.89942C14.4807 1.90541 16.5048 3.93829 16.4995 6.43995C16.4995 6.44037 16.4995 6.44079 16.4995 6.44122L15.7495 6.43942L16.4995 6.43995V9.47142C16.4995 9.88563 16.1637 10.2214 15.7495 10.2214C15.3353 10.2214 14.9995 9.88563 14.9995 9.47142V6.43942L14.9995 6.43763C15.0035 4.76399 13.6497 3.40362 11.9761 3.39942C10.3015 3.39641 8.94196 4.75001 8.9375 6.42337V9.47142C8.9375 9.88563 8.60171 10.2214 8.1875 10.2214C7.77329 10.2214 7.4375 9.88563 7.4375 9.47142L7.4375 6.42063Z" fill="currentColor"/>
<path fill-rule="evenodd" clip-rule="evenodd" d="M5.38448 9.28329C4.24749 10.1732 3.69922 11.6442 3.69922 14.2074C3.69922 16.7701 4.24747 18.2409 5.38445 19.1307C6.57848 20.0651 8.60265 20.5154 11.9682 20.5154C15.3338 20.5154 17.358 20.0651 18.552 19.1307C19.689 18.2409 20.2372 16.7701 20.2372 14.2074C20.2372 11.6442 19.6889 10.1732 18.552 9.28329C17.3579 8.34875 15.3338 7.89844 11.9682 7.89844C8.60264 7.89844 6.5785 8.34875 5.38448 9.28329ZM4.45996 8.10208C6.08443 6.83063 8.56979 6.39844 11.9682 6.39844C15.3666 6.39844 17.852 6.83063 19.4765 8.10208C21.158 9.41818 21.7372 11.4767 21.7372 14.2074C21.7372 16.9377 21.158 18.996 19.4764 20.3119C17.852 21.5832 15.3666 22.0154 11.9682 22.0154C8.56979 22.0154 6.08445 21.5832 4.45999 20.3119C2.77847 18.996 2.19922 16.9377 2.19922 14.2074C2.19922 11.4767 2.77844 9.41818 4.45996 8.10208Z" fill="currentColor"/>
</svg>
