<svg width="24" height="24" viewBox="0 0 24 24" fill="none" xmlns="http://www.w3.org/2000/svg">
<path d="M14.8916 12.1042H14.9376C15.3516 12.1042 15.6646 11.7682 15.6646 11.3542C15.6646 10.9402 15.3056 10.6042 14.8916 10.6042C14.4776 10.6042 14.1416 10.9402 14.1416 11.3542C14.1416 11.7682 14.4776 12.1042 14.8916 12.1042Z" fill="currentColor"/>
<path d="M9.10655 12.1042H9.06055C8.64655 12.1042 8.31055 11.7682 8.31055 11.3542C8.31055 10.9402 8.64655 10.6042 9.06055 10.6042C9.47455 10.6042 9.83355 10.9402 9.83355 11.3542C9.83355 11.7682 9.52055 12.1042 9.10655 12.1042Z" fill="currentColor"/>
<path fill-rule="evenodd" clip-rule="evenodd" d="M6.95443 6.2676C7.08686 5.11684 7.59626 4.06622 8.42092 3.24927C9.38292 2.29527 10.6809 1.81427 12.0129 1.78027C14.6083 1.78027 16.7561 3.7453 17.0457 6.26802C18.8307 6.69446 20.0784 7.40952 20.8646 8.43589C21.9256 9.82089 22.1136 11.7049 21.4416 14.1979C19.9416 19.7609 18.9836 22.2199 11.9996 22.2199C5.01561 22.2199 4.05761 19.7609 2.55761 14.1979C1.88461 11.7049 2.07361 9.82089 3.13361 8.43589C3.9201 7.40919 5.16838 6.69399 6.95443 6.2676ZM15.4746 5.98444C15.0919 4.42963 13.698 3.27942 11.9929 3.28027C11.0419 3.28027 10.1499 3.64627 9.47692 4.31427C9.00597 4.78105 8.68116 5.35623 8.52539 5.98426C9.54633 5.85112 10.7014 5.78589 11.9996 5.78589C13.2981 5.78589 14.4535 5.85118 15.4746 5.98444ZM4.32461 9.34889C5.38761 7.96089 7.89761 7.28589 11.9996 7.28589C16.1006 7.28589 18.6106 7.96089 19.6736 9.34889C20.4316 10.3369 20.5356 11.7959 19.9936 13.8069C18.5986 18.9779 18.1286 20.7199 11.9996 20.7199C5.86961 20.7199 5.39961 18.9779 4.00561 13.8069C3.46261 11.7959 3.56661 10.3369 4.32461 9.34889Z" fill="currentColor"/>
</svg>
