<svg width="24" height="24" viewBox="0 0 24 24" fill="none" xmlns="http://www.w3.org/2000/svg">
<path d="M13.0207 10.8923H15.7937C16.2077 10.8923 16.5437 10.5563 16.5437 10.1423C16.5437 9.72827 16.2077 9.39227 15.7937 9.39227H13.0207C12.6057 9.39227 12.2707 9.72827 12.2707 10.1423C12.2707 10.5563 12.6057 10.8923 13.0207 10.8923Z" fill="currentColor"/>
<path fill-rule="evenodd" clip-rule="evenodd" d="M12.3326 17.8026C12.5816 17.8096 12.8366 17.8136 13.0986 17.8136C15.0616 17.8136 17.3156 17.5826 18.8786 16.3676C20.5986 15.0306 21.7536 11.8946 21.4526 9.37558C21.2526 7.69858 20.4166 6.44858 19.0996 5.85558C18.1466 5.42558 17.1176 5.45858 16.2116 5.48958L16.2025 5.48989C16.0276 5.49579 15.8546 5.50162 15.6836 5.50358C14.6056 5.51758 13.5266 5.55058 12.4476 5.58858C10.4225 5.66044 8.3985 5.75621 6.37347 5.85202L6.36158 5.85258L6.31758 5.85458C6.31858 5.70258 6.31758 5.55258 6.31458 5.40558C6.36858 3.35358 4.58258 2.54258 3.63058 2.40058C3.22658 2.33658 2.83958 2.62158 2.77758 3.03158C2.71758 3.44158 2.99958 3.82258 3.40958 3.88358C3.46858 3.89258 4.84858 4.11358 4.81458 5.40358C4.83558 6.27158 4.76158 7.25059 4.68258 8.28658L4.68245 8.28826C4.45348 11.3079 4.194 14.7299 6.45458 16.3396C8.15158 17.5486 10.4876 17.7566 12.3326 17.8026ZM6.18636 8.29865C6.21072 7.97978 6.23469 7.66596 6.25458 7.35958L6.43358 7.35158C8.45558 7.25558 10.4786 7.15958 12.5006 7.08758C13.5676 7.04958 14.6366 7.01758 15.7026 7.00358C15.8827 7.00065 16.0646 6.99484 16.2485 6.98897L16.2606 6.98858L16.2789 6.98802C17.0871 6.96321 17.8523 6.93972 18.4836 7.22358C19.3266 7.60258 19.8236 8.38658 19.9636 9.55258C20.1996 11.5386 19.2636 14.1696 17.9586 15.1826C16.5466 16.2806 14.0956 16.3496 12.3706 16.3036C10.7386 16.2626 8.69158 16.0906 7.32558 15.1186C5.75358 13.9986 5.96958 11.1526 6.17858 8.40058L6.18636 8.29865Z" fill="currentColor"/>
<path d="M5.98889 20.3131C5.98889 21.0271 6.56989 21.6081 7.28489 21.6081C7.99889 21.6081 8.57889 21.0271 8.57889 20.3131C8.57889 19.6001 7.99889 19.0191 7.28489 19.0191C6.56989 19.0191 5.98889 19.6001 5.98889 20.3131Z" fill="currentColor"/>
<path d="M16.321 20.3131C16.321 21.0271 16.902 21.6081 17.616 21.6081C18.33 21.6081 18.911 21.0271 18.911 20.3131C18.911 19.6001 18.33 19.0191 17.616 19.0191C16.902 19.0191 16.321 19.6001 16.321 20.3131Z" fill="currentColor"/>
</svg>
