<svg width="24" height="24" viewBox="0 0 24 24" fill="none" xmlns="http://www.w3.org/2000/svg">
<path fill-rule="evenodd" clip-rule="evenodd" d="M5.30918 6.05983C4.0825 7.28641 3.5 9.33854 3.5 12.775C3.5 16.2114 4.0825 18.2635 5.30918 19.4901C6.53588 20.7167 8.58803 21.299 12.024 21.299C15.4605 21.299 17.5129 20.7167 18.7397 19.4901C19.9665 18.2635 20.549 16.2114 20.549 12.775C20.549 9.33854 19.9665 7.28643 18.7397 6.05985C17.5129 4.83324 15.4605 4.25098 12.024 4.25098C8.58803 4.25098 6.53588 4.83323 5.30918 6.05983ZM4.24857 4.99912C5.92012 3.32772 8.50497 2.75098 12.024 2.75098C15.5435 2.75098 18.1286 3.32771 19.8003 4.9991C21.472 6.67052 22.049 9.25541 22.049 12.775C22.049 16.2945 21.472 18.8794 19.8003 20.5509C18.1286 22.2222 15.5435 22.799 12.024 22.799C8.50497 22.799 5.92012 22.2222 4.24857 20.5508C2.57701 18.8794 2 16.2945 2 12.775C2 9.25541 2.57701 6.67054 4.24857 4.99912Z" fill="currentColor"/>
<path fill-rule="evenodd" clip-rule="evenodd" d="M2.27539 9.32324C2.27539 8.90903 2.61118 8.57324 3.02539 8.57324H21.0334C21.4476 8.57324 21.7834 8.90903 21.7834 9.32324C21.7834 9.73746 21.4476 10.0732 21.0334 10.0732H3.02539C2.61118 10.0732 2.27539 9.73746 2.27539 9.32324Z" fill="currentColor"/>
<path fill-rule="evenodd" clip-rule="evenodd" d="M15.6777 13.2607C15.6777 12.8465 16.0135 12.5107 16.4277 12.5107H16.4367C16.8509 12.5107 17.1867 12.8465 17.1867 13.2607C17.1867 13.675 16.8509 14.0107 16.4367 14.0107H16.4277C16.0135 14.0107 15.6777 13.675 15.6777 13.2607Z" fill="currentColor"/>
<path fill-rule="evenodd" clip-rule="evenodd" d="M11.2793 13.2607C11.2793 12.8465 11.6151 12.5107 12.0293 12.5107H12.0383C12.4525 12.5107 12.7883 12.8465 12.7883 13.2607C12.7883 13.675 12.4525 14.0107 12.0383 14.0107H12.0293C11.6151 14.0107 11.2793 13.675 11.2793 13.2607Z" fill="currentColor"/>
<path fill-rule="evenodd" clip-rule="evenodd" d="M6.87109 13.2607C6.87109 12.8465 7.20688 12.5107 7.62109 12.5107H7.63009C8.04431 12.5107 8.38009 12.8465 8.38009 13.2607C8.38009 13.675 8.04431 14.0107 7.63009 14.0107H7.62109C7.20688 14.0107 6.87109 13.675 6.87109 13.2607Z" fill="currentColor"/>
<path fill-rule="evenodd" clip-rule="evenodd" d="M15.6777 17.1123C15.6777 16.6981 16.0135 16.3623 16.4277 16.3623H16.4367C16.8509 16.3623 17.1867 16.6981 17.1867 17.1123C17.1867 17.5265 16.8509 17.8623 16.4367 17.8623H16.4277C16.0135 17.8623 15.6777 17.5265 15.6777 17.1123Z" fill="currentColor"/>
<path fill-rule="evenodd" clip-rule="evenodd" d="M11.2793 17.1123C11.2793 16.6981 11.6151 16.3623 12.0293 16.3623H12.0383C12.4525 16.3623 12.7883 16.6981 12.7883 17.1123C12.7883 17.5265 12.4525 17.8623 12.0383 17.8623H12.0293C11.6151 17.8623 11.2793 17.5265 11.2793 17.1123Z" fill="currentColor"/>
<path fill-rule="evenodd" clip-rule="evenodd" d="M6.87109 17.1123C6.87109 16.6981 7.20688 16.3623 7.62109 16.3623H7.63009C8.04431 16.3623 8.38009 16.6981 8.38009 17.1123C8.38009 17.5265 8.04431 17.8623 7.63009 17.8623H7.62109C7.20688 17.8623 6.87109 17.5265 6.87109 17.1123Z" fill="currentColor"/>
<path fill-rule="evenodd" clip-rule="evenodd" d="M16.0332 1.2998C16.4474 1.2998 16.7832 1.63559 16.7832 2.0498V5.3118C16.7832 5.72602 16.4474 6.0618 16.0332 6.0618C15.619 6.0618 15.2832 5.72602 15.2832 5.3118V2.0498C15.2832 1.63559 15.619 1.2998 16.0332 1.2998Z" fill="currentColor"/>
<path fill-rule="evenodd" clip-rule="evenodd" d="M8.02539 1.2998C8.4396 1.2998 8.77539 1.63559 8.77539 2.0498V5.3118C8.77539 5.72602 8.4396 6.0618 8.02539 6.0618C7.61118 6.0618 7.27539 5.72602 7.27539 5.3118V2.0498C7.27539 1.63559 7.61118 1.2998 8.02539 1.2998Z" fill="currentColor"/>
</svg>
