<svg width="24" height="24" viewBox="0 0 24 24" fill="none" xmlns="http://www.w3.org/2000/svg">
<path fill-rule="evenodd" clip-rule="evenodd" d="M6.25893 3.23499C6.17293 3.23499 6.08593 3.24299 5.99793 3.25699C4.87993 3.44599 3.87293 4.74999 3.66493 5.08899C2.62293 6.55399 3.43693 9.95099 8.73893 15.254C14.0429 20.557 17.4399 21.369 18.8509 20.364C19.2449 20.12 20.5469 19.117 20.7359 17.997C20.8179 17.51 20.6729 17.048 20.2939 16.586C18.0769 13.894 17.3749 14.235 16.4079 14.706C14.9519 15.416 13.5299 15.789 10.8669 13.127C8.20793 10.466 8.57893 9.04399 9.28793 7.58699C9.75993 6.61799 10.1009 5.91799 7.40593 3.69799C7.02893 3.38799 6.65093 3.23499 6.25893 3.23499ZM17.5119 22.264C15.5299 22.264 12.3919 21.028 7.67893 16.314C0.64093 9.27699 1.35493 5.74999 2.40693 4.27299C2.40493 4.27299 3.72893 2.15599 5.69193 1.78899C6.62593 1.61499 7.54493 1.87399 8.35893 2.53899C11.7009 5.29299 11.3909 6.69499 10.6369 8.24299C10.1739 9.19399 9.80793 9.94499 11.9279 12.066C14.0489 14.185 14.8009 13.823 15.7509 13.357C17.2999 12.604 18.7009 12.292 21.4529 15.633C22.1209 16.449 22.3809 17.374 22.2029 18.309C21.8259 20.301 19.6739 21.617 19.6529 21.629C19.1879 21.963 18.4899 22.264 17.5119 22.264Z" fill="currentColor"/>
</svg>
