<svg width="24" height="24" viewBox="0 0 24 24" fill="none" xmlns="http://www.w3.org/2000/svg">
<path d="M21.7033 10.143C21.3263 10.143 21.0023 9.85998 20.9593 9.47698C20.5793 6.10098 17.9563 3.48098 14.5803 3.10598C14.1693 3.05998 13.8723 2.68998 13.9183 2.27798C13.9633 1.86698 14.3323 1.55998 14.7463 1.61598C18.8233 2.06798 21.9913 5.23198 22.4493 9.30898C22.4963 9.72098 22.1993 10.092 21.7883 10.138C21.7603 10.141 21.7313 10.143 21.7033 10.143Z" fill="currentColor"/>
<path d="M18.162 10.1537C17.81 10.1537 17.497 9.90574 17.427 9.54774C17.139 8.06774 15.998 6.92674 14.52 6.63974C14.113 6.56074 13.848 6.16774 13.927 5.76074C14.006 5.35374 14.409 5.08874 14.806 5.16774C16.887 5.57174 18.494 7.17774 18.899 9.25974C18.978 9.66774 18.713 10.0607 18.307 10.1397C18.258 10.1487 18.21 10.1537 18.162 10.1537Z" fill="currentColor"/>
<path fill-rule="evenodd" clip-rule="evenodd" d="M7.48166 16.4399C12.1947 21.1539 15.3327 22.3899 17.3147 22.3899C18.2927 22.3899 18.9907 22.0889 19.4557 21.7549C19.4767 21.7429 21.6287 20.4269 22.0057 18.4349C22.1837 17.4999 21.9237 16.5749 21.2557 15.7589C18.5037 12.4179 17.1017 12.7299 15.5537 13.4829C14.6027 13.9489 13.8517 14.3109 11.7307 12.1919C9.61091 10.0711 9.97658 9.32004 10.4395 8.3692C11.1935 6.8212 11.5037 5.41886 8.16166 2.66486C7.34767 1.99986 6.42867 1.73986 5.49467 1.91486C3.53166 2.28186 2.20766 4.39886 2.20966 4.39886C1.15766 5.87586 0.443665 9.40286 7.48166 16.4399ZM5.80066 3.38286C5.88867 3.36886 5.97567 3.36086 6.06167 3.36086C6.45366 3.36086 6.83167 3.51386 7.20866 3.82386C9.90364 6.04385 9.56267 6.74385 9.09068 7.71284C8.38168 9.16984 8.01066 10.5919 10.6697 13.2529C13.3317 15.9139 14.7547 15.5429 16.2097 14.8319L16.2122 14.8307C17.1799 14.3603 17.8796 14.0202 20.0967 16.7119C20.4757 17.1739 20.6207 17.6359 20.5387 18.1229C20.3497 19.2429 19.0477 20.2459 18.6537 20.4899C17.2427 21.4959 13.8457 20.6829 8.54166 15.3799C3.23966 10.0769 2.42566 6.67986 3.46766 5.21486C3.67566 4.87586 4.68267 3.57186 5.80066 3.38286Z" fill="currentColor"/>
</svg>
