<svg width="24" height="24" viewBox="0 0 24 24" fill="none" xmlns="http://www.w3.org/2000/svg">
<path d="M15.6726 9.11108C15.4806 9.11108 15.2886 9.03808 15.1426 8.89108C14.8496 8.59808 14.8496 8.12408 15.1426 7.83108L17.6126 5.36108L15.1426 2.89108C14.8496 2.59808 14.8496 2.12408 15.1426 1.83108C15.4356 1.53808 15.9096 1.53808 16.2026 1.83108L18.6726 4.30108L21.1426 1.83108C21.4356 1.53808 21.9096 1.53808 22.2026 1.83108C22.4956 2.12408 22.4956 2.59808 22.2026 2.89108L19.7326 5.36108L22.2026 7.83108C22.4956 8.12408 22.4956 8.59808 22.2026 8.89108C22.0566 9.03808 21.8646 9.11108 21.6726 9.11108C21.4806 9.11108 21.2886 9.03808 21.1426 8.89108L18.6726 6.42108L16.2026 8.89108C16.0566 9.03808 15.8646 9.11108 15.6726 9.11108Z" fill="currentColor"/>
<path fill-rule="evenodd" clip-rule="evenodd" d="M7.51509 16.4401C12.2241 21.1501 15.3611 22.3881 17.3461 22.3881C18.3271 22.3881 19.0281 22.0861 19.4961 21.7501C19.5181 21.7371 21.6791 20.4101 22.0421 18.4131C22.2121 17.4861 21.9511 16.5691 21.2881 15.7591C18.5341 12.4161 17.1321 12.7301 15.5851 13.4831C14.6351 13.9481 13.8841 14.3131 11.7631 12.1921C9.64334 10.0714 10.009 9.32029 10.4719 8.36944C11.2269 6.82144 11.5371 5.41911 8.19509 2.66511C7.38109 2.00011 6.46209 1.74011 5.52409 1.91511C3.55809 2.28511 2.24109 4.39811 2.24309 4.39811C1.19109 5.87511 0.476091 9.40211 7.51509 16.4401ZM5.83309 3.38311C5.92109 3.36911 6.00809 3.36111 6.09409 3.36111C6.48709 3.36111 6.86509 3.51411 7.24209 3.82411C9.93709 6.04411 9.59609 6.74411 9.12309 7.71311C8.41309 9.17011 8.04209 10.5921 10.7021 13.2531C13.3641 15.9141 14.7861 15.5431 16.2421 14.8321L16.2446 14.8309C17.2123 14.3605 17.912 14.0204 20.1291 16.7121C20.5081 17.1741 20.6531 17.6341 20.5721 18.1191C20.3851 19.2341 19.0771 20.2461 18.6861 20.4901C17.2751 21.4961 13.8771 20.6831 8.57509 15.3801C3.27209 10.0771 2.45809 6.67911 3.50109 5.21311C3.70909 4.87511 4.71409 3.57211 5.83309 3.38311Z" fill="currentColor"/>
</svg>
