<svg width="24" height="24" viewBox="0 0 24 24" fill="none" xmlns="http://www.w3.org/2000/svg">
<path fill-rule="evenodd" clip-rule="evenodd" d="M8.39648 12.4978C8.39648 10.3467 10.1407 8.60254 12.2917 8.60254C14.4428 8.60254 16.187 10.3467 16.187 12.4978C16.187 14.6489 14.4428 16.3931 12.2917 16.3931C10.1407 16.3931 8.39648 14.6489 8.39648 12.4978ZM12.2917 10.1025C10.9691 10.1025 9.89648 11.1752 9.89648 12.4978C9.89648 13.8204 10.9691 14.8931 12.2917 14.8931C13.6144 14.8931 14.687 13.8204 14.687 12.4978C14.687 11.1752 13.6144 10.1025 12.2917 10.1025Z" fill="currentColor"/>
<path fill-rule="evenodd" clip-rule="evenodd" d="M14.1091 2.36839C14.6328 2.41861 15.1654 2.50133 15.5262 2.65306L15.5268 2.65333C16.2629 2.96372 16.686 3.60507 16.9498 4.08364C17.0429 4.25255 17.1331 4.43465 17.2081 4.58612C17.2387 4.64793 17.2668 4.70465 17.2915 4.75328C17.3952 4.95721 17.4495 5.03875 17.4736 5.06517L17.4746 5.06632C17.619 5.22515 17.803 5.329 17.9764 5.38563C19.6472 5.8501 20.733 6.6643 21.349 7.95538C21.9318 9.17692 22.0454 10.7384 22.0454 12.5665C22.0454 15.1552 21.8299 17.3712 20.3433 18.8702C18.8649 20.3609 16.3266 20.9502 12.2922 20.9502C8.2578 20.9502 5.71958 20.3609 4.24114 18.8702C2.75457 17.3712 2.53906 15.1552 2.53906 12.5665C2.53906 10.7384 2.65263 9.17692 3.23545 7.95538C3.85151 6.66419 4.9374 5.84996 6.6085 5.38551C6.7817 5.32919 6.96497 5.2257 7.1098 5.06632L7.11085 5.06517C7.13546 5.0382 7.19079 4.95498 7.29605 4.74911C7.32136 4.69959 7.3501 4.6419 7.38138 4.5791C7.45722 4.42685 7.54803 4.24454 7.64143 4.07565C7.90456 3.59984 8.32969 2.9513 9.06491 2.65031L9.06582 2.64994C9.41856 2.50608 9.94412 2.42459 10.4654 2.37382C11.0144 2.32035 11.6524 2.29325 12.2849 2.29204C12.9171 2.29082 13.5569 2.31543 14.1091 2.36839ZM9.6327 4.0387C9.4039 4.1326 9.19023 4.37455 8.95407 4.80158C8.87634 4.94213 8.81154 5.07239 8.74297 5.21023C8.70762 5.2813 8.67126 5.35438 8.63162 5.43193C8.53375 5.62336 8.39769 5.88006 8.21943 6.07563C7.86422 6.4663 7.43339 6.69853 7.04783 6.81983C7.03939 6.82249 7.03091 6.82499 7.02239 6.82734C5.65229 7.20569 4.97587 7.79101 4.58925 8.60132C4.1676 9.48504 4.03906 10.7335 4.03906 12.5665C4.03906 15.2009 4.30251 16.8018 5.3062 17.8139C6.31802 18.8342 8.28138 19.4502 12.2922 19.4502C16.3031 19.4502 18.2664 18.8342 19.2782 17.8139C20.2819 16.8018 20.5454 15.2009 20.5454 12.5665C20.5454 10.7335 20.4168 9.48504 19.9952 8.60132C19.6086 7.79101 18.9321 7.20569 17.5621 6.82734C17.5533 6.82492 17.5445 6.82233 17.5358 6.81959C17.1527 6.69858 16.7207 6.46678 16.3651 6.07569C16.1863 5.87956 16.0512 5.62351 15.9544 5.43309C15.9154 5.35626 15.8796 5.28397 15.8449 5.21374C15.7771 5.07672 15.7132 4.94754 15.6362 4.80779C15.4048 4.38809 15.1891 4.13894 14.9442 4.03559C14.8142 3.98103 14.4865 3.91146 13.9659 3.86154C13.4733 3.81429 12.8838 3.79088 12.2877 3.79203C11.6919 3.79318 11.1026 3.81885 10.6108 3.86676C10.0916 3.91732 9.76287 3.98575 9.6327 4.0387Z" fill="currentColor"/>
<path fill-rule="evenodd" clip-rule="evenodd" d="M16.4551 9C16.4551 8.58579 16.7909 8.25 17.2051 8.25H17.2141C17.6283 8.25 17.9641 8.58579 17.9641 9C17.9641 9.41421 17.6283 9.75 17.2141 9.75H17.2051C16.7909 9.75 16.4551 9.41421 16.4551 9Z" fill="currentColor"/>
</svg>
