<svg width="24" height="24" viewBox="0 0 24 24" fill="none" xmlns="http://www.w3.org/2000/svg">
<path fill-rule="evenodd" clip-rule="evenodd" d="M17.3272 3.75C15.713 3.75 14.4043 5.05917 14.4043 6.6738C14.4043 8.28843 15.713 9.5976 17.3272 9.5976C18.9416 9.5976 20.251 8.28819 20.251 6.6738C20.251 5.05941 18.9416 3.75 17.3272 3.75ZM12.9043 6.6738C12.9043 4.23123 14.8841 2.25 17.3272 2.25C19.77 2.25 21.751 4.23099 21.751 6.6738C21.751 9.11661 19.77 11.0976 17.3272 11.0976C14.8841 11.0976 12.9043 9.11637 12.9043 6.6738Z" fill="currentColor"/>
<path fill-rule="evenodd" clip-rule="evenodd" d="M6.6729 3.75C5.05953 3.75 3.75 5.05929 3.75 6.6738C3.75 8.28831 5.05953 9.5976 6.6729 9.5976C8.28807 9.5976 9.5967 8.28831 9.5967 6.6738C9.5967 5.05929 8.28807 3.75 6.6729 3.75ZM2.25 6.6738C2.25 4.23111 4.23087 2.25 6.6729 2.25C9.11673 2.25 11.0967 4.23111 11.0967 6.6738C11.0967 9.11649 9.11673 11.0976 6.6729 11.0976C4.23087 11.0976 2.25 9.11649 2.25 6.6738Z" fill="currentColor"/>
<path fill-rule="evenodd" clip-rule="evenodd" d="M17.3272 14.3379C15.713 14.3379 14.4043 15.6471 14.4043 17.2617C14.4043 18.8761 15.7128 20.1846 17.3272 20.1846C18.9418 20.1846 20.251 18.8758 20.251 17.2617C20.251 15.6473 18.9416 14.3379 17.3272 14.3379ZM12.9043 17.2617C12.9043 14.8191 14.8841 12.8379 17.3272 12.8379C19.77 12.8379 21.751 14.8189 21.751 17.2617C21.751 19.7047 19.7698 21.6846 17.3272 21.6846C14.8844 21.6846 12.9043 19.7045 12.9043 17.2617Z" fill="currentColor"/>
<path fill-rule="evenodd" clip-rule="evenodd" d="M6.6729 14.3379C5.05953 14.3379 3.75 15.6472 3.75 17.2617C3.75 18.876 5.05929 20.1846 6.6729 20.1846C8.28831 20.1846 9.5967 18.876 9.5967 17.2617C9.5967 15.6472 8.28807 14.3379 6.6729 14.3379ZM2.25 17.2617C2.25 14.819 4.23087 12.8379 6.6729 12.8379C9.11673 12.8379 11.0967 14.819 11.0967 17.2617C11.0967 19.7046 9.11649 21.6846 6.6729 21.6846C4.23111 21.6846 2.25 19.7046 2.25 17.2617Z" fill="currentColor"/>
</svg>
