<svg width="24" height="24" viewBox="0 0 24 24" fill="none" xmlns="http://www.w3.org/2000/svg">
<path fill-rule="evenodd" clip-rule="evenodd" d="M7.48438 9.51074C7.89859 9.51074 8.23438 9.84653 8.23438 10.2607V16.9544C8.23438 17.3686 7.89859 17.7044 7.48438 17.7044C7.07016 17.7044 6.73438 17.3686 6.73438 16.9544V10.2607C6.73438 9.84653 7.07016 9.51074 7.48438 9.51074Z" fill="currentColor"/>
<path fill-rule="evenodd" clip-rule="evenodd" d="M12.0371 6.30762C12.4513 6.30762 12.7871 6.6434 12.7871 7.05762V16.9555C12.7871 17.3697 12.4513 17.7055 12.0371 17.7055C11.6229 17.7055 11.2871 17.3697 11.2871 16.9555V7.05762C11.2871 6.6434 11.6229 6.30762 12.0371 6.30762Z" fill="currentColor"/>
<path fill-rule="evenodd" clip-rule="evenodd" d="M16.5156 13.0479C16.9298 13.0479 17.2656 13.3836 17.2656 13.7979V16.9547C17.2656 17.3689 16.9298 17.7047 16.5156 17.7047C16.1014 17.7047 15.7656 17.3689 15.7656 16.9547V13.7979C15.7656 13.3836 16.1014 13.0479 16.5156 13.0479Z" fill="currentColor"/>
<path fill-rule="evenodd" clip-rule="evenodd" d="M4.96124 4.96027C3.6622 6.25931 3.05078 8.42719 3.05078 12.0366C3.05078 15.6461 3.6622 17.814 4.96124 19.113C6.26029 20.4121 8.42817 21.0235 12.0376 21.0235C15.6471 21.0235 17.815 20.4121 19.114 19.113C20.413 17.814 21.0245 15.6461 21.0245 12.0366C21.0245 8.42719 20.413 6.25931 19.114 4.96027C17.815 3.66122 15.6471 3.0498 12.0376 3.0498C8.42817 3.0498 6.26029 3.66122 4.96124 4.96027ZM3.90058 3.89961C5.64443 2.15576 8.34497 1.5498 12.0376 1.5498C15.7303 1.5498 18.4308 2.15576 20.1747 3.89961C21.9185 5.64346 22.5245 8.344 22.5245 12.0366C22.5245 15.7293 21.9185 18.4298 20.1747 20.1737C18.4308 21.9175 15.7303 22.5235 12.0376 22.5235C8.34497 22.5235 5.64443 21.9175 3.90058 20.1737C2.15673 18.4298 1.55078 15.7293 1.55078 12.0366C1.55078 8.344 2.15673 5.64346 3.90058 3.89961Z" fill="currentColor"/>
</svg>
