<svg width="24" height="24" viewBox="0 0 24 24" fill="none" xmlns="http://www.w3.org/2000/svg">
<path fill-rule="evenodd" clip-rule="evenodd" d="M14.9395 12.4131C14.9395 11.8608 15.3872 11.4131 15.9395 11.4131H15.9485C16.5007 11.4131 16.9485 11.8608 16.9485 12.4131C16.9485 12.9654 16.5007 13.4131 15.9485 13.4131H15.9395C15.3872 13.4131 14.9395 12.9654 14.9395 12.4131Z" fill="currentColor"/>
<path fill-rule="evenodd" clip-rule="evenodd" d="M10.9297 12.4131C10.9297 11.8608 11.3774 11.4131 11.9297 11.4131H11.9387C12.491 11.4131 12.9387 11.8608 12.9387 12.4131C12.9387 12.9654 12.491 13.4131 11.9387 13.4131H11.9297C11.3774 13.4131 10.9297 12.9654 10.9297 12.4131Z" fill="currentColor"/>
<path fill-rule="evenodd" clip-rule="evenodd" d="M6.92188 12.4131C6.92188 11.8608 7.36959 11.4131 7.92188 11.4131H7.93088C8.48316 11.4131 8.93087 11.8608 8.93087 12.4131C8.93087 12.9654 8.48316 13.4131 7.93088 13.4131H7.92188C7.36959 13.4131 6.92188 12.9654 6.92188 12.4131Z" fill="currentColor"/>
<path fill-rule="evenodd" clip-rule="evenodd" d="M18.5405 5.45733C14.9321 1.84756 9.06885 1.84756 5.4605 5.45733L5.46035 5.45748C2.63446 8.28282 2.02077 12.4709 3.60683 15.8984C3.61215 15.9099 3.61719 15.9215 3.62192 15.9333C3.71409 16.1623 3.71202 16.4218 3.70787 16.5686C3.70266 16.7529 3.68227 16.9652 3.65711 17.1812C3.63332 17.3854 3.6031 17.6104 3.57239 17.8391L3.566 17.8867C3.53274 18.1345 3.49886 18.3889 3.4693 18.6437C3.40934 19.1604 3.37169 19.643 3.38844 20.029C3.39679 20.2214 3.41782 20.3639 3.44467 20.4616C3.45372 20.4945 3.462 20.5172 3.46811 20.5318C3.48272 20.5379 3.50538 20.5462 3.5383 20.5552C3.63603 20.582 3.77859 20.603 3.97096 20.6114C4.35699 20.6281 4.83953 20.5904 5.35622 20.5305C5.61098 20.501 5.86537 20.4671 6.11318 20.4339L6.16041 20.4276C6.38919 20.3969 6.61427 20.3667 6.81855 20.3429C7.03452 20.3178 7.24684 20.2974 7.4311 20.2923C7.57788 20.2881 7.83735 20.2861 8.06629 20.3783C8.07798 20.383 8.08955 20.388 8.10099 20.3933C11.5292 21.9787 15.7156 21.3658 18.5404 18.5396L18.5405 18.5396C22.1494 14.9302 22.1565 9.07296 18.5406 5.45746L18.5405 5.45733ZM19.6012 4.39674C15.407 0.201042 8.59377 0.201088 4.39963 4.39687C1.13559 7.66041 0.414339 12.4848 2.20868 16.4479C2.20922 16.4654 2.20946 16.491 2.20847 16.5262C2.20517 16.6431 2.19103 16.803 2.16719 17.0076C2.14498 17.1982 2.11645 17.4107 2.08515 17.6438L2.07934 17.6871C2.04614 17.9344 2.0106 18.201 1.9793 18.4708C1.91753 19.0031 1.86769 19.5835 1.88985 20.094C1.90096 20.35 1.93098 20.6142 1.99831 20.8591C2.0641 21.0985 2.18049 21.3749 2.40284 21.5973L2.40319 21.5976C2.6256 21.8198 2.90194 21.936 3.1412 22.0017C3.38607 22.0689 3.65019 22.0989 3.90607 22.11C4.41653 22.1321 4.99673 22.0823 5.52898 22.0205C5.79868 21.9893 6.06531 21.9538 6.31254 21.9206L6.35546 21.9149C6.58865 21.8836 6.80125 21.8551 6.9919 21.8329C7.19654 21.8091 7.35636 21.795 7.47325 21.7917C7.50846 21.7907 7.53413 21.7909 7.55166 21.7915C11.515 23.585 16.338 22.8649 19.6013 19.6001C23.7949 15.4059 23.8039 8.5989 19.6012 4.39674Z" fill="currentColor"/>
</svg>
