<svg width="24" height="24" viewBox="0 0 24 24" fill="none" xmlns="http://www.w3.org/2000/svg">
<path fill-rule="evenodd" clip-rule="evenodd" d="M5.30396 5.30396C4.08098 6.52693 3.5 8.5731 3.5 12C3.5 15.4269 4.08098 17.4731 5.30396 18.696C6.52693 19.919 8.5731 20.5 12 20.5C15.4269 20.5 17.4731 19.919 18.696 18.696C19.919 17.4731 20.5 15.4269 20.5 12C20.5 8.5731 19.919 6.52693 18.696 5.30396C17.4731 4.08098 15.4269 3.5 12 3.5C8.5731 3.5 6.52693 4.08098 5.30396 5.30396ZM4.24329 4.24329C5.91107 2.57552 8.4899 2 12 2C15.5101 2 18.0889 2.57552 19.7567 4.24329C21.4245 5.91107 22 8.4899 22 12C22 15.5101 21.4245 18.0889 19.7567 19.7567C18.0889 21.4245 15.5101 22 12 22C8.4899 22 5.91107 21.4245 4.24329 19.7567C2.57552 18.0889 2 15.5101 2 12C2 8.4899 2.57552 5.91107 4.24329 4.24329Z" fill="currentColor"/>
<path fill-rule="evenodd" clip-rule="evenodd" d="M12 7.35449C12.4142 7.35449 12.75 7.69028 12.75 8.10449V11.9995C12.75 12.4137 12.4142 12.7495 12 12.7495C11.5858 12.7495 11.25 12.4137 11.25 11.9995V8.10449C11.25 7.69028 11.5858 7.35449 12 7.35449Z" fill="currentColor"/>
<path fill-rule="evenodd" clip-rule="evenodd" d="M11.2461 15.5C11.2461 15.0858 11.5819 14.75 11.9961 14.75H12.0051C12.4193 14.75 12.7551 15.0858 12.7551 15.5C12.7551 15.9142 12.4193 16.25 12.0051 16.25H11.9961C11.5819 16.25 11.2461 15.9142 11.2461 15.5Z" fill="currentColor"/>
</svg>
