<svg width="24" height="24" viewBox="0 0 24 24" fill="none" xmlns="http://www.w3.org/2000/svg">
<path d="M12 13.145C11.586 13.145 11.25 12.809 11.25 12.395V8.5C11.25 8.086 11.586 7.75 12 7.75C12.414 7.75 12.75 8.086 12.75 8.5V12.395C12.75 12.809 12.414 13.145 12 13.145Z" fill="currentColor"/>
<path d="M11.249 15.895C11.249 16.309 11.59 16.645 12.004 16.645C12.418 16.645 12.754 16.309 12.754 15.895C12.754 15.481 12.418 15.145 12.004 15.145H11.995C11.581 15.145 11.249 15.481 11.249 15.895Z" fill="currentColor"/>
<path fill-rule="evenodd" clip-rule="evenodd" d="M12.0001 21.75C6.20609 21.75 2.36609 21.512 1.80509 18.334C1.42609 16.195 3.06809 12.936 4.72609 10.029L4.93509 9.661C7.97309 4.259 9.88809 2.25 12.0001 2.25C14.1131 2.25 16.0271 4.259 19.0641 9.661L19.2731 10.029C20.9311 12.936 22.5731 16.195 22.1941 18.334C21.6341 21.512 17.7941 21.75 12.0001 21.75ZM12.0001 3.75C10.5841 3.75 8.86109 5.738 6.24109 10.396L6.02809 10.772L6.02507 10.7773C5.18075 12.2594 2.94649 16.1813 3.28109 18.073C3.58009 19.762 5.53609 20.25 12.0001 20.25C18.4641 20.25 20.4201 19.762 20.7181 18.073C21.0527 16.1813 18.8185 12.2594 17.9741 10.7773L17.9711 10.772L17.7581 10.396C15.1391 5.738 13.4171 3.75 12.0001 3.75Z" fill="currentColor"/>
</svg>
