<svg width="24" height="24" viewBox="0 0 24 24" fill="none" xmlns="http://www.w3.org/2000/svg">
<path fill-rule="evenodd" clip-rule="evenodd" d="M7.81092 5.7749C7.85383 5.08012 8.05165 4.0881 8.74842 3.28681C9.48542 2.43781 10.5794 2.00781 11.9984 2.00781C13.4184 2.00781 14.5114 2.43781 15.2494 3.28681C15.9461 4.08794 16.1436 5.08006 16.1863 5.7749H20.0748C20.4888 5.7749 20.8248 6.1109 20.8248 6.5249C20.8248 6.9389 20.4888 7.2749 20.0748 7.2749H3.92383C3.50983 7.2749 3.17383 6.9389 3.17383 6.5249C3.17383 6.1109 3.50983 5.7749 3.92383 5.7749H7.81092ZM14.6835 5.7749C14.6457 5.323 14.5128 4.72169 14.1114 4.26381C13.6714 3.76181 12.9604 3.50781 11.9984 3.50781C11.0374 3.50781 10.3264 3.76181 9.88542 4.26381C9.48403 4.72169 9.35145 5.323 9.31374 5.7749H14.6835Z" fill="currentColor"/>
<path d="M11.9883 21.9927C9.02929 21.9927 7.20729 21.4797 6.08129 20.3317C4.49324 18.7126 4.54523 16.0588 4.61716 12.3872L4.61729 12.3807C4.63429 11.5197 4.65229 10.5937 4.65229 9.59766C4.65229 9.18366 4.98829 8.84766 5.40229 8.84766C5.81629 8.84766 6.15229 9.18366 6.15229 9.59766C6.15229 10.6037 6.13429 11.5407 6.11629 12.4107C6.04929 15.8437 6.00529 18.1107 7.15229 19.2807C7.96229 20.1077 9.49929 20.4927 11.9883 20.4927C14.4823 20.4927 16.0223 20.1057 16.8363 19.2767C17.9902 18.0997 17.9473 15.8189 17.8823 12.3662L17.8805 12.2696C17.865 11.4407 17.8483 10.5497 17.8483 9.59766C17.8483 9.18366 18.1843 8.84766 18.5983 8.84766C19.0123 8.84766 19.3483 9.18366 19.3483 9.59766C19.3483 10.5767 19.3653 11.4887 19.3823 12.3377L19.3824 12.3453C19.4514 16.0354 19.5012 18.7028 17.9063 20.3277C16.7773 21.4787 14.9513 21.9927 11.9883 21.9927Z" fill="currentColor"/>
</svg>
