<svg width="24" height="24" viewBox="0 0 24 24" fill="none" xmlns="http://www.w3.org/2000/svg">
<path fill-rule="evenodd" clip-rule="evenodd" d="M4.24329 4.24329C5.91107 2.57552 8.4899 2 12 2C15.5101 2 18.0889 2.57552 19.7567 4.24329C21.4245 5.91107 22 8.4899 22 12C22 15.5101 21.4245 18.0889 19.7567 19.7567C18.0889 21.4245 15.5101 22 12 22C8.4899 22 5.91107 21.4245 4.24329 19.7567C2.57552 18.0889 2 15.5101 2 12C2 8.4899 2.57552 5.91107 4.24329 4.24329ZM5.30396 5.30396C4.08098 6.52693 3.5 8.5731 3.5 12C3.5 15.4269 4.08098 17.4731 5.30396 18.696C6.52693 19.919 8.5731 20.5 12 20.5C15.4269 20.5 17.4731 19.919 18.696 18.696C19.919 17.4731 20.5 15.4269 20.5 12C20.5 8.5731 19.919 6.52693 18.696 5.30396C17.4731 4.08098 15.4269 3.5 12 3.5C8.5731 3.5 6.52693 4.08098 5.30396 5.30396Z" fill="currentColor"/>
<path fill-rule="evenodd" clip-rule="evenodd" d="M15.8316 8.16795C16.029 8.36531 16.1004 8.65593 16.017 8.92228L14.443 13.9513C14.3696 14.1858 14.1859 14.3696 13.9514 14.443L8.9214 16.018C8.65503 16.1014 8.36439 16.03 8.167 15.8326C7.96962 15.6353 7.89816 15.3447 7.98151 15.0783L9.55551 10.0483C9.62893 9.81365 9.81268 9.62991 10.0473 9.55649L15.0773 7.98249C15.3437 7.89914 15.6343 7.97059 15.8316 8.16795ZM10.8698 10.8708L9.84116 14.1582L13.1287 13.1288L14.1574 9.84207L10.8698 10.8708Z" fill="currentColor"/>
</svg>
