<svg width="24" height="24" viewBox="0 0 24 24" fill="none" xmlns="http://www.w3.org/2000/svg">
<path fill-rule="evenodd" clip-rule="evenodd" d="M5.30396 5.30396C4.08098 6.52693 3.5 8.5731 3.5 12C3.5 15.4269 4.08098 17.4731 5.30396 18.696C6.52693 19.919 8.5731 20.5 12 20.5C15.4269 20.5 17.4731 19.919 18.696 18.696C19.919 17.4731 20.5 15.4269 20.5 12C20.5 8.5731 19.919 6.52693 18.696 5.30396C17.4731 4.08098 15.4269 3.5 12 3.5C8.5731 3.5 6.52693 4.08098 5.30396 5.30396ZM4.24329 4.24329C5.91107 2.57552 8.4899 2 12 2C15.5101 2 18.0889 2.57552 19.7567 4.24329C21.4245 5.91107 22 8.4899 22 12C22 15.5101 21.4245 18.0889 19.7567 19.7567C18.0889 21.4245 15.5101 22 12 22C8.4899 22 5.91107 21.4245 4.24329 19.7567C2.57552 18.0889 2 15.5101 2 12C2 8.4899 2.57552 5.91107 4.24329 4.24329Z" fill="currentColor"/>
<path fill-rule="evenodd" clip-rule="evenodd" d="M15.1 8.89936C15.3929 9.19225 15.3929 9.66712 15.1 9.96002L9.96002 15.1C9.66712 15.3929 9.19225 15.3929 8.89936 15.1C8.60646 14.8071 8.60646 14.3323 8.89936 14.0394L14.0394 8.89936C14.3323 8.60646 14.8071 8.60646 15.1 8.89936Z" fill="currentColor"/>
<path fill-rule="evenodd" clip-rule="evenodd" d="M13.4961 14.5C13.4961 13.9477 13.9438 13.5 14.4961 13.5H14.5051C15.0574 13.5 15.5051 13.9477 15.5051 14.5C15.5051 15.0523 15.0574 15.5 14.5051 15.5H14.4961C13.9438 15.5 13.4961 15.0523 13.4961 14.5Z" fill="currentColor"/>
<path fill-rule="evenodd" clip-rule="evenodd" d="M8.49609 9.5C8.49609 8.94772 8.94381 8.5 9.49609 8.5H9.50509C10.0574 8.5 10.5051 8.94772 10.5051 9.5C10.5051 10.0523 10.0574 10.5 9.50509 10.5H9.49609C8.94381 10.5 8.49609 10.0523 8.49609 9.5Z" fill="currentColor"/>
</svg>
