<svg width="24" height="24" viewBox="0 0 24 24" fill="none" xmlns="http://www.w3.org/2000/svg">
<path fill-rule="evenodd" clip-rule="evenodd" d="M7.625 15.6963C7.625 15.2821 7.96079 14.9463 8.375 14.9463H15.595C16.0092 14.9463 16.345 15.2821 16.345 15.6963C16.345 16.1105 16.0092 16.4463 15.595 16.4463H8.375C7.96079 16.4463 7.625 16.1105 7.625 15.6963Z" fill="currentColor"/>
<path fill-rule="evenodd" clip-rule="evenodd" d="M7.625 11.9365C7.625 11.5223 7.96079 11.1865 8.375 11.1865H15.595C16.0092 11.1865 16.345 11.5223 16.345 11.9365C16.345 12.3507 16.0092 12.6865 15.595 12.6865H8.375C7.96079 12.6865 7.625 12.3507 7.625 11.9365Z" fill="currentColor"/>
<path fill-rule="evenodd" clip-rule="evenodd" d="M7.625 8.17676C7.625 7.76254 7.96079 7.42676 8.375 7.42676H11.13C11.5442 7.42676 11.88 7.76254 11.88 8.17676C11.88 8.59097 11.5442 8.92676 11.13 8.92676H8.375C7.96079 8.92676 7.625 8.59097 7.625 8.17676Z" fill="currentColor"/>
<path fill-rule="evenodd" clip-rule="evenodd" d="M4.8895 4.26972C6.42143 2.58093 8.79783 2 12.0004 2C15.2034 2 17.5798 2.58091 19.1116 4.26975C20.6234 5.93649 21.1414 8.50173 21.1414 12C21.1414 15.4983 20.6234 18.0635 19.1116 19.7303C17.5798 21.4191 15.2034 22 12.0004 22C8.79783 22 6.42143 21.4191 4.8895 19.7303C3.37758 18.0636 2.85938 15.4983 2.85938 12C2.85938 8.50166 3.37758 5.93645 4.8895 4.26972ZM6.0005 5.27753C4.89017 6.50155 4.35938 8.56134 4.35938 12C4.35938 15.4387 4.89017 17.4984 6.0005 18.7225C7.09082 19.9244 8.90992 20.5 12.0004 20.5C15.0914 20.5 16.9104 19.9244 18.0006 18.7225C19.1108 17.4985 19.6414 15.4387 19.6414 12C19.6414 8.56127 19.1108 6.50151 18.0006 5.2775C16.9104 4.07559 15.0914 3.5 12.0004 3.5C8.90992 3.5 7.09082 4.07557 6.0005 5.27753Z" fill="currentColor"/>
</svg>
