<svg width="24" height="24" viewBox="0 0 24 24" fill="none" xmlns="http://www.w3.org/2000/svg">
<path fill-rule="evenodd" clip-rule="evenodd" d="M11.8789 2C12.2931 2 12.6289 2.33579 12.6289 2.75V14.791C12.6289 15.2052 12.2931 15.541 11.8789 15.541C11.4647 15.541 11.1289 15.2052 11.1289 14.791V2.75C11.1289 2.33579 11.4647 2 11.8789 2Z" fill="currentColor"/>
<path fill-rule="evenodd" clip-rule="evenodd" d="M8.43365 11.3328C8.72714 11.0405 9.20202 11.0415 9.49431 11.335L11.8789 13.7294L14.2635 11.335C14.5558 11.0415 15.0306 11.0405 15.3241 11.3328C15.6176 11.6251 15.6186 12.1 15.3263 12.3935L12.4103 15.3215C12.2696 15.4628 12.0783 15.5423 11.8789 15.5423C11.6794 15.5423 11.4882 15.4628 11.3475 15.3215L8.43147 12.3935C8.13918 12.1 8.14016 11.6251 8.43365 11.3328Z" fill="currentColor"/>
<path fill-rule="evenodd" clip-rule="evenodd" d="M15.6232 7.18998C15.6612 6.77751 16.0264 6.47398 16.4389 6.51201C18.2861 6.68233 19.7851 7.12906 20.7547 8.43727C21.6843 9.69156 22 11.5813 22 14.2588C22 17.8083 21.4432 19.9905 19.6196 21.1104C18.7505 21.6442 17.6742 21.8801 16.4422 21.9947C15.215 22.1088 13.7407 22.1088 12.0316 22.1088H11.9684C10.2588 22.1088 8.78428 22.1088 7.55698 21.9947C6.32486 21.8801 5.24858 21.6442 4.37958 21.1104C2.55627 19.9905 2 17.8081 2 14.2588C2 11.5814 2.31546 9.69163 3.24491 8.43731C4.21436 7.12903 5.71345 6.68232 7.56116 6.512C7.97362 6.47398 8.33881 6.77753 8.37683 7.19C8.41485 7.60246 8.11131 7.96765 7.69884 8.00567C5.96655 8.16535 5.02564 8.55365 4.45009 9.33036C3.83454 10.1611 3.5 11.6063 3.5 14.2588C3.5 17.8096 4.09823 19.1772 5.16467 19.8323C5.74054 20.186 6.54296 20.3939 7.69592 20.5011C8.84616 20.6081 10.2526 20.6088 12 20.6088C13.7469 20.6088 15.1531 20.6081 16.3032 20.5011C17.4561 20.3939 18.2586 20.186 18.8346 19.8322C19.9013 19.1771 20.5 17.8094 20.5 14.2588C20.5 11.6063 20.1652 10.1611 19.5496 9.33041C18.9739 8.55362 18.0329 8.16535 16.3011 8.00567C15.8887 7.96764 15.5851 7.60244 15.6232 7.18998Z" fill="currentColor"/>
</svg>
