<svg width="24" height="24" viewBox="0 0 24 24" fill="none" xmlns="http://www.w3.org/2000/svg">
<path fill-rule="evenodd" clip-rule="evenodd" d="M3.26172 17.2451C3.26172 16.8309 3.59751 16.4951 4.01172 16.4951H10.4842C10.8985 16.4951 11.2342 16.8309 11.2342 17.2451C11.2342 17.6593 10.8985 17.9951 10.4842 17.9951H4.01172C3.59751 17.9951 3.26172 17.6593 3.26172 17.2451Z" fill="currentColor"/>
<path fill-rule="evenodd" clip-rule="evenodd" d="M14.6122 14.5892C15.2599 13.9416 16.2067 13.7744 17.2687 13.7744C18.3306 13.7744 19.2774 13.9416 19.9252 14.5892C20.573 15.2369 20.7405 16.1837 20.7405 17.2462C20.7405 18.3087 20.573 19.2555 19.9252 19.9032C19.2774 20.5508 18.3306 20.718 17.2687 20.718C16.2067 20.718 15.2599 20.5508 14.6122 19.9032C13.9644 19.2555 13.7969 18.3087 13.7969 17.2462C13.7969 16.1837 13.9644 15.2369 14.6122 14.5892ZM15.6727 15.65C15.4698 15.8528 15.2969 16.2669 15.2969 17.2462C15.2969 18.2255 15.4698 18.6396 15.6727 18.8424C15.8756 19.0452 16.2897 19.218 17.2687 19.218C18.2476 19.218 18.6617 19.0452 18.8646 18.8424C19.0675 18.6396 19.2405 18.2255 19.2405 17.2462C19.2405 16.2669 19.0675 15.8528 18.8646 15.65C18.6617 15.4472 18.2476 15.2744 17.2687 15.2744C16.2897 15.2744 15.8756 15.4472 15.6727 15.65Z" fill="currentColor"/>
<path fill-rule="evenodd" clip-rule="evenodd" d="M12.7676 6.75586C12.7676 6.34165 13.1034 6.00586 13.5176 6.00586H19.9892C20.4034 6.00586 20.7392 6.34165 20.7392 6.75586C20.7392 7.17007 20.4034 7.50586 19.9892 7.50586H13.5176C13.1034 7.50586 12.7676 7.17007 12.7676 6.75586Z" fill="currentColor"/>
<path fill-rule="evenodd" clip-rule="evenodd" d="M4.07713 4.09836C4.72495 3.45071 5.67188 3.2832 6.7344 3.2832C7.79655 3.2832 8.74326 3.45073 9.39096 4.09843C10.0387 4.74613 10.2062 5.69284 10.2062 6.75499C10.2062 7.81749 10.0387 8.76432 9.39089 9.41196C8.74313 10.0596 7.79635 10.2268 6.7344 10.2268C5.67208 10.2268 4.72509 10.0596 4.0772 9.41203C3.42921 8.76437 3.26172 7.81748 3.26172 6.75499C3.26172 5.69285 3.42924 4.74608 4.07713 4.09836ZM5.13765 5.15916C4.93464 5.36212 4.76172 5.77624 4.76172 6.75499C4.76172 7.73429 4.93468 8.14829 5.13758 8.35109C5.34059 8.55399 5.75494 8.72678 6.7344 8.72678C7.71335 8.72678 8.12746 8.55401 8.33037 8.35116C8.53324 8.14835 8.70619 7.73429 8.70619 6.75499C8.70619 5.77625 8.53327 5.36206 8.3303 5.15909C8.12733 4.95612 7.71315 4.7832 6.7344 4.7832C5.75514 4.7832 5.34072 4.95615 5.13765 5.15916Z" fill="currentColor"/>
</svg>
