<svg width="24" height="24" viewBox="0 0 24 24" fill="none" xmlns="http://www.w3.org/2000/svg">
<path d="M7.19531 15.4753H16.7883C17.2023 15.4753 17.5383 15.1393 17.5383 14.7253C17.5383 14.3113 17.2023 13.9753 16.7883 13.9753H7.19531C6.78131 13.9753 6.44531 14.3113 6.44531 14.7253C6.44531 15.1393 6.78131 15.4753 7.19531 15.4753Z" fill="currentColor"/>
<path fill-rule="evenodd" clip-rule="evenodd" d="M1.64062 14.0152C1.64062 21.5052 6.13062 22.1002 12.0006 22.1002C17.8706 22.1002 22.3606 21.5052 22.3606 13.9882C22.3606 12.1662 22.3606 9.11818 20.4756 7.08418C19.3026 5.81818 17.7806 5.84718 16.5586 5.87118C15.8216 5.88718 15.1236 5.89918 14.6606 5.63618C14.0786 5.30518 13.8806 4.93618 13.6306 4.46918C13.3436 3.93118 12.9846 3.26218 12.0386 2.75218C10.3596 1.84618 8.39563 1.66818 5.86163 2.18918C3.29763 2.71518 1.64062 4.97618 1.64062 7.94918V14.0152ZM6.16362 3.65818C6.99662 3.48718 7.75163 3.40118 8.44263 3.40118C9.55062 3.40118 10.4936 3.62318 11.3266 4.07218C11.876 4.36885 12.0572 4.70744 12.3078 5.17564L12.3092 5.17817C12.6001 5.72 12.9622 6.39451 13.9196 6.94018C14.733 7.40183 15.6602 7.38651 16.5622 7.3716L16.5876 7.37118C17.6986 7.34818 18.6596 7.33218 19.3756 8.10318C20.8606 9.70618 20.8606 12.2822 20.8606 14.0152C20.8606 19.9512 18.0236 20.6002 12.0006 20.6002C5.83962 20.6002 3.14062 19.9772 3.14062 14.0152V7.94918C3.14062 6.17518 3.93462 4.11518 6.16362 3.65818Z" fill="currentColor"/>
</svg>
