<svg width="24" height="24" viewBox="0 0 24 24" fill="none" xmlns="http://www.w3.org/2000/svg">
<path d="M8.23975 15.8746C8.23975 16.2886 8.57575 16.6246 8.98975 16.6246C9.40375 16.6246 9.73975 16.2886 9.73975 15.8746V14.8364H10.814C11.228 14.8364 11.564 14.5004 11.564 14.0864C11.564 13.6724 11.228 13.3364 10.814 13.3364H9.73975V12.2996C9.73975 11.8856 9.40375 11.5496 8.98975 11.5496C8.57575 11.5496 8.23975 11.8856 8.23975 12.2996V13.3364H7.16602C6.75202 13.3364 6.41602 13.6724 6.41602 14.0864C6.41602 14.5004 6.75202 14.8364 7.16602 14.8364H8.23975V15.8746Z" fill="currentColor"/>
<path d="M15.2119 13.1582H15.1099C14.6959 13.1582 14.3599 12.8222 14.3599 12.4082C14.3599 11.9942 14.6959 11.6582 15.1099 11.6582H15.2119C15.6259 11.6582 15.9619 11.9942 15.9619 12.4082C15.9619 12.8222 15.6259 13.1582 15.2119 13.1582Z" fill="currentColor"/>
<path d="M16.8398 16.5703H16.9428C17.3568 16.5703 17.6928 16.2343 17.6928 15.8203C17.6928 15.4063 17.3568 15.0703 16.9428 15.0703H16.8398C16.4258 15.0703 16.0898 15.4063 16.0898 15.8203C16.0898 16.2343 16.4258 16.5703 16.8398 16.5703Z" fill="currentColor"/>
<path fill-rule="evenodd" clip-rule="evenodd" d="M11.833 5.96861C4.35589 5.99973 1.70117 8.14837 1.70117 14.1323C1.70117 20.1593 4.39517 22.2963 11.9992 22.2963C19.6022 22.2963 22.2972 20.1593 22.2972 14.1323C22.2972 8.47106 19.9202 6.24262 13.333 5.99238V5.70112C13.312 4.19012 12.049 2.99112 10.563 2.98312H9.54804C9.5299 2.97838 9.51015 2.97375 9.48935 2.96887C9.3829 2.94389 9.24888 2.91245 9.16104 2.82712C9.05804 2.72613 9.00004 2.59113 8.99904 2.44713C8.99604 2.03413 8.66104 1.70312 8.24904 1.70312H8.24304C7.82904 1.70613 7.49604 2.04512 7.49904 2.45912C7.50304 3.00513 7.72104 3.51613 8.11104 3.89913C8.50104 4.28013 8.99304 4.46712 9.55504 4.48312H10.569C11.263 4.46613 11.824 5.03312 11.833 5.71112V5.96861ZM3.20117 14.1323C3.20117 9.02526 5.25617 7.46826 11.9992 7.46826C18.7412 7.46826 20.7972 9.02526 20.7972 14.1323C20.7972 19.2393 18.7412 20.7963 11.9992 20.7963C5.25617 20.7963 3.20117 19.2393 3.20117 14.1323Z" fill="currentColor"/>
</svg>
