<svg width="24" height="24" viewBox="0 0 24 24" fill="none" xmlns="http://www.w3.org/2000/svg">
<path d="M17.6322 10.699H17.6572C18.0592 10.699 18.3922 10.38 18.4062 9.97402C18.4652 8.22902 17.4242 6.94602 15.8162 6.78102C15.4122 6.74702 15.0362 7.03802 14.9932 7.45002C14.9512 7.86202 15.2512 8.23002 15.6632 8.27302C16.4742 8.35602 16.9392 8.97302 16.9072 9.92402C16.8932 10.338 17.2182 10.685 17.6322 10.699Z" fill="currentColor"/>
<path fill-rule="evenodd" clip-rule="evenodd" d="M2.16005 12.6385C3.95405 18.2225 9.94705 21.2355 12.003 21.2355C14.074 21.2355 20.087 18.2215 21.8431 12.6375C22.993 9.04554 21.7181 4.35754 17.652 3.04754C15.92 2.49254 13.547 2.69654 11.981 4.28954C10.53 2.89554 8.37405 2.39254 6.34305 3.04854C2.28105 4.35554 1.00805 9.04454 2.15905 12.6375L2.16005 12.6385ZM12.003 19.7355C10.818 19.7355 5.23505 17.3055 3.58805 12.1805C2.65705 9.27254 3.62105 5.50054 6.80305 4.47554C8.19405 4.02654 10.226 4.27854 11.3951 5.89254C11.54 6.09154 11.772 6.19154 12.019 6.20154C12.265 6.19654 12.493 6.07054 12.6291 5.86554C13.6951 4.24754 15.743 4.01154 17.1931 4.47554C20.378 5.50154 21.344 9.27354 20.413 12.1835C18.802 17.3065 13.197 19.7355 12.003 19.7355Z" fill="currentColor"/>
</svg>
