<svg width="24" height="24" viewBox="0 0 24 24" fill="none" xmlns="http://www.w3.org/2000/svg">
<path fill-rule="evenodd" clip-rule="evenodd" d="M3.58303 20.4171C3.72903 20.5641 3.92103 20.6371 4.11303 20.6371C4.30503 20.6371 4.49703 20.5641 4.64303 20.4171L6.86954 18.1905C6.92233 18.1505 6.97048 18.1028 7.01226 18.0478L20.417 4.64305C20.71 4.35005 20.71 3.87505 20.417 3.58205C20.124 3.28905 19.65 3.28905 19.357 3.58205L17.4789 5.46029C15.8038 4.47189 13.9204 3.95215 11.9961 3.95215C6.45609 3.95215 1.99609 8.35615 1.99609 12.0021C1.99609 13.9519 3.25202 16.1084 5.25663 17.6834L3.58303 19.3571C3.29003 19.6501 3.29003 20.1241 3.58303 20.4171ZM6.32643 16.6135C4.61323 15.3185 3.49609 13.5217 3.49609 12.0021C3.49609 9.05415 7.41809 5.45215 11.9961 5.45215C13.5227 5.45215 15.0209 5.83353 16.3778 6.56146L14.1845 8.75494C13.5425 8.32265 12.7768 8.08374 11.998 8.08374H11.989C10.944 8.08574 9.96297 8.49474 9.22497 9.23474C8.48797 9.97474 8.08297 10.9577 8.08597 11.9977C8.08294 12.7779 8.32108 13.5443 8.75459 14.1852L6.32643 16.6135ZM9.84756 13.0921L13.091 9.84852C12.7542 9.67664 12.3781 9.58374 11.997 9.58374H11.992C11.347 9.58474 10.742 9.83674 10.288 10.2927C9.83397 10.7497 9.58397 11.3547 9.58597 11.9987C9.58416 12.3812 9.67636 12.7567 9.84756 13.0921Z" fill="currentColor"/>
<path d="M11.9944 20.0529C11.0474 20.0529 10.0964 19.9229 9.16442 19.6649C8.76542 19.5549 8.53142 19.1419 8.64142 18.7429C8.75142 18.3429 9.16742 18.1099 9.56442 18.2199C10.3654 18.4409 11.1824 18.5529 11.9944 18.5529C16.5774 18.5529 20.5044 14.9509 20.5044 12.0019C20.5044 11.0469 20.0604 9.95793 19.2554 8.93793C18.9994 8.61293 19.0554 8.14093 19.3804 7.88393C19.7054 7.62793 20.1774 7.68293 20.4334 8.00793C21.4464 9.29293 22.0044 10.7109 22.0044 12.0019C22.0044 15.6489 17.5394 20.0529 11.9944 20.0529Z" fill="currentColor"/>
<path d="M12.5664 15.8537C12.2114 15.8537 11.8964 15.6007 11.8294 15.2397C11.7544 14.8327 12.0244 14.4407 12.4324 14.3667C13.4114 14.1857 14.1894 13.4077 14.3664 12.4277C14.4404 12.0197 14.8294 11.7517 15.2384 11.8237C15.6454 11.8977 15.9164 12.2877 15.8424 12.6957C15.5544 14.2857 14.2934 15.5487 12.7024 15.8407C12.6574 15.8497 12.6114 15.8537 12.5664 15.8537Z" fill="currentColor"/>
</svg>
