<svg width="24" height="24" viewBox="0 0 24 24" fill="none" xmlns="http://www.w3.org/2000/svg">
<path fill-rule="evenodd" clip-rule="evenodd" d="M2 12.1211C2 11.7069 2.33579 11.3711 2.75 11.3711H14.791C15.2052 11.3711 15.541 11.7069 15.541 12.1211C15.541 12.5353 15.2052 12.8711 14.791 12.8711H2.75C2.33579 12.8711 2 12.5353 2 12.1211Z" fill="currentColor"/>
<path fill-rule="evenodd" clip-rule="evenodd" d="M11.3338 8.67584C11.6261 8.38234 12.101 8.38137 12.3945 8.67366L15.3225 11.5897C15.4638 11.7304 15.5432 11.9216 15.5432 12.1211C15.5432 12.3205 15.4638 12.5118 15.3225 12.6525L12.3945 15.5685C12.101 15.8608 11.6261 15.8598 11.3338 15.5663C11.0415 15.2728 11.0425 14.798 11.336 14.5057L13.7304 12.1211L11.336 9.7365C11.0425 9.4442 11.0415 8.96933 11.3338 8.67584Z" fill="currentColor"/>
<path fill-rule="evenodd" clip-rule="evenodd" d="M9.32939 4.45009C8.55267 5.02564 8.16438 5.96655 8.0047 7.69884C7.96668 8.11131 7.60148 8.41485 7.18902 8.37683C6.77655 8.33881 6.47301 7.97362 6.51103 7.56116C6.68135 5.71345 7.12805 4.21436 8.43634 3.24491C9.69065 2.31546 11.5804 2 14.2579 2C17.8077 2 19.9902 2.55654 21.1103 4.37994C21.6441 5.249 21.88 6.3253 21.9947 7.55739C22.1089 8.78465 22.1089 10.259 22.1089 11.9684V12.0316C22.1089 13.741 22.1089 15.2154 21.9947 16.4426C21.88 17.6747 21.6441 18.751 21.1103 19.6201C19.9902 21.4435 17.8077 22 14.2579 22C11.5804 22 9.69065 21.6845 8.43634 20.7551C7.12805 19.7856 6.68135 18.2866 6.51103 16.4388C6.47301 16.0264 6.77655 15.6612 7.18902 15.6232C7.60148 15.5851 7.96668 15.8887 8.0047 16.3012C8.16438 18.0334 8.55267 18.9744 9.32939 19.5499C10.1601 20.1655 11.6053 20.5 14.2579 20.5C17.809 20.5 19.177 19.9015 19.8322 18.8349C20.186 18.259 20.3939 17.4565 20.5011 16.3036C20.6082 15.1535 20.6089 13.7472 20.6089 12C20.6089 10.2528 20.6082 8.84654 20.5011 7.69636C20.3939 6.54345 20.186 5.741 19.8322 5.16506C19.177 4.09846 17.809 3.5 14.2579 3.5C11.6053 3.5 10.1601 3.83454 9.32939 4.45009Z" fill="currentColor"/>
</svg>
