<svg width="24" height="24" viewBox="0 0 24 24" fill="none" xmlns="http://www.w3.org/2000/svg">
<path fill-rule="evenodd" clip-rule="evenodd" d="M9 12.1211C9 11.7069 9.33579 11.3711 9.75 11.3711H21.791C22.2052 11.3711 22.541 11.7069 22.541 12.1211C22.541 12.5353 22.2052 12.8711 21.791 12.8711H9.75C9.33579 12.8711 9 12.5353 9 12.1211Z" fill="currentColor"/>
<path fill-rule="evenodd" clip-rule="evenodd" d="M18.3338 8.67584C18.6261 8.38234 19.101 8.38137 19.3945 8.67366L22.3225 11.5897C22.4638 11.7304 22.5432 11.9216 22.5432 12.1211C22.5432 12.3205 22.4638 12.5118 22.3225 12.6525L19.3945 15.5685C19.101 15.8608 18.6261 15.8598 18.3338 15.5663C18.0415 15.2728 18.0425 14.798 18.336 14.5057L20.7304 12.1211L18.336 9.7365C18.0425 9.4442 18.0415 8.96933 18.3338 8.67584Z" fill="currentColor"/>
<path fill-rule="evenodd" clip-rule="evenodd" d="M14.2898 4.45009C15.0665 5.02564 15.4548 5.96655 15.6144 7.69884C15.6525 8.11131 16.0177 8.41485 16.4301 8.37683C16.8426 8.33881 17.1461 7.97362 17.1081 7.56116C16.9378 5.71345 16.4911 4.21436 15.1828 3.24491C13.9285 2.31546 12.0387 2 9.36128 2C5.81145 2 3.62891 2.55654 2.50884 4.37994C1.97501 5.249 1.73909 6.3253 1.62446 7.55739C1.51027 8.78465 1.51027 10.259 1.51028 11.9684V12.0316C1.51027 13.741 1.51027 15.2154 1.62446 16.4426C1.73909 17.6747 1.97501 18.751 2.50884 19.6201C3.62891 21.4435 5.81145 22 9.36128 22C12.0387 22 13.9285 21.6845 15.1828 20.7551C16.4911 19.7856 16.9378 18.2866 17.1081 16.4388C17.1461 16.0264 16.8426 15.6612 16.4301 15.6232C16.0177 15.5851 15.6525 15.8887 15.6144 16.3012C15.4548 18.0334 15.0665 18.9744 14.2898 19.5499C13.4591 20.1655 12.0139 20.5 9.36128 20.5C5.81011 20.5 4.44215 19.9015 3.78696 18.8349C3.43318 18.259 3.22528 17.4565 3.11801 16.3036C3.01099 15.1535 3.01028 13.7472 3.01028 12C3.01028 10.2528 3.01099 8.84654 3.11801 7.69636C3.22528 6.54345 3.43318 5.741 3.78696 5.16506C4.44215 4.09846 5.81011 3.5 9.36128 3.5C12.0139 3.5 13.4591 3.83454 14.2898 4.45009Z" fill="currentColor"/>
</svg>
