<svg width="24" height="24" viewBox="0 0 24 24" fill="none" xmlns="http://www.w3.org/2000/svg">
<path fill-rule="evenodd" clip-rule="evenodd" d="M5.30396 5.30396C4.08098 6.52693 3.5 8.5731 3.5 12C3.5 15.4269 4.08098 17.4731 5.30396 18.696C6.52693 19.919 8.5731 20.5 12 20.5C15.4269 20.5 17.4731 19.919 18.696 18.696C19.919 17.4731 20.5 15.4269 20.5 12C20.5 8.5731 19.919 6.52693 18.696 5.30396C17.4731 4.08098 15.4269 3.5 12 3.5C8.5731 3.5 6.52693 4.08098 5.30396 5.30396ZM4.24329 4.24329C5.91107 2.57552 8.4899 2 12 2C15.5101 2 18.0889 2.57552 19.7567 4.24329C21.4245 5.91107 22 8.4899 22 12C22 15.5101 21.4245 18.0889 19.7567 19.7567C18.0889 21.4245 15.5101 22 12 22C8.4899 22 5.91107 21.4245 4.24329 19.7567C2.57552 18.0889 2 15.5101 2 12C2 8.4899 2.57552 5.91107 4.24329 4.24329Z" fill="currentColor"/>
<path fill-rule="evenodd" clip-rule="evenodd" d="M14.9941 12C14.9941 11.4477 15.4419 11 15.9941 11H16.0031C16.5554 11 17.0031 11.4477 17.0031 12C17.0031 12.5523 16.5554 13 16.0031 13H15.9941C15.4419 13 14.9941 12.5523 14.9941 12Z" fill="currentColor"/>
<path fill-rule="evenodd" clip-rule="evenodd" d="M10.9941 12C10.9941 11.4477 11.4419 11 11.9941 11H12.0031C12.5554 11 13.0031 11.4477 13.0031 12C13.0031 12.5523 12.5554 13 12.0031 13H11.9941C11.4419 13 10.9941 12.5523 10.9941 12Z" fill="currentColor"/>
<path fill-rule="evenodd" clip-rule="evenodd" d="M6.99609 12C6.99609 11.4477 7.44381 11 7.99609 11H8.00509C8.55738 11 9.00509 11.4477 9.00509 12C9.00509 12.5523 8.55738 13 8.00509 13H7.99609C7.44381 13 6.99609 12.5523 6.99609 12Z" fill="currentColor"/>
</svg>
