<svg width="24" height="24" viewBox="0 0 24 24" fill="none" xmlns="http://www.w3.org/2000/svg">
<path fill-rule="evenodd" clip-rule="evenodd" d="M5.30396 5.30396C4.08098 6.52693 3.5 8.5731 3.5 12C3.5 15.4269 4.08098 17.4731 5.30396 18.696C6.52693 19.919 8.5731 20.5 12 20.5C15.4269 20.5 17.4731 19.919 18.696 18.696C19.919 17.4731 20.5 15.4269 20.5 12C20.5 8.5731 19.919 6.52693 18.696 5.30396C17.4731 4.08098 15.4269 3.5 12 3.5C8.5731 3.5 6.52693 4.08098 5.30396 5.30396ZM4.24329 4.24329C5.91107 2.57552 8.4899 2 12 2C15.5101 2 18.0889 2.57552 19.7567 4.24329C21.4245 5.91107 22 8.4899 22 12C22 15.5101 21.4245 18.0889 19.7567 19.7567C18.0889 21.4245 15.5101 22 12 22C8.4899 22 5.91107 21.4245 4.24329 19.7567C2.57552 18.0889 2 15.5101 2 12C2 8.4899 2.57552 5.91107 4.24329 4.24329Z" fill="currentColor"/>
<path fill-rule="evenodd" clip-rule="evenodd" d="M14.2051 13.8994C14.2051 13.3471 14.6528 12.8994 15.2051 12.8994H15.2141C15.7664 12.8994 16.2141 13.3471 16.2141 13.8994C16.2141 14.4517 15.7664 14.8994 15.2141 14.8994H15.2051C14.6528 14.8994 14.2051 14.4517 14.2051 13.8994Z" fill="currentColor"/>
<path fill-rule="evenodd" clip-rule="evenodd" d="M11.2051 9.89941C11.2051 9.34713 11.6528 8.89941 12.2051 8.89941H12.2141C12.7664 8.89941 13.2141 9.34713 13.2141 9.89941C13.2141 10.4517 12.7664 10.8994 12.2141 10.8994H12.2051C11.6528 10.8994 11.2051 10.4517 11.2051 9.89941Z" fill="currentColor"/>
<path fill-rule="evenodd" clip-rule="evenodd" d="M8.19531 13.8994C8.19531 13.3471 8.64303 12.8994 9.19531 12.8994H9.20431C9.7566 12.8994 10.2043 13.3471 10.2043 13.8994C10.2043 14.4517 9.7566 14.8994 9.20431 14.8994H9.19531C8.64303 14.8994 8.19531 14.4517 8.19531 13.8994Z" fill="currentColor"/>
</svg>
