<svg width="24" height="24" viewBox="0 0 24 24" fill="none" xmlns="http://www.w3.org/2000/svg">
<path fill-rule="evenodd" clip-rule="evenodd" d="M6.56086 4.39438C7.7223 2.89699 9.52212 1.76465 11.9968 1.76465C14.4711 1.76465 16.2709 2.89703 17.4324 4.39435C18.5756 5.86809 19.1078 7.69916 19.1078 9.18417C19.1078 9.61041 19.0948 9.92685 19.085 10.167C19.083 10.2163 19.0811 10.2625 19.0795 10.3057C19.0698 10.564 19.0718 10.688 19.0916 10.811C19.1368 11.0905 19.2798 11.435 19.8512 12.6943C19.8569 12.7069 19.8623 12.7196 19.8673 12.7325C20.2802 13.795 20.1878 14.7724 19.6968 15.6006C19.2283 16.3909 18.4407 16.9729 17.5895 17.3976C15.8872 18.2468 13.6368 18.6123 11.9968 18.6123C10.3564 18.6123 8.10576 18.2468 6.40344 17.3976C5.55218 16.9729 4.76467 16.3909 4.29625 15.6005C3.80536 14.7722 3.71326 13.7948 4.12637 12.7324C4.13137 12.7195 4.13671 12.7068 4.14241 12.6943C4.71382 11.435 4.85684 11.0905 4.90201 10.811C4.92187 10.688 4.92383 10.564 4.91417 10.3057C4.91255 10.2625 4.91066 10.2163 4.90864 10.167C4.89881 9.92686 4.88586 9.61041 4.88586 9.18417C4.88586 7.69924 5.41771 5.86817 6.56086 4.39438ZM7.74611 5.31372C6.81734 6.51113 6.38586 8.01482 6.38586 9.18417C6.38586 9.57727 6.39744 9.86125 6.40719 10.1003C6.4093 10.152 6.41132 10.2015 6.41312 10.2496C6.42307 10.5155 6.4283 10.7686 6.38281 11.0502C6.2983 11.5733 6.04138 12.1395 5.52741 13.2721L5.51738 13.2942C5.2685 13.9469 5.34834 14.4336 5.58666 14.8357C5.84967 15.2795 6.35383 15.6965 7.07304 16.0553C8.51168 16.773 10.5173 17.1123 11.9968 17.1123C13.4759 17.1123 15.4812 16.773 16.9199 16.0553C17.6391 15.6965 18.1433 15.2795 18.4065 14.8357C18.6449 14.4334 18.7249 13.9467 18.4762 13.2941L18.4662 13.2721C17.9522 12.1395 17.6953 11.5733 17.6108 11.0502C17.5653 10.7686 17.5706 10.5155 17.5805 10.2496C17.5823 10.2015 17.5843 10.152 17.5864 10.1003C17.5962 9.86126 17.6078 9.57728 17.6078 9.18417C17.6078 8.0149 17.1761 6.5112 16.2472 5.31376C15.3366 4.13989 13.9559 3.26465 11.9968 3.26465C10.0372 3.26465 8.65656 4.13992 7.74611 5.31372Z" fill="currentColor"/>
<path fill-rule="evenodd" clip-rule="evenodd" d="M9.18788 19.9534C9.4968 19.6774 9.97092 19.7042 10.2469 20.0131C11.2524 21.1388 12.7496 21.1284 13.7487 20.0124C14.025 19.7038 14.4992 19.6776 14.8078 19.9539C15.1164 20.2302 15.1426 20.7044 14.8663 21.013C13.2768 22.7884 10.7359 22.8123 9.12816 21.0123C8.85222 20.7034 8.87896 20.2293 9.18788 19.9534Z" fill="currentColor"/>
</svg>
