<svg width="24" height="24" viewBox="0 0 24 24" fill="none" xmlns="http://www.w3.org/2000/svg">
<path fill-rule="evenodd" clip-rule="evenodd" d="M8.15625 15.4502C8.15625 15.036 8.49204 14.7002 8.90625 14.7002H14.3063C14.7205 14.7002 15.0563 15.036 15.0563 15.4502C15.0563 15.8644 14.7205 16.2002 14.3063 16.2002H8.90625C8.49204 16.2002 8.15625 15.8644 8.15625 15.4502Z" fill="currentColor"/>
<path fill-rule="evenodd" clip-rule="evenodd" d="M8.1543 11.4385C8.1543 11.0243 8.49008 10.6885 8.9043 10.6885H12.2603C12.6745 10.6885 13.0103 11.0243 13.0103 11.4385C13.0103 11.8527 12.6745 12.1885 12.2603 12.1885H8.9043C8.49008 12.1885 8.1543 11.8527 8.1543 11.4385Z" fill="currentColor"/>
<path fill-rule="evenodd" clip-rule="evenodd" d="M4.93101 4.27249C6.46286 2.58293 8.83873 2 12.0404 2C12.9671 2 13.8219 2.05142 14.5922 2.15694C14.7482 2.17832 14.8936 2.24827 15.0076 2.3569L20.6776 7.7569C20.7928 7.86656 20.8701 8.00998 20.8984 8.16645C21.0988 9.27377 21.1904 10.5511 21.1904 12C21.1904 15.4998 20.6717 18.0653 19.1581 19.7318C17.6246 21.42 15.246 22 12.0404 22C8.83946 22 6.46332 21.4199 4.93123 19.7315C3.41911 18.0651 2.90039 15.4999 2.90039 12C2.90039 8.5048 3.41923 5.93992 4.93101 4.27249ZM6.04227 5.28001C4.93155 6.50508 4.40039 8.5652 4.40039 12C4.40039 15.4401 4.93167 17.4999 6.04205 18.7235C7.13246 19.9251 8.95132 20.5 12.0404 20.5C15.1348 20.5 16.9561 19.925 18.0477 18.7232C19.1591 17.4997 19.6904 15.4402 19.6904 12C19.6904 10.7185 19.6154 9.61383 19.4631 8.67165L14.1514 3.61282C13.5205 3.53823 12.8151 3.5 12.0404 3.5C8.95205 3.5 7.13293 4.07707 6.04227 5.28001Z" fill="currentColor"/>
<path fill-rule="evenodd" clip-rule="evenodd" d="M13.9355 2.08301C14.3498 2.08301 14.6855 2.41879 14.6855 2.83301V5.49401C14.6855 6.9375 15.8555 8.10701 17.2995 8.10701H20.2505C20.6648 8.10701 21.0005 8.44279 21.0005 8.85701C21.0005 9.27122 20.6648 9.60701 20.2505 9.60701H17.2995C15.0276 9.60701 13.1855 7.76651 13.1855 5.49401V2.83301C13.1855 2.41879 13.5213 2.08301 13.9355 2.08301Z" fill="currentColor"/>
</svg>
