<svg width="24" height="24" viewBox="0 0 24 24" fill="none" xmlns="http://www.w3.org/2000/svg">
<path fill-rule="evenodd" clip-rule="evenodd" d="M4.93101 4.27249C6.46286 2.58293 8.83873 2 12.0404 2C12.9671 2 13.8219 2.05142 14.5922 2.15694C14.7482 2.17832 14.8936 2.24827 15.0076 2.3569L20.6776 7.7569C20.7928 7.86656 20.8701 8.00998 20.8984 8.16645C21.0988 9.27377 21.1904 10.5511 21.1904 12C21.1904 15.4998 20.6717 18.0653 19.1581 19.7318C17.6246 21.42 15.246 22 12.0404 22C8.83946 22 6.46332 21.4199 4.93123 19.7315C3.41911 18.0651 2.90039 15.4999 2.90039 12C2.90039 8.5048 3.41923 5.93992 4.93101 4.27249ZM6.04227 5.28001C4.93155 6.50508 4.40039 8.5652 4.40039 12C4.40039 15.4401 4.93167 17.4999 6.04205 18.7235C7.13246 19.9251 8.95132 20.5 12.0404 20.5C15.1348 20.5 16.9561 19.925 18.0477 18.7232C19.1591 17.4997 19.6904 15.4402 19.6904 12C19.6904 10.7185 19.6154 9.61383 19.4631 8.67165L14.1514 3.61282C13.5205 3.53823 12.8151 3.5 12.0404 3.5C8.95205 3.5 7.13293 4.07707 6.04227 5.28001Z" fill="currentColor"/>
<path fill-rule="evenodd" clip-rule="evenodd" d="M13.9336 2.08301C14.3478 2.08301 14.6836 2.41879 14.6836 2.83301V5.49401C14.6836 6.9375 15.8535 8.10701 17.2976 8.10701H20.2486C20.6628 8.10701 20.9986 8.44279 20.9986 8.85701C20.9986 9.27122 20.6628 9.60701 20.2486 9.60701H17.2976C15.0257 9.60701 13.1836 7.76651 13.1836 5.49401V2.83301C13.1836 2.41879 13.5194 2.08301 13.9336 2.08301Z" fill="currentColor"/>
<path fill-rule="evenodd" clip-rule="evenodd" d="M9.59858 10.7177C9.89147 10.4248 10.3663 10.4248 10.6592 10.7177L14.1252 14.1837C14.4181 14.4766 14.4181 14.9515 14.1252 15.2444C13.8323 15.5373 13.3575 15.5373 13.0646 15.2444L9.59858 11.7784C9.30568 11.4855 9.30568 11.0106 9.59858 10.7177Z" fill="currentColor"/>
<path fill-rule="evenodd" clip-rule="evenodd" d="M14.1272 10.7177C14.4201 11.0106 14.4201 11.4855 14.1272 11.7784L10.6612 15.2444C10.3683 15.5373 9.89342 15.5373 9.60053 15.2444C9.30764 14.9515 9.30764 14.4766 9.60053 14.1837L13.0665 10.7177C13.3594 10.4248 13.8343 10.4248 14.1272 10.7177Z" fill="currentColor"/>
</svg>
