<svg width="24" height="24" viewBox="0 0 24 24" fill="none" xmlns="http://www.w3.org/2000/svg">
<path fill-rule="evenodd" clip-rule="evenodd" d="M8.83637 10.8984C8.22759 10.8984 7.73438 11.3917 7.73438 12.0004C7.73438 12.6092 8.22759 13.1024 8.83637 13.1024C9.44516 13.1024 9.93837 12.6092 9.93837 12.0004C9.93837 11.3918 9.44626 10.8992 8.83896 10.8984H8.83637ZM6.23438 12.0004C6.23438 10.5632 7.39916 9.39844 8.83637 9.39844H8.83938C10.2759 9.39984 11.4384 10.5651 11.4384 12.0004C11.4384 13.4377 10.2736 14.6024 8.83637 14.6024C7.39916 14.6024 6.23438 13.4377 6.23438 12.0004Z" fill="currentColor"/>
<path fill-rule="evenodd" clip-rule="evenodd" d="M9.94141 12C9.94141 11.5858 10.2772 11.25 10.6914 11.25H17.0094C17.4236 11.25 17.7594 11.5858 17.7594 12V13.852C17.7594 14.2662 17.4236 14.602 17.0094 14.602C16.5952 14.602 16.2594 14.2662 16.2594 13.852V12.75H10.6914C10.2772 12.75 9.94141 12.4142 9.94141 12Z" fill="currentColor"/>
<path fill-rule="evenodd" clip-rule="evenodd" d="M14.1816 11.25C14.5959 11.25 14.9316 11.5858 14.9316 12V13.852C14.9316 14.2662 14.5959 14.602 14.1816 14.602C13.7674 14.602 13.4316 14.2662 13.4316 13.852V12C13.4316 11.5858 13.7674 11.25 14.1816 11.25Z" fill="currentColor"/>
<path fill-rule="evenodd" clip-rule="evenodd" d="M5.30396 5.30396C4.08098 6.52693 3.5 8.5731 3.5 12C3.5 15.4269 4.08098 17.4731 5.30396 18.696C6.52693 19.919 8.5731 20.5 12 20.5C15.4269 20.5 17.4731 19.919 18.696 18.696C19.919 17.4731 20.5 15.4269 20.5 12C20.5 8.5731 19.919 6.52693 18.696 5.30396C17.4731 4.08098 15.4269 3.5 12 3.5C8.5731 3.5 6.52693 4.08098 5.30396 5.30396ZM4.24329 4.24329C5.91107 2.57552 8.4899 2 12 2C15.5101 2 18.0889 2.57552 19.7567 4.24329C21.4245 5.91107 22 8.4899 22 12C22 15.5101 21.4245 18.0889 19.7567 19.7567C18.0889 21.4245 15.5101 22 12 22C8.4899 22 5.91107 21.4245 4.24329 19.7567C2.57552 18.0889 2 15.5101 2 12C2 8.4899 2.57552 5.91107 4.24329 4.24329Z" fill="currentColor"/>
</svg>
