<svg width="24" height="24" viewBox="0 0 24 24" fill="none" xmlns="http://www.w3.org/2000/svg">
<path fill-rule="evenodd" clip-rule="evenodd" d="M12.0371 7.71289C12.4513 7.71289 12.7871 8.04868 12.7871 8.46289V15.6113C12.7871 16.0255 12.4513 16.3613 12.0371 16.3613C11.6229 16.3613 11.2871 16.0255 11.2871 15.6113V8.46289C11.2871 8.04868 11.6229 7.71289 12.0371 7.71289Z" fill="currentColor"/>
<path fill-rule="evenodd" clip-rule="evenodd" d="M7.70898 12.0371C7.70898 11.6229 8.04477 11.2871 8.45898 11.2871H15.6148C16.029 11.2871 16.3648 11.6229 16.3648 12.0371C16.3648 12.4513 16.029 12.7871 15.6148 12.7871H8.45898C8.04477 12.7871 7.70898 12.4513 7.70898 12.0371Z" fill="currentColor"/>
<path fill-rule="evenodd" clip-rule="evenodd" d="M4.96124 4.96027C3.6622 6.25931 3.05078 8.42719 3.05078 12.0366C3.05078 15.6461 3.6622 17.814 4.96124 19.113C6.26029 20.4121 8.42817 21.0235 12.0376 21.0235C15.6471 21.0235 17.815 20.4121 19.114 19.113C20.413 17.814 21.0245 15.6461 21.0245 12.0366C21.0245 8.42719 20.413 6.25931 19.114 4.96027C17.815 3.66122 15.6471 3.0498 12.0376 3.0498C8.42817 3.0498 6.26029 3.66122 4.96124 4.96027ZM3.90058 3.89961C5.64443 2.15576 8.34497 1.5498 12.0376 1.5498C15.7303 1.5498 18.4308 2.15576 20.1747 3.89961C21.9185 5.64346 22.5245 8.344 22.5245 12.0366C22.5245 15.7293 21.9185 18.4298 20.1747 20.1737C18.4308 21.9175 15.7303 22.5235 12.0376 22.5235C8.34497 22.5235 5.64443 21.9175 3.90058 20.1737C2.15673 18.4298 1.55078 15.7293 1.55078 12.0366C1.55078 8.344 2.15673 5.64346 3.90058 3.89961Z" fill="currentColor"/>
</svg>
