<svg width="24" height="24" viewBox="0 0 24 24" fill="none" xmlns="http://www.w3.org/2000/svg">
<path fill-rule="evenodd" clip-rule="evenodd" d="M11.9625 11.8921H11.9935C14.8255 11.8921 17.1295 9.58814 17.1295 6.75614C17.1295 3.92414 14.8255 1.61914 11.9935 1.61914C9.16048 1.61914 6.85648 3.92414 6.85648 6.75314C6.85148 8.12214 7.38048 9.41014 8.34448 10.3811C9.30748 11.3511 10.5925 11.8881 11.9625 11.8921ZM8.35648 6.75614C8.35648 4.75114 9.98848 3.11914 11.9935 3.11914C13.9985 3.11914 15.6295 4.75114 15.6295 6.75614C15.6295 8.76114 13.9985 10.3921 11.9935 10.3921H11.9655C10.9975 10.3901 10.0905 10.0101 9.40848 9.32314C8.72648 8.63714 8.35348 7.72614 8.35648 6.75614Z" fill="currentColor"/>
<path fill-rule="evenodd" clip-rule="evenodd" d="M4.40625 18.7561C4.40625 22.3811 10.1222 22.3811 12.0002 22.3811C13.8783 22.3811 19.5953 22.3811 19.5953 18.7341C19.5953 15.9411 16.1173 13.5811 12.0002 13.5811C7.88425 13.5811 4.40625 15.9511 4.40625 18.7561ZM5.90625 18.7561C5.90625 17.0211 8.51225 15.0811 12.0002 15.0811C15.4893 15.0811 18.0953 17.0101 18.0953 18.7341C18.0953 20.1581 16.0443 20.8811 12.0002 20.8811C7.95725 20.8811 5.90625 20.1661 5.90625 18.7561Z" fill="currentColor"/>
</svg>
