<svg width="24" height="24" viewBox="0 0 24 24" fill="none" xmlns="http://www.w3.org/2000/svg">
<path fill-rule="evenodd" clip-rule="evenodd" d="M0.699219 12.8008C0.699219 12.3866 1.03501 12.0508 1.44922 12.0508H22.5812C22.9954 12.0508 23.3312 12.3866 23.3312 12.8008C23.3312 13.215 22.9954 13.5508 22.5812 13.5508H1.44922C1.03501 13.5508 0.699219 13.215 0.699219 12.8008Z" fill="currentColor"/>
<path fill-rule="evenodd" clip-rule="evenodd" d="M9.50635 2.82908C9.5733 3.23785 9.2962 3.62349 8.88744 3.69045C7.24382 3.95966 6.10982 4.48485 5.32029 5.27439C4.53075 6.06393 4.00556 7.19792 3.73635 8.84154C3.66939 9.25031 3.28375 9.5274 2.87498 9.46045C2.46621 9.39349 2.18912 9.00785 2.25607 8.59908C2.55686 6.7627 3.17666 5.29669 4.25963 4.21373C5.34259 3.13077 6.8086 2.51096 8.64498 2.21017C9.05375 2.14322 9.43939 2.42031 9.50635 2.82908Z" fill="currentColor"/>
<path fill-rule="evenodd" clip-rule="evenodd" d="M2.76831 12.0549C3.18242 12.0456 3.52566 12.3737 3.53497 12.7878C3.55387 13.629 3.61774 14.3847 3.7263 15.0492C3.73018 15.0657 3.73352 15.0825 3.7363 15.0995C4.00546 16.7428 4.53051 17.8742 5.31989 18.6625C6.1097 19.4513 7.24435 19.9767 8.88946 20.2509C9.29804 20.319 9.57405 20.7054 9.50596 21.114C9.43786 21.5226 9.05144 21.7986 8.64286 21.7305C6.80797 21.4247 5.34262 20.8051 4.25993 19.7239C3.18752 18.6529 2.56916 17.2075 2.26504 15.3963C2.26139 15.3807 2.25821 15.3649 2.25553 15.349C2.12726 14.5857 2.05596 13.7387 2.03535 12.8215C2.02604 12.4074 2.3542 12.0642 2.76831 12.0549Z" fill="currentColor"/>
<path fill-rule="evenodd" clip-rule="evenodd" d="M21.2616 12.0549C21.6757 12.0642 22.0039 12.4074 21.9946 12.8215C21.9744 13.7195 21.9047 14.5491 21.7827 15.2981C21.7812 15.3128 21.7793 15.3274 21.7768 15.3421C21.4755 17.1788 20.8553 18.6423 19.7721 19.7239C18.6893 20.8051 17.2239 21.4247 15.389 21.7305C14.9805 21.7986 14.594 21.5226 14.5259 21.114C14.4579 20.7054 14.7339 20.319 15.1424 20.2509C16.7875 19.9767 17.9222 19.4513 18.7122 18.6625C19.4942 17.8816 20.0169 16.7642 20.2888 15.1462C20.2904 15.1313 20.2925 15.1163 20.2949 15.1014C20.4079 14.4235 20.4756 13.6499 20.4949 12.7878C20.5042 12.3737 20.8475 12.0456 21.2616 12.0549Z" fill="currentColor"/>
<path fill-rule="evenodd" clip-rule="evenodd" d="M14.5256 2.82908C14.5926 2.42031 14.9782 2.14322 15.387 2.21017C17.2233 2.51096 18.6894 3.13077 19.7723 4.21373C20.8553 5.29669 21.4751 6.7627 21.7759 8.59908C21.8428 9.00785 21.5657 9.39349 21.157 9.46045C20.7482 9.5274 20.3626 9.25031 20.2956 8.84154C20.0264 7.19792 19.5012 6.06393 18.7117 5.27439C17.9221 4.48485 16.7881 3.95966 15.1445 3.69045C14.7357 3.62349 14.4586 3.23785 14.5256 2.82908Z" fill="currentColor"/>
</svg>
