<svg width="24" height="24" viewBox="0 0 24 24" fill="none" xmlns="http://www.w3.org/2000/svg">
<path fill-rule="evenodd" clip-rule="evenodd" d="M11.2758 3.46387C6.96144 3.46387 3.46484 6.96046 3.46484 11.2748C3.46484 15.5892 6.96144 19.0858 11.2758 19.0858C15.5893 19.0858 19.0867 15.5891 19.0867 11.2748C19.0867 6.96052 15.5893 3.46387 11.2758 3.46387ZM1.96484 11.2748C1.96484 6.13203 6.13301 1.96387 11.2758 1.96387C16.4176 1.96387 20.5867 6.13198 20.5867 11.2748C20.5867 16.4177 16.4176 20.5858 11.2758 20.5858C6.13301 20.5858 1.96484 16.4176 1.96484 11.2748Z" fill="currentColor"/>
<path fill-rule="evenodd" clip-rule="evenodd" d="M19.8997 19.2373C19.5345 19.2373 19.2383 19.5342 19.2383 19.8978C19.2383 20.2632 19.5345 20.5592 19.8997 20.5592C20.2642 20.5592 20.5602 20.2639 20.5602 19.8978C20.5602 19.5336 20.2642 19.2373 19.8997 19.2373ZM17.7383 19.8978C17.7383 18.7051 18.7068 17.7373 19.8997 17.7373C21.0933 17.7373 22.0602 18.7058 22.0602 19.8978C22.0602 21.0917 21.0933 22.0592 19.8997 22.0592C18.7068 22.0592 17.7383 21.0923 17.7383 19.8978Z" fill="currentColor"/>
</svg>
