<svg width="24" height="24" viewBox="0 0 24 24" fill="none" xmlns="http://www.w3.org/2000/svg">
<path fill-rule="evenodd" clip-rule="evenodd" d="M8.75098 11.9998C8.75098 13.7918 10.209 15.2498 12.001 15.2498C13.793 15.2498 15.251 13.7918 15.251 11.9998C15.251 10.2078 13.793 8.74976 12.001 8.74976C10.209 8.74976 8.75098 10.2078 8.75098 11.9998ZM10.251 11.9998C10.251 11.0348 11.036 10.2498 12.001 10.2498C12.966 10.2498 13.751 11.0348 13.751 11.9998C13.751 12.9648 12.966 13.7498 12.001 13.7498C11.036 13.7498 10.251 12.9648 10.251 11.9998Z" fill="currentColor"/>
<path fill-rule="evenodd" clip-rule="evenodd" d="M8.77548 19.008C8.77548 20.796 10.2225 22.25 12.0005 22.25C13.7785 22.25 15.2255 20.796 15.2255 19.008C15.2255 18.585 15.5055 18.378 15.6265 18.308C15.7455 18.241 16.0565 18.106 16.4125 18.311C17.1575 18.745 18.0255 18.859 18.8575 18.637C19.6915 18.413 20.3885 17.875 20.8195 17.123C21.7065 15.577 21.1765 13.592 19.6395 12.698C19.2805 12.488 19.2415 12.14 19.2415 12C19.2415 11.86 19.2805 11.512 19.6405 11.303C21.1765 10.41 21.7055 8.425 20.8195 6.877C20.3875 6.124 19.6905 5.587 18.8565 5.363C18.0245 5.143 17.1575 5.258 16.4135 5.69C16.0575 5.895 15.7435 5.759 15.6265 5.691C15.5055 5.622 15.2255 5.415 15.2255 4.992C15.2255 3.204 13.7785 1.75 12.0005 1.75C10.2225 1.75 8.77548 3.204 8.77548 4.992C8.77548 5.415 8.49548 5.622 8.37448 5.691C8.25648 5.762 7.94348 5.896 7.58948 5.69C6.84448 5.258 5.97748 5.143 5.14448 5.363C4.31048 5.587 3.61348 6.124 3.18148 6.877C2.29548 8.425 2.82448 10.41 4.36048 11.303C4.72048 11.512 4.75848 11.86 4.75848 12C4.75848 12.139 4.72048 12.488 4.36048 12.697C2.82448 13.592 2.29548 15.577 3.18148 17.123C3.61248 17.875 4.30948 18.412 5.14348 18.637C5.97448 18.859 6.84348 18.744 7.59048 18.31C7.94348 18.105 8.25648 18.241 8.37448 18.308C8.49448 18.378 8.77548 18.585 8.77548 19.008ZM9.12148 17.009C8.76548 16.804 8.37448 16.701 7.98348 16.701C7.58848 16.701 7.19448 16.805 6.83548 17.014C6.43748 17.244 5.97448 17.306 5.53248 17.187C5.08748 17.068 4.71348 16.78 4.48348 16.377C4.00448 15.544 4.28848 14.474 5.11548 13.994C5.83148 13.577 6.25848 12.831 6.25848 12C6.25848 11.169 5.83148 10.423 5.11448 10.006C4.28948 9.525 4.00548 8.457 4.48248 7.623C4.71348 7.22 5.08748 6.931 5.53248 6.812C5.97648 6.696 6.43848 6.757 6.83648 6.987C7.55148 7.403 8.40648 7.404 9.12248 6.992C9.84448 6.576 10.2755 5.829 10.2755 4.992C10.2755 4.031 11.0495 3.25 12.0005 3.25C12.9515 3.25 13.7255 4.031 13.7255 4.992C13.7255 5.828 14.1555 6.575 14.8775 6.991C15.5945 7.404 16.4495 7.401 17.1665 6.987C17.5635 6.757 18.0245 6.694 18.4685 6.812C18.9145 6.931 19.2875 7.22 19.5185 7.623C19.9955 8.457 19.7125 9.526 18.8855 10.006C18.1695 10.423 17.7425 11.169 17.7425 12C17.7425 12.831 18.1695 13.577 18.8855 13.994C19.7125 14.474 19.9965 15.544 19.5185 16.377C19.2875 16.78 18.9145 17.068 18.4685 17.187C18.0255 17.306 17.5635 17.244 17.1665 17.014C16.4515 16.598 15.5955 16.597 14.8785 17.009C14.1565 17.424 13.7255 18.172 13.7255 19.008C13.7255 19.969 12.9515 20.75 12.0005 20.75C11.0495 20.75 10.2755 19.969 10.2755 19.008C10.2755 18.171 9.84448 17.424 9.12148 17.009Z" fill="currentColor"/>
</svg>
