<svg width="24" height="24" viewBox="0 0 24 24" fill="none" xmlns="http://www.w3.org/2000/svg">
<path d="M13.8789 14.3964C13.6869 14.3964 13.4949 14.3234 13.3489 14.1764L11.9996 12.8275L10.6504 14.1764C10.5044 14.3234 10.3124 14.3964 10.1204 14.3964C9.92836 14.3964 9.73636 14.3234 9.59036 14.1764C9.29736 13.8834 9.29736 13.4094 9.59036 13.1164L10.9395 11.7677L9.58987 10.4184C9.29687 10.1254 9.29687 9.65142 9.58987 9.35842C9.88287 9.06542 10.3579 9.06542 10.6499 9.35842L11.9996 10.7078L13.3494 9.35842C13.6414 9.06542 14.1164 9.06542 14.4094 9.35842C14.7024 9.65142 14.7024 10.1254 14.4094 10.4184L13.0598 11.7677L14.4089 13.1164C14.7019 13.4094 14.7019 13.8834 14.4089 14.1764C14.2629 14.3234 14.0709 14.3964 13.8789 14.3964Z" fill="currentColor"/>
<path fill-rule="evenodd" clip-rule="evenodd" d="M11.9999 22.1773C9.06293 22.1773 3.57693 19.3973 3.57693 12.7003C3.57693 10.809 3.55257 9.43315 3.53463 8.41982L3.53393 8.38027C3.48793 5.83527 3.47893 5.30427 4.13493 4.64927C4.96693 3.81727 8.41193 1.82227 11.9999 1.82227C15.5889 1.82227 19.0329 3.81727 19.8649 4.64927C20.5203 5.30366 20.5109 5.83429 20.4661 8.37424L20.4659 8.38127C20.4469 9.39927 20.4219 10.7853 20.4219 12.7003C20.4219 19.3973 14.9369 22.1773 11.9999 22.1773ZM11.9999 3.32227C8.73593 3.32227 5.68093 5.22327 5.19493 5.71027C5.00193 5.90227 4.99493 6.22127 5.03393 8.35227L5.03471 8.3966C5.05264 9.4174 5.07693 10.7999 5.07693 12.7003C5.07693 18.7873 10.1509 20.6773 11.9999 20.6773C13.8479 20.6773 18.9219 18.7873 18.9219 12.7003C18.9219 10.7733 18.9469 9.37927 18.9659 8.35427C19.0039 6.22127 18.9969 5.90327 18.8039 5.71027C18.3179 5.22327 15.2649 3.32227 11.9999 3.32227Z" fill="currentColor"/>
</svg>
