<svg width="24" height="24" viewBox="0 0 24 24" fill="none" xmlns="http://www.w3.org/2000/svg">
<path d="M10.7608 14.1207C10.9018 14.2617 11.0928 14.3407 11.2918 14.3407C11.4908 14.3407 11.6818 14.2617 11.8218 14.1207L15.7198 10.2217C16.0128 9.92867 16.0128 9.45367 15.7198 9.16067C15.4268 8.86767 14.9528 8.86767 14.6598 9.16067L11.2918 12.5287L9.93078 11.1657C9.63778 10.8727 9.16178 10.8727 8.86978 11.1657C8.57678 11.4577 8.57678 11.9337 8.86878 12.2267L10.7608 14.1207Z" fill="currentColor"/>
<path fill-rule="evenodd" clip-rule="evenodd" d="M3.57704 12.7003C3.57704 19.3973 9.06204 22.1773 11.999 22.1773C14.936 22.1773 20.421 19.3973 20.421 12.7003C20.421 10.8064 20.4454 9.42966 20.4633 8.41539L20.4641 8.37061C20.51 5.83362 20.5196 5.30387 19.865 4.64927C19.033 3.81727 15.589 1.82227 11.999 1.82227C8.40804 1.82227 4.96504 3.81727 4.13504 4.64927C3.47843 5.30387 3.48803 5.83463 3.53396 8.37568L3.53474 8.41982C3.55268 9.43315 3.57704 10.809 3.57704 12.7003ZM5.19604 5.71027C5.68104 5.22327 8.73304 3.32227 11.999 3.32227C15.265 3.32227 18.318 5.22327 18.804 5.71027C18.996 5.90227 19.003 6.22027 18.965 8.34727C18.946 9.37327 18.921 10.7683 18.921 12.7003C18.921 18.7873 13.847 20.6773 11.999 20.6773C10.151 20.6773 5.07704 18.7873 5.07704 12.7003C5.07704 10.7999 5.05275 9.41737 5.03482 8.39658L5.03404 8.35227C4.99504 6.22127 5.00204 5.90227 5.19604 5.71027Z" fill="currentColor"/>
</svg>
