<svg width="24" height="24" viewBox="0 0 24 24" fill="none" xmlns="http://www.w3.org/2000/svg">
<path d="M2.61064 9.34994C2.72264 9.40794 2.84264 9.43594 2.95964 9.43594C3.22964 9.43594 3.48964 9.28994 3.62364 9.03594C4.23286 7.87873 5.34671 6.29258 6.27979 5.63763V17.2052C6.27979 17.6192 6.61579 17.9552 7.02979 17.9552C7.44379 17.9552 7.77979 17.6192 7.77979 17.2052V5.63795C8.71423 6.2933 9.8336 7.87985 10.4466 9.03694C10.6406 9.40194 11.0946 9.54294 11.4606 9.34894C11.8266 9.15494 11.9666 8.70094 11.7726 8.33494C11.3756 7.58394 9.27764 3.83594 7.02964 3.83594C4.78164 3.83594 2.69264 7.58494 2.29764 8.33594C2.10464 8.70294 2.24464 9.15694 2.61064 9.34994Z" fill="currentColor"/>
<path d="M17.7104 18.3626V6.79565C17.7104 6.38165 17.3744 6.04565 16.9604 6.04565C16.5464 6.04565 16.2104 6.38165 16.2104 6.79565V18.3629C15.2759 17.7077 14.1564 16.1209 13.5432 14.9636C13.3502 14.5986 12.8952 14.4576 12.5292 14.6516C12.1632 14.8456 12.0232 15.2996 12.2172 15.6646C12.6142 16.4166 14.7122 20.1646 16.9602 20.1646C19.2082 20.1646 21.3062 16.4166 21.7032 15.6646C21.8972 15.2996 21.7572 14.8456 21.3912 14.6516C21.0252 14.4576 20.5712 14.5986 20.3772 14.9636C19.7642 16.1207 18.6449 17.7072 17.7104 18.3626Z" fill="currentColor"/>
</svg>
