<svg width="24" height="24" viewBox="0 0 24 24" fill="none" xmlns="http://www.w3.org/2000/svg">
<path fill-rule="evenodd" clip-rule="evenodd" d="M9.71865 15.2786C9.96865 15.4506 10.2186 15.5146 10.4546 15.5146C10.9276 15.5146 11.3476 15.2606 11.6146 15.0986C11.7346 15.0246 11.9366 14.9026 11.9926 14.8926C12.0644 14.9023 12.2566 15.0183 12.3785 15.0919L12.3896 15.0986C12.7896 15.3426 13.5346 15.7946 14.2856 15.2776C15.0823 14.7263 14.8361 13.8389 14.7167 13.4085L14.7156 13.4046C14.6786 13.2726 14.6226 13.0736 14.6096 13.0626C14.6456 13.0066 14.8036 12.8876 14.9086 12.8086C15.2727 12.5336 15.9506 12.0215 15.7276 11.1496C15.4886 10.2186 14.5336 10.1756 14.0206 10.1526L14.011 10.1522C13.87 10.1462 13.662 10.1373 13.6756 10.1676C13.6266 10.1136 13.5406 9.91364 13.4836 9.78064L13.4829 9.77892C13.2867 9.3255 12.9225 8.48364 12.0016 8.48364C11.0786 8.48364 10.7146 9.32764 10.5196 9.78164C10.5132 9.79627 10.5065 9.81175 10.4995 9.82776C10.4554 9.9289 10.4018 10.0519 10.3586 10.1226C10.2752 10.1379 10.1321 10.1451 10.0198 10.1508C10.007 10.1514 9.99454 10.152 9.98265 10.1526C9.46965 10.1756 8.51465 10.2186 8.27465 11.1506C8.0527 12.0215 8.73036 12.5334 9.09441 12.8085C9.10096 12.8134 9.10795 12.8186 9.11486 12.8238C9.21775 12.901 9.35578 13.0046 9.37265 13.0046C9.37959 13.0731 9.32556 13.2694 9.28856 13.4014L9.28765 13.4046L9.28659 13.4085C9.16718 13.8389 8.92101 14.7263 9.71865 15.2786ZM13.1666 13.8156C12.8556 13.6266 12.4686 13.3926 12.0016 13.3926C11.5346 13.3926 11.1476 13.6266 10.8366 13.8156C10.8297 13.8198 10.8226 13.8242 10.8153 13.8286C10.7826 13.8485 10.7464 13.8704 10.7096 13.8916L10.7326 13.8086C10.8226 13.4866 10.9346 13.0856 10.8336 12.6636C10.7166 12.1766 10.3446 11.8736 10.0506 11.6506C10.4686 11.6316 10.9876 11.6076 11.3646 11.2516C11.6266 11.0026 11.7706 10.6696 11.8966 10.3756C11.9256 10.3086 11.9636 10.2216 12.0016 10.1416C12.0345 10.2108 12.0666 10.2852 12.0934 10.3473C12.0976 10.3571 12.1017 10.3665 12.1056 10.3756C12.2326 10.6696 12.3766 11.0026 12.6406 11.2536C13.0156 11.6076 13.5346 11.6316 13.9516 11.6506C13.6586 11.8736 13.2856 12.1776 13.1686 12.6646C13.0686 13.0856 13.1806 13.4866 13.2706 13.8086L13.2936 13.8916C13.2569 13.8704 13.2207 13.8485 13.188 13.8286C13.1807 13.8242 13.1736 13.8198 13.1666 13.8156Z" fill="currentColor"/>
<path fill-rule="evenodd" clip-rule="evenodd" d="M1.85547 14.0566C1.85547 19.4216 2.34647 21.2766 12.0005 21.2766C21.6545 21.2766 22.1455 19.4216 22.1455 14.0566C22.1455 13.6426 21.8095 13.3066 21.3955 13.3066C20.4765 13.3066 20.1495 12.6026 20.1495 11.9996C20.1495 11.3966 20.4765 10.6926 21.3955 10.6926C21.8095 10.6926 22.1455 10.3566 22.1455 9.94263C22.1455 4.57863 21.6545 2.72363 12.0005 2.72363C2.34647 2.72363 1.85547 4.57863 1.85547 9.94263C1.85547 10.3566 2.19147 10.6926 2.60547 10.6926C3.52447 10.6926 3.85147 11.3966 3.85147 11.9996C3.85147 12.6026 3.52447 13.3066 2.60547 13.3066C2.19147 13.3066 1.85547 13.6426 1.85547 14.0566ZM12.0005 19.7766C3.78247 19.7766 3.37647 18.7836 3.35647 14.7166C4.66947 14.3836 5.35147 13.1856 5.35147 11.9996C5.35147 10.8126 4.66947 9.61463 3.35647 9.28163C3.37647 5.21563 3.78247 4.22363 12.0005 4.22363C20.2185 4.22363 20.6245 5.21563 20.6445 9.28163C19.3315 9.61463 18.6495 10.8126 18.6495 11.9996C18.6495 13.1856 19.3315 14.3836 20.6445 14.7166C20.6245 18.7836 20.2185 19.7766 12.0005 19.7766Z" fill="currentColor"/>
</svg>
