<svg width="24" height="24" viewBox="0 0 24 24" fill="none" xmlns="http://www.w3.org/2000/svg">
<path fill-rule="evenodd" clip-rule="evenodd" d="M12 3.5C7.30616 3.5 3.5 7.30527 3.5 12C3.5 16.6938 7.30621 20.5 12 20.5C16.6947 20.5 20.5 16.6938 20.5 12C20.5 7.30521 16.6948 3.5 12 3.5ZM2 12C2 6.47673 6.47784 2 12 2C17.5232 2 22 6.47679 22 12C22 17.5222 17.5233 22 12 22C6.47779 22 2 17.5222 2 12Z" fill="currentColor"/>
<path fill-rule="evenodd" clip-rule="evenodd" d="M11.6602 7.0957C12.0744 7.0957 12.4102 7.43149 12.4102 7.8457V11.9549L16.2024 12.0168C16.6166 12.0236 16.9468 12.3648 16.9401 12.779C16.9333 13.1931 16.5921 13.5234 16.1779 13.5166L11.6479 13.4426C11.2385 13.4359 10.9102 13.1021 10.9102 12.6927V7.8457C10.9102 7.43149 11.2459 7.0957 11.6602 7.0957Z" fill="currentColor"/>
</svg>
