<svg width="24" height="24" viewBox="0 0 24 24" fill="none" xmlns="http://www.w3.org/2000/svg">
<path d="M11.9995 17.0682C11.5855 17.0682 11.2495 16.7322 11.2495 16.3182V14.0972C11.2495 13.6832 11.5855 13.3472 11.9995 13.3472C12.4135 13.3472 12.7495 13.6832 12.7495 14.0972V16.3182C12.7495 16.7322 12.4135 17.0682 11.9995 17.0682Z" fill="currentColor"/>
<path fill-rule="evenodd" clip-rule="evenodd" d="M8.1792 8.37371V7.19238C8.2222 5.11538 9.8772 3.46738 11.9492 3.44238H11.9962C13.6662 3.44238 15.1602 4.54738 15.6402 6.14538C15.7602 6.54038 16.1762 6.76738 16.5752 6.64838C16.9712 6.52938 17.1972 6.11038 17.0772 5.71338C16.4082 3.48438 14.3252 1.94238 11.9962 1.94238H11.9302C9.0452 1.97738 6.7392 4.27038 6.6792 7.17638V8.87115C4.48957 9.87366 3.58984 11.82 3.58984 15.0364C3.58984 20.1554 5.86884 22.0584 11.9998 22.0584C18.1308 22.0584 20.4098 20.1554 20.4098 15.0364C20.4098 9.91738 18.1308 8.01538 11.9998 8.01538C10.5049 8.01538 9.23892 8.12847 8.1792 8.37371ZM7.60111 10.0756C7.65932 10.0619 7.71492 10.0414 7.76704 10.0151C8.79719 9.65832 10.1786 9.51538 11.9998 9.51538C17.3598 9.51538 18.9098 10.7534 18.9098 15.0364C18.9098 19.3204 17.3598 20.5584 11.9998 20.5584C6.63984 20.5584 5.08984 19.3204 5.08984 15.0364C5.08984 12.2883 5.72795 10.7938 7.60111 10.0756Z" fill="currentColor"/>
</svg>
