<svg width="24" height="24" viewBox="0 0 24 24" fill="none" xmlns="http://www.w3.org/2000/svg">
<path fill-rule="evenodd" clip-rule="evenodd" d="M19.397 8.42098C18.5425 8.86621 17.5061 9.55489 16.6163 10.2602C16.2917 10.5176 15.82 10.463 15.5627 10.1384C15.3054 9.81385 15.3599 9.34212 15.6845 9.0848C16.6328 8.33302 17.7488 7.58837 18.7039 7.09073C19.1765 6.84447 19.6444 6.64029 20.0507 6.53555C20.2521 6.48364 20.4785 6.44533 20.703 6.45876C20.9252 6.47205 21.233 6.54313 21.4715 6.80038C21.61 6.9494 21.6962 7.12552 21.7523 7.26474C21.8126 7.41431 21.8613 7.58047 21.9018 7.75057C21.9829 8.09103 22.045 8.50543 22.0923 8.95511C22.1872 9.85793 22.2297 10.9735 22.2254 12.0754C22.2212 13.1776 22.1702 14.287 22.0733 15.1783C22.025 15.6221 21.9636 16.0286 21.8861 16.3596C21.8474 16.5247 21.8013 16.6859 21.7445 16.8304C21.6931 16.9613 21.6101 17.1389 21.4709 17.2883C21.2231 17.5554 20.9006 17.6115 20.6919 17.6176C20.4737 17.624 20.2529 17.5813 20.0568 17.5271C19.6594 17.4172 19.1961 17.2116 18.7239 16.9643C17.7701 16.4649 16.6467 15.7246 15.6893 14.9783C15.3626 14.7237 15.3043 14.2524 15.5589 13.9257C15.8136 13.599 16.2848 13.5406 16.6115 13.7953C17.5113 14.4967 18.5593 15.1849 19.4198 15.6355C19.8299 15.8502 20.1685 15.9956 20.4132 16.0688C20.4173 16.0525 20.4214 16.0353 20.4256 16.0174C20.4836 15.7699 20.537 15.4303 20.5821 15.0161C20.6717 14.1913 20.7213 13.1365 20.7254 12.0696C20.7295 11.0025 20.688 9.94426 20.6005 9.11196C20.5566 8.69409 20.5028 8.3506 20.4427 8.09828C20.4333 8.05883 20.424 8.02302 20.4151 7.99069C20.1707 8.05513 19.8233 8.19887 19.397 8.42098ZM20.3312 16.3208C20.3312 16.3208 20.3315 16.3201 20.3323 16.3188C20.3315 16.3202 20.3312 16.3208 20.3312 16.3208Z" fill="currentColor"/>
<path fill-rule="evenodd" clip-rule="evenodd" d="M4.55425 7.15803C3.69778 8.01725 3.26367 9.482 3.26367 12.0371C3.26367 14.5917 3.69776 16.0565 4.55428 16.9159C5.41009 17.7745 6.86855 18.21 9.41462 18.21C11.9602 18.21 13.4184 17.7745 14.2741 16.9159C15.1305 16.0565 15.5646 14.5917 15.5646 12.0371C15.5646 9.482 15.1305 8.01722 14.2741 7.158C13.4185 6.29949 11.9603 5.86426 9.41462 5.86426C6.86846 5.86426 5.41004 6.2995 4.55425 7.15803ZM3.4919 6.09906C4.79254 4.79425 6.7846 4.36426 9.41462 4.36426C12.0442 4.36426 14.036 4.79426 15.3365 6.09909C16.6363 7.4032 17.0646 9.39985 17.0646 12.0371C17.0646 14.6739 16.6363 16.6705 15.3366 17.9748C14.0361 19.2797 12.0443 19.71 9.41462 19.71C6.78451 19.71 4.79249 19.2797 3.49187 17.9748C2.19197 16.6706 1.76367 14.6739 1.76367 12.0371C1.76367 9.39985 2.19195 7.40317 3.4919 6.09906Z" fill="currentColor"/>
</svg>
