<svg width="24" height="24" viewBox="0 0 24 24" fill="none" xmlns="http://www.w3.org/2000/svg">
<path fill-rule="evenodd" clip-rule="evenodd" d="M6.36523 12.9287C6.77945 12.9287 7.11523 13.2645 7.11523 13.6787C7.11523 16.3955 9.31745 18.5977 12.0342 18.5977C14.7521 18.5977 16.9542 16.3954 16.9542 13.6787C16.9542 13.2645 17.29 12.9287 17.7042 12.9287C18.1184 12.9287 18.4542 13.2645 18.4542 13.6787C18.4542 17.224 15.5804 20.0977 12.0342 20.0977C8.48902 20.0977 5.61523 17.2239 5.61523 13.6787C5.61523 13.2645 5.95102 12.9287 6.36523 12.9287Z" fill="currentColor"/>
<path fill-rule="evenodd" clip-rule="evenodd" d="M5.61523 8.169C5.61523 4.62379 8.48902 1.75 12.0342 1.75C15.5804 1.75 18.4542 4.6237 18.4542 8.169V10.423C18.4542 10.8372 18.1184 11.173 17.7042 11.173C17.29 11.173 16.9542 10.8372 16.9542 10.423V8.169C16.9542 5.4523 14.7521 3.25 12.0342 3.25C9.31745 3.25 7.11523 5.45221 7.11523 8.169V10.423C7.11523 10.8372 6.77945 11.173 6.36523 11.173C5.95102 11.173 5.61523 10.8372 5.61523 10.423V8.169Z" fill="currentColor"/>
<path fill-rule="evenodd" clip-rule="evenodd" d="M12.0352 18.5977C12.4494 18.5977 12.7852 18.9334 12.7852 19.3477V21.4997C12.7852 21.9139 12.4494 22.2497 12.0352 22.2497C11.6209 22.2497 11.2852 21.9139 11.2852 21.4997V19.3477C11.2852 18.9334 11.6209 18.5977 12.0352 18.5977Z" fill="currentColor"/>
<path fill-rule="evenodd" clip-rule="evenodd" d="M4.15039 13.6787C4.15039 13.2645 4.48618 12.9287 4.90039 12.9287H19.1684C19.5826 12.9287 19.9184 13.2645 19.9184 13.6787C19.9184 14.0929 19.5826 14.4287 19.1684 14.4287H4.90039C4.48618 14.4287 4.15039 14.0929 4.15039 13.6787Z" fill="currentColor"/>
</svg>
