<svg width="24" height="24" viewBox="0 0 24 24" fill="none" xmlns="http://www.w3.org/2000/svg">
<path fill-rule="evenodd" clip-rule="evenodd" d="M9.56351 17.9032C10.3685 18.5202 11.4705 19.3642 12.7265 19.3642C13.2085 19.3642 13.7125 19.2402 14.2315 18.9312C15.6485 17.9252 16.1505 16.1132 16.1505 12.0062C16.1505 7.84718 15.6665 6.09918 14.1805 5.04718C12.3595 3.97018 10.6775 5.25718 9.56451 6.10918L9.56202 6.11109C9.1408 6.4345 8.70595 6.76837 8.41951 6.86118C7.99852 7.00052 7.62705 7.04476 7.26765 7.08757L7.26251 7.08818C6.57151 7.17018 5.85751 7.25518 5.06051 7.93218C3.78151 9.01818 3.78551 10.7442 3.78951 12.0062C3.78551 13.2672 3.78151 14.9922 5.06051 16.0802C5.85751 16.7582 6.57251 16.8432 7.26351 16.9252C7.62451 16.9682 7.99751 17.0132 8.41851 17.1502C8.70261 17.2442 9.13273 17.5734 9.55073 17.8934L9.56351 17.9032ZM10.4765 7.30018C11.3745 6.61218 12.0775 6.12418 12.7225 6.12418C12.9415 6.12418 13.1535 6.18018 13.3635 6.30418C14.1585 6.86818 14.6505 8.01918 14.6505 12.0062C14.6505 15.9932 14.1585 17.1442 13.4145 17.6752C12.5325 18.1962 11.6785 17.6352 10.4755 16.7122L10.4739 16.711C9.9305 16.2944 9.41599 15.9 8.88751 15.7262C8.32351 15.5412 7.85451 15.4842 7.44051 15.4362L7.43786 15.4359C6.84344 15.3641 6.48384 15.3206 6.03151 14.9372C5.28311 14.3017 5.2865 13.0851 5.2895 12.0108L5.28951 12.0082V12.0042L5.2895 12.0016C5.2865 10.9272 5.28311 9.71068 6.03151 9.07518C6.48351 8.69118 6.84351 8.64818 7.43951 8.57818L7.45742 8.57602C7.86706 8.52657 8.33164 8.47049 8.88851 8.28618C9.41651 8.11218 9.93151 7.71818 10.4765 7.30018Z" fill="currentColor"/>
<path d="M18.1654 16.3153C18.2804 16.3793 18.4054 16.4093 18.5284 16.4093C18.7924 16.4093 19.0484 16.2693 19.1854 16.0223C20.5544 13.5503 20.5544 10.4723 19.1854 7.99133C18.9854 7.62833 18.5284 7.49733 18.1664 7.69733C17.8034 7.89733 17.6724 8.35333 17.8724 8.71633C18.9944 10.7493 18.9944 13.2703 17.8724 15.2963C17.6724 15.6583 17.8034 16.1143 18.1654 16.3153Z" fill="currentColor"/>
</svg>
