<svg width="24" height="24" viewBox="0 0 24 24" fill="none" xmlns="http://www.w3.org/2000/svg">
<path fill-rule="evenodd" clip-rule="evenodd" d="M10.3405 7.70164C9.96309 7.98576 9.51097 8.30959 9.05013 8.4611L9.04869 8.46157C8.4744 8.64909 7.94856 8.71217 7.55174 8.75978C7.43928 8.77327 7.33718 8.78552 7.24728 8.799C6.84001 8.86009 6.53419 8.95018 6.1699 9.25967C5.8331 9.5458 5.63747 9.94547 5.53095 10.4641C5.4217 10.9959 5.4187 11.5857 5.42324 12.2079L5.42332 12.2188L5.42324 12.2188C5.4187 12.841 5.4217 13.4308 5.53095 13.9626C5.63733 14.4806 5.83259 14.8799 6.1686 15.1659C6.49791 15.4427 6.7767 15.5392 7.10918 15.5987C7.25587 15.6249 7.40167 15.6421 7.57914 15.6631C7.63003 15.6691 7.68353 15.6754 7.74039 15.6824C7.98408 15.7121 8.26389 15.7505 8.5734 15.8221C8.97695 15.9155 9.22839 16.3184 9.135 16.7219C9.04162 17.1255 8.63878 17.3769 8.23523 17.2835C8.00342 17.2299 7.78553 17.199 7.55892 17.1714C7.51645 17.1662 7.47241 17.161 7.4272 17.1557C7.24337 17.134 7.04023 17.1101 6.84523 17.0753C6.31475 16.9804 5.77516 16.7953 5.20139 16.3124L5.19872 16.3102C4.52447 15.7374 4.2101 14.9873 4.06162 14.2645C3.91631 13.557 3.91886 12.816 3.92324 12.2134C3.91886 11.6107 3.91631 10.8697 4.06162 10.1622C4.2101 9.43939 4.52447 8.68932 5.19872 8.11651C5.84548 7.56705 6.44782 7.40214 7.02477 7.3156C7.18171 7.29205 7.32577 7.27458 7.46399 7.25781C7.83378 7.21295 8.1617 7.17317 8.58228 7.03593C8.77455 6.97253 9.04142 6.80207 9.43836 6.50325C9.5247 6.43826 9.61675 6.36756 9.71327 6.29343C10.0177 6.05963 10.3665 5.79171 10.7206 5.56109C11.6575 4.95085 12.967 4.37847 14.3687 5.20591C14.3863 5.21631 14.4035 5.22742 14.4202 5.23923C15.5119 6.0105 16.0332 7.23406 16.2373 9.39601C16.2762 9.80839 15.9735 10.1743 15.5611 10.2132C15.1487 10.2521 14.7829 9.94939 14.7439 9.53701C14.5573 7.56029 14.123 6.87718 13.5802 6.48256C12.9596 6.13065 12.3425 6.29476 11.5392 6.81798C11.2385 7.01387 10.9573 7.22975 10.6642 7.45474C10.5584 7.53603 10.451 7.6185 10.3405 7.70164Z" fill="currentColor"/>
<path fill-rule="evenodd" clip-rule="evenodd" d="M15.6089 12.9224C16.0228 12.9385 16.3453 13.287 16.3293 13.7009C16.2121 16.7293 15.6915 18.2755 14.4215 19.1776C14.405 19.1893 14.3881 19.2003 14.3706 19.2107C12.9341 20.0652 11.5889 19.4379 10.65 18.8025C10.307 18.5703 10.2171 18.104 10.4493 17.761C10.6814 17.418 11.1477 17.3281 11.4907 17.5602C12.3123 18.1162 12.9473 18.2969 13.5781 17.9365C14.2111 17.4736 14.7165 16.5882 14.8304 13.6429C14.8464 13.229 15.195 12.9064 15.6089 12.9224Z" fill="currentColor"/>
<path fill-rule="evenodd" clip-rule="evenodd" d="M20.8165 4.14057C21.1094 4.43346 21.1094 4.90834 20.8165 5.20123L5.47174 20.546C5.17884 20.8389 4.70397 20.8389 4.41108 20.546C4.11818 20.2531 4.11818 19.7782 4.41108 19.4853L19.7558 4.14057C20.0487 3.84768 20.5236 3.84768 20.8165 4.14057Z" fill="currentColor"/>
</svg>
