<svg width="24" height="24" viewBox="0 0 24 24" fill="none" xmlns="http://www.w3.org/2000/svg">
<path fill-rule="evenodd" clip-rule="evenodd" d="M19.018 5.15151C19.3621 4.92087 19.828 5.01282 20.0586 5.35689C22.7213 9.32902 22.7293 14.5681 20.0585 18.5496C19.8277 18.8936 19.3618 18.9854 19.0178 18.7546C18.6738 18.5239 18.582 18.0579 18.8128 17.714C21.1438 14.239 21.1373 9.65996 18.8126 6.1921C18.582 5.84803 18.674 5.38215 19.018 5.15151Z" fill="currentColor"/>
<path fill-rule="evenodd" clip-rule="evenodd" d="M16.626 7.56029C16.9887 7.36015 17.4449 7.4919 17.6451 7.85456C19.0511 10.4024 19.0518 13.5111 17.6445 16.0521C17.4438 16.4145 16.9874 16.5455 16.6251 16.3449C16.2627 16.1442 16.1316 15.6878 16.3323 15.3254C17.4887 13.2373 17.4893 10.6769 16.3318 8.57931C16.1316 8.21666 16.2634 7.76042 16.626 7.56029Z" fill="currentColor"/>
<path fill-rule="evenodd" clip-rule="evenodd" d="M8.83762 5.20561C9.78977 4.58696 11.1155 4.01033 12.5325 4.84998C12.5502 4.8605 12.5675 4.87174 12.5843 4.88368C13.3206 5.40649 13.8167 6.13976 14.121 7.26738C14.4156 8.35887 14.5401 9.85297 14.5401 11.9525C14.5401 14.0542 14.4094 15.552 14.1117 16.6453C13.805 17.7717 13.3102 18.5056 12.5845 19.0212C12.5677 19.0331 12.5504 19.0443 12.5327 19.0548C11.1158 19.8951 9.78991 19.3188 8.83762 18.7C8.4776 18.4661 8.12296 18.1943 7.81291 17.9567C7.71473 17.8814 7.62103 17.8096 7.53304 17.7435C7.12864 17.4397 6.85419 17.2642 6.65451 17.1984C6.22706 17.0578 5.89329 17.0179 5.51639 16.9728C5.37805 16.9562 5.2339 16.9389 5.07718 16.9158C4.49275 16.8293 3.88233 16.6636 3.22559 16.106C2.54178 15.5255 2.22459 14.7658 2.07476 14.0335C1.92892 13.3206 1.93057 12.5721 1.9319 11.9641L1.93193 11.9541V11.9508L1.9319 11.9408C1.93057 11.3329 1.92892 10.5844 2.07476 9.87147C2.22459 9.13908 2.54179 8.37945 3.22564 7.7989L3.22589 7.79869C3.88268 7.24161 4.49306 7.07627 5.07718 6.98987C5.23316 6.96679 5.37672 6.94957 5.51451 6.93305C5.89206 6.88776 6.22636 6.84766 6.65437 6.70655L6.65495 6.70636C6.85444 6.64077 7.12878 6.46555 7.53315 6.16187C7.62134 6.09564 7.71529 6.02366 7.81373 5.94824C8.12358 5.71083 8.47796 5.43931 8.83762 5.20561ZM7.12346 8.13132C6.53897 8.32394 6.00533 8.38713 5.6019 8.43491C5.48948 8.44822 5.38717 8.46033 5.29668 8.47372C4.88226 8.53502 4.56951 8.62603 4.19641 8.94241C3.85116 9.2355 3.65245 9.64359 3.54433 10.1721C3.43328 10.7149 3.43054 11.3148 3.43193 11.9508V11.9541C3.43054 12.5901 3.43328 13.19 3.54433 13.7328C3.65245 14.2614 3.85116 14.6694 4.19641 14.9625L4.19645 14.9626C4.56972 15.2795 4.88247 15.3706 5.29668 15.4319C5.38735 15.4453 5.48996 15.4575 5.60276 15.4708C6.00605 15.5185 6.53962 15.5815 7.1236 15.7737L7.1239 15.7738C7.59058 15.9275 8.0492 16.2551 8.43401 16.5442C8.54603 16.6284 8.65507 16.7119 8.76258 16.7943C9.06133 17.0232 9.3483 17.243 9.65488 17.4422C10.4731 17.9739 11.1053 18.1425 11.7413 17.7799C12.1188 17.5039 12.4349 17.0939 12.6644 16.2512C12.9081 15.3565 13.0401 14.0217 13.0401 11.9525C13.0401 9.88107 12.9137 8.55063 12.6728 7.65825C12.4467 6.82031 12.1316 6.40982 11.7416 6.12519C11.1055 5.76283 10.4733 5.93165 9.65488 6.46343C9.34855 6.66246 9.06186 6.88204 8.7634 7.11063C8.65559 7.19319 8.54625 7.27694 8.4339 7.36131C8.04906 7.65031 7.59033 7.97782 7.12346 8.13132Z" fill="currentColor"/>
</svg>
