<svg width="24" height="24" viewBox="0 0 24 24" fill="none" xmlns="http://www.w3.org/2000/svg">
<path fill-rule="evenodd" clip-rule="evenodd" d="M17.2855 10.2988C16.2845 10.2988 15.4727 11.1107 15.4727 12.1117C15.4727 13.1138 16.2847 13.9255 17.2855 13.9255H21.1722C21.5864 13.9255 21.9222 14.2613 21.9222 14.6755C21.9222 15.0897 21.5864 15.4255 21.1722 15.4255H17.2855C15.4559 15.4255 13.9727 13.9419 13.9727 12.1117C13.9727 10.2822 15.4561 8.79883 17.2855 8.79883H21.1417C21.5559 8.79883 21.8917 9.13461 21.8917 9.54883C21.8917 9.96304 21.5559 10.2988 21.1417 10.2988H17.2855Z" fill="currentColor"/>
<path fill-rule="evenodd" clip-rule="evenodd" d="M16.6758 12.0527C16.6758 11.6385 17.0116 11.3027 17.4258 11.3027H17.7229C18.1371 11.3027 18.4729 11.6385 18.4729 12.0527C18.4729 12.4669 18.1371 12.8027 17.7229 12.8027H17.4258C17.0116 12.8027 16.6758 12.4669 16.6758 12.0527Z" fill="currentColor"/>
<path fill-rule="evenodd" clip-rule="evenodd" d="M6.85742 8.14355C6.85742 7.72934 7.19321 7.39355 7.60742 7.39355H11.6674C12.0816 7.39355 12.4174 7.72934 12.4174 8.14355C12.4174 8.55777 12.0816 8.89355 11.6674 8.89355H7.60742C7.19321 8.89355 6.85742 8.55777 6.85742 8.14355Z" fill="currentColor"/>
<path fill-rule="evenodd" clip-rule="evenodd" d="M5.25647 6.13408C4.04418 7.24706 3.46484 9.10454 3.46484 12.2529C3.46484 15.4008 4.04416 17.2583 5.25649 18.3714C6.48808 19.5022 8.55883 20.042 12.0158 20.042C15.4723 20.042 17.5428 19.5022 18.7742 18.3714C19.9865 17.2583 20.5658 15.4008 20.5658 12.2529C20.5658 9.10454 19.9865 7.24704 18.7743 6.13406C17.5428 5.0034 15.4723 4.46387 12.0158 4.46387C8.55877 4.46387 6.48803 5.0034 5.25647 6.13408ZM4.24203 5.02913C5.91689 3.49147 8.49663 2.96387 12.0158 2.96387C15.5345 2.96387 18.114 3.49148 19.7887 5.02915C21.4827 6.5845 22.0658 8.99652 22.0658 12.2529C22.0658 15.5089 21.4827 17.9208 19.7888 19.4763C18.1141 21.0141 15.5346 21.542 12.0158 21.542C8.49657 21.542 5.91685 21.0141 4.24201 19.4763C2.5479 17.9209 1.96484 15.5089 1.96484 12.2529C1.96484 8.99652 2.54789 6.58449 4.24203 5.02913Z" fill="currentColor"/>
</svg>
