<svg width="24" height="24" viewBox="0 0 24 24" fill="none" xmlns="http://www.w3.org/2000/svg">
<path fill-rule="evenodd" clip-rule="evenodd" d="M11.9609 13.1387C12.3752 13.1387 12.7109 13.4745 12.7109 13.8887V16.5167C12.7109 16.9309 12.3752 17.2667 11.9609 17.2667C11.5467 17.2667 11.2109 16.9309 11.2109 16.5167V13.8887C11.2109 13.4745 11.5467 13.1387 11.9609 13.1387Z" fill="currentColor"/>
<path fill-rule="evenodd" clip-rule="evenodd" d="M2.21767 11.0475C2.45521 10.7082 2.92286 10.6256 3.26219 10.8632L3.27398 10.8714C5.5624 12.2763 8.60498 13.1416 11.9561 13.1416C15.3051 13.1416 18.3545 12.2775 20.6432 10.8745L20.6492 10.8702C20.9847 10.6272 21.4536 10.7022 21.6965 11.0377C21.9395 11.3732 21.8645 11.8421 21.529 12.0851L21.5 12.1061C21.4849 12.117 21.4694 12.1274 21.4535 12.1372C18.9007 13.7097 15.5636 14.6416 11.9561 14.6416C8.3482 14.6416 5.02011 13.7095 2.46861 12.1371C2.45617 12.1294 2.44397 12.1214 2.432 12.113L2.402 12.092C2.06266 11.8545 1.98014 11.3868 2.21767 11.0475Z" fill="currentColor"/>
<path fill-rule="evenodd" clip-rule="evenodd" d="M5.2638 7.50205C4.07181 8.5636 3.5 10.3336 3.5 13.3505C3.5 16.3674 4.07181 18.1373 5.2638 19.1989C6.48218 20.2839 8.53488 20.8035 11.961 20.8035C15.3877 20.8035 17.4403 20.2839 18.6586 19.1989C19.8504 18.1374 20.422 16.3674 20.422 13.3505C20.422 10.3335 19.8504 8.56355 18.6586 7.50203C17.4403 6.41701 15.3877 5.89746 11.961 5.89746C8.53488 5.89746 6.48218 6.417 5.2638 7.50205ZM4.2662 6.38187C5.92632 4.90342 8.47912 4.39746 11.961 4.39746C15.4434 4.39746 17.9962 4.90341 19.6562 6.38189C21.3426 7.88387 21.922 10.2154 21.922 13.3505C21.922 16.4855 21.3426 18.8171 19.6562 20.319C17.9962 21.7975 15.4434 22.3035 11.961 22.3035C8.47912 22.3035 5.92632 21.7975 4.2662 20.3191C2.57969 18.8171 2 16.4856 2 13.3505C2 10.2154 2.57969 7.88382 4.2662 6.38187Z" fill="currentColor"/>
<path fill-rule="evenodd" clip-rule="evenodd" d="M7.94922 4.7392C7.94922 3.13717 9.13572 1.7002 10.7592 1.7002H13.1642C14.7877 1.7002 15.9742 3.13717 15.9742 4.7392V5.3692C15.9742 5.78341 15.6384 6.11919 15.2242 6.11919C14.81 6.11919 14.4742 5.78341 14.4742 5.3692V4.7392C14.4742 3.81322 13.8147 3.2002 13.1642 3.2002H10.7592C10.1087 3.2002 9.44922 3.81322 9.44922 4.7392V5.3692C9.44922 5.78341 9.11343 6.11919 8.69922 6.11919C8.28501 6.11919 7.94922 5.78341 7.94922 5.3692V4.7392Z" fill="currentColor"/>
</svg>
