<svg width="25" height="25" viewBox="0 0 25 25" fill="none" xmlns="http://www.w3.org/2000/svg">
<path d="M9.9082 14.669L14.3828 10.1943" stroke="currentColor" stroke-width="1.5" stroke-linecap="square"/>
<path d="M14.3161 14.6071H14.324" stroke="currentColor" stroke-width="1.5" stroke-linecap="square"/>
<path d="M9.96456 10.2536H9.97239" stroke="currentColor" stroke-width="1.5" stroke-linecap="square"/>
<path opacity="0.4" d="M12.25 3.28516C13.7806 5.30371 16.2811 6.33947 18.7907 5.99442C18.4457 8.50403 19.4814 11.0046 21.5 12.5352C19.4814 14.0657 18.4457 16.5663 18.7907 19.0759C16.2811 18.7308 13.7806 19.7666 12.25 21.7852C10.7194 19.7666 8.21888 18.7308 5.70926 19.0759C6.05432 16.5663 5.01856 14.0657 3 12.5352C5.01856 11.0046 6.05432 8.50404 5.70926 5.99442C8.21888 6.33947 10.7194 5.30372 12.25 3.28516Z" stroke="currentColor" stroke-width="1.5" stroke-linecap="square"/>
</svg>
