<svg width="25" height="25" viewBox="0 0 25 25" fill="none" xmlns="http://www.w3.org/2000/svg">
<path opacity="0.4" d="M8.89202 12.7676V16.4153M10.7522 14.5917H7.03027" stroke="currentColor" stroke-width="1.5" stroke-linecap="square"/>
<path opacity="0.4" d="M15.2401 12.8779H15.1358" stroke="currentColor" stroke-width="1.5" stroke-linecap="square"/>
<path opacity="0.4" d="M17.0057 16.3603H16.9014" stroke="currentColor" stroke-width="1.5" stroke-linecap="square"/>
<path opacity="0.4" d="M7.82812 3.53516C7.82812 4.25641 8.4247 4.84109 9.16061 4.84109H10.1897C11.325 4.84514 12.2446 5.74645 12.2498 6.85918V7.56642" stroke="currentColor" stroke-width="1.5" stroke-linecap="square"/>
<path fill-rule="evenodd" clip-rule="evenodd" d="M16.0118 21.5352C19.8314 21.5352 22.9277 18.4388 22.9277 14.6193V14.6193C22.9277 10.7997 19.8314 7.70336 16.0118 7.70336L8.48719 7.70336C4.66764 7.70336 1.57129 10.7997 1.57129 14.6193V14.6193C1.57129 18.4388 4.66764 21.5352 8.48718 21.5352L16.0118 21.5352Z" stroke="currentColor" stroke-width="1.5" stroke-linecap="round"/>
</svg>
