<svg width="25" height="24" viewBox="0 0 25 24" fill="none" xmlns="http://www.w3.org/2000/svg">
<path d="M12.2312 14.6231C15.2613 14.6153 17.8377 16.0066 18.7847 19.0014C16.8759 20.1651 14.629 20.6133 12.2312 20.6074C9.83339 20.6133 7.58655 20.1651 5.67773 19.0014C6.62583 16.0033 9.19788 14.6153 12.2312 14.6231Z" stroke="currentColor" stroke-width="1.5" stroke-linecap="square"/>
<path opacity="0.4" d="M6.84473 13.7735C4.72036 13.768 2.91407 14.7434 2.25013 16.8431C2.97482 17.2849 3.769 17.5796 4.61185 17.7563" stroke="currentColor" stroke-width="1.5" stroke-linecap="square"/>
<path opacity="0.4" d="M17.6553 13.7735C19.7796 13.768 21.5859 14.7434 22.2499 16.8431C21.5252 17.2849 20.731 17.5796 19.8881 17.7563" stroke="currentColor" stroke-width="1.5" stroke-linecap="square"/>
<circle cx="12.2498" cy="7.49102" r="4.09844" stroke="currentColor" stroke-width="1.5" stroke-linecap="square"/>
<path opacity="0.4" d="M16.7328 6.05034C17.0224 5.95247 17.3327 5.89941 17.6553 5.89941C19.2459 5.89941 20.5353 7.18883 20.5353 8.7794C20.5353 10.37 19.2459 11.6594 17.6553 11.6594C16.8823 11.6594 16.1804 11.3548 15.6631 10.8591" stroke="currentColor" stroke-width="1.5" stroke-linecap="square"/>
<path opacity="0.4" d="M7.50078 5.97445C7.29007 5.92537 7.07048 5.89941 6.84483 5.89941C5.25426 5.89941 3.96484 7.18883 3.96484 8.7794C3.96484 10.37 5.25426 11.6594 6.84483 11.6594C7.53805 11.6594 8.17407 11.4145 8.67107 11.0064" stroke="currentColor" stroke-width="1.5" stroke-linecap="square"/>
</svg>
