<svg width="25" height="25" viewBox="0 0 25 25" fill="none" xmlns="http://www.w3.org/2000/svg">
<path opacity="0.4" fill-rule="evenodd" clip-rule="evenodd" d="M21.6206 8.80959C21.0906 9.05959 20.4906 9.19959 19.8706 9.19959C17.5306 9.19959 15.6206 7.28959 15.6206 4.94959C15.6206 4.30959 15.7606 3.70959 16.0206 3.16959C14.9206 2.93959 13.6406 2.82959 12.1606 2.82959C4.95063 2.82959 2.39062 5.37959 2.39062 12.5996C2.39062 19.8196 4.95063 22.3696 12.1606 22.3696C19.3806 22.3696 21.9406 19.8196 21.9406 12.5996C21.9406 11.1496 21.8406 9.88959 21.6206 8.80959Z" fill="currentColor"/>
<path d="M13.5899 14.9798L16.5199 11.1998C16.7699 10.8698 16.7099 10.3998 16.3899 10.1498C16.0599 9.88975 15.5899 9.94975 15.3299 10.2798L12.8699 13.4598L10.0499 11.2498C9.88988 11.1298 9.68988 11.0698 9.48988 11.0998C9.28988 11.1198 9.10988 11.2198 8.98988 11.3798L5.98988 15.2698C5.73988 15.5998 5.79988 16.0698 6.12988 16.3198C6.26988 16.4298 6.42988 16.4798 6.58988 16.4798C6.80988 16.4798 7.03988 16.3798 7.17988 16.1898L9.70988 12.8998L12.5299 15.1098C12.6899 15.2298 12.8899 15.2898 13.0899 15.2598C13.2899 15.2398 13.4699 15.1398 13.5899 14.9798Z" fill="currentColor"/>
<path fill-rule="evenodd" clip-rule="evenodd" d="M19.8711 7.19971C20.2911 7.19971 20.6911 7.07971 21.0211 6.87971C21.6711 6.48971 22.1111 5.76971 22.1111 4.94971C22.1111 3.70971 21.1111 2.69971 19.8711 2.69971C19.0611 2.69971 18.3511 3.12971 17.9511 3.77971C17.7411 4.11971 17.6211 4.51971 17.6211 4.94971C17.6211 6.18971 18.6311 7.19971 19.8711 7.19971Z" fill="currentColor"/>
</svg>
