<svg width="25" height="24" viewBox="0 0 25 24" fill="none" xmlns="http://www.w3.org/2000/svg">
<path fill-rule="evenodd" clip-rule="evenodd" d="M10.001 11.7364H10.033C12.809 11.7364 15.066 9.47839 15.066 6.70339C15.066 3.92839 12.809 1.67139 10.033 1.67139C7.25803 1.67139 5.00003 3.92839 5.00003 6.70139C4.99003 9.46739 7.23203 11.7264 10.001 11.7364Z" fill="currentColor"/>
<path fill-rule="evenodd" clip-rule="evenodd" d="M21.2892 9.40435H19.9922V8.14935C19.9922 7.73535 19.6562 7.39935 19.2422 7.39935C18.8282 7.39935 18.4922 7.73535 18.4922 8.14935V9.40435H17.1992C16.7852 9.40435 16.4492 9.74035 16.4492 10.1544C16.4492 10.5684 16.7852 10.9044 17.1992 10.9044H18.4922V12.1594C18.4922 12.5734 18.8282 12.9094 19.2422 12.9094C19.6562 12.9094 19.9922 12.5734 19.9922 12.1594V10.9044H21.2892C21.7032 10.9044 22.0392 10.5684 22.0392 10.1544C22.0392 9.74035 21.7032 9.40435 21.2892 9.40435Z" fill="currentColor"/>
<path opacity="0.4" fill-rule="evenodd" clip-rule="evenodd" d="M10.0329 14.0303C5.92894 14.0303 2.46094 16.2793 2.46094 18.9413C2.46094 21.9773 6.78194 22.3283 10.0329 22.3283C11.9059 22.3283 17.6049 22.3283 17.6049 18.9213C17.6049 16.2693 14.1369 14.0303 10.0329 14.0303Z" fill="currentColor"/>
</svg>
