<svg width="25" height="24" viewBox="0 0 25 24" fill="none" xmlns="http://www.w3.org/2000/svg">
<path opacity="0.4" fill-rule="evenodd" clip-rule="evenodd" d="M20.75 12.0005C20.75 11.4482 20.3023 11.0005 19.75 11.0005L4.75 11.0005C4.19772 11.0005 3.75 11.4482 3.75 12.0005C3.75 12.5528 4.19772 13.0005 4.75 13.0005L19.75 13.0005C20.3023 13.0005 20.75 12.5528 20.75 12.0005Z" fill="currentColor"/>
<path d="M10.3261 5.09495C10.8123 4.83291 11.4188 5.01459 11.6809 5.50075C11.8583 5.83003 11.8322 6.21459 11.6457 6.50992C11.5569 6.65055 11.4318 6.77094 11.2751 6.85549L11.2731 6.85653L11.2627 6.86222L11.2174 6.88717C11.1767 6.90973 11.1156 6.94394 11.0369 6.98891C10.8795 7.07889 10.6525 7.21159 10.3792 7.37968C9.83075 7.71703 9.10502 8.19137 8.38432 8.74434C7.65769 9.30187 6.9686 9.91478 6.47026 10.5247C5.95254 11.1582 5.75059 11.6549 5.75059 11.9982C5.75059 12.3423 5.95275 12.8394 6.47043 13.4733C6.96878 14.0835 7.65787 14.6967 8.38449 15.2545C9.10518 15.8077 9.83089 16.2822 10.3793 16.6197C10.6526 16.7878 10.8796 16.9205 11.037 17.0106C11.1161 17.0558 11.1954 17.1008 11.2755 17.1442C11.7614 17.4064 11.9428 18.0128 11.6808 18.4988C11.4187 18.9849 10.8121 19.1665 10.326 18.9044C10.2313 18.8533 10.1377 18.8002 10.0442 18.7468C9.8708 18.6476 9.62514 18.5039 9.33122 18.323C8.74529 17.9625 7.9585 17.4488 7.16669 16.841C6.3808 16.2377 5.5574 15.5172 4.92137 14.7384C4.30468 13.9833 3.75059 13.0362 3.75059 11.9982C3.75059 10.9606 4.30489 10.0138 4.92154 9.25916C5.55757 8.48078 6.38098 7.76057 7.16685 7.1576C7.95865 6.55007 8.74543 6.03654 9.33136 5.67614C9.62527 5.49535 9.87093 5.3517 10.0444 5.25256C10.1311 5.20297 10.2 5.16443 10.2479 5.13787L10.3038 5.1071L10.3193 5.09866L10.3238 5.09621L10.3261 5.09495Z" fill="currentColor"/>
</svg>
