<svg width="25" height="24" viewBox="0 0 25 24" fill="none" xmlns="http://www.w3.org/2000/svg">
<path opacity="0.4" fill-rule="evenodd" clip-rule="evenodd" d="M12.25 20.5C12.8023 20.5 13.25 20.0523 13.25 19.5V4.5C13.25 3.94772 12.8023 3.5 12.25 3.5C11.6977 3.5 11.25 3.94772 11.25 4.5V19.5C11.25 20.0523 11.6977 20.5 12.25 20.5Z" fill="currentColor"/>
<path d="M19.1541 10.0756C19.4161 10.5618 19.2344 11.1683 18.7483 11.4304C18.419 11.6079 18.0344 11.5817 17.7391 11.3952C17.5985 11.3065 17.4781 11.1813 17.3935 11.0246L17.3925 11.0227L17.3868 11.0122L17.3619 10.9669C17.3393 10.9262 17.3051 10.8651 17.2601 10.7864C17.1701 10.629 17.0374 10.402 16.8693 10.1287C16.532 9.58026 16.0577 8.85454 15.5047 8.13383C14.9472 7.4072 14.3342 6.71811 13.7244 6.21977C13.0908 5.70205 12.5941 5.5001 12.2508 5.5001C11.9068 5.5001 11.4096 5.70226 10.7757 6.21994C10.1655 6.71829 9.5523 7.40738 8.99455 8.134C8.44134 8.85469 7.96683 9.5804 7.62936 10.1288C7.46122 10.4021 7.32848 10.6291 7.23847 10.7865C7.19324 10.8656 7.14826 10.9449 7.10484 11.025C6.84263 11.5109 6.23623 11.6924 5.75022 11.4303C5.26409 11.1682 5.08249 10.5616 5.34459 10.0755C5.39571 9.9808 5.44884 9.88718 5.50226 9.79375C5.60144 9.62031 5.74514 9.37465 5.92599 9.08073C6.28653 8.4948 6.80026 7.70801 7.40806 6.9162C8.0113 6.13032 8.73185 5.30691 9.51063 4.67089C10.2658 4.05419 11.2129 3.5001 12.2508 3.5001C13.2885 3.5001 14.2352 4.0544 14.9899 4.67105C15.7682 5.30709 16.4885 6.1305 17.0914 6.91637C17.699 7.70816 18.2125 8.49494 18.5729 9.08087C18.7537 9.37478 18.8973 9.62044 18.9965 9.79388C19.0461 9.88064 19.0846 9.94948 19.1112 9.9974L19.1419 10.0533L19.1504 10.0688L19.1528 10.0733L19.1541 10.0756Z" fill="currentColor"/>
</svg>
