<svg width="25" height="24" viewBox="0 0 25 24" fill="none" xmlns="http://www.w3.org/2000/svg">
<path fill-rule="evenodd" clip-rule="evenodd" d="M17.3383 12.8117C16.8033 12.2757 14.9913 12.0907 13.2463 12.0407L11.2463 12.0347C9.00931 12.0877 7.63931 12.3477 7.17531 12.8117C6.61231 13.3757 6.90131 14.3157 7.21531 15.0717C7.86631 16.6407 10.6123 21.1767 12.2573 21.1767C13.9523 21.1767 16.6893 16.4387 17.2863 14.9997C17.6113 14.2177 17.8713 13.3467 17.3383 12.8117Z" fill="currentColor"/>
<path opacity="0.4" fill-rule="evenodd" clip-rule="evenodd" d="M13.2461 12.0402V3.82324C13.2461 3.27024 12.7991 2.82324 12.2461 2.82324C11.6931 2.82324 11.2461 3.27024 11.2461 3.82324V12.0342L13.2461 12.0402Z" fill="currentColor"/>
</svg>
