<svg width="25" height="24" viewBox="0 0 25 24" fill="none" xmlns="http://www.w3.org/2000/svg">
<path opacity="0.4" d="M7.74992 11.9995C7.74992 8.7334 13.9897 4.87842 15.2406 4.13965C15.4804 3.99756 15.7548 3.96729 16.0038 4.03271C16.2494 4.09717 16.4706 4.25488 16.6098 4.49072C16.893 4.96338 16.7328 5.57861 16.2587 5.85938C13.6337 7.4126 9.74992 10.4375 9.74992 11.9995L7.74992 11.9995Z" fill="currentColor"/>
<path d="M9.75183 11.9996C9.75183 11.9996 9.75183 11.9996 9.75183 11.9996C9.75183 13.5596 13.6358 16.5846 16.2608 18.1396C16.7348 18.4196 16.8948 19.0326 16.6118 19.5086C16.3308 19.9836 15.7178 20.1416 15.2428 19.8596C13.9918 19.1206 7.75183 15.2656 7.75183 11.9996C7.75183 11.9996 7.75183 11.9996 7.75183 11.9996L9.75183 11.9996Z" fill="currentColor"/>
</svg>
