<svg width="25" height="24" viewBox="0 0 25 24" fill="none" xmlns="http://www.w3.org/2000/svg">
<path opacity="0.4" fill-rule="evenodd" clip-rule="evenodd" d="M12.25 2.25C5.051 2.25 2.5 4.802 2.5 12C2.5 19.199 5.051 21.75 12.25 21.75C19.448 21.75 22 19.199 22 12C22 4.802 19.448 2.25 12.25 2.25Z" fill="currentColor"/>
<path d="M14.3079 15.896C14.5429 15.554 14.4559 15.087 14.1149 14.853C12.5309 13.764 11.0549 12.417 10.9589 12.032C11.0549 11.585 12.5309 10.238 14.1149 9.14798C14.4569 8.91298 14.5429 8.44598 14.3079 8.10498C14.0739 7.76398 13.6089 7.67798 13.2649 7.91198C11.8439 8.88798 9.46094 10.718 9.46094 12.001C9.46094 13.285 11.8439 15.114 13.2649 16.089C13.3949 16.178 13.5429 16.221 13.6889 16.221C13.9279 16.221 14.1629 16.108 14.3079 15.896Z" fill="currentColor"/>
</svg>
