<svg width="25" height="24" viewBox="0 0 25 24" fill="none" xmlns="http://www.w3.org/2000/svg">
<path fill-rule="evenodd" clip-rule="evenodd" d="M11.4398 6.9112C11.9758 7.4462 12.1608 9.2582 12.2108 11.0032L12.2168 13.0032C12.1638 15.2402 11.9038 16.6102 11.4398 17.0742C10.8758 17.6372 9.9358 17.3482 9.1798 17.0342C7.6108 16.3832 3.0748 13.6372 3.0748 11.9922C3.0748 10.2972 7.8128 7.5602 9.2518 6.9632C10.0338 6.6382 10.9048 6.3782 11.4398 6.9112Z" fill="currentColor"/>
<path opacity="0.4" fill-rule="evenodd" clip-rule="evenodd" d="M12.2107 11.0034L20.4277 11.0034C20.9807 11.0034 21.4277 11.4504 21.4277 12.0034C21.4277 12.5564 20.9807 13.0034 20.4277 13.0034L12.2167 13.0034L12.2107 11.0034Z" fill="currentColor"/>
</svg>
