<svg width="25" height="24" viewBox="0 0 25 24" fill="none" xmlns="http://www.w3.org/2000/svg">
<path opacity="0.4" fill-rule="evenodd" clip-rule="evenodd" d="M12.25 2.25C5.052 2.25 2.5 4.802 2.5 12C2.5 19.199 5.052 21.75 12.25 21.75C19.449 21.75 22 19.199 22 12C22 4.802 19.449 2.25 12.25 2.25Z" fill="currentColor"/>
<path d="M15.1023 13.867C15.3343 14.207 15.8033 14.295 16.1443 14.061C16.4863 13.828 16.5733 13.361 16.3383 13.019C15.3633 11.595 13.5343 9.20703 12.2503 9.20703C10.9673 9.20703 9.13834 11.595 8.16334 13.019C7.92834 13.361 8.01534 13.828 8.35734 14.061C8.48734 14.15 8.63434 14.193 8.78034 14.193C9.01934 14.193 9.25434 14.079 9.39934 13.867C10.4873 12.28 11.8333 10.802 12.2203 10.705C12.6663 10.802 14.0133 12.28 15.1023 13.867Z" fill="currentColor"/>
</svg>
