<svg width="25" height="24" viewBox="0 0 25 24" fill="none" xmlns="http://www.w3.org/2000/svg">
<path opacity="0.4" fill-rule="evenodd" clip-rule="evenodd" d="M12.25 2.25C5.052 2.25 2.5 4.801 2.5 12C2.5 19.198 5.052 21.75 12.25 21.75C19.448 21.75 22 19.198 22 12C22 4.801 19.448 2.25 12.25 2.25Z" fill="currentColor"/>
<path d="M12.2506 14.7942C13.5336 14.7942 15.3626 12.4052 16.3386 10.9812C16.5726 10.6392 16.4856 10.1722 16.1446 9.93922C15.8016 9.70522 15.3346 9.79322 15.1026 10.1332C14.0146 11.7202 12.6676 13.1982 12.2806 13.2952C11.8346 13.1982 10.4876 11.7202 9.39957 10.1332C9.16757 9.79322 8.69757 9.70522 8.35757 9.93922C8.01557 10.1722 7.92857 10.6392 8.16257 10.9812C9.13857 12.4052 10.9676 14.7942 12.2506 14.7942Z" fill="currentColor"/>
</svg>
