<svg width="25" height="24" viewBox="0 0 25 24" fill="none" xmlns="http://www.w3.org/2000/svg">
<path opacity="0.4" fill-rule="evenodd" clip-rule="evenodd" d="M12.25 3.5C12.8023 3.5 13.25 3.94772 13.25 4.5V19.5C13.25 20.0523 12.8023 20.5 12.25 20.5C11.6977 20.5 11.25 20.0523 11.25 19.5V4.5C11.25 3.94772 11.6977 3.5 12.25 3.5Z" fill="currentColor"/>
<path d="M19.1541 13.9244C19.4161 13.4382 19.2344 12.8317 18.7483 12.5696C18.419 12.3921 18.0344 12.4183 17.7391 12.6048C17.5985 12.6935 17.4781 12.8187 17.3935 12.9754L17.3925 12.9773L17.3868 12.9878L17.3619 13.0331C17.3393 13.0738 17.3051 13.1349 17.2601 13.2136C17.1701 13.371 17.0374 13.598 16.8693 13.8713C16.532 14.4197 16.0577 15.1455 15.5047 15.8662C14.9472 16.5928 14.3342 17.2819 13.7244 17.7802C13.0908 18.298 12.5941 18.4999 12.2508 18.4999C11.9068 18.4999 11.4096 18.2977 10.7757 17.7801C10.1655 17.2817 9.5523 16.5926 8.99455 15.866C8.44134 15.1453 7.96683 14.4196 7.62936 13.8712C7.46122 13.5979 7.32848 13.3709 7.23847 13.2135C7.19324 13.1344 7.14826 13.0551 7.10484 12.975C6.84263 12.4891 6.23623 12.3076 5.75022 12.5697C5.26409 12.8318 5.08249 13.4384 5.34459 13.9245C5.39571 14.0192 5.44884 14.1128 5.50226 14.2062C5.60144 14.3797 5.74514 14.6253 5.92599 14.9193C6.28653 15.5052 6.80026 16.292 7.40806 17.0838C8.0113 17.8697 8.73185 18.6931 9.51063 19.3291C10.2658 19.9458 11.2129 20.4999 12.2508 20.4999C13.2885 20.4999 14.2352 19.9456 14.9899 19.3289C15.7682 18.6929 16.4885 17.8695 17.0914 17.0836C17.699 16.2918 18.2125 15.5051 18.5729 14.9191C18.7537 14.6252 18.8973 14.3796 18.9965 14.2061C19.0461 14.1194 19.0846 14.0505 19.1112 14.0026L19.1419 13.9467L19.1504 13.9312L19.1528 13.9267L19.1541 13.9244Z" fill="currentColor"/>
</svg>
