<svg width="25" height="24" viewBox="0 0 25 24" fill="none" xmlns="http://www.w3.org/2000/svg">
<path fill-rule="evenodd" clip-rule="evenodd" d="M17.3383 11.1883C16.8033 11.7243 14.9913 11.9093 13.2463 11.9593L11.2463 11.9653C9.00931 11.9123 7.63931 11.6523 7.17531 11.1883C6.61231 10.6243 6.90131 9.68433 7.21531 8.92833C7.86631 7.35933 10.6123 2.82333 12.2573 2.82333C13.9523 2.82333 16.6893 7.56133 17.2863 9.00033C17.6113 9.78233 17.8713 10.6533 17.3383 11.1883Z" fill="currentColor"/>
<path opacity="0.4" fill-rule="evenodd" clip-rule="evenodd" d="M13.2461 11.9598V20.1768C13.2461 20.7298 12.7991 21.1768 12.2461 21.1768C11.6931 21.1768 11.2461 20.7298 11.2461 20.1768V11.9658L13.2461 11.9598Z" fill="currentColor"/>
</svg>
