<svg width="25" height="24" viewBox="0 0 25 24" fill="none" xmlns="http://www.w3.org/2000/svg">
<path opacity="0.4" fill-rule="evenodd" clip-rule="evenodd" d="M3.75 12.0005C3.75 11.4482 4.19772 11.0005 4.75 11.0005L19.75 11.0005C20.3023 11.0005 20.75 11.4482 20.75 12.0005C20.75 12.5528 20.3023 13.0005 19.75 13.0005L4.75 13.0005C4.19772 13.0005 3.75 12.5528 3.75 12.0005Z" fill="currentColor"/>
<path d="M14.1739 5.09495C13.6877 4.83291 13.0812 5.01459 12.8191 5.50075C12.6417 5.83003 12.6678 6.21459 12.8543 6.50992C12.9431 6.65055 13.0682 6.77094 13.2249 6.85549L13.2269 6.85653L13.2373 6.86222L13.2826 6.88717C13.3233 6.90973 13.3844 6.94394 13.4631 6.98891C13.6205 7.07889 13.8475 7.21159 14.1208 7.37968C14.6693 7.71703 15.395 8.19137 16.1157 8.74434C16.8423 9.30187 17.5314 9.91478 18.0297 10.5247C18.5475 11.1582 18.7494 11.6549 18.7494 11.9982C18.7494 12.3423 18.5473 12.8394 18.0296 13.4733C17.5312 14.0835 16.8421 14.6967 16.1155 15.2545C15.3948 15.8077 14.6691 16.2822 14.1207 16.6197C13.8474 16.7878 13.6204 16.9205 13.463 17.0106C13.3839 17.0558 13.3046 17.1008 13.2245 17.1442C12.7386 17.4064 12.5572 18.0128 12.8192 18.4988C13.0813 18.9849 13.6879 19.1665 14.174 18.9044C14.2687 18.8533 14.3623 18.8002 14.4558 18.7468C14.6292 18.6476 14.8749 18.5039 15.1688 18.323C15.7547 17.9625 16.5415 17.4488 17.3333 16.841C18.1192 16.2377 18.9426 15.5172 19.5786 14.7384C20.1953 13.9833 20.7494 13.0362 20.7494 11.9982C20.7494 10.9606 20.1951 10.0138 19.5785 9.25916C18.9424 8.48078 18.119 7.76057 17.3331 7.1576C16.5413 6.55007 15.7546 6.03654 15.1686 5.67614C14.8747 5.49535 14.6291 5.3517 14.4556 5.25256C14.3689 5.20297 14.3 5.16443 14.2521 5.13787L14.1962 5.1071L14.1807 5.09866L14.1762 5.09621L14.1739 5.09495Z" fill="currentColor"/>
</svg>
