<svg width="25" height="24" viewBox="0 0 25 24" fill="none" xmlns="http://www.w3.org/2000/svg">
<path opacity="0.4" d="M16.7501 11.9995C16.7501 8.7334 10.5103 4.87842 9.25936 4.13965C9.01961 3.99756 8.7452 3.96729 8.49617 4.03271C8.25057 4.09717 8.02938 4.25488 7.89022 4.49072C7.60701 4.96338 7.76717 5.57861 8.24129 5.85937C10.8663 7.4126 14.7501 10.4375 14.7501 11.9995L16.7501 11.9995Z" fill="currentColor"/>
<path d="M14.7501 11.9996C14.7501 11.9996 14.7501 11.9996 14.7501 11.9996C14.7501 13.5596 10.8661 16.5846 8.24112 18.1396C7.76712 18.4196 7.60712 19.0326 7.89012 19.5086C8.17112 19.9836 8.78412 20.1416 9.25912 19.8596C10.5101 19.1206 16.7501 15.2656 16.7501 11.9996C16.7501 11.9996 16.7501 11.9996 16.7501 11.9996L14.7501 11.9996Z" fill="currentColor"/>
</svg>
