<svg width="25" height="24" viewBox="0 0 25 24" fill="none" xmlns="http://www.w3.org/2000/svg">
<path fill-rule="evenodd" clip-rule="evenodd" d="M13.0622 6.9112C12.5262 7.4462 12.3412 9.2582 12.2912 11.0032L12.2852 13.0032C12.3382 15.2402 12.5982 16.6102 13.0622 17.0742C13.6262 17.6372 14.5662 17.3482 15.3222 17.0342C16.8912 16.3832 21.4272 13.6372 21.4272 11.9922C21.4272 10.2972 16.6892 7.5602 15.2502 6.9632C14.4682 6.6382 13.5972 6.3782 13.0622 6.9112Z" fill="currentColor"/>
<path opacity="0.4" fill-rule="evenodd" clip-rule="evenodd" d="M12.2893 11.0034L4.07227 11.0034C3.51927 11.0034 3.07227 11.4504 3.07227 12.0034C3.07227 12.5564 3.51927 13.0034 4.07227 13.0034L12.2833 13.0034L12.2893 11.0034Z" fill="currentColor"/>
</svg>
