<svg width="25" height="25" viewBox="0 0 25 25" fill="none" xmlns="http://www.w3.org/2000/svg">
<path d="M15.1415 13.0146H15.1875C15.7355 13.0146 16.1645 12.5756 16.1645 12.0146C16.1645 11.4726 15.6955 11.0146 15.1415 11.0146C14.5895 11.0146 14.1415 11.4626 14.1415 12.0146C14.1415 12.5666 14.5895 13.0146 15.1415 13.0146Z" fill="currentColor"/>
<path d="M9.31055 13.0146H9.35655C9.90455 13.0146 10.3335 12.5756 10.3335 12.0146C10.3335 11.4726 9.86555 11.0146 9.31055 11.0146C8.75955 11.0146 8.31055 11.4626 8.31055 12.0146C8.31055 12.5666 8.75955 13.0146 9.31055 13.0146Z" fill="currentColor"/>
<path opacity="0.4" d="M15.7692 6.91058C16.6953 7.04122 17.5652 7.23438 18.3163 7.50143C18.325 7.50452 18.3337 7.50758 18.3423 7.51063C19.4865 7.92277 20.3398 8.49552 20.9163 9.24731C21.9263 10.5663 22.1003 12.3793 21.4503 14.7913C19.9463 20.3673 19.0643 22.6293 12.2493 22.6293C5.43332 22.6293 4.55132 20.3673 3.04832 14.7913C2.39732 12.3793 2.57232 10.5663 3.58232 9.24731C4.22924 8.40282 5.22466 7.78455 6.58928 7.36644L6.59375 7.37C7.7119 7.01756 9.54875 6.76094 11.5394 6.70289C11.7705 6.69787 12.0071 6.69531 12.2493 6.69531C13.5793 6.69531 14.7372 6.77158 15.7692 6.91058C15.7692 6.91082 15.7692 6.91034 15.7692 6.91058Z" fill="currentColor"/>
<path d="M15.769 6.9107C16.6495 7.03491 19.4631 7.7313 17.2982 7.19843C17.1332 4.55043 14.9482 2.44043 12.2622 2.44043H12.2392C10.8942 2.44043 9.62717 2.96143 8.67117 3.90943C7.78317 4.78943 7.28217 5.94443 7.20117 7.19843L8.72917 6.91143C8.85217 6.18143 9.19017 5.50643 9.72717 4.97443C10.4002 4.30743 11.2922 3.94043 12.2422 3.94043H12.2592C14.0229 3.94043 15.4817 5.22806 15.769 6.9107Z" fill="currentColor"/>
</svg>
