<svg width="25" height="25" viewBox="0 0 25 25" fill="none" xmlns="http://www.w3.org/2000/svg">
<path fill-rule="evenodd" clip-rule="evenodd" d="M7.71875 7.12277C7.72474 4.62065 9.75717 2.59678 12.2602 2.60157C14.7619 2.60756 16.7861 4.64044 16.7808 7.1421V10.1736C16.7808 10.5878 16.445 10.9236 16.0308 10.9236C15.6165 10.9236 15.2807 10.5878 15.2807 10.1736V7.14157L15.2808 7.13977C15.2848 5.46613 13.931 4.10577 12.2573 4.10157C10.5828 4.09856 9.22321 5.45215 9.21875 7.12552V10.1736C9.21875 10.5878 8.88296 10.9236 8.46875 10.9236C8.05454 10.9236 7.71875 10.5878 7.71875 10.1736L7.71875 7.12277Z" fill="currentColor"/>
<path opacity="0.4" fill-rule="evenodd" clip-rule="evenodd" d="M4.8953 9.0011C6.44803 7.7858 8.85652 7.35059 12.2495 7.35059C15.6424 7.35059 18.0509 7.7858 19.6036 9.0011C21.1944 10.2462 21.7685 12.2067 21.7685 14.9096C21.7685 17.612 21.1944 19.5723 19.6036 20.8172C18.0509 22.0324 15.6424 22.4676 12.2495 22.4676C8.85652 22.4676 6.44804 22.0324 4.89532 20.8172C3.30455 19.5723 2.73047 17.612 2.73047 14.9096C2.73047 12.2067 3.30454 10.2462 4.8953 9.0011Z" fill="currentColor"/>
</svg>
