<svg width="25" height="25" viewBox="0 0 25 25" fill="none" xmlns="http://www.w3.org/2000/svg">
<path opacity="0.4" fill-rule="evenodd" clip-rule="evenodd" d="M19.2148 6.38466C20.5348 6.98466 21.3648 8.23466 21.5648 9.90466C21.6448 10.5347 21.6248 11.2047 21.5348 11.8747C21.2548 13.8847 20.2848 15.8947 18.9948 16.9047C18.0148 17.6647 16.7648 18.0347 15.4948 18.2047C14.7248 18.3147 13.9448 18.3447 13.2148 18.3447C12.9548 18.3447 12.6948 18.3447 12.4448 18.3347C10.6048 18.2847 8.26482 18.0747 6.57482 16.8747C4.30519 15.2649 4.56473 11.8458 4.7947 8.81617L4.79482 8.81466C4.79777 8.77662 4.80073 8.73864 4.80368 8.70073C4.88058 7.71242 4.95371 6.77253 4.92482 5.93466C4.96482 4.68466 3.66482 4.43466 3.51482 4.41466C3.11482 4.34466 2.83482 3.96466 2.89482 3.55466C2.96482 3.15466 3.34482 2.88466 3.74482 2.93466C4.68482 3.07466 6.43482 3.87466 6.42482 5.87466C6.42482 5.92494 6.42569 5.97517 6.42692 6.02538C6.43172 6.22118 6.59818 6.37743 6.79385 6.36877C8.72042 6.28074 10.6378 6.19314 12.5648 6.12466C13.6448 6.08466 14.7148 6.05466 15.7948 6.03466C15.8848 6.03466 15.9723 6.03216 16.0598 6.02966C16.1473 6.02716 16.2348 6.02466 16.3248 6.02466L16.3615 6.02345C17.2622 5.99368 18.2677 5.96043 19.2148 6.38466Z" fill="currentColor"/>
<path d="M7.39852 19.5518C6.68452 19.5518 6.10352 20.1318 6.10352 20.8458C6.10352 21.5598 6.68452 22.1408 7.39852 22.1408C8.11252 22.1408 8.69252 21.5598 8.69252 20.8458C8.69252 20.1318 8.11252 19.5518 7.39852 19.5518Z" fill="currentColor"/>
<path d="M17.7295 19.5518C17.0155 19.5518 16.4355 20.1318 16.4355 20.8458C16.4355 21.5598 17.0155 22.1408 17.7295 22.1408C18.4435 22.1408 19.0245 21.5598 19.0245 20.8458C19.0245 20.1318 18.4435 19.5518 17.7295 19.5518Z" fill="currentColor"/>
<path d="M13.1348 11.4248H15.9048C16.3248 11.4248 16.6548 11.0848 16.6548 10.6748C16.6548 10.2648 16.3248 9.9248 15.9048 9.9248H13.1348C12.7248 9.9248 12.3848 10.2648 12.3848 10.6748C12.3848 11.0848 12.7248 11.4248 13.1348 11.4248Z" fill="currentColor"/>
</svg>
