<svg width="25" height="25" viewBox="0 0 25 25" fill="none" xmlns="http://www.w3.org/2000/svg">
<path opacity="0.4" fill-rule="evenodd" clip-rule="evenodd" d="M21.8706 10.6846H2.63156C2.52956 11.5046 2.47656 12.3976 2.47656 13.3866C2.47656 20.6016 5.03456 23.1596 12.2506 23.1596C19.4676 23.1596 22.0256 20.6016 22.0256 13.3866C22.0256 12.3976 21.9726 11.5046 21.8706 10.6846Z" fill="currentColor"/>
<path d="M15.9096 13.8716C15.9096 14.2856 16.2496 14.6216 16.6636 14.6216C17.0776 14.6216 17.4136 14.2856 17.4136 13.8716C17.4136 13.4576 17.0776 13.1216 16.6636 13.1216H16.6546C16.2406 13.1216 15.9096 13.4576 15.9096 13.8716Z" fill="currentColor"/>
<path d="M15.9096 17.7246C15.9096 18.1386 16.2496 18.4746 16.6636 18.4746C17.0776 18.4746 17.4136 18.1386 17.4136 17.7246C17.4136 17.3096 17.0776 16.9746 16.6636 16.9746H16.6546C16.2406 16.9746 15.9096 17.3096 15.9096 17.7246Z" fill="currentColor"/>
<path d="M11.5096 13.8716C11.5096 14.2856 11.8506 14.6216 12.2646 14.6216C12.6786 14.6216 13.0146 14.2856 13.0146 13.8716C13.0146 13.4576 12.6786 13.1216 12.2646 13.1216H12.2556C11.8416 13.1216 11.5096 13.4576 11.5096 13.8716Z" fill="currentColor"/>
<path d="M11.5096 17.7246C11.5096 18.1386 11.8506 18.4746 12.2646 18.4746C12.6786 18.4746 13.0146 18.1386 13.0146 17.7246C13.0146 17.3096 12.6786 16.9746 12.2646 16.9746H12.2556C11.8416 16.9746 11.5096 17.3096 11.5096 17.7246Z" fill="currentColor"/>
<path d="M7.10156 13.8716C7.10156 14.2856 7.44256 14.6216 7.85656 14.6216C8.27056 14.6216 8.60656 14.2856 8.60656 13.8716C8.60656 13.4576 8.27056 13.1216 7.85656 13.1216H7.84756C7.43356 13.1216 7.10156 13.4576 7.10156 13.8716Z" fill="currentColor"/>
<path d="M7.10156 17.7246C7.10156 18.1386 7.44256 18.4746 7.85656 18.4746C8.27056 18.4746 8.60656 18.1386 8.60656 17.7246C8.60656 17.3096 8.27056 16.9746 7.85656 16.9746H7.84756C7.43356 16.9746 7.10156 17.3096 7.10156 17.7246Z" fill="currentColor"/>
<path fill-rule="evenodd" clip-rule="evenodd" d="M17.2033 4.26316V2.66016C17.2033 2.24616 16.8673 1.91016 16.4533 1.91016C16.0393 1.91016 15.7033 2.24616 15.7033 2.66016V5.92316C15.7033 6.18316 15.8443 6.40216 16.0463 6.53616C15.9273 6.61616 15.7923 6.67316 15.6383 6.67316C15.2243 6.67316 14.8883 6.33716 14.8883 5.92316V3.75716C14.0863 3.66116 13.2123 3.61216 12.2493 3.61216C11.1153 3.61216 10.1043 3.68016 9.19534 3.81716V2.66016C9.19534 2.24616 8.85934 1.91016 8.44534 1.91016C8.03134 1.91016 7.69534 2.24616 7.69534 2.66016V5.92316C7.69534 6.18316 7.83634 6.40216 8.03834 6.53616C7.91934 6.61616 7.78434 6.67316 7.63034 6.67316C7.21634 6.67316 6.88034 6.33716 6.88034 5.92316V4.39316C4.74634 5.21616 3.49434 6.74716 2.90234 9.18516H21.5973C20.9693 6.59916 19.5813 5.04716 17.2033 4.26316Z" fill="currentColor"/>
</svg>
