<svg width="25" height="25" viewBox="0 0 25 25" fill="none" xmlns="http://www.w3.org/2000/svg">
<path fill-rule="evenodd" clip-rule="evenodd" d="M21.8748 16.0378C19.2397 12.8418 17.9237 13.1268 16.4738 13.8308C15.5577 14.2778 14.7597 14.6638 12.9067 13.0078L21.6548 4.25975C21.9478 3.96675 21.9478 3.49175 21.6548 3.19875C21.3618 2.90575 20.8877 2.90575 20.5947 3.19875L2.09475 21.6988C1.80175 21.9918 1.80175 22.4668 2.09475 22.7598C2.24075 22.9058 2.43275 22.9788 2.62475 22.9788C2.81675 22.9788 3.00875 22.9058 3.15475 22.7598L9.00875 16.9058C13.4257 21.1768 16.3518 22.2328 18.1488 22.2328C19.1287 22.2328 19.7727 21.9228 20.1437 21.6528C20.1637 21.6418 22.2307 20.3608 22.5767 18.4988C22.7377 17.6308 22.5018 16.8038 21.8748 16.0378Z" fill="currentColor"/>
<path opacity="0.4" fill-rule="evenodd" clip-rule="evenodd" d="M6.71559 14.287H6.73559C6.86759 14.287 6.99459 14.234 7.08859 14.141L10.5916 10.637C10.7206 10.508 10.7696 10.318 10.7176 10.142C10.5116 9.43896 10.7506 8.94796 11.0276 8.38096C11.7306 6.93296 12.0146 5.61596 8.81259 2.97396C8.04759 2.34896 7.21559 2.11696 6.34659 2.27996C4.50059 2.63096 3.22459 4.66596 3.22659 4.66596C2.38959 5.84896 1.68459 8.65096 6.35559 14.112C6.44559 14.218 6.57659 14.281 6.71559 14.287Z" fill="currentColor"/>
</svg>
