<svg width="25" height="24" viewBox="0 0 25 24" fill="none" xmlns="http://www.w3.org/2000/svg">
<path d="M10.5395 6.64673C10.5395 8.65806 8.90904 10.2886 6.8977 10.2886C4.88637 10.2886 3.25586 8.65806 3.25586 6.64673C3.25586 4.63539 4.88637 3.00488 6.8977 3.00488C8.90904 3.00488 10.5395 4.63539 10.5395 6.64673Z" fill="currentColor"/>
<path d="M21.2458 17.353C21.2458 19.3643 19.6152 20.9948 17.6039 20.9948C15.5926 20.9948 13.9621 19.3643 13.9621 17.353C13.9621 15.3416 15.5926 13.7111 17.6039 13.7111C19.6152 13.7111 21.2458 15.3416 21.2458 17.353Z" fill="currentColor"/>
<g opacity="0.4">
<path d="M21.2458 6.64673C21.2458 8.65806 19.6152 10.2886 17.6039 10.2886C15.5926 10.2886 13.9621 8.65806 13.9621 6.64673C13.9621 4.63539 15.5926 3.00488 17.6039 3.00488C19.6152 3.00488 21.2458 4.63539 21.2458 6.64673Z" fill="currentColor"/>
<path d="M10.5395 17.353C10.5395 19.3643 8.90904 20.9948 6.8977 20.9948C4.88637 20.9948 3.25586 19.3643 3.25586 17.353C3.25586 15.3416 4.88637 13.7111 6.8977 13.7111C8.90904 13.7111 10.5395 15.3416 10.5395 17.353Z" fill="currentColor"/>
</g>
</svg>
