<svg width="25" height="25" viewBox="0 0 25 25" fill="none" xmlns="http://www.w3.org/2000/svg">
<path opacity="0.4" fill-rule="evenodd" clip-rule="evenodd" d="M12.2507 2.29785C4.69167 2.29785 2.01367 4.97585 2.01367 12.5349C2.01367 20.0939 4.69167 22.7719 12.2507 22.7719C19.8087 22.7719 22.4877 20.0939 22.4877 12.5349C22.4877 4.97585 19.8087 2.29785 12.2507 2.29785Z" fill="currentColor"/>
<path d="M16.7303 18.2027C17.1443 18.2027 17.4803 17.8667 17.4803 17.4527V14.2957C17.4803 13.8817 17.1443 13.5457 16.7303 13.5457C16.3163 13.5457 15.9803 13.8817 15.9803 14.2957V17.4527C15.9803 17.8667 16.3163 18.2027 16.7303 18.2027Z" fill="currentColor"/>
<path d="M12.2513 18.2027C12.6653 18.2027 13.0013 17.8667 13.0013 17.4527V7.55469C13.0013 7.13969 12.6653 6.80469 12.2513 6.80469C11.8373 6.80469 11.5013 7.13969 11.5013 7.55469V17.4527C11.5013 17.8667 11.8373 18.2027 12.2513 18.2027Z" fill="currentColor"/>
<path d="M7.69727 18.2027C8.11127 18.2027 8.44727 17.8667 8.44727 17.4527V10.7587C8.44727 10.3447 8.11127 10.0087 7.69727 10.0087C7.28327 10.0087 6.94727 10.3447 6.94727 10.7587V17.4527C6.94727 17.8667 7.28327 18.2027 7.69727 18.2027Z" fill="currentColor"/>
</svg>
