<svg width="25" height="24" viewBox="0 0 25 24" fill="none" xmlns="http://www.w3.org/2000/svg">
<path opacity="0.4" fill-rule="evenodd" clip-rule="evenodd" d="M19.6774 4.57593C17.6964 2.59493 15.0594 1.50293 12.2534 1.50293C9.44737 1.50293 6.81037 2.59493 4.82937 4.57593C1.72737 7.67893 0.881368 12.4409 2.70637 16.3749C2.73937 16.5369 2.65037 17.1959 2.58637 17.6779C2.34437 19.4839 2.22037 20.8099 2.83337 21.4239C3.44537 22.0369 4.77037 21.9129 6.57637 21.6699C7.05837 21.6059 7.72537 21.5199 7.82937 21.5309C9.23537 22.1819 10.7384 22.4969 12.2304 22.4969C14.9684 22.4969 17.6704 21.4349 19.6774 19.4269C23.7704 15.3319 23.7714 8.66993 19.6774 4.57593Z" fill="currentColor"/>
<path d="M15.1967 12.416C15.1967 12.969 15.6497 13.416 16.2017 13.416C16.7537 13.416 17.2017 12.969 17.2017 12.416C17.2017 11.863 16.7537 11.416 16.2017 11.416H16.1927C15.6397 11.416 15.1967 11.863 15.1967 12.416Z" fill="currentColor"/>
<path d="M11.1877 12.416C11.1877 12.969 11.6397 13.416 12.1927 13.416C12.7447 13.416 13.1927 12.969 13.1927 12.416C13.1927 11.863 12.7447 11.416 12.1927 11.416H12.1837C11.6317 11.416 11.1877 11.863 11.1877 12.416Z" fill="currentColor"/>
<path d="M7.17969 12.416C7.17969 12.969 7.63169 13.416 8.18369 13.416C8.73569 13.416 9.18369 12.969 9.18369 12.416C9.18369 11.863 8.73569 11.416 8.18369 11.416H8.17469C7.62169 11.416 7.17969 11.863 7.17969 12.416Z" fill="currentColor"/>
</svg>
