<svg width="25" height="25" viewBox="0 0 25 25" fill="none" xmlns="http://www.w3.org/2000/svg">
<path opacity="0.4" fill-rule="evenodd" clip-rule="evenodd" d="M12.25 2.78467C5.052 2.78467 2.5 5.33667 2.5 12.5347C2.5 19.7327 5.052 22.2847 12.25 22.2847C19.448 22.2847 22 19.7327 22 12.5347C22 5.33667 19.448 2.78467 12.25 2.78467Z" fill="currentColor"/>
<path d="M11.5 16.0346C11.5 16.4486 11.841 16.7846 12.255 16.7846C12.669 16.7846 13.005 16.4486 13.005 16.0346C13.005 15.6206 12.669 15.2846 12.255 15.2846H12.246C11.832 15.2846 11.5 15.6206 11.5 16.0346Z" fill="currentColor"/>
<path d="M12.251 7.88965C11.837 7.88965 11.501 8.22565 11.501 8.63965V12.5346C11.501 12.9486 11.837 13.2846 12.251 13.2846C12.665 13.2846 13.001 12.9486 13.001 12.5346V8.63965C13.001 8.22565 12.665 7.88965 12.251 7.88965Z" fill="currentColor"/>
</svg>
