<svg width="25" height="25" viewBox="0 0 25 25" fill="none" xmlns="http://www.w3.org/2000/svg">
<path opacity="0.4" fill-rule="evenodd" clip-rule="evenodd" d="M19.3106 10.6927L19.0986 10.3187C16.1126 5.00867 14.2566 3.03467 12.2506 3.03467C10.2446 3.03467 8.38857 5.00867 5.40257 10.3187L5.19157 10.6927C4.11857 12.5747 1.88857 16.4897 2.30257 18.8257C2.79057 21.5887 5.63557 22.0347 12.2506 22.0347C18.8666 22.0347 21.7116 21.5887 22.1986 18.8257C22.6126 16.4897 20.3826 12.5747 19.3106 10.6927Z" fill="currentColor"/>
<path d="M11.501 16.4297C11.501 16.8437 11.841 17.1797 12.255 17.1797C12.669 17.1797 13.005 16.8437 13.005 16.4297C13.005 16.0157 12.669 15.6797 12.255 15.6797H12.246C11.832 15.6797 11.501 16.0157 11.501 16.4297Z" fill="currentColor"/>
<path d="M12.25 8.28467C11.836 8.28467 11.5 8.62067 11.5 9.03467V12.9297C11.5 13.3437 11.836 13.6797 12.25 13.6797C12.664 13.6797 13 13.3437 13 12.9297V9.03467C13 8.62067 12.664 8.28467 12.25 8.28467Z" fill="currentColor"/>
</svg>
