<svg width="25" height="25" viewBox="0 0 25 25" fill="none" xmlns="http://www.w3.org/2000/svg">
<path fill-rule="evenodd" clip-rule="evenodd" d="M20.3258 6.37833H16.1848C16.1438 5.72433 15.9628 4.80233 15.3118 4.05433C14.6238 3.26333 13.5938 2.86133 12.2498 2.86133C10.9068 2.86133 9.87678 3.26333 9.18878 4.05433C8.53778 4.80233 8.35578 5.72433 8.31478 6.37833H4.17578C3.76178 6.37833 3.42578 6.71433 3.42578 7.12833C3.42578 7.54233 3.76178 7.87833 4.17578 7.87833H20.3258C20.7398 7.87833 21.0758 7.54233 21.0758 7.12833C21.0758 6.71433 20.7398 6.37833 20.3258 6.37833Z" fill="currentColor"/>
<path opacity="0.4" fill-rule="evenodd" clip-rule="evenodd" d="M19.3499 10.2017C19.3499 9.92566 19.1259 9.70166 18.8499 9.70166H5.65394C5.37694 9.70166 5.15395 9.92566 5.15395 10.2017C5.15395 11.1987 5.13595 12.1277 5.11895 12.9887C5.04495 16.7377 4.99595 19.2147 6.51095 20.7597C7.58695 21.8567 9.35394 22.3467 12.2409 22.3467C15.1309 22.3467 16.9009 21.8557 17.9799 20.7567C19.5019 19.2047 19.4539 16.7157 19.3829 12.9457C19.3669 12.0967 19.3499 11.1817 19.3499 10.2017Z" fill="currentColor"/>
</svg>
