<svg width="25" height="24" viewBox="0 0 25 24" fill="none" xmlns="http://www.w3.org/2000/svg">
<path opacity="0.4" fill-rule="evenodd" clip-rule="evenodd" d="M12.25 2.25C5.051 2.25 2.5 4.802 2.5 12C2.5 19.198 5.051 21.75 12.25 21.75C19.449 21.75 22 19.198 22 12C22 4.802 19.449 2.25 12.25 2.25Z" fill="currentColor"/>
<path d="M14.4523 13.7558L15.8693 9.22783C15.9443 8.98883 15.8803 8.72683 15.7023 8.54883C15.5253 8.37083 15.2633 8.30483 15.0233 8.38183L10.4933 9.79883C10.2823 9.86483 10.1163 10.0298 10.0503 10.2418L8.63226 14.7718C8.55726 15.0118 8.62226 15.2738 8.79926 15.4508C8.92826 15.5798 9.10126 15.6488 9.27726 15.6488C9.34526 15.6488 9.41226 15.6388 9.47926 15.6178L14.0093 14.1998C14.2203 14.1338 14.3863 13.9678 14.4523 13.7558Z" fill="currentColor"/>
</svg>
