<svg width="25" height="24" viewBox="0 0 25 24" fill="none" xmlns="http://www.w3.org/2000/svg">
<path opacity="0.4" fill-rule="evenodd" clip-rule="evenodd" d="M16.65 7.28704C15.53 7.20704 14.3499 7.16723 13.1199 7.15723H11.6199C10.4099 7.16723 9.15 7.21704 7.85 7.28704H7.83C3.8 7.65704 2.5 9.48704 2.5 14.787C2.5 22.387 5.35 22.387 12.25 22.387C19.15 22.387 22 22.387 22 14.787C22 9.48704 20.7 7.65704 16.65 7.28704Z" fill="currentColor"/>
<path fill-rule="evenodd" clip-rule="evenodd" d="M12.9998 12.5917L14.6388 10.9487C14.7848 10.8017 14.9778 10.7277 15.1698 10.7277C15.3608 10.7277 15.5528 10.8017 15.6988 10.9467C15.9928 11.2397 15.9928 11.7147 15.7008 12.0077L12.7808 14.9357C12.4998 15.2187 11.9998 15.2187 11.7188 14.9357L8.79883 12.0077C8.50683 11.7147 8.50683 11.2397 8.80083 10.9467C9.09483 10.6547 9.56883 10.6547 9.86083 10.9487L11.4998 12.5917V2.35484C11.4998 1.94316 11.8454 1.61258 12.257 1.61259C12.6689 1.61259 12.9998 1.94353 12.9998 2.35544V12.5917Z" fill="currentColor"/>
</svg>
