<svg width="25" height="25" viewBox="0 0 25 25" fill="none" xmlns="http://www.w3.org/2000/svg">
<path fill-rule="evenodd" clip-rule="evenodd" d="M9.61593 8.34336C9.71538 8.2111 9.90314 8.18434 10.0356 8.28355L15.2156 12.1639C15.3483 12.2634 15.3751 12.4516 15.2756 12.5842L10.4559 19.004C9.2959 20.554 7.5459 20.864 6.3359 20.864C5.5859 20.864 5.0459 20.744 4.9859 20.734C4.8559 20.704 4.7359 20.614 4.6659 20.494C4.5959 20.364 2.8759 17.304 4.7959 14.754L9.61593 8.34336Z" fill="currentColor"/>
<path opacity="0.4" fill-rule="evenodd" clip-rule="evenodd" d="M17.205 10.0142L16.535 10.905C16.4356 11.0372 16.2478 11.0639 16.1154 10.9647L10.9346 7.0837C10.8022 6.98452 10.7751 6.79689 10.874 6.66427L11.545 5.76424C12.235 4.83424 13.305 4.34424 14.385 4.34424C15.125 4.34424 15.865 4.57424 16.505 5.05424C17.255 5.62424 17.745 6.45424 17.885 7.38424C18.015 8.32424 17.775 9.25424 17.205 10.0142Z" fill="currentColor"/>
<path opacity="0.4" fill-rule="evenodd" clip-rule="evenodd" d="M19.8575 19.3521H13.4805C13.0665 19.3521 12.7305 19.6881 12.7305 20.1021C12.7305 20.5161 13.0665 20.8521 13.4805 20.8521H19.8575C20.2715 20.8521 20.6075 20.5161 20.6075 20.1021C20.6075 19.6881 20.2715 19.3521 19.8575 19.3521Z" fill="currentColor"/>
</svg>
