<svg width="25" height="25" viewBox="0 0 25 25" fill="none" xmlns="http://www.w3.org/2000/svg">
<path fill-rule="evenodd" clip-rule="evenodd" d="M12.25 3.10495H11.979C8.932 3.09395 6.72 3.10395 5.226 3.50895C3.537 3.96695 2.75 4.98295 2.75 6.70495C2.75 8.84253 4.67625 10.4803 6.53891 12.064L6.54 12.0649C8.182 13.4589 9.733 14.7779 9.733 16.2029C9.733 19.6276 9.733 22.103 12.25 22.1049V3.10495Z" fill="currentColor"/>
<path opacity="0.4" d="M12.2529 22.105L12.25 3.10498H12.5181C15.574 3.10596 17.7781 3.104 19.2729 3.50879C20.9619 3.9668 21.75 4.98291 21.75 6.70508C21.75 8.84277 19.823 10.481 17.96 12.0649C16.3169 13.459 14.7671 14.7778 14.7671 16.2031C14.7671 19.6289 14.7671 22.105 12.2529 22.105Z" fill="currentColor"/>
</svg>
