<svg width="25" height="25" viewBox="0 0 25 25" fill="none" xmlns="http://www.w3.org/2000/svg">
<g opacity="0.4">
<path fill-rule="evenodd" clip-rule="evenodd" d="M10.7347 16.8486H4.26172C3.70972 16.8486 3.26172 17.2956 3.26172 17.8486C3.26172 18.4016 3.70972 18.8486 4.26172 18.8486H10.7347C11.2867 18.8486 11.7347 18.4016 11.7347 17.8486C11.7347 17.2956 11.2867 16.8486 10.7347 16.8486Z" fill="currentColor"/>
<path fill-rule="evenodd" clip-rule="evenodd" d="M20.2386 6.35938H13.7676C13.2156 6.35938 12.7676 6.80638 12.7676 7.35938C12.7676 7.91237 13.2156 8.35938 13.7676 8.35938H20.2386C20.7906 8.35938 21.2386 7.91237 21.2386 7.35938C21.2386 6.80638 20.7906 6.35938 20.2386 6.35938Z" fill="currentColor"/>
</g>
<path fill-rule="evenodd" clip-rule="evenodd" d="M17.5174 14.6276C15.1994 14.6276 14.2954 15.5306 14.2954 17.8496C14.2954 20.1686 15.1994 21.0716 17.5174 21.0716C19.8364 21.0716 20.7394 20.1686 20.7394 17.8496C20.7394 15.5306 19.8364 14.6276 17.5174 14.6276Z" fill="currentColor"/>
<path fill-rule="evenodd" clip-rule="evenodd" d="M6.98372 10.5807C9.30272 10.5807 10.2057 9.67772 10.2057 7.35772C10.2057 5.03972 9.30272 4.13672 6.98372 4.13672C4.66472 4.13672 3.76172 5.03972 3.76172 7.35772C3.76172 9.67772 4.66472 10.5807 6.98372 10.5807Z" fill="currentColor"/>
</svg>
