<svg width="25" height="25" viewBox="0 0 25 25" fill="none" xmlns="http://www.w3.org/2000/svg">
<path opacity="0.4" fill-rule="evenodd" clip-rule="evenodd" d="M11.522 6.88948C4.66243 7.0259 2.20117 9.14613 2.20117 14.7928C2.20117 20.6348 4.83117 22.7068 12.2502 22.7068C19.6682 22.7068 22.2972 20.6348 22.2972 14.7928C22.2972 9.67057 20.2774 7.44742 14.7826 6.97694C13.6606 6.89922 12.3466 6.88475 11.522 6.88948Z" fill="currentColor"/>
<path d="M13.5831 6.90404V6.36104C13.5631 4.85204 12.3391 3.59704 10.8131 3.64404H9.79206C9.64906 3.64404 9.51406 3.58904 9.41206 3.48904C9.30806 3.38704 9.25106 3.25204 9.24906 3.10704C9.24506 2.69204 8.88906 2.33904 8.49206 2.36404C8.07806 2.36804 7.74506 2.70704 7.74906 3.12104C7.76006 4.24104 8.67406 5.14404 9.78506 5.14404H10.8271C11.5111 5.14404 12.0741 5.69804 12.0831 6.37204V6.88304C11.5618 6.88533 13.5831 6.90404 13.5831 6.90404Z" fill="currentColor"/>
<path d="M11.064 15.498H9.99002V16.536C9.99002 16.95 9.65402 17.286 9.24002 17.286C8.82602 17.286 8.49002 16.95 8.49002 16.536V15.498H7.41602C7.00202 15.498 6.66602 15.162 6.66602 14.748C6.66602 14.334 7.00202 13.998 7.41602 13.998H8.49002V12.96C8.49002 12.546 8.82602 12.21 9.24002 12.21C9.65402 12.21 9.99002 12.546 9.99002 12.96V13.998H11.064C11.478 13.998 11.814 14.334 11.814 14.748C11.814 15.162 11.478 15.498 11.064 15.498Z" fill="currentColor"/>
<path d="M15.36 13.819H15.462C15.876 13.819 16.212 13.483 16.212 13.069C16.212 12.655 15.876 12.319 15.462 12.319H15.36C14.946 12.319 14.61 12.655 14.61 13.069C14.61 13.483 14.946 13.819 15.36 13.819Z" fill="currentColor"/>
<path d="M17.091 17.231H17.193C17.607 17.231 17.943 16.895 17.943 16.481C17.943 16.067 17.607 15.731 17.193 15.731H17.091C16.677 15.731 16.341 16.067 16.341 16.481C16.341 16.895 16.677 17.231 17.091 17.231Z" fill="currentColor"/>
</svg>
