<svg viewBox="0 0 25 24" fill="none" xmlns="http://www.w3.org/2000/svg">
    <path opacity="0.4" fill-rule="evenodd" clip-rule="evenodd"
        d="M15.382 12.9724C13.973 13.0184 12.378 13.0684 11.688 12.3784C10.941 11.6304 10.883 9.98136 10.836 8.65536C10.792 7.40336 10.757 6.41336 10.249 5.90636C9.65597 5.31336 8.66497 5.24336 7.53097 5.71136C5.17397 6.68836 2.66797 9.73336 2.66797 13.4514C2.66797 17.9724 6.34697 21.6514 10.869 21.6514C15.29 21.6514 17.863 18.2854 18.687 16.2974C19.206 15.0454 19.214 14.0374 18.709 13.5344C18.062 12.8864 16.818 12.9284 15.382 12.9724Z"
        fill="currentColor" />
    <path fill-rule="evenodd" clip-rule="evenodd"
        d="M21.7677 7.74265C21.3307 5.65665 18.6687 3.09965 16.2887 2.48065C15.1217 2.17565 14.1377 2.40365 13.5177 3.11765C12.6567 4.10965 12.3717 9.55965 13.3757 10.5637C13.7857 10.9737 14.8207 11.1477 16.0127 11.1477C17.9027 11.1477 20.1847 10.7097 20.9937 10.0737C21.6927 9.52365 21.9677 8.69565 21.7677 7.74265Z"
        fill="currentColor" />
</svg>