<svg width="25" height="24" viewBox="0 0 25 24" fill="none" xmlns="http://www.w3.org/2000/svg">
<path opacity="0.4" fill-rule="evenodd" clip-rule="evenodd" d="M17.8258 3.28404C16.1058 2.73404 13.7248 2.96204 12.2388 4.64804C10.6778 2.97404 8.37777 2.73104 6.66977 3.28504C2.75477 4.54504 1.53377 9.08104 2.64777 12.56V12.561C4.40577 18.032 10.2508 20.983 12.2528 20.983C14.0398 20.983 20.1168 18.087 21.8548 12.56C22.9688 9.08204 21.7448 4.54604 17.8258 3.28404Z" fill="currentColor"/>
<path d="M17.8832 10.6981H17.9082C18.3102 10.6981 18.6432 10.3791 18.6572 9.97313C18.7162 8.22713 17.6752 6.94413 16.0672 6.78013C15.6572 6.73613 15.2872 7.03913 15.2442 7.45013C15.2022 7.86213 15.5022 8.23013 15.9142 8.27213C16.7252 8.35513 17.1902 8.97213 17.1582 9.92313C17.1442 10.3371 17.4692 10.6831 17.8832 10.6981Z" fill="currentColor"/>
</svg>
