<svg width="25" height="25" viewBox="0 0 25 25" fill="none" xmlns="http://www.w3.org/2000/svg">
<path fill-rule="evenodd" clip-rule="evenodd" d="M8.34 12.5177C8.34 10.3577 10.09 8.60771 12.25 8.60771C13.01 8.60771 13.73 8.82771 14.33 9.21771L13.23 10.3177C12.93 10.1777 12.6 10.1077 12.25 10.1077C10.92 10.1077 9.84 11.1877 9.84 12.5177C9.84 12.8677 9.91 13.1977 10.05 13.4977L8.94 14.6077C8.56 14.0077 8.34 13.2877 8.34 12.5177ZM11.06 14.6177L14.35 11.3377L15.43 10.2477L18.73 6.95771L18.72 6.94771L20.42 5.24771C20.72 4.95771 20.72 4.47771 20.42 4.18771C20.13 3.89771 19.65 3.89771 19.36 4.18771L17.44 6.10771C15.94 5.25771 14.16 4.71771 12.25 4.71771C6.85 4.71771 2.5 8.98771 2.5 12.5177C2.5 14.3677 3.69 16.4177 5.6 17.9477L3.59 19.9577C3.29 20.2577 3.29 20.7277 3.59 21.0177C3.73 21.1677 3.93 21.2377 4.12 21.2377C4.31 21.2377 4.5 21.1677 4.65 21.0177L5.72 19.9577L6.85 18.8177H6.86L11.06 14.6177Z" fill="currentColor"/>
<path opacity="0.4" fill-rule="evenodd" clip-rule="evenodd" d="M19.8495 7.95752L16.0795 11.7275C16.1295 11.9875 16.1595 12.2475 16.1595 12.5175C16.1595 14.6775 14.3995 16.4275 12.2495 16.4275C11.9795 16.4275 11.7195 16.3975 11.4595 16.3475H11.4495L8.26953 19.5275C9.47953 20.0175 10.8295 20.3175 12.2495 20.3175C17.6495 20.3175 21.9995 16.0575 21.9995 12.5175C21.9995 10.9975 21.1895 9.34752 19.8495 7.95752Z" fill="currentColor"/>
</svg>
