<svg width="25" height="25" viewBox="0 0 25 25" fill="none" xmlns="http://www.w3.org/2000/svg">
<path opacity="0.4" fill-rule="evenodd" clip-rule="evenodd" d="M6.726 15.23C7.911 14.674 8.869 15.018 9.796 15.352C10.495 15.604 11.219 15.864 12.22 15.864C12.998 15.864 13.457 15.177 14.12 14.043C14.78 12.916 15.601 11.513 17.259 11.513C19.563 11.513 20.991 12.966 21.959 14.037C21.984 13.579 22 13.105 22 12.604C22 5.405 19.448 2.854 12.25 2.854C5.052 2.854 2.5 5.405 2.5 12.604C2.5 15.289 2.856 17.327 3.676 18.828C4.192 17.811 5.314 15.893 6.726 15.23Z" fill="currentColor"/>
<path fill-rule="evenodd" clip-rule="evenodd" d="M21.4828 15.7357C21.3358 15.5847 21.1798 15.4117 21.0128 15.2247C20.1288 14.2397 19.0278 13.0127 17.2598 13.0127C16.5158 13.0127 16.0668 13.6887 15.4168 14.8007C14.7478 15.9437 13.9168 17.3647 12.2208 17.3647C10.9578 17.3647 10.0328 17.0317 9.28878 16.7627C8.41278 16.4467 7.96078 16.3067 7.36578 16.5877C6.23378 17.1197 5.09778 19.2657 4.75578 20.0477C4.73578 20.0957 4.70478 20.1347 4.67578 20.1767C6.21278 21.7157 8.65078 22.3537 12.2518 22.3537C18.2108 22.3537 20.9788 20.5957 21.7578 15.9097C21.6568 15.8717 21.5628 15.8177 21.4828 15.7357Z" fill="currentColor"/>
<path d="M11.3501 9.38795C11.3501 8.14195 10.3351 7.12695 9.08913 7.12695C7.84313 7.12695 6.82812 8.14195 6.82812 9.38795C6.82812 10.634 7.84313 11.648 9.08913 11.648C10.3351 11.648 11.3501 10.634 11.3501 9.38795Z" fill="currentColor"/>
</svg>
