<svg width="25" height="25" viewBox="0 0 25 25" fill="none" xmlns="http://www.w3.org/2000/svg">
<path opacity="0.4" d="M9.1864 9.20312C9.22705 9.19717 9.2678 9.19162 9.30863 9.18649C9.45402 9.16821 9.64677 9.14235 9.87899 9.11013C10.5919 9.03177 11.3804 8.99463 12.2498 8.99463C18.2738 8.99463 20.4098 10.7666 20.4098 15.7656C20.4098 20.7656 18.2738 22.5376 12.2498 22.5376C6.22584 22.5376 4.08984 20.7656 4.08984 15.7656C4.08984 13.0651 4.71636 11.3089 6.23917 10.2636C6.6383 10.0183 7.65033 9.5105 8.79725 9.27221C8.92404 9.24745 9.05374 9.22443 9.1864 9.20312Z" fill="currentColor"/>
<path d="M8.4375 9.34841V7.91641C8.4705 5.84241 10.1215 4.19741 12.1975 4.17041C13.2285 4.14241 14.1795 4.54241 14.9085 5.25341C15.6365 5.96441 16.0455 6.91541 16.0575 7.92441V9.3479C16.6177 9.47807 17.1163 9.64634 17.5575 9.85617V7.91541C17.5395 6.49641 16.9715 5.16941 15.9545 4.17941C14.9395 3.18941 13.5855 2.69841 12.1775 2.67041C9.2865 2.70741 6.9845 5.00141 6.9375 7.90541V9.86241L8.4375 9.34841Z" fill="currentColor"/>
<path d="M12.9985 17.0477C12.9985 17.4617 12.6625 17.7977 12.2485 17.7977C11.8345 17.7977 11.4985 17.4617 11.4985 17.0477V14.8267C11.4985 14.4127 11.8345 14.0767 12.2485 14.0767C12.6625 14.0767 12.9985 14.4127 12.9985 14.8267V17.0477Z" fill="currentColor"/>
</svg>
