<svg width="25" height="24" viewBox="0 0 25 24" fill="none" xmlns="http://www.w3.org/2000/svg">
<path opacity="0.4" fill-rule="evenodd" clip-rule="evenodd" d="M7.53802 7.6C7.45802 8.72 7.4182 9.90005 7.4082 11.1301L7.4082 12.6301C7.4182 13.8401 7.46802 15.1 7.53802 16.4L7.53802 16.42C7.90802 20.45 9.73802 21.75 15.038 21.75C22.638 21.75 22.638 18.9 22.638 12C22.638 5.1 22.638 2.25 15.038 2.25C9.73802 2.25 7.90802 3.55 7.53802 7.6Z" fill="currentColor"/>
<path fill-rule="evenodd" clip-rule="evenodd" d="M12.8422 11.2497L11.1992 9.61068C11.0522 9.46468 10.9782 9.27168 10.9782 9.07968C10.9782 8.88868 11.0522 8.69668 11.1972 8.55068C11.4902 8.25668 11.9652 8.25668 12.2582 8.54868L15.1862 11.4687C15.4692 11.7497 15.4692 12.2497 15.1862 12.5307L12.2582 15.4507C11.9652 15.7427 11.4902 15.7427 11.1972 15.4487C10.9052 15.1547 10.9052 14.6807 11.1992 14.3887L12.8422 12.7497L2.60532 12.7497C2.19365 12.7497 1.86307 12.4042 1.86307 11.9925C1.86308 11.5806 2.19402 11.2497 2.60592 11.2497L12.8422 11.2497Z" fill="currentColor"/>
</svg>
