<svg width="25" height="24" viewBox="0 0 25 24" fill="none" xmlns="http://www.w3.org/2000/svg">
<path opacity="0.4" fill-rule="evenodd" clip-rule="evenodd" d="M2.00091 7.71035C1.92091 8.83035 1.88109 10.0104 1.87109 11.2404L1.87109 12.7404C1.88109 13.9504 1.93091 15.2104 2.00091 16.5104L2.00091 16.5304C2.37091 20.5604 4.20091 21.8604 9.50091 21.8604C17.1009 21.8604 17.1009 19.0104 17.1009 12.1104C17.1009 5.21035 17.1009 2.36035 9.50091 2.36035C4.20091 2.36035 2.37091 3.66035 2.00091 7.71035Z" fill="currentColor"/>
<path fill-rule="evenodd" clip-rule="evenodd" d="M20.0746 11.36L18.4316 9.72104C18.2846 9.57504 18.2106 9.38203 18.2106 9.19004C18.2106 8.99904 18.2846 8.80703 18.4296 8.66103C18.7226 8.36703 19.1976 8.36704 19.4906 8.65903L22.4186 11.579C22.7016 11.86 22.7016 12.36 22.4186 12.641L19.4906 15.561C19.1976 15.853 18.7226 15.853 18.4296 15.559C18.1376 15.265 18.1376 14.791 18.4316 14.499L20.0746 12.86L9.83775 12.86C9.42607 12.86 9.09549 12.5145 9.0955 12.1028C9.0955 11.6909 9.42644 11.36 9.83835 11.36L20.0746 11.36Z" fill="currentColor"/>
</svg>
