<svg width="25" height="25" viewBox="0 0 25 25" fill="none" xmlns="http://www.w3.org/2000/svg">
<path opacity="0.4" fill-rule="evenodd" clip-rule="evenodd" d="M12.2506 2.91748C4.84956 2.91748 2.22656 5.43348 2.22656 12.5345C2.22656 19.6345 4.84956 22.1515 12.2506 22.1515C19.6516 22.1515 22.2746 19.6345 22.2746 12.5345C22.2746 5.43348 19.6516 2.91748 12.2506 2.91748Z" fill="currentColor"/>
<path d="M12.2608 14.1873C14.8838 14.1873 18.0428 10.4863 18.3948 10.0643C18.6598 9.74629 18.6168 9.27329 18.2988 9.00729C17.9808 8.74429 17.5078 8.78629 17.2428 9.10329C16.0868 10.4893 13.7118 12.6873 12.2608 12.6873C10.8088 12.6873 8.41185 10.4873 7.24085 9.10029C6.97385 8.78429 6.50085 8.74229 6.18485 9.01029C5.86785 9.27729 5.82785 9.75029 6.09385 10.0673C6.44985 10.4893 9.64085 14.1873 12.2608 14.1873Z" fill="currentColor"/>
</svg>
