<svg width="25" height="24" viewBox="0 0 25 24" fill="none" xmlns="http://www.w3.org/2000/svg">
    <g id="Iconly/Curved/Bulk/Minus">
        <path id="Vector" opacity="0.5"
            d="M12.8311 22C8.11705 22 5.76005 22 4.29505 20.535C2.83105 19.072 2.83105 16.714 2.83105 12C2.83105 7.286 2.83105 4.929 4.29505 3.464C5.76105 2 8.11705 2 12.8311 2C17.5451 2 19.9021 2 21.3661 3.464C22.8311 4.93 22.8311 7.286 22.8311 12C22.8311 16.714 22.8311 19.071 21.3661 20.535C19.9031 22 17.5451 22 12.8311 22Z"
            fill="currentColor" />
        <path id="Vector_2"
            d="M15.8311 12.75C16.03 12.75 16.2207 12.671 16.3614 12.5303C16.502 12.3897 16.5811 12.1989 16.5811 12C16.5811 11.8011 16.502 11.6103 16.3614 11.4697C16.2207 11.329 16.03 11.25 15.8311 11.25H9.83105C9.63214 11.25 9.44138 11.329 9.30072 11.4697C9.16007 11.6103 9.08105 11.8011 9.08105 12C9.08105 12.1989 9.16007 12.3897 9.30072 12.5303C9.44138 12.671 9.63214 12.75 9.83105 12.75H15.8311Z"
            fill="currentColor" />
    </g>
</svg>