<svg width="25" height="25" viewBox="0 0 25 25" fill="none" xmlns="http://www.w3.org/2000/svg">
<path opacity="0.4" fill-rule="evenodd" clip-rule="evenodd" d="M12.25 2.78467C5.051 2.78467 2.5 5.33567 2.5 12.5347C2.5 19.7327 5.051 22.2847 12.25 22.2847C19.449 22.2847 22 19.7327 22 12.5347C22 5.33567 19.449 2.78467 12.25 2.78467Z" fill="currentColor"/>
<path d="M14.4582 14.4346C14.4582 14.9876 14.9102 15.4346 15.4622 15.4346C16.0142 15.4346 16.4622 14.9876 16.4622 14.4346C16.4622 13.8816 16.0142 13.4346 15.4622 13.4346H15.4532C14.9012 13.4346 14.4582 13.8816 14.4582 14.4346Z" fill="currentColor"/>
<path d="M11.4582 10.4346C11.4582 10.9876 11.9102 11.4346 12.4622 11.4346C13.0142 11.4346 13.4622 10.9876 13.4622 10.4346C13.4622 9.88157 13.0142 9.43457 12.4622 9.43457H12.4532C11.9012 9.43457 11.4582 9.88157 11.4582 10.4346Z" fill="currentColor"/>
<path d="M8.44922 14.4346C8.44922 14.9876 8.90222 15.4346 9.45422 15.4346C10.0062 15.4346 10.4542 14.9876 10.4542 14.4346C10.4542 13.8816 10.0062 13.4346 9.45422 13.4346H9.44522C8.89322 13.4346 8.44922 13.8816 8.44922 14.4346Z" fill="currentColor"/>
</svg>
