<svg width="25" height="24" viewBox="0 0 25 24" fill="none" xmlns="http://www.w3.org/2000/svg">
<path opacity="0.4" fill-rule="evenodd" clip-rule="evenodd" d="M19.8781 13.9622C19.0311 12.0992 19.0531 11.3982 19.0921 10.1242C19.1021 9.82317 19.1121 9.49617 19.1121 9.12117C19.1121 6.14417 16.9831 1.95117 12.2511 1.95117C7.51909 1.95117 5.39009 6.14417 5.39009 9.12117C5.39009 9.49517 5.40009 9.82317 5.41009 10.1242C5.44909 11.3982 5.47009 12.0992 4.61409 13.9872C4.24809 14.9312 4.29209 15.7462 4.74709 16.4102C5.83909 18.0082 8.99909 18.2282 12.2511 18.2282C15.5031 18.2282 18.6631 18.0082 19.7551 16.4102C20.2111 15.7462 20.2551 14.9312 19.8781 13.9622Z" fill="currentColor"/>
<path fill-rule="evenodd" clip-rule="evenodd" d="M14.9491 19.2407C13.3181 19.4217 11.5501 19.4207 9.54009 19.2387C9.23909 19.2147 8.94109 19.3737 8.80309 19.6487C8.66409 19.9247 8.70809 20.2557 8.91309 20.4857C9.81309 21.4927 10.9971 22.0487 12.2471 22.0487H12.2491C13.5021 22.0487 14.6891 21.4937 15.5911 20.4857C15.7981 20.2547 15.8411 19.9187 15.6991 19.6417C15.5561 19.3667 15.2621 19.2127 14.9491 19.2407Z" fill="currentColor"/>
</svg>
