<svg width="25" height="24" viewBox="0 0 25 24" fill="none" xmlns="http://www.w3.org/2000/svg">
<path opacity="0.4" fill-rule="evenodd" clip-rule="evenodd" d="M17.2605 8.674C15.6145 8.674 14.2705 7.34 14.2705 5.694V3.652L19.5525 8.674H17.2605ZM20.9555 8.85C20.9555 8.81 20.9555 8.78 20.9455 8.74C20.9155 8.56 20.8855 8.38 20.8555 8.21C20.8355 8.1 20.7855 8.01 20.7055 7.93L15.0355 2.53C14.9655 2.46 14.8655 2.41 14.7655 2.4C14.5955 2.38 14.4155 2.36 14.2355 2.34C14.2055 2.33 14.1655 2.33 14.1355 2.33C13.5555 2.28 12.9155 2.25 12.2455 2.25C5.68547 2.25 3.35547 4.8 3.35547 12C3.35547 19.19 5.68547 21.75 12.2455 21.75C18.8155 21.75 21.1455 19.19 21.1455 12C21.1455 10.8 21.0855 9.76 20.9555 8.85Z" fill="currentColor"/>
<path d="M13.8161 15.3371C14.1091 15.0441 14.1091 14.5701 13.8161 14.2771L12.6141 13.0741L13.8171 11.8711C14.1101 11.5781 14.1101 11.1041 13.8171 10.8111C13.5241 10.5181 13.0501 10.5181 12.7571 10.8111L11.5541 12.0141L10.3501 10.8111C10.0581 10.5181 9.58306 10.5181 9.29006 10.8111C8.99706 11.1041 8.99706 11.5781 9.29006 11.8711L10.4931 13.0741L9.29106 14.2771C8.99806 14.5701 8.99806 15.0441 9.29106 15.3371C9.43706 15.4841 9.62906 15.5571 9.82106 15.5571C10.0141 15.5571 10.2051 15.4841 10.3511 15.3371L11.5541 14.1351L12.7561 15.3371C12.9021 15.4841 13.0941 15.5571 13.2861 15.5571C13.4781 15.5571 13.6701 15.4841 13.8161 15.3371Z" fill="currentColor"/>
</svg>
