<svg width="25" height="24" viewBox="0 0 25 24" fill="none" xmlns="http://www.w3.org/2000/svg">
<path opacity="0.4" fill-rule="evenodd" clip-rule="evenodd" d="M17.2605 8.674C15.6145 8.674 14.2705 7.34 14.2705 5.694V3.652L19.5525 8.674H17.2605ZM20.9555 8.85C20.9555 8.81 20.9555 8.78 20.9455 8.74C20.9155 8.56 20.8855 8.38 20.8555 8.21C20.8355 8.1 20.7855 8.01 20.7055 7.93L15.0355 2.53C14.9655 2.46 14.8655 2.41 14.7655 2.4C14.5955 2.38 14.4155 2.36 14.2355 2.34C14.2055 2.33 14.1655 2.33 14.1355 2.33C13.5555 2.28 12.9155 2.25 12.2455 2.25C5.68547 2.25 3.35547 4.8 3.35547 12C3.35547 19.19 5.68547 21.75 12.2455 21.75C18.8155 21.75 21.1455 19.19 21.1455 12C21.1455 10.8 21.0855 9.76 20.9555 8.85Z" fill="currentColor"/>
<path d="M12.282 13.823H13.981C14.395 13.823 14.731 13.488 14.731 13.073C14.731 12.659 14.395 12.323 13.981 12.323H12.282V10.623C12.282 10.209 11.946 9.87305 11.532 9.87305C11.118 9.87305 10.782 10.209 10.782 10.623V12.323H9.08203C8.66703 12.323 8.33203 12.659 8.33203 13.073C8.33203 13.488 8.66703 13.823 9.08203 13.823H10.782V15.523C10.782 15.937 11.118 16.273 11.532 16.273C11.946 16.273 12.282 15.937 12.282 15.523V13.823Z" fill="currentColor"/>
</svg>
