<svg width="25" height="24" viewBox="0 0 25 24" fill="none" xmlns="http://www.w3.org/2000/svg">
<path opacity="0.4" fill-rule="evenodd" clip-rule="evenodd" d="M17.2605 8.674C15.6145 8.674 14.2705 7.34 14.2705 5.694V3.652L19.5525 8.674H17.2605ZM20.9555 8.85C20.9555 8.81 20.9555 8.78 20.9455 8.74C20.9155 8.56 20.8855 8.38 20.8555 8.21C20.8355 8.1 20.7855 8.01 20.7055 7.93L15.0355 2.53C14.9655 2.46 14.8655 2.41 14.7655 2.4C14.5955 2.38 14.4155 2.36 14.2355 2.34C14.2055 2.33 14.1655 2.33 14.1355 2.33C13.5555 2.28 12.9155 2.25 12.2455 2.25C5.68547 2.25 3.35547 4.8 3.35547 12C3.35547 19.19 5.68547 21.75 12.2455 21.75C18.8155 21.75 21.1455 19.19 21.1455 12C21.1455 10.8 21.0855 9.76 20.9555 8.85Z" fill="currentColor"/>
<path d="M11.4252 17.046L13.7702 14.693C14.0622 14.4 14.0622 13.924 13.7682 13.632C13.4742 13.34 13.0002 13.34 12.7082 13.634L11.6432 14.703V10.478C11.6432 10.064 11.3072 9.72803 10.8932 9.72803C10.4792 9.72803 10.1432 10.064 10.1432 10.478V14.702L9.0802 13.634C8.7882 13.34 8.3132 13.34 8.0192 13.632C7.7262 13.924 7.7252 14.399 8.0172 14.693L10.3612 17.046C10.4972 17.183 10.6852 17.269 10.8932 17.269C11.1012 17.269 11.2892 17.183 11.4252 17.046Z" fill="currentColor"/>
</svg>
