<svg width="25" height="24" viewBox="0 0 25 24" fill="none" xmlns="http://www.w3.org/2000/svg">
<path opacity="0.4" fill-rule="evenodd" clip-rule="evenodd" d="M17.2605 8.674C15.6145 8.674 14.2705 7.34 14.2705 5.694V3.652L19.5525 8.674H17.2605ZM20.9555 8.85C20.9555 8.81 20.9555 8.78 20.9455 8.74C20.9155 8.56 20.8855 8.38 20.8555 8.21C20.8355 8.1 20.7855 8.01 20.7055 7.93L15.0355 2.53C14.9655 2.46 14.8655 2.41 14.7655 2.4C14.5955 2.38 14.4155 2.36 14.2355 2.34C14.2055 2.33 14.1655 2.33 14.1355 2.33C13.5555 2.28 12.9155 2.25 12.2455 2.25C5.68547 2.25 3.35547 4.8 3.35547 12C3.35547 19.19 5.68547 21.75 12.2455 21.75C18.8155 21.75 21.1455 19.19 21.1455 12C21.1455 10.8 21.0855 9.76 20.9555 8.85Z" fill="currentColor"/>
<path d="M8.6895 16.2918H14.0885C14.5035 16.2918 14.8385 15.9558 14.8385 15.5418C14.8385 15.1278 14.5035 14.7918 14.0885 14.7918H8.6895C8.2755 14.7918 7.9395 15.1278 7.9395 15.5418C7.9395 15.9558 8.2755 16.2918 8.6895 16.2918Z" fill="currentColor"/>
<path d="M12.0435 10.7808H8.6875C8.2735 10.7808 7.9375 11.1168 7.9375 11.5308C7.9375 11.9458 8.2735 12.2808 8.6875 12.2808H12.0435C12.4575 12.2808 12.7935 11.9458 12.7935 11.5308C12.7935 11.1168 12.4575 10.7808 12.0435 10.7808Z" fill="currentColor"/>
</svg>
