<svg width="25" height="24" viewBox="0 0 25 24" fill="none" xmlns="http://www.w3.org/2000/svg">
<path opacity="0.4" fill-rule="evenodd" clip-rule="evenodd" d="M17.2605 8.674C15.6145 8.674 14.2705 7.34 14.2705 5.694V3.652L19.5525 8.674H17.2605ZM20.9555 8.85C20.9555 8.81 20.9555 8.78 20.9455 8.74C20.9155 8.56 20.8855 8.38 20.8555 8.21C20.8355 8.1 20.7855 8.01 20.7055 7.93L15.0355 2.53C14.9655 2.46 14.8655 2.41 14.7655 2.4C14.5955 2.38 14.4155 2.36 14.2355 2.34C14.2055 2.33 14.1655 2.33 14.1355 2.33C13.5555 2.28 12.9155 2.25 12.2455 2.25C5.68547 2.25 3.35547 4.8 3.35547 12C3.35547 19.19 5.68547 21.75 12.2455 21.75C18.8155 21.75 21.1455 19.19 21.1455 12C21.1455 10.8 21.0855 9.76 20.9555 8.85Z" fill="currentColor"/>
<path d="M13.2412 13.584C13.4322 13.584 13.6242 13.511 13.7702 13.365C14.0632 13.073 14.0652 12.599 13.7722 12.305L11.4282 9.95003C11.2922 9.81303 11.1042 9.72803 10.8962 9.72803C10.6882 9.72803 10.5002 9.81303 10.3642 9.95003L8.01916 12.305C7.72716 12.599 7.72816 13.073 8.02116 13.365C8.31516 13.657 8.79016 13.657 9.08216 13.364L10.1462 12.294V16.519C10.1462 16.933 10.4822 17.269 10.8962 17.269C11.3102 17.269 11.6462 16.933 11.6462 16.519V12.295L12.7102 13.364C12.8562 13.511 13.0482 13.584 13.2412 13.584Z" fill="currentColor"/>
</svg>
