<svg width="25" height="25" viewBox="0 0 25 25" fill="none" xmlns="http://www.w3.org/2000/svg">
<path opacity="0.4" fill-rule="evenodd" clip-rule="evenodd" d="M12.2507 2.29785C4.69167 2.29785 2.01367 4.97585 2.01367 12.5349C2.01367 20.0939 4.69167 22.7719 12.2507 22.7719C19.8087 22.7719 22.4877 20.0939 22.4877 12.5349C22.4877 4.97585 19.8087 2.29785 12.2507 2.29785Z" fill="currentColor"/>
<path d="M12.9999 13.2849H15.8279C16.2419 13.2849 16.5779 12.9489 16.5779 12.5349C16.5779 12.1209 16.2419 11.7849 15.8279 11.7849H12.9999V8.96094C12.9999 8.54694 12.6639 8.21094 12.2499 8.21094C11.8359 8.21094 11.4999 8.54694 11.4999 8.96094V11.7849H8.67188C8.25787 11.7849 7.92188 12.1209 7.92188 12.5349C7.92188 12.9489 8.25787 13.2849 8.67188 13.2849H11.4999V16.1089C11.4999 16.5229 11.8359 16.8589 12.2499 16.8589C12.6639 16.8589 12.9999 16.5229 12.9999 16.1089V13.2849Z" fill="currentColor"/>
</svg>
