<svg width="25" height="25" viewBox="0 0 25 25" fill="none" xmlns="http://www.w3.org/2000/svg">
<path fill-rule="evenodd" clip-rule="evenodd" d="M22.8155 12.6143H1.68555C1.27555 12.6143 0.935547 12.9543 0.935547 13.3643C0.935547 13.7743 1.27555 14.1143 1.68555 14.1143H2.30555C2.34555 14.7543 2.39555 15.3743 2.49555 15.9143V15.9543C3.12555 19.7143 5.09555 21.6643 8.87555 22.2943C8.91555 22.3043 8.96555 22.3043 9.00555 22.3043C9.36555 22.3043 9.67555 22.0443 9.74555 21.6743C9.80555 21.2743 9.53555 20.8843 9.12555 20.8143C5.93555 20.2843 4.49555 18.8343 3.97555 15.6643C3.96555 15.6443 3.96555 15.6343 3.96555 15.6143C3.88555 15.1643 3.84555 14.6543 3.80555 14.1143H5.90555C6.21555 17.9343 8.01555 19.3343 12.3555 19.3343C16.6955 19.3343 18.4955 17.9343 18.8055 14.1143H20.6855C20.6555 14.6643 20.6055 15.1943 20.5255 15.6643V15.7043C19.9955 18.8543 18.5455 20.2843 15.3755 20.8143C14.9655 20.8843 14.6955 21.2743 14.7655 21.6743C14.8255 22.0443 15.1355 22.3043 15.4955 22.3043C15.5455 22.3043 15.5855 22.3043 15.6255 22.2943C19.4255 21.6643 21.3955 19.6943 22.0155 15.9043V15.8643C22.1055 15.3343 22.1555 14.7343 22.1955 14.1143H22.8155C23.2355 14.1143 23.5655 13.7743 23.5655 13.3643C23.5655 12.9543 23.2355 12.6143 22.8155 12.6143Z" fill="currentColor"/>
<g opacity="0.4">
<path fill-rule="evenodd" clip-rule="evenodd" d="M5.94446 11.1145H18.7545C18.3545 7.62453 16.5245 6.33453 12.3545 6.33453C8.18446 6.33453 6.35446 7.62453 5.94446 11.1145Z" fill="currentColor"/>
<path fill-rule="evenodd" clip-rule="evenodd" d="M3.10946 10.0245C3.15046 10.0315 3.19146 10.0345 3.23146 10.0345C3.59246 10.0345 3.91046 9.77352 3.97046 9.40552C4.48546 6.26152 5.97846 4.76952 9.12146 4.25452C9.53046 4.18752 9.80746 3.80252 9.74046 3.39352C9.67446 2.98452 9.28546 2.70852 8.87946 2.77452C5.08246 3.39552 3.11246 5.36652 2.49046 9.16352C2.42346 9.57152 2.70046 9.95752 3.10946 10.0245Z" fill="currentColor"/>
<path fill-rule="evenodd" clip-rule="evenodd" d="M15.3795 4.25491C18.5235 4.76991 20.0155 6.26191 20.5305 9.40491C20.5905 9.77391 20.9085 10.0339 21.2695 10.0339C21.3105 10.0339 21.3505 10.0309 21.3915 10.0249C21.8005 9.95691 22.0775 9.57091 22.0105 9.16291C21.3885 5.36591 19.4185 3.39591 15.6215 2.77491C15.2135 2.70691 14.8275 2.98391 14.7605 3.39391C14.6935 3.80291 14.9705 4.18791 15.3795 4.25491Z" fill="currentColor"/>
</g>
</svg>
