<svg width="25" height="24" viewBox="0 0 25 24" fill="none" xmlns="http://www.w3.org/2000/svg">
<path opacity="0.4" fill-rule="evenodd" clip-rule="evenodd" d="M11.3572 12.8936C11.3702 12.952 11.3849 13.0177 11.4013 13.0901C11.4746 13.413 11.5818 13.869 11.718 14.4029C11.9897 15.4683 12.3795 16.8546 12.8482 18.1153C13.0826 18.7456 13.3397 19.353 13.6156 19.877C13.888 20.3943 14.1947 20.8619 14.5388 21.1863C14.8821 21.5099 15.3421 21.7599 15.8742 21.6333C16.375 21.5141 16.7683 21.0966 17.091 20.5377C18.1393 18.7215 19.5311 14.7631 20.5441 11.084C21.0529 9.23608 21.4724 7.43601 21.7081 5.98448C21.8258 5.25984 21.8996 4.61001 21.9135 4.0788C21.925 3.64064 21.9231 3.14281 21.7115 2.74557C21.6648 2.65784 21.5929 2.58602 21.5052 2.53929C21.108 2.32773 20.6101 2.32577 20.172 2.33724C19.6408 2.35114 18.9909 2.42503 18.2663 2.54271C16.8148 2.77842 15.0147 3.19793 13.1668 3.70671C9.48769 4.71969 5.52926 6.1115 3.71312 7.15982C3.15422 7.48246 2.73666 7.87582 2.61751 8.37661C2.49092 8.90865 2.74088 9.36871 3.0645 9.71196C3.38892 10.056 3.85646 10.3628 4.37378 10.6352C4.89779 10.9111 5.50518 11.1682 6.13546 11.4026C7.3962 11.8713 8.78246 12.2611 9.84788 12.5328C10.3818 12.669 10.8378 12.7762 11.1607 12.8495C11.2331 12.8659 11.2988 12.8806 11.3572 12.8936Z" fill="currentColor"/>
<path fill-rule="evenodd" clip-rule="evenodd" d="M19.0621 5.60297C19.355 5.89586 19.355 6.37074 19.0621 6.66363L13.5303 12.1954C13.2374 12.4883 12.7626 12.4883 12.4697 12.1954C12.1768 11.9025 12.1768 11.4277 12.4697 11.1348L18.0015 5.60297C18.2943 5.31008 18.7692 5.31008 19.0621 5.60297Z" fill="currentColor"/>
</svg>
