<svg width="25" height="24" viewBox="0 0 25 24" fill="none" xmlns="http://www.w3.org/2000/svg">
<path opacity="0.4" fill-rule="evenodd" clip-rule="evenodd" d="M19.7646 12.914C19.4376 12.723 19.2416 12.382 19.2416 12C19.2416 11.618 19.4376 11.277 19.7656 11.087C21.1836 10.262 21.6706 8.43 20.8526 7.001C20.4536 6.307 19.8106 5.811 19.0406 5.604C18.2746 5.401 17.4746 5.507 16.7886 5.906C16.4646 6.096 16.0776 6.096 15.7516 5.907C15.4216 5.718 15.2246 5.375 15.2246 4.992C15.2246 3.343 13.8906 2 12.2506 2C10.6096 2 9.27562 3.343 9.27562 4.992C9.27562 5.376 9.07862 5.718 8.74862 5.908C8.42462 6.094 8.03762 6.096 7.71362 5.906C7.02562 5.507 6.22662 5.399 5.45862 5.605C4.68862 5.812 4.04662 6.308 3.64862 7.002C2.83062 8.431 3.31862 10.263 4.73662 11.086C5.06362 11.276 5.25862 11.618 5.25862 12C5.25862 12.382 5.06362 12.724 4.73662 12.913C3.31862 13.738 2.83062 15.571 3.64862 16.999C4.04662 17.692 4.68862 18.188 5.45762 18.395C6.22462 18.6 7.02562 18.494 7.71362 18.095C8.03662 17.905 8.42362 17.905 8.74862 18.092C9.07862 18.282 9.27562 18.624 9.27562 19.008C9.27562 20.657 10.6096 22 12.2506 22C13.8906 22 15.2246 20.657 15.2246 19.008C15.2246 18.625 15.4216 18.282 15.7516 18.093C16.0766 17.905 16.4636 17.905 16.7886 18.095C17.4756 18.494 18.2756 18.598 19.0406 18.396C19.8106 18.189 20.4536 17.693 20.8526 16.999C21.6706 15.571 21.1836 13.739 19.7646 12.914Z" fill="currentColor"/>
<path d="M9.25 12C9.25 13.654 10.596 15 12.25 15C13.904 15 15.25 13.654 15.25 12C15.25 10.346 13.904 9 12.25 9C10.596 9 9.25 10.346 9.25 12Z" fill="currentColor"/>
</svg>
