<svg width="25" height="25" viewBox="0 0 25 25" fill="none" xmlns="http://www.w3.org/2000/svg">
<path opacity="0.4" fill-rule="evenodd" clip-rule="evenodd" d="M19.9381 5.42978C19.3311 4.82278 16.0041 2.67578 12.2501 2.67578C8.49709 2.67578 5.16909 4.82278 4.56209 5.42978C3.98109 6.01078 3.98909 6.46378 4.03409 8.97878C4.05309 9.99778 4.07709 11.3858 4.07709 13.3038C4.07709 19.8238 9.40109 22.5318 12.2501 22.5318C15.1001 22.5318 20.4231 19.8238 20.4231 13.3038C20.4231 11.3868 20.4481 9.99878 20.4661 8.98078C20.5111 6.46378 20.5191 6.01078 19.9381 5.42978Z" fill="currentColor"/>
<path d="M14.6608 14.7809C14.9538 14.4879 14.9538 14.0129 14.6608 13.7199L13.3118 12.3709L14.6608 11.0229C14.9538 10.7299 14.9538 10.2549 14.6608 9.96194C14.3678 9.66894 13.8928 9.66894 13.5998 9.96194L12.2508 11.3109L10.9018 9.96194C10.6088 9.66894 10.1338 9.66894 9.84084 9.96194C9.54784 10.2549 9.54784 10.7299 9.84084 11.0229L11.1898 12.3709L9.84084 13.7199C9.54784 14.0129 9.54784 14.4879 9.84084 14.7809C9.98784 14.9269 10.1798 14.9999 10.3708 14.9999C10.5628 14.9999 10.7548 14.9269 10.9018 14.7809L12.2508 13.4319L13.5998 14.7809C13.7468 14.9269 13.9388 14.9999 14.1308 14.9999C14.3228 14.9999 14.5148 14.9269 14.6608 14.7809Z" fill="currentColor"/>
</svg>
