<svg width="25" height="25" viewBox="0 0 25 25" fill="none" xmlns="http://www.w3.org/2000/svg">
<path opacity="0.4" fill-rule="evenodd" clip-rule="evenodd" d="M19.9377 5.42927C19.3317 4.82227 16.0037 2.67627 12.2497 2.67627C8.49369 2.67627 5.16769 4.82227 4.56169 5.42927C3.98069 6.01127 3.98969 6.46427 4.03369 8.97827C4.05269 9.99827 4.07769 11.3863 4.07769 13.3043C4.07769 19.8243 9.39969 22.5313 12.2497 22.5313C15.0987 22.5313 20.4217 19.8243 20.4217 13.3043C20.4217 11.3853 20.4467 9.99627 20.4657 8.97727C20.5107 6.46327 20.5187 6.01127 19.9377 5.42927Z" fill="currentColor"/>
<path d="M12.073 14.7242L15.971 10.8252C16.264 10.5322 16.264 10.0572 15.971 9.76418C15.678 9.47118 15.203 9.47118 14.91 9.76418L11.543 13.1332L10.181 11.7692C9.88802 11.4762 9.41302 11.4762 9.12102 11.7692C8.82702 12.0612 8.82702 12.5372 9.12002 12.8302L11.012 14.7242C11.153 14.8652 11.344 14.9442 11.543 14.9442C11.742 14.9442 11.932 14.8652 12.073 14.7242Z" fill="currentColor"/>
</svg>
