<svg width="25" height="25" viewBox="0 0 25 25" fill="none" xmlns="http://www.w3.org/2000/svg">
<path opacity="0.4" fill-rule="evenodd" clip-rule="evenodd" d="M12.25 4.80176C6.84805 4.80176 2.49805 9.06976 2.49805 12.6038C2.49805 16.1378 6.84805 20.4058 12.25 20.4058C17.652 20.4058 22.002 16.1378 22.002 12.6038C22.002 9.06976 17.652 4.80176 12.25 4.80176Z" fill="currentColor"/>
<path fill-rule="evenodd" clip-rule="evenodd" d="M12.2499 16.5159C10.0929 16.5159 8.33789 14.7609 8.33789 12.6039C8.33789 10.4469 10.0929 8.69189 12.2499 8.69189C14.4069 8.69189 16.1619 10.4469 16.1619 12.6039C16.1619 14.7609 14.4069 16.5159 12.2499 16.5159ZM9.83789 12.6036C9.83789 11.2736 10.9199 10.1916 12.2499 10.1916C13.5799 10.1916 14.6619 11.2736 14.6619 12.6036C14.6619 13.9336 13.5799 15.0156 12.2499 15.0156C10.9199 15.0156 9.83789 13.9336 9.83789 12.6036Z" fill="currentColor"/>
</svg>
