<svg width="25" height="24" viewBox="0 0 25 24" fill="none" xmlns="http://www.w3.org/2000/svg">
<path fill-rule="evenodd" clip-rule="evenodd" d="M12.25 2.50049C12.2497 2.50049 12.2494 2.50049 12.249 2.50049C10.6326 2.50049 9.99027 4.12438 9.42267 5.55937L9.42104 5.56349C9.13104 6.29749 8.83104 7.05649 8.44904 7.45249C8.07358 7.8399 7.18036 7.88512 6.31466 7.92895L6.30404 7.92949L6.30191 7.92959C4.92128 7.99858 3.20484 8.08433 2.81804 9.72949C2.45109 11.2913 3.59773 12.2362 4.60963 13.0701L4.61004 13.0705C5.30204 13.6405 5.95604 14.1805 6.10104 14.8405C6.24188 15.4807 6.03053 16.3076 5.82575 17.1087L5.82504 17.1115L5.82419 17.1148C5.4724 18.493 5.07412 20.0533 6.40804 21.0595C6.82504 21.3745 7.24804 21.4995 7.66604 21.4995C8.57104 21.4995 9.45304 20.9155 10.208 20.4155L10.2138 20.4117C10.911 19.9508 11.6318 19.4745 12.249 19.4745C12.2494 19.4745 12.2497 19.4745 12.25 19.4745V2.50049Z" fill="currentColor"/>
<path opacity="0.4" fill-rule="evenodd" clip-rule="evenodd" d="M12.248 2.50049C12.2484 2.50049 12.2487 2.50049 12.249 2.50049C13.8655 2.50049 14.5078 4.12438 15.0754 5.55937L15.077 5.56349C15.367 6.29749 15.667 7.05649 16.049 7.45249C16.4245 7.8399 17.3177 7.88512 18.1834 7.92895L18.194 7.92949L18.1961 7.92959C19.5768 7.99858 21.2932 8.08433 21.68 9.72949C22.047 11.2913 20.9003 12.2362 19.8884 13.0701L19.888 13.0705C19.196 13.6405 18.542 14.1805 18.397 14.8405C18.2562 15.4807 18.4675 16.3076 18.6723 17.1087L18.673 17.1115L18.6739 17.1148C19.0257 18.493 19.4239 20.0533 18.09 21.0595C17.673 21.3745 17.25 21.4995 16.832 21.4995C15.927 21.4995 15.045 20.9155 14.29 20.4155L14.2842 20.4117C13.587 19.9508 12.8663 19.4745 12.249 19.4745C12.2487 19.4745 12.2484 19.4745 12.248 19.4745V2.50049Z" fill="currentColor"/>
</svg>
