<svg
            width="21"
            height="17"
            viewBox="0 0 21 17"
            fill="none"
            xmlns="http://www.w3.org/2000/svg"
          >
            <path
              fillRule="evenodd"
              clipRule="evenodd"
              d="M10.9211 4.75409C10.5121 3.98109 8.34912 0.121094 5.95812 0.121094C3.56712 0.121094 1.40312 3.98109 0.99412 4.75409C0.73612 5.24209 0.92212 5.84709 1.41012 6.10609C1.89612 6.36109 2.50312 6.17809 2.76212 5.69009C3.35212 4.57809 4.21612 3.39309 4.95812 2.70709V13.7401C4.95812 14.2931 5.40512 14.7401 5.95812 14.7401C6.51112 14.7401 6.95812 14.2931 6.95812 13.7401V2.70709C7.70012 3.39409 8.56412 4.57809 9.15312 5.69009C9.33312 6.02809 9.68012 6.22209 10.0381 6.22209C10.1961 6.22209 10.3571 6.18409 10.5051 6.10609C10.9931 5.84709 11.1791 5.24209 10.9211 4.75409Z"
              fill="currentColor"
            />
            <path
              opacity="0.4"
              fillRule="evenodd"
              clipRule="evenodd"
              d="M20.4258 10.9681C19.9418 10.7091 19.3328 10.8951 19.0738 11.3821C18.4858 12.4921 17.6258 13.6741 16.8878 14.3611V3.33105C16.8878 2.77905 16.4408 2.33105 15.8878 2.33105C15.3348 2.33105 14.8878 2.77905 14.8878 3.33105V14.3651C14.1458 13.6791 13.2818 12.4951 12.6918 11.3821C12.4328 10.8951 11.8228 10.7081 11.3398 10.9681C10.8518 11.2261 10.6658 11.8301 10.9238 12.3191C11.3328 13.0921 13.4958 16.9501 15.8878 16.9501C18.2698 16.9501 20.4328 13.0921 20.8418 12.3191C21.0998 11.8301 20.9138 11.2261 20.4258 10.9681Z"
              fill="currentColor"
            />
          </svg>
