<svg width="25" height="24" viewBox="0 0 25 24" fill="none" xmlns="http://www.w3.org/2000/svg">
<path fill-rule="evenodd" clip-rule="evenodd" d="M13.6016 7.00496C13.191 7.00097 12.859 6.66652 12.859 6.255V3.007C12.7662 3.00655 12.6772 3.00508 12.5877 3.00361C12.4786 3.00181 12.3687 3 12.25 3C2.705 3 2.25 4.67 2.25 9.949C2.25 10.226 2.474 10.449 2.75 10.449C3.799 10.449 4.268 11.228 4.268 11.999C4.268 12.409 4.13 12.804 3.887 13.08C3.614 13.392 3.232 13.55 2.75 13.55C2.474 13.55 2.25 13.773 2.25 14.05C2.25 19.33 2.705 21 12.25 21C12.3846 21 12.508 20.9981 12.6317 20.9961C12.7065 20.9949 12.7814 20.9938 12.859 20.993V17.544C12.859 17.1325 13.191 16.798 13.6016 16.794V15.294C13.191 15.29 12.859 14.9555 12.859 14.544V9.255C12.859 8.84348 13.191 8.50903 13.6016 8.50504V7.00496Z" fill="currentColor"/>
<path opacity="0.4" d="M13.6016 16.7939C13.6038 16.7939 13.606 16.7939 13.6082 16.7939C14.0222 16.7939 14.3582 17.1299 14.3582 17.5439V20.9619C21.8442 20.7041 22.2493 18.9058 22.2493 14.0498C22.2493 13.7729 22.0251 13.5498 21.7493 13.5498C20.7002 13.5498 20.2312 12.772 20.2312 11.999C20.2312 11.228 20.7002 10.4492 21.7493 10.4492C22.0251 10.4492 22.2493 10.2261 22.2493 9.94922C22.2493 5.09424 21.8442 3.2959 14.3582 3.03809V6.25488C14.3582 6.66895 14.0222 7.00488 13.6082 7.00488C13.606 7.00488 13.6038 7.00488 13.6016 7.00488V8.50488C13.6038 8.50488 13.606 8.50488 13.6082 8.50488C14.0222 8.50488 14.3582 8.84082 14.3582 9.25488V14.5439C14.3582 14.958 14.0222 15.2939 13.6082 15.2939C13.606 15.2939 13.6038 15.2939 13.6016 15.2939V16.7939Z" fill="currentColor"/>
</svg>
