<svg width="25" height="25" viewBox="0 0 25 25" fill="none" xmlns="http://www.w3.org/2000/svg">
<path opacity="0.4" fill-rule="evenodd" clip-rule="evenodd" d="M20.1495 12.5338C20.1495 13.3098 20.6125 14.0918 21.6455 14.0918C21.9215 14.0918 22.1455 14.3148 22.1455 14.5918C22.1455 19.8868 21.6945 21.5608 12.2505 21.5608C2.80647 21.5608 2.35547 19.8868 2.35547 14.5918C2.35547 14.3148 2.57847 14.0918 2.85547 14.0918C3.32847 14.0918 3.70447 13.9338 3.97347 13.6218C4.21347 13.3438 4.35047 12.9468 4.35047 12.5338C4.35047 11.7598 3.88847 10.9768 2.85547 10.9768C2.57847 10.9768 2.35547 10.7538 2.35547 10.4768C2.35547 5.18379 2.80647 3.50879 12.2505 3.50879C21.6945 3.50879 22.1455 5.18379 22.1455 10.4768C22.1455 10.7538 21.9215 10.9768 21.6455 10.9768C20.6125 10.9768 20.1495 11.7598 20.1495 12.5338Z" fill="currentColor"/>
<path d="M11.2488 9.95273C11.4203 9.59197 11.6935 9.13477 12.25 9.13477C12.8065 9.13477 13.0798 9.59197 13.2513 9.95273C13.2969 10.0488 13.3396 10.1476 13.3799 10.2412L13.382 10.246L13.382 10.246C13.4222 10.3393 13.4601 10.4272 13.4993 10.5102C13.5811 10.6833 13.6563 10.8071 13.7362 10.8832C13.7917 10.9355 13.9002 10.9786 14.0929 11.004C14.2235 11.0213 14.3603 11.0275 14.5099 11.0343C14.58 11.0374 14.6529 11.0407 14.7293 11.0454C14.9516 11.0589 15.2013 11.0839 15.4131 11.1701C15.6389 11.262 15.8346 11.4297 15.9088 11.7177C15.9788 11.9913 15.9141 12.2261 15.7855 12.4202C15.6649 12.6023 15.4871 12.7507 15.3266 12.875C15.2784 12.9123 15.2319 12.9474 15.187 12.9813C15.0711 13.0687 14.9664 13.1478 14.8727 13.2348C14.7458 13.3527 14.6768 13.4532 14.6536 13.5495C14.627 13.6612 14.637 13.8006 14.6757 13.9782C14.6947 14.0652 14.719 14.1552 14.7456 14.2507L14.7585 14.297L14.7586 14.2972C14.7809 14.377 14.8044 14.4609 14.8248 14.5434C14.8729 14.7373 14.9141 14.9589 14.8835 15.1735C14.8508 15.4033 14.7376 15.613 14.5084 15.7716C14.0303 16.101 13.5436 15.8634 13.196 15.6621C13.1238 15.6203 13.0571 15.5798 12.993 15.5409L12.9929 15.5408C12.8831 15.4741 12.781 15.4121 12.6717 15.3561C12.5051 15.2706 12.3687 15.2259 12.25 15.2259C12.1314 15.2259 11.995 15.2706 11.8283 15.3561C11.7191 15.4121 11.617 15.4741 11.5072 15.5408L11.5071 15.5409L11.5067 15.5411C11.4427 15.5799 11.3761 15.6204 11.304 15.6621C10.9564 15.8634 10.4702 16.1013 9.99212 15.7719C9.76319 15.6132 9.64967 15.4031 9.61701 15.1735C9.5865 14.9589 9.6276 14.7374 9.67561 14.5434C9.69602 14.461 9.71943 14.3772 9.74173 14.2974L9.75473 14.2508C9.78129 14.1553 9.80556 14.0653 9.82448 13.9783C9.86307 13.8007 9.87305 13.6612 9.84642 13.5495C9.82321 13.4532 9.75426 13.3527 9.62733 13.2348C9.53369 13.1478 9.42891 13.0687 9.31306 12.9813L9.31272 12.9811C9.26799 12.9473 9.22144 12.9122 9.17342 12.875C9.01298 12.7507 8.83516 12.6023 8.71453 12.4202C8.58599 12.2261 8.52115 11.9917 8.59115 11.7181C8.66534 11.4301 8.86119 11.262 9.08698 11.1701C9.29877 11.0839 9.54848 11.0589 9.77076 11.0454C9.84713 11.0407 9.92006 11.0374 9.99019 11.0343C10.1397 11.0275 10.2766 11.0213 10.4072 11.004C10.5999 10.9786 10.7083 10.9355 10.7638 10.8832C10.8438 10.8071 10.9189 10.6833 11.0007 10.5102C11.0399 10.4272 11.0778 10.3393 11.118 10.246L11.1201 10.2412C11.1605 10.1476 11.2031 10.0488 11.2488 9.95273Z" fill="currentColor"/>
</svg>
