<svg width="25" height="24" viewBox="0 0 25 24" fill="none" xmlns="http://www.w3.org/2000/svg">
<path opacity="0.4" fill-rule="evenodd" clip-rule="evenodd" d="M12.25 2.25C5.051 2.25 2.5 4.801 2.5 12C2.5 19.198 5.051 21.75 12.25 21.75C19.449 21.75 22 19.198 22 12C22 4.801 19.449 2.25 12.25 2.25Z" fill="currentColor"/>
<path d="M15.64 14.7668C15.896 14.7668 16.145 14.6358 16.285 14.4008C16.497 14.0458 16.381 13.5858 16.025 13.3728L13 11.5688V7.63281C13 7.21881 12.664 6.88281 12.25 6.88281C11.836 6.88281 11.5 7.21881 11.5 7.63281V11.9948C11.5 12.2578 11.639 12.5038 11.866 12.6388L15.257 14.6618C15.377 14.7328 15.51 14.7668 15.64 14.7668Z" fill="currentColor"/>
</svg>
