<svg width="25" height="24" viewBox="0 0 25 24" fill="none" xmlns="http://www.w3.org/2000/svg">
<path opacity="0.4" fill-rule="evenodd" clip-rule="evenodd" d="M12.25 2.25C6.874 2.25 2.5 6.624 2.5 12C2.5 17.376 6.874 21.75 12.25 21.75C17.626 21.75 22 17.376 22 12C22 6.624 17.626 2.25 12.25 2.25Z" fill="currentColor"/>
<path d="M16.4272 13.5172H16.4402C16.8482 13.5172 17.1832 13.1892 17.1902 12.7792C17.1962 12.3652 16.8662 12.0242 16.4522 12.0172L12.6602 11.9552V7.84619C12.6602 7.43219 12.3242 7.09619 11.9102 7.09619C11.4962 7.09619 11.1602 7.43219 11.1602 7.84619V12.6942C11.1602 13.1032 11.4882 13.4372 11.8982 13.4442L16.4272 13.5172Z" fill="currentColor"/>
</svg>
