<svg width="25" height="25" viewBox="0 0 25 25" fill="none" xmlns="http://www.w3.org/2000/svg">
<path opacity="0.4" d="M9.1864 9.20263C9.22705 9.19669 9.2678 9.19113 9.30863 9.186C9.45402 9.16772 9.64677 9.14186 9.87899 9.10964C10.5919 9.03129 11.3804 8.99414 12.2498 8.99414C18.2738 8.99414 20.4098 10.7661 20.4098 15.7651C20.4098 20.7651 18.2738 22.5371 12.2498 22.5371C6.22584 22.5371 4.08984 20.7651 4.08984 15.7651C4.08984 13.0646 4.71636 11.3084 6.23917 10.2632C6.6383 10.0178 7.65033 9.51001 8.79725 9.27172C8.92404 9.24696 9.05374 9.22395 9.1864 9.20263Z" fill="currentColor"/>
<path d="M12.25 17.7972C12.664 17.7972 13 17.4612 13 17.0472V14.8262C13 14.4122 12.664 14.0762 12.25 14.0762C11.836 14.0762 11.5 14.4122 11.5 14.8262V17.0472C11.5 17.4612 11.836 17.7972 12.25 17.7972Z" fill="currentColor"/>
<path d="M8.4375 9.36035V7.91701C8.4715 5.84201 10.1225 4.19601 12.1975 4.17101H12.2455C13.9125 4.17101 15.4115 5.27801 15.9015 6.87801C16.0225 7.27401 16.4385 7.49901 16.8385 7.37501C17.2335 7.25401 17.4575 6.83501 17.3355 6.43901C16.6465 4.19101 14.4845 2.65601 12.1795 2.67101C9.2865 2.70701 6.9845 5.00001 6.9375 7.90501V9.8877C7.48201 9.65426 7.94043 9.50551 8.4375 9.36035Z" fill="currentColor"/>
</svg>
