<svg width="25" height="24" viewBox="0 0 25 24" fill="none" xmlns="http://www.w3.org/2000/svg">
<path opacity="0.4" fill-rule="evenodd" clip-rule="evenodd" d="M16.65 7.28704C15.53 7.20704 14.3499 7.16723 13.1199 7.15723H11.6199C10.4099 7.16723 9.15 7.21704 7.85 7.28704H7.83C3.8 7.65704 2.5 9.48704 2.5 14.787C2.5 22.387 5.35 22.387 12.25 22.387C19.15 22.387 22 22.387 22 14.787C22 9.48704 20.7 7.65704 16.65 7.28704Z" fill="currentColor"/>
<path fill-rule="evenodd" clip-rule="evenodd" d="M12.9998 4.16904L14.6388 5.81204C14.7848 5.95904 14.9778 6.03304 15.1698 6.03304C15.3608 6.03304 15.5528 5.95904 15.6988 5.81404C15.9928 5.52104 15.9928 5.04604 15.7008 4.75304L12.7808 1.82504C12.4998 1.54204 11.9998 1.54204 11.7188 1.82504L8.79883 4.75304C8.50683 5.04604 8.50683 5.52104 8.80083 5.81404C9.09483 6.10604 9.56883 6.10604 9.86083 5.81204L11.4998 4.16904V14.4059C11.4998 14.8176 11.8454 15.1482 12.257 15.1482C12.6689 15.1482 12.9998 14.8172 12.9998 14.4053V4.16904Z" fill="currentColor"/>
</svg>
