<svg width="25" height="24" viewBox="0 0 25 24" fill="none" xmlns="http://www.w3.org/2000/svg">
<path fill-rule="evenodd" clip-rule="evenodd" d="M16.2393 10.8671H16.2693C18.3993 10.8671 20.1293 9.13709 20.1293 7.00709C20.1293 4.87709 18.3993 3.14709 16.2693 3.14709C15.8493 3.14709 15.4493 3.21709 15.0693 3.33709C15.7593 4.35709 16.1593 5.58709 16.1593 6.90709C16.1593 8.29709 15.7093 9.58709 14.9493 10.6371C15.3493 10.7871 15.7893 10.8671 16.2393 10.8671Z" fill="currentColor"/>
<path fill-rule="evenodd" clip-rule="evenodd" d="M9.76663 11.7754H9.79663C12.4796 11.7754 14.6616 9.59339 14.6616 6.91139C14.6616 4.22839 12.4796 2.04639 9.79663 2.04639C7.11563 2.04639 4.93363 4.22839 4.93363 6.90939C4.92863 8.20439 5.42763 9.42339 6.34063 10.3424C7.25363 11.2614 8.46963 11.7704 9.76663 11.7754Z" fill="currentColor"/>
<g opacity="0.4">
<path fill-rule="evenodd" clip-rule="evenodd" d="M16.2707 12.3071C15.1407 12.3071 14.0707 12.5371 13.1707 12.9171C16.3307 13.8371 18.5607 16.0271 18.6107 18.5771C20.2507 18.3571 22.0107 17.7471 22.0107 16.0471C22.0107 14.0171 19.3807 12.3071 16.2707 12.3071Z" fill="currentColor"/>
<path fill-rule="evenodd" clip-rule="evenodd" d="M9.79923 13.9464C5.83723 13.9464 2.49023 16.1114 2.49023 18.6744C2.49023 21.6134 6.66123 21.9534 9.79923 21.9534C11.6072 21.9534 17.1082 21.9534 17.1082 18.6544C17.1082 16.1024 13.7612 13.9464 9.79923 13.9464Z" fill="currentColor"/>
</g>
</svg>
