<svg width="25" height="24" viewBox="0 0 25 24" fill="none" xmlns="http://www.w3.org/2000/svg">
<path fill-rule="evenodd" clip-rule="evenodd" d="M18.6941 10.8688H18.7141C20.8441 10.8688 22.5841 9.12879 22.5841 7.00879C22.5841 4.87879 20.8441 3.13879 18.7141 3.13879C18.2941 3.13879 17.8941 3.20879 17.5141 3.32879C18.2041 4.34879 18.6041 5.57879 18.6041 6.90879C18.6141 8.25879 18.1941 9.55879 17.4041 10.6388C17.8141 10.7888 18.2441 10.8688 18.6941 10.8688Z" fill="currentColor"/>
<path fill-rule="evenodd" clip-rule="evenodd" d="M5.77406 10.8688H5.80406C6.25406 10.8688 6.68406 10.7888 7.09406 10.6388C6.33406 9.59879 5.88406 8.30879 5.88406 6.90879C5.88406 5.57879 6.28406 4.34879 6.97406 3.32879C6.59406 3.20879 6.19406 3.13879 5.77406 3.13879C3.64406 3.13879 1.91406 4.87879 1.91406 7.00879C1.91406 9.12879 3.64406 10.8688 5.77406 10.8688Z" fill="currentColor"/>
<path fill-rule="evenodd" clip-rule="evenodd" d="M12.2447 11.7749H12.2777C13.5727 11.7709 14.7887 11.2619 15.7007 10.3429C16.6137 9.42387 17.1137 8.20487 17.1087 6.91187C17.1087 4.22887 14.9277 2.04688 12.2447 2.04688C9.56265 2.04688 7.38165 4.22887 7.38165 6.91187C7.38165 9.59287 9.56265 11.7749 12.2447 11.7749Z" fill="currentColor"/>
<g opacity="0.4">
<path fill-rule="evenodd" clip-rule="evenodd" d="M18.7252 12.3086C17.5852 12.3086 16.5152 12.5386 15.6152 12.9286C18.7652 13.8386 20.9952 16.0186 21.0552 18.5686C22.6952 18.3586 24.4652 17.7386 24.4652 16.0486C24.4652 14.0186 21.8352 12.3086 18.7252 12.3086Z" fill="currentColor"/>
<path fill-rule="evenodd" clip-rule="evenodd" d="M8.87516 12.9186C7.97516 12.5386 6.90516 12.3086 5.77516 12.3086C2.66516 12.3086 0.0351562 14.0186 0.0351562 16.0486C0.0351562 17.7386 1.79516 18.3486 3.43516 18.5686C3.48516 16.0186 5.71516 13.8386 8.87516 12.9186Z" fill="currentColor"/>
<path fill-rule="evenodd" clip-rule="evenodd" d="M12.2448 13.9456C8.28377 13.9456 4.93677 16.1016 4.93677 18.6536C4.93677 21.9536 10.4368 21.9536 12.2448 21.9536C15.3828 21.9536 19.5548 21.6136 19.5548 18.6746C19.5548 16.1106 16.2068 13.9456 12.2448 13.9456Z" fill="currentColor"/>
</g>
</svg>
