<svg width="25" height="25" viewBox="0 0 25 25" fill="none" xmlns="http://www.w3.org/2000/svg">
<path opacity="0.4" fill-rule="evenodd" clip-rule="evenodd" d="M9.06234 5.10986C3.59234 5.10986 1.65234 7.05986 1.65234 12.5399C1.65234 18.0199 3.59234 19.9599 9.06234 19.9599C14.5223 19.9599 16.4523 18.0199 16.4523 12.5399C16.4523 7.05986 14.5223 5.10986 9.06234 5.10986Z" fill="currentColor"/>
<path fill-rule="evenodd" clip-rule="evenodd" d="M22.1533 7.46992C21.3733 6.62992 18.9733 8.13992 17.6133 9.09992C17.8433 10.0899 17.9533 11.2399 17.9533 12.5399C17.9533 13.8299 17.8433 14.9599 17.6233 15.9499C18.7133 16.7199 20.4933 17.8499 21.5333 17.8499C21.7933 17.8499 22.0133 17.7799 22.1533 17.6199C23.0833 16.6299 23.0833 8.46992 22.1533 7.46992Z" fill="currentColor"/>
</svg>
