<svg width="25" height="25" viewBox="0 0 25 25" fill="none" xmlns="http://www.w3.org/2000/svg">
<path fill-rule="evenodd" clip-rule="evenodd" d="M19.0287 13.3247H5.47266C5.05866 13.3247 4.72266 13.6607 4.72266 14.0747C4.72266 14.4887 5.05866 14.8247 5.47266 14.8247H6.41766C6.75666 17.4697 8.85466 19.5687 11.5007 19.9067V21.5057C11.5007 21.9197 11.8367 22.2557 12.2507 22.2557C12.6647 22.2557 13.0007 21.9197 13.0007 21.5057V19.9077C15.6467 19.5687 17.7447 17.4697 18.0837 14.8247H19.0287C19.4427 14.8247 19.7787 14.4887 19.7787 14.0747C19.7787 13.6607 19.4427 13.3247 19.0287 13.3247Z" fill="currentColor"/>
<path opacity="0.4" fill-rule="evenodd" clip-rule="evenodd" d="M12.2533 2.95264C9.00328 2.95264 6.36328 5.59264 6.36328 8.84264V10.9826C6.36328 11.2626 6.58328 11.4826 6.86328 11.4826H17.6333C17.9133 11.4826 18.1333 11.2626 18.1333 10.9826V8.84264C18.1333 5.59264 15.4933 2.95264 12.2533 2.95264Z" fill="currentColor"/>
<path d="M10.7539 9.64256H13.7439C14.1539 9.64256 14.4939 9.30256 14.4939 8.89256C14.4939 8.48256 14.1539 8.14256 13.7439 8.14256H10.7539C10.3439 8.14256 10.0039 8.48256 10.0039 8.89256C10.0039 9.30256 10.3439 9.64256 10.7539 9.64256Z" fill="currentColor"/>
<path d="M12.7539 5.37256H11.7439C11.3339 5.37256 10.9939 5.71256 10.9939 6.12256C10.9939 6.53256 11.3339 6.87256 11.7439 6.87256H12.7539C13.1639 6.87256 13.5039 6.53256 13.5039 6.12256C13.5039 5.71256 13.1639 5.37256 12.7539 5.37256Z" fill="currentColor"/>
</svg>
