<svg width="25" height="25" viewBox="0 0 25 25" fill="none" xmlns="http://www.w3.org/2000/svg">
<path fill-rule="evenodd" clip-rule="evenodd" d="M19.3832 13.4067H5.11523C4.70123 13.4067 4.36523 13.7427 4.36523 14.1567C4.36523 14.5707 4.70123 14.9067 5.11523 14.9067H6.13023C6.47223 17.7087 8.69723 19.9337 11.4992 20.2757V21.9787C11.4992 22.3927 11.8352 22.7287 12.2492 22.7287C12.6632 22.7287 12.9992 22.3927 12.9992 21.9787V20.2757C15.8022 19.9337 18.0262 17.7087 18.3682 14.9067H19.3832C19.7972 14.9067 20.1332 14.5707 20.1332 14.1567C20.1332 13.7427 19.7972 13.4067 19.3832 13.4067Z" fill="currentColor"/>
<path opacity="0.4" fill-rule="evenodd" clip-rule="evenodd" d="M6.57812 11.402H17.9171C18.1941 11.402 18.4171 11.178 18.4171 10.902V8.648C18.4171 5.247 15.6501 2.479 12.2471 2.479C8.84613 2.479 6.07812 5.247 6.07812 8.648V10.902C6.07812 11.178 6.30213 11.402 6.57812 11.402Z" fill="currentColor"/>
</svg>
