<svg width="25" height="24" viewBox="0 0 25 24" fill="none" xmlns="http://www.w3.org/2000/svg">
<path opacity="0.4" fill-rule="evenodd" clip-rule="evenodd" d="M12.5425 5.11824C10.8365 4.10324 9.26752 5.30824 8.12152 6.18524C7.65152 6.54524 7.20752 6.88524 6.87052 6.99624C6.41252 7.14624 6.01752 7.19424 5.63452 7.24024C4.96752 7.31924 4.27852 7.40124 3.52352 8.04224C2.31452 9.06924 2.31652 10.6972 2.31852 12.0052C2.31652 13.3122 2.31452 14.9402 3.52452 15.9682C4.27852 16.6082 4.96752 16.6902 5.63452 16.7692C6.01752 16.8152 6.41252 16.8632 6.87052 17.0142C7.20752 17.1252 7.65052 17.4652 8.12052 17.8242C8.95152 18.4612 10.0055 19.2682 11.1875 19.2682C11.6345 19.2682 12.0995 19.1532 12.5775 18.8692C13.9435 17.8982 14.4275 16.1012 14.4275 12.0052C14.4275 7.85424 13.9605 6.12224 12.5425 5.11824Z" fill="currentColor"/>
<path fill-rule="evenodd" clip-rule="evenodd" d="M20.1951 5.40799C19.9651 5.06399 19.4971 4.97099 19.1541 5.20299C18.8101 5.43299 18.7181 5.89899 18.9491 6.24399C21.2601 9.69099 21.2601 14.321 18.9491 17.765C18.7181 18.109 18.8101 18.575 19.1541 18.806C19.2821 18.892 19.4271 18.933 19.5711 18.933C19.8131 18.933 20.0501 18.817 20.1951 18.601C22.8411 14.658 22.8411 9.35599 20.1951 5.40799Z" fill="currentColor"/>
<path fill-rule="evenodd" clip-rule="evenodd" d="M16.763 7.61206C16.4 7.81106 16.268 8.26806 16.469 8.63106C17.619 10.7161 17.619 13.3011 16.469 15.3781C16.268 15.7401 16.4 16.1961 16.762 16.3971C16.877 16.4611 17.002 16.4911 17.125 16.4911C17.388 16.4911 17.644 16.3511 17.782 16.1041C19.179 13.5811 19.18 10.4391 17.782 7.90606C17.581 7.54306 17.125 7.41206 16.763 7.61206Z" fill="currentColor"/>
</svg>
