<svg width="25" height="24" viewBox="0 0 25 24" fill="none" xmlns="http://www.w3.org/2000/svg">
<path opacity="0.4" fill-rule="evenodd" clip-rule="evenodd" d="M14.1774 5.26141C12.5034 4.26641 10.9654 5.44541 9.84336 6.30541C9.38436 6.65741 8.95036 6.98841 8.62136 7.09641C8.17536 7.24341 7.78836 7.29041 7.41536 7.33441C6.76136 7.41241 6.08636 7.49341 5.34636 8.12141C4.15836 9.13041 4.16136 10.7234 4.16436 12.0044C4.16136 13.2844 4.15836 14.8774 5.34736 15.8884C6.08836 16.5174 6.76436 16.5974 7.41836 16.6754C7.79136 16.7204 8.17736 16.7664 8.62236 16.9114C8.94936 17.0204 9.38236 17.3524 9.84036 17.7024C10.6554 18.3274 11.6874 19.1184 12.8454 19.1184C13.2844 19.1184 13.7414 19.0054 14.2114 18.7264C15.5514 17.7764 16.0254 16.0174 16.0254 12.0044C16.0254 7.94241 15.5684 6.24541 14.1774 5.26141Z" fill="currentColor"/>
<path fill-rule="evenodd" clip-rule="evenodd" d="M19.3113 7.99011C19.1113 7.62711 18.6543 7.49611 18.2923 7.69611C17.9293 7.89511 17.7973 8.35211 17.9983 8.71511C19.1193 10.7481 19.1193 13.2691 17.9983 15.2951C17.7973 15.6571 17.9293 16.1141 18.2913 16.3141C18.4063 16.3781 18.5313 16.4081 18.6543 16.4081C18.9173 16.4081 19.1743 16.2681 19.3113 16.0211C20.6793 13.5491 20.6793 10.4701 19.3113 7.99011Z" fill="currentColor"/>
</svg>
