<svg width="25" height="24" viewBox="0 0 25 24" fill="none" xmlns="http://www.w3.org/2000/svg">
<path opacity="0.4" fill-rule="evenodd" clip-rule="evenodd" d="M17.5202 15.1719C15.6932 15.1719 14.2072 13.6859 14.2072 11.8599C14.2072 10.0329 15.6932 8.54594 17.5202 8.54594H21.7302C20.8522 4.49194 18.0592 2.96094 12.2502 2.96094C5.01422 2.96094 2.44922 5.32694 2.44922 11.9999C2.44922 18.6739 5.01422 21.0389 12.2502 21.0389C18.1922 21.0389 20.9802 19.4389 21.7882 15.1719H17.5202Z" fill="currentColor"/>
<path fill-rule="evenodd" clip-rule="evenodd" d="M11.9018 8.64111H7.8418C7.4278 8.64111 7.0918 8.30511 7.0918 7.89111C7.0918 7.47711 7.4278 7.14111 7.8418 7.14111H11.9018C12.3158 7.14111 12.6518 7.47711 12.6518 7.89111C12.6518 8.30511 12.3158 8.64111 11.9018 8.64111Z" fill="currentColor"/>
<path fill-rule="evenodd" clip-rule="evenodd" d="M17.52 13.6719C16.521 13.6719 15.707 12.8589 15.707 11.8599C15.707 10.8599 16.521 10.0459 17.52 10.0459H21.956C22.015 10.6549 22.05 11.2979 22.05 11.9999C22.05 12.5949 22.022 13.1439 21.98 13.6719H17.52ZM18.4102 11.7998C18.4102 12.2138 18.0742 12.5498 17.6602 12.5498C17.2462 12.5498 16.9102 12.2138 16.9102 11.7998C16.9102 11.3858 17.2462 11.0498 17.6602 11.0498C18.0742 11.0498 18.4102 11.3858 18.4102 11.7998Z" fill="currentColor"/>
</svg>
