<svg width="25" height="24" viewBox="0 0 25 24" fill="none" xmlns="http://www.w3.org/2000/svg">
<path fill-rule="evenodd" clip-rule="evenodd" d="M9.73838 4.86224C9.73838 4.01324 10.3264 3.32324 11.0484 3.32324H13.4484C14.1704 3.32324 14.7584 4.01324 14.7584 4.86224V4.88624C13.9924 4.80924 13.1584 4.77124 12.2484 4.77124C11.3374 4.77124 10.5034 4.80924 9.73838 4.88624V4.86224ZM2.75437 10.7812C5.36337 12.3892 8.74338 13.2762 12.2684 13.2792C15.7864 13.2762 19.1574 12.3922 21.7644 10.7912C21.2364 7.52824 19.5714 5.79224 16.2584 5.11724V4.86224C16.2584 3.18624 14.9974 1.82324 13.4484 1.82324H11.0484C9.49938 1.82324 8.23838 3.18624 8.23838 4.86224V5.11724C4.93038 5.79124 3.26638 7.52224 2.73438 10.7732C2.74138 10.7772 2.74837 10.7772 2.75437 10.7812Z" fill="currentColor"/>
<path opacity="0.4" fill-rule="evenodd" clip-rule="evenodd" d="M12.9991 14.8174V16.9804C12.9991 17.3944 12.6631 17.7304 12.2491 17.7304C11.8351 17.7304 11.4991 17.3944 11.4991 16.9804V14.8164C8.23806 14.7074 5.12006 13.8934 2.56306 12.4844C2.54806 12.8034 2.53906 13.1314 2.53906 13.4734C2.53906 19.8994 5.08006 22.1764 12.2491 22.1764C19.4181 22.1764 21.9591 19.8994 21.9591 13.4734C21.9591 13.1394 21.9511 12.8184 21.9371 12.5074C19.3761 13.9084 16.2581 14.7144 12.9991 14.8174Z" fill="currentColor"/>
</svg>
