<svg width="25" height="25" viewBox="0 0 25 25" fill="none" xmlns="http://www.w3.org/2000/svg">
<path fill-rule="evenodd" clip-rule="evenodd" d="M17.2702 10.4451L13.603 15.1781L10.4048 12.6659L7.60387 16.3062L6.41504 15.3915L10.1399 10.5504L13.3421 13.0658L16.0845 9.52637L17.2702 10.4451Z" fill="currentColor"/>
<path fill-rule="evenodd" clip-rule="evenodd" d="M19.4179 4.28516C18.8371 4.28516 18.3662 4.75602 18.3662 5.33687C18.3662 5.91771 18.8371 6.38858 19.4179 6.38858C19.9988 6.38858 20.4696 5.91771 20.4696 5.33687C20.4696 4.75602 19.9988 4.28516 19.4179 4.28516ZM16.8662 5.33687C16.8662 3.9276 18.0087 2.78516 19.4179 2.78516C20.8272 2.78516 21.9696 3.9276 21.9696 5.33687C21.9696 6.74614 20.8272 7.88858 19.4179 7.88858C18.0087 7.88858 16.8662 6.74614 16.8662 5.33687Z" fill="currentColor"/>
<path fill-rule="evenodd" clip-rule="evenodd" d="M2.53027 3.57422H15.4154V5.07422H4.03027V20.7849H19.7409V9.37402H21.2409V22.2849H2.53027V3.57422Z" fill="currentColor"/>
</svg>
