<svg width="25" height="24" viewBox="0 0 25 24" fill="none" xmlns="http://www.w3.org/2000/svg">
<path fill-rule="evenodd" clip-rule="evenodd" d="M20.043 7.91895V13.4289H18.543V7.91895H20.043Z" fill="currentColor"/>
<path fill-rule="evenodd" clip-rule="evenodd" d="M16.498 9.92383H22.088V11.4238H16.498V9.92383Z" fill="currentColor"/>
<path fill-rule="evenodd" clip-rule="evenodd" d="M10.171 3.5C8.14347 3.5 6.5 5.14275 6.5 7.16973C6.5 9.19672 8.14347 10.8395 10.171 10.8395C12.1971 10.8395 13.8408 9.19686 13.8408 7.16973C13.8408 5.1426 12.1971 3.5 10.171 3.5ZM5 7.16973C5 4.31374 7.31562 2 10.171 2C13.0253 2 15.3408 4.31389 15.3408 7.16973C15.3408 10.0256 13.0253 12.3395 10.171 12.3395C7.31562 12.3395 5 10.0257 5 7.16973Z" fill="currentColor"/>
<path fill-rule="evenodd" clip-rule="evenodd" d="M4.08377 19.1855C5.86774 20.1227 7.94424 20.5061 10.2029 20.5006H10.2066C12.4653 20.5061 14.5417 20.1227 16.3257 19.1855C15.3012 16.7397 13.0143 15.5622 10.2067 15.5694H10.2028C7.39168 15.5622 5.1085 16.7369 4.08377 19.1855ZM10.2048 14.0694C6.70533 14.061 3.58837 15.6886 2.44679 19.2986L2.26953 19.8591L2.77149 20.1651C4.97586 21.5089 7.5385 22.0069 10.2048 22.0006C12.871 22.0069 15.4337 21.5089 17.638 20.1651L18.14 19.8591L17.9628 19.2986C16.8224 15.6922 13.7008 14.061 10.2048 14.0694Z" fill="currentColor"/>
</svg>
