<svg width="25" height="24" viewBox="0 0 25 24" fill="none" xmlns="http://www.w3.org/2000/svg">
<path fill-rule="evenodd" clip-rule="evenodd" d="M3.5 11.25L20.9998 11.25L20.9998 12.75L3.5 12.75L3.5 11.25Z" fill="currentColor"/>
<path fill-rule="evenodd" clip-rule="evenodd" d="M4.25011 12.75C7.77766 12.75 10.6602 9.64786 10.6602 6.33995L10.6602 5.58995L9.16016 5.58995L9.16016 6.33995C9.16016 8.85153 6.9175 11.25 4.25011 11.25L3.50011 11.25L3.50011 12.75L4.25011 12.75Z" fill="currentColor"/>
<path fill-rule="evenodd" clip-rule="evenodd" d="M4.25011 11.25C7.77766 11.25 10.6602 14.3521 10.6602 17.66L10.6602 18.41L9.16016 18.41L9.16016 17.66C9.16016 15.1485 6.9175 12.75 4.25011 12.75L3.50011 12.75L3.50011 11.25L4.25011 11.25Z" fill="currentColor"/>
</svg>
