<svg width="25" height="24" viewBox="0 0 25 24" fill="none" xmlns="http://www.w3.org/2000/svg">
<path fill-rule="evenodd" clip-rule="evenodd" d="M21 12.75L3.50024 12.75L3.50024 11.25L21 11.25L21 12.75Z" fill="currentColor"/>
<path fill-rule="evenodd" clip-rule="evenodd" d="M20.2499 11.25C16.7223 11.25 13.8398 14.3521 13.8398 17.66L13.8398 18.41L15.3398 18.41L15.3398 17.66C15.3398 15.1485 17.5825 12.75 20.2499 12.75L20.9999 12.75L20.9999 11.25L20.2499 11.25Z" fill="currentColor"/>
<path fill-rule="evenodd" clip-rule="evenodd" d="M20.2499 12.75C16.7223 12.75 13.8398 9.64786 13.8398 6.33995L13.8398 5.58995L15.3398 5.58995L15.3398 6.33995C15.3398 8.85153 17.5825 11.25 20.2499 11.25L20.9999 11.25L20.9999 12.75L20.2499 12.75Z" fill="currentColor"/>
</svg>
