<svg width="25" height="24" viewBox="0 0 25 24" fill="none" xmlns="http://www.w3.org/2000/svg">
<path fill-rule="evenodd" clip-rule="evenodd" d="M12.25 22C6.72784 22 2.25 17.5233 2.25 12C2.25 6.47779 6.72779 2 12.25 2C17.7722 2 22.25 6.47779 22.25 12C22.25 17.5233 17.7722 22 12.25 22ZM3.75 12C3.75 16.6947 7.55616 20.5 12.25 20.5C16.9438 20.5 20.75 16.6947 20.75 12C20.75 7.30621 16.9438 3.5 12.25 3.5C7.55621 3.5 3.75 7.30621 3.75 12Z" fill="currentColor"/>
<path fill-rule="evenodd" clip-rule="evenodd" d="M9.74609 15.4693L13.2298 12.0006L9.74609 8.53186L10.8045 7.46891L15.3557 12.0006L10.8045 16.5322L9.74609 15.4693Z" fill="currentColor"/>
</svg>
