<svg width="25" height="25" viewBox="0 0 25 25" fill="none" xmlns="http://www.w3.org/2000/svg">
<path fill-rule="evenodd" clip-rule="evenodd" d="M7.48048 6.6557C7.49183 4.02623 9.63258 1.90557 12.2611 1.91605C14.8891 1.91693 17.0194 4.04803 17.0194 6.67701V10.6502H15.5194V6.67701C15.5194 4.87566 14.0595 3.41605 12.2595 3.41605H12.2563C10.4552 3.40828 8.98907 4.86049 8.98047 6.66064V10.6502H7.48047L7.48048 6.6557Z" fill="currentColor"/>
<path fill-rule="evenodd" clip-rule="evenodd" d="M12.25 22.3604C6.72715 22.3604 2.25 17.8832 2.25 12.3604L2.25 6.67291L22.25 6.67291L22.25 12.3604C22.25 17.8832 17.7728 22.3604 12.25 22.3604ZM3.75 12.3604C3.75 17.0548 7.55558 20.8604 12.25 20.8604C16.9444 20.8604 20.75 17.0548 20.75 12.3604L20.75 8.17291L3.75 8.17291L3.75 12.3604Z" fill="currentColor"/>
</svg>
