<svg width="25" height="25" viewBox="0 0 25 25" fill="none" xmlns="http://www.w3.org/2000/svg">
<path fill-rule="evenodd" clip-rule="evenodd" d="M9.09113 3.71416C10.0149 2.79427 11.267 2.28009 12.5706 2.28519C15.2782 2.28605 17.4729 4.48129 17.4729 7.18913V7.93913H15.9729V7.18913C15.9729 5.30919 14.4489 3.78519 12.569 3.78519H12.5658V3.78519C11.6605 3.78135 10.791 4.13828 10.1495 4.77706C9.50806 5.41584 9.14745 6.28384 9.14746 7.18912L9.14747 7.93912L7.64747 7.93914L7.64746 7.18914C7.64745 5.88492 8.16696 4.63443 9.09113 3.71416Z" fill="currentColor"/>
<path fill-rule="evenodd" clip-rule="evenodd" d="M14.626 10.7686H16.17V12.2686H14.626V10.7686Z" fill="currentColor"/>
<path fill-rule="evenodd" clip-rule="evenodd" d="M9.01855 10.7686H10.5626V12.2686H9.01855V10.7686Z" fill="currentColor"/>
<path fill-rule="evenodd" clip-rule="evenodd" d="M2.69336 22.7856L21.8075 22.7856L20.8278 6.65039L3.67301 6.65039L2.69336 22.7856ZM5.0847 8.15039L19.4161 8.15039L20.2136 21.2856L4.28719 21.2856L5.0847 8.15039Z" fill="currentColor"/>
</svg>
