<svg width="25" height="25" viewBox="0 0 25 25" fill="none" xmlns="http://www.w3.org/2000/svg">
<path d="M13.8291 11.7107H17.9986V10.2152H13.8291V11.7107Z" fill="currentColor"/>
<path fill-rule="evenodd" clip-rule="evenodd" d="M2.20162 3.29488C2.1893 3.3271 2.18481 3.66865 2.19174 4.05394L2.2043 4.75446L4.71824 4.77856L4.73954 4.8798C4.75128 4.9355 5.03812 7.76465 5.37694 11.1668C5.71575 14.569 6.00154 17.3782 6.01201 17.4093C6.04002 17.4925 20.8023 17.4925 20.8305 17.4093C20.8411 17.3782 21.1675 14.9259 21.5558 11.9599C21.9442 8.99388 22.273 6.51104 22.2866 6.44252L22.3113 6.3179H6.40499L6.37771 6.10264C6.36276 5.98423 6.29935 5.35718 6.23686 4.70914C6.17431 4.0611 6.11235 3.46459 6.09916 3.38361L6.0751 3.23633H4.1496C2.61767 3.23633 2.21952 3.24829 2.20162 3.29488ZM20.5582 8.05129C20.5416 8.18212 20.3004 10.0124 20.0223 12.1185L19.5167 15.9478L13.4537 15.9593C8.62626 15.9685 7.38692 15.9592 7.3716 15.914C7.36104 15.8827 7.17799 14.1034 6.96489 11.9599C6.75174 9.81639 6.56774 8.00651 6.556 7.93799L6.5347 7.81337H20.5884L20.5582 8.05129Z" fill="currentColor"/>
<path d="M7.52007 19.34C6.57875 19.603 6.26844 20.779 6.95836 21.4689C7.15261 21.6631 7.37642 21.7775 7.63822 21.8155C7.71029 21.8282 7.78445 21.8348 7.86017 21.8348C7.98635 21.8348 8.10823 21.8164 8.22328 21.7821C8.38474 21.7383 8.5269 21.664 8.65035 21.559C8.94242 21.3264 9.12963 20.9677 9.12963 20.5654C9.12963 19.8643 8.56127 19.2959 7.86017 19.2959C7.81396 19.2959 7.76834 19.2984 7.72341 19.3032C7.65487 19.3092 7.58682 19.3213 7.52007 19.34Z" fill="currentColor"/>
<path d="M18.7247 19.2959C18.9771 19.2959 19.2123 19.3696 19.41 19.4966C19.5061 19.5528 19.5896 19.6196 19.6529 19.6949C19.6715 19.717 19.6891 19.7386 19.7058 19.7597C19.7516 19.8155 19.7928 19.8752 19.8287 19.9383C19.8417 19.9609 19.8537 19.9834 19.8646 20.0061C19.9476 20.1748 19.9941 20.3647 19.9941 20.5654C19.9941 20.7264 19.9642 20.8804 19.9095 21.0221C19.8735 21.1311 19.8191 21.228 19.7412 21.3259C19.5228 21.6174 19.1819 21.8118 18.7949 21.8329C18.3922 21.8563 17.9826 21.6909 17.7225 21.3468C17.5287 21.0903 17.4548 20.8729 17.4548 20.5593C17.4548 20.1225 17.6665 19.7415 18.0157 19.5122C18.2181 19.3756 18.4621 19.2959 18.7247 19.2959Z" fill="currentColor"/>
</svg>
