<svg width="25" height="25" viewBox="0 0 25 25" fill="none" xmlns="http://www.w3.org/2000/svg">
<path fill-rule="evenodd" clip-rule="evenodd" d="M3.26074 9.38379H21.248V10.8838H3.26074V9.38379Z" fill="currentColor"/>
<path fill-rule="evenodd" clip-rule="evenodd" d="M15.6084 12.9971H17.117V14.4971H15.6084V12.9971Z" fill="currentColor"/>
<path fill-rule="evenodd" clip-rule="evenodd" d="M11.5049 12.9971H13.0135V14.4971H11.5049V12.9971Z" fill="currentColor"/>
<path fill-rule="evenodd" clip-rule="evenodd" d="M7.3916 12.9971H8.90017V14.4971H7.3916V12.9971Z" fill="currentColor"/>
<path fill-rule="evenodd" clip-rule="evenodd" d="M15.6084 16.5918H17.117V18.0918H15.6084V16.5918Z" fill="currentColor"/>
<path fill-rule="evenodd" clip-rule="evenodd" d="M11.5049 16.5918H13.0135V18.0918H11.5049V16.5918Z" fill="currentColor"/>
<path fill-rule="evenodd" clip-rule="evenodd" d="M7.3916 16.5918H8.90017V18.0918H7.3916V16.5918Z" fill="currentColor"/>
<path fill-rule="evenodd" clip-rule="evenodd" d="M16.7412 2.53516V7.07914H15.2412V2.53516H16.7412Z" fill="currentColor"/>
<path fill-rule="evenodd" clip-rule="evenodd" d="M9.26855 2.53516V7.07914H7.76855V2.53516H9.26855Z" fill="currentColor"/>
<path fill-rule="evenodd" clip-rule="evenodd" d="M3.17578 3.99609H21.3258V22.5354H3.17578V3.99609ZM4.67578 5.49609V21.0354H19.8258V5.49609H4.67578Z" fill="currentColor"/>
</svg>
