<svg width="25" height="25" viewBox="0 0 25 25" fill="none" xmlns="http://www.w3.org/2000/svg">
<path fill-rule="evenodd" clip-rule="evenodd" d="M6.72809 2.17285L10.655 7.56696L8.93007 10.5627C8.95337 10.6314 8.98211 10.7118 9.01688 10.8021C9.14637 11.1383 9.35817 11.6087 9.68292 12.1295L10.0798 12.766L8.80694 13.5596L8.4101 12.9232C8.02655 12.3081 7.77444 11.7497 7.6171 11.3412C7.53831 11.1366 7.48291 10.9686 7.44646 10.8486C7.42822 10.7886 7.41469 10.7405 7.40532 10.7057C7.40064 10.6883 7.39699 10.6742 7.39431 10.6637L7.39101 10.6504L7.38988 10.6458L7.38945 10.644L7.38918 10.6429C7.38914 10.6427 7.3891 10.6426 8.1187 10.4688L7.38918 10.6429L7.32008 10.3528L8.86915 7.66245L6.32826 4.17225C5.26756 4.8945 4.44067 5.77235 3.76577 6.89781C3.61179 7.89505 3.78722 9.18927 4.30553 10.6266C4.84157 12.113 5.72455 13.6961 6.89177 15.1662L7.35812 15.7536L6.18337 16.6863L5.71701 16.0989C4.45748 14.5125 3.49042 12.788 2.89448 11.1354C2.30269 9.49435 2.05653 7.86649 2.3126 6.49735L2.33642 6.36998L2.40159 6.25799C3.33636 4.65174 4.54317 3.45439 6.14212 2.51654L6.72809 2.17285ZM10.9434 13.7251L11.5283 14.1944C12.2435 14.7683 12.9409 15.1485 13.4575 15.3844C13.6712 15.4819 13.8528 15.5542 13.9901 15.6049L16.9774 13.8848L22.5151 17.9684L22.192 18.5457C21.2666 20.1991 20.0854 21.3802 18.4321 22.3056L18.2773 22.3923L18.1 22.4004C14.0441 22.5861 10.4582 20.7812 7.749 18.2878L7.19714 17.7799L8.21294 16.6762L8.76479 17.1841C11.2263 19.4495 14.3739 21.0115 17.8536 20.9086C18.9914 20.2455 19.8431 19.4462 20.542 18.3772L16.8762 15.674L14.176 17.2288L13.8744 17.1461L14.0727 16.4228C13.8744 17.1461 13.8746 17.1462 13.8744 17.1461L13.8727 17.1456L13.8704 17.145L13.8642 17.1433L13.8456 17.1379C13.8304 17.1335 13.8097 17.1273 13.7838 17.1192C13.7322 17.1032 13.6598 17.0796 13.5696 17.0478C13.3893 16.9841 13.1369 16.8869 12.8345 16.7489C12.231 16.4733 11.4215 16.0319 10.5896 15.3644L10.0046 14.895L10.9434 13.7251Z" fill="currentColor"/>
<path fill-rule="evenodd" clip-rule="evenodd" d="M19.9391 6.32474L4.29841 23.0081L3.2041 21.9822L18.8447 5.29883L19.9391 6.32474Z" fill="currentColor"/>
</svg>
