<svg width="25" height="24" viewBox="0 0 25 24" fill="none" xmlns="http://www.w3.org/2000/svg">
<path fill-rule="evenodd" clip-rule="evenodd" d="M11.1244 2.37318C9.75305 2.56898 8.03924 3.26202 6.86315 4.09646C6.13091 4.61599 4.91111 5.88345 4.40125 6.65467C3.21594 8.44712 2.61897 10.8302 2.84818 12.8542C3.00486 14.237 3.59865 16.0704 4.29234 17.3136C4.42543 17.5521 4.53434 17.7915 4.53434 17.8455C4.53434 17.8995 4.02963 18.7522 3.41275 19.7405C2.79586 20.7287 2.26499 21.5819 2.23298 21.6364C2.19453 21.702 4.1536 21.7322 8.03696 21.7256C13.6279 21.7162 13.9381 21.7062 14.7415 21.5089C20.321 20.1386 23.5171 14.5019 21.805 9.05187C20.3865 4.53662 15.8485 1.69897 11.1244 2.37318ZM14.0704 3.89095C17.3791 4.52394 19.9752 7.09038 20.6436 10.3891C20.901 11.659 20.8056 13.3206 20.4044 14.5544C19.6976 16.7287 18.2606 18.3822 16.1784 19.4176C14.4988 20.2529 14.0595 20.3057 9.04688 20.275L4.82926 20.2491L5.57546 19.0483L6.32167 17.8474L5.90616 17.1656C5.37539 16.2943 4.91557 15.2342 4.57883 14.1055C4.36141 13.3768 4.31117 13.0052 4.30374 12.0741C4.2856 9.77256 5.0113 7.9478 6.60292 6.29319C7.87117 4.9747 9.62521 4.05602 11.3226 3.82138C12.0143 3.72565 13.3887 3.76045 14.0704 3.89095ZM8.10187 12.4251V13.1724L8.86988 13.1435L9.6379 13.1146L9.66703 12.3962L9.69617 11.6778H8.89902H8.10187V12.4251ZM11.7685 12.4209V13.1641H12.5117H13.255V12.4209V11.6778H12.5117H11.7685V12.4209ZM15.3565 12.3962L15.3856 13.1146L16.1536 13.1435L16.9216 13.1724V12.4251V11.6778H16.1245H15.3273L15.3565 12.3962Z" fill="currentColor"/>
</svg>
