<svg width="25" height="25" viewBox="0 0 25 25" fill="none" xmlns="http://www.w3.org/2000/svg">
<path fill-rule="evenodd" clip-rule="evenodd" d="M18.2675 6.14299C14.961 2.8362 9.58823 2.8362 6.2818 6.14385C4.62258 7.80271 3.79633 9.9714 3.79794 12.1429C3.79919 13.8221 3.78712 16.1244 3.77476 18.0054C3.76858 18.9462 3.76232 19.7822 3.75761 20.383L3.75596 20.5875C3.81736 20.587 3.88196 20.5866 3.94956 20.5862C4.54364 20.5825 5.37012 20.5782 6.29978 20.5762C8.15704 20.5722 10.4334 20.577 12.0907 20.6128C14.3211 20.661 16.5629 19.8359 18.2675 18.1312C21.5743 14.824 21.5801 9.45599 18.2675 6.14299ZM2.99975 21.3432L2.24978 21.3366L2.25765 20.3713C2.26236 19.7709 2.26862 18.9356 2.2748 17.9956C2.28715 16.1148 2.29918 13.8173 2.29794 12.144C2.29605 9.59046 3.2689 7.03505 5.22094 5.08339C5.22089 5.08344 5.22099 5.08334 5.22094 5.08339M5.22094 5.08339C9.1132 1.18987 15.436 1.18977 19.3282 5.08239C23.2272 8.98185 23.22 15.2995 19.3282 19.1918C17.3226 21.1975 14.6809 22.1692 12.0583 22.1125C10.4203 22.0771 8.15933 22.0722 6.30303 22.0762C5.37591 22.0782 4.55156 22.0824 3.95901 22.0862C3.66275 22.088 3.42448 22.0898 3.26034 22.091L3.00747 22.0931L2.99975 21.3432L3.00646 22.0931L2.24316 22.1L2.24978 21.3366L2.99975 21.3432" fill="currentColor"/>
<path fill-rule="evenodd" clip-rule="evenodd" d="M7.71582 11.7695H9.31456V13.2695H7.71582V11.7695Z" fill="currentColor"/>
<path fill-rule="evenodd" clip-rule="evenodd" d="M11.4502 11.7695H13.0489V13.2695H11.4502V11.7695Z" fill="currentColor"/>
<path fill-rule="evenodd" clip-rule="evenodd" d="M15.1846 11.7695H16.7833V13.2695H15.1846V11.7695Z" fill="currentColor"/>
</svg>
