<svg width="25" height="25" viewBox="0 0 25 25" fill="none" xmlns="http://www.w3.org/2000/svg">
<path fill-rule="evenodd" clip-rule="evenodd" d="M15.7063 10.13L9.85363 15.9827L8.79297 14.922L14.6456 9.06934L15.7063 10.13Z" fill="currentColor"/>
<path fill-rule="evenodd" clip-rule="evenodd" d="M9.84983 9.06738L15.7064 14.9252L14.6456 15.9857L8.78906 10.1279L9.84983 9.06738Z" fill="currentColor"/>
<path fill-rule="evenodd" clip-rule="evenodd" d="M2.25 12.5352C2.25 7.01231 6.72715 2.53516 12.25 2.53516C17.7728 2.53516 22.25 7.01231 22.25 12.5352C22.25 18.058 17.7728 22.5352 12.25 22.5352C6.72715 22.5352 2.25 18.058 2.25 12.5352ZM12.25 4.03516C7.55558 4.03516 3.75 7.84074 3.75 12.5352C3.75 17.2296 7.55558 21.0352 12.25 21.0352C16.9444 21.0352 20.75 17.2296 20.75 12.5352C20.75 7.84074 16.9444 4.03516 12.25 4.03516Z" fill="currentColor"/>
</svg>
