<svg width="25" height="25" viewBox="0 0 25 25" fill="none" xmlns="http://www.w3.org/2000/svg">
<path fill-rule="evenodd" clip-rule="evenodd" d="M12.25 4.03516C7.55521 4.03516 3.75 7.84037 3.75 12.5352C3.75 17.229 7.55527 21.0352 12.25 21.0352C16.9438 21.0352 20.75 17.2289 20.75 12.5352C20.75 7.84042 16.9438 4.03516 12.25 4.03516ZM2.25 12.5352C2.25 7.01194 6.72679 2.53516 12.25 2.53516C17.7722 2.53516 22.25 7.01189 22.25 12.5352C22.25 18.0574 17.7722 22.5352 12.25 22.5352C6.72673 22.5352 2.25 18.0573 2.25 12.5352Z" fill="currentColor"/>
<path fill-rule="evenodd" clip-rule="evenodd" d="M12.9951 7.98926V13.9083H11.4951V7.98926H12.9951Z" fill="currentColor"/>
<path fill-rule="evenodd" clip-rule="evenodd" d="M11.4951 15.5811H13.0051V17.0811H11.4951V15.5811Z" fill="currentColor"/>
</svg>
