<svg width="25" height="25" viewBox="0 0 25 25" fill="none" xmlns="http://www.w3.org/2000/svg">
<path fill-rule="evenodd" clip-rule="evenodd" d="M15.4436 10.1944L9.90832 15.7297L8.84766 14.6691L14.3829 9.13379L15.4436 10.1944Z" fill="currentColor"/>
<path fill-rule="evenodd" clip-rule="evenodd" d="M13.5664 13.8564H15.0742V15.3564H13.5664V13.8564Z" fill="currentColor"/>
<path fill-rule="evenodd" clip-rule="evenodd" d="M9.21484 9.50391H10.7227V11.0039H9.21484V9.50391Z" fill="currentColor"/>
<path fill-rule="evenodd" clip-rule="evenodd" d="M12.2501 2.04395L12.8477 2.83211C14.2145 4.6347 16.4476 5.55965 18.6887 5.25151L19.6686 5.11678L19.5338 6.09668C19.2257 8.33779 20.1507 10.5708 21.9533 11.9376L22.7414 12.5353L21.9533 13.1329C20.1507 14.4997 19.2257 16.7327 19.5338 18.9738L19.6686 19.9537L18.6887 19.819C16.4476 19.5109 14.2145 20.4358 12.8477 22.2384L12.2501 23.0266L11.6525 22.2384C10.2857 20.4358 8.05264 19.5109 5.81152 19.819L4.83162 19.9537L4.96635 18.9738C5.27449 16.7327 4.34955 14.4997 2.54695 13.1329L1.75879 12.5353L2.54695 11.9376C4.34955 10.5708 5.27449 8.33779 4.96635 6.09668L4.83162 5.11678L5.81152 5.25151C8.05264 5.55965 10.2857 4.6347 11.6525 2.83211L12.2501 2.04395ZM6.52355 6.8087C6.56296 8.96294 5.70267 11.0398 4.15153 12.5353C5.70267 14.0307 6.56296 16.1076 6.52355 18.2618C8.67779 18.2224 10.7547 19.0827 12.2501 20.6338C13.7455 19.0827 15.8224 18.2224 17.9767 18.2618C17.9372 16.1076 18.7975 14.0307 20.3487 12.5353C18.7975 11.0398 17.9372 8.96294 17.9767 6.8087C15.8224 6.84811 13.7455 5.98783 12.2501 4.43669C10.7547 5.98783 8.67779 6.84811 6.52355 6.8087Z" fill="currentColor"/>
</svg>
