<svg width="25" height="25" viewBox="0 0 25 25" fill="none" xmlns="http://www.w3.org/2000/svg">
<path fill-rule="evenodd" clip-rule="evenodd" d="M2.25 8.44336H8.375V9.94336H3.75V19.8722H20.75V9.94336H16.125V8.44336H22.25V21.3722H2.25V8.44336Z" fill="currentColor"/>
<path fill-rule="evenodd" clip-rule="evenodd" d="M11.5 18.3457L11.5 2.90643L13 2.90643L13 18.3457L11.5 18.3457Z" fill="currentColor"/>
<path fill-rule="evenodd" clip-rule="evenodd" d="M13 17.5955C13 14.6505 10.4151 12.25 7.65449 12.25L6.90449 12.25L6.90449 13.75L7.65449 13.75C9.61881 13.75 11.5 15.5107 11.5 17.5955L11.5 18.3455L13 18.3455L13 17.5955Z" fill="currentColor"/>
<path fill-rule="evenodd" clip-rule="evenodd" d="M11.5 17.5955C11.5 14.6505 14.0849 12.25 16.8455 12.25L17.5955 12.25L17.5955 13.75L16.8455 13.75C14.8812 13.75 13 15.5107 13 17.5955L13 18.3455L11.5 18.3455L11.5 17.5955Z" fill="currentColor"/>
</svg>
