<svg width="25" height="25" viewBox="0 0 25 25" fill="none" xmlns="http://www.w3.org/2000/svg">
<path fill-rule="evenodd" clip-rule="evenodd" d="M13.1829 6.8291L18.0444 11.6906L7.131 22.604L2.2741 22.5994L2.26953 17.7425L13.1829 6.8291ZM3.77012 18.3632L3.77269 21.1008L6.51026 21.1034L15.9231 11.6906L13.1829 8.95042L3.77012 18.3632Z" fill="currentColor"/>
<path fill-rule="evenodd" clip-rule="evenodd" d="M13.1829 6.8291L18.0444 11.6906L7.131 22.604L2.2741 22.5994L2.26953 17.7425L13.1829 6.8291ZM3.77012 18.3632L3.77269 21.1008L6.51026 21.1034L15.9231 11.6906L13.1829 8.95042L3.77012 18.3632Z" fill="currentColor"/>
<path fill-rule="evenodd" clip-rule="evenodd" d="M13.7431 15.1572L9.6962 11.1104L10.7569 10.0497L14.8037 14.0966L13.7431 15.1572Z" fill="currentColor"/>
<path fill-rule="evenodd" clip-rule="evenodd" d="M22.2305 22.6035H12.1937V21.1035H20.7305V4.10352H3.76927V12.7999H2.26927V2.60352H22.2305V22.6035Z" fill="currentColor"/>
</svg>
