<svg width="25" height="25" viewBox="0 0 25 25" fill="none" xmlns="http://www.w3.org/2000/svg">
<path fill-rule="evenodd" clip-rule="evenodd" d="M9.6416 12.0176V17.1653H8.1416V12.0176H9.6416Z" fill="currentColor"/>
<path fill-rule="evenodd" clip-rule="evenodd" d="M6.28027 13.8408H11.5022V15.3408H6.28027V13.8408Z" fill="currentColor"/>
<path fill-rule="evenodd" clip-rule="evenodd" d="M14.3857 12.1279H15.99V13.6279H14.3857V12.1279Z" fill="currentColor"/>
<path fill-rule="evenodd" clip-rule="evenodd" d="M16.1514 15.6094H17.7556V17.1094H16.1514V15.6094Z" fill="currentColor"/>
<path fill-rule="evenodd" clip-rule="evenodd" d="M8.57812 2.78516V3.53516C8.57812 3.82803 8.82461 4.09109 9.16061 4.09109H10.1923C11.7258 4.09656 12.9927 5.31757 12.9998 6.8557L12.9998 6.85918L12.9998 8.31642H11.4998V6.86112C11.4958 6.17483 10.9243 5.59434 10.1882 5.59109H9.16061C8.02479 5.59109 7.07812 4.68478 7.07812 3.53516V2.78516H8.57812Z" fill="currentColor"/>
<path fill-rule="evenodd" clip-rule="evenodd" d="M8.48718 22.2852C4.25343 22.2852 0.821289 18.853 0.821289 14.6193C0.821289 10.3855 4.25343 6.95336 8.48719 6.95336L16.0118 6.95336C20.2456 6.95336 23.6777 10.3855 23.6777 14.6193C23.6777 18.853 20.2456 22.2852 16.0118 22.2852L8.48718 22.2852ZM2.32129 14.6193C2.32129 18.0246 5.08185 20.7852 8.48718 20.7852L16.0118 20.7852C19.4172 20.7852 22.1777 18.0246 22.1777 14.6193C22.1777 11.2139 19.4172 8.45336 16.0118 8.45336L8.48719 8.45336C5.08186 8.45336 2.32129 11.2139 2.32129 14.6193Z" fill="currentColor"/>
</svg>
