<svg width="25" height="25" viewBox="0 0 25 25" fill="none" xmlns="http://www.w3.org/2000/svg">
<path fill-rule="evenodd" clip-rule="evenodd" d="M2.32279 8.33247C4.37781 12.6585 8.08927 15.3635 12.2482 15.3652C12.2496 15.3652 12.2509 15.3652 12.2522 15.3652V13.8652C12.2516 13.8652 12.2509 13.8652 12.2502 13.8652C12.2496 13.8652 12.2489 13.8652 12.2482 13.8652M12.2502 13.8652C15.7049 13.8644 18.9568 11.6169 20.8228 7.68885L21.1446 7.0114L22.4995 7.65503L22.1777 8.33247C20.1227 12.6585 16.4112 15.3635 12.2522 15.3652M12.2502 13.8652C8.79557 13.8644 5.54365 11.6169 3.67769 7.68885L3.35587 7.0114L2.00098 7.65503L2.32279 8.33247" fill="currentColor"/>
<path fill-rule="evenodd" clip-rule="evenodd" d="M18.84 10.8184L22.0117 13.9901L20.9511 15.0508L17.7793 11.879L18.84 10.8184Z" fill="currentColor"/>
<path fill-rule="evenodd" clip-rule="evenodd" d="M5.58094 10.8184L2.40917 13.9901L3.46983 15.0508L6.6416 11.879L5.58094 10.8184Z" fill="currentColor"/>
<path fill-rule="evenodd" clip-rule="evenodd" d="M15.0939 13.3574L16.3565 17.7075L14.916 18.1256L13.6533 13.7755L15.0939 13.3574Z" fill="currentColor"/>
<path fill-rule="evenodd" clip-rule="evenodd" d="M9.32703 13.3574L8.06439 17.7075L9.50494 18.1256L10.7676 13.7755L9.32703 13.3574Z" fill="currentColor"/>
</svg>
