<svg width="25" height="25" viewBox="0 0 25 25" fill="none" xmlns="http://www.w3.org/2000/svg">
<path fill-rule="evenodd" clip-rule="evenodd" d="M8.89709 7.87305C8.17647 7.87325 7.5918 8.45746 7.5918 9.17871C7.5918 9.90008 8.17667 10.4844 8.89746 10.4844C9.61895 10.4844 10.2029 9.90059 10.2031 9.17916C10.2023 8.45832 9.61792 7.87395 8.89709 7.87305ZM6.0918 9.17871C6.0918 7.62838 7.34878 6.37305 8.89746 6.37305H8.8982C10.4466 6.37457 11.7016 7.6296 11.7031 9.17798L11.7031 9.17871C11.7031 10.7288 10.4475 11.9844 8.89746 11.9844C7.34878 11.9844 6.0918 10.729 6.0918 9.17871Z" fill="currentColor"/>
<path fill-rule="evenodd" clip-rule="evenodd" d="M14.461 11.5068H15.4006L22.3143 21.2593L21.0906 22.1268L14.9426 13.4545L10.934 19.2877H10.0474L7.54822 17.0448L3.53372 22.3821L2.33496 21.4804L7.0203 15.2512H7.79552L10.3267 17.5229L14.461 11.5068Z" fill="currentColor"/>
<path fill-rule="evenodd" clip-rule="evenodd" d="M2.25 22.6035L2.25 2.60352L22.25 2.60351L22.25 22.6035L2.25 22.6035ZM3.75 21.1035L20.75 21.1035L20.75 4.10351L3.75 4.10352L3.75 21.1035Z" fill="currentColor"/>
</svg>
