<svg width="25" height="25" viewBox="0 0 25 25" fill="none" xmlns="http://www.w3.org/2000/svg">
<path fill-rule="evenodd" clip-rule="evenodd" d="M14.4066 11.5068H15.302L19.6701 18.8339L19.1117 19.5639H5.63592L5.17383 18.8038L7.86398 13.8234H8.60635L11.5438 15.3057L14.4066 11.5068ZM14.7611 13.5288L11.9873 17.2097L8.64951 15.5253L7.27832 18.0639H17.4647L14.7611 13.5288Z" fill="currentColor"/>
<path fill-rule="evenodd" clip-rule="evenodd" d="M8.75708 7.54492C8.11046 7.54512 7.58691 8.0688 7.58691 8.71547C7.58691 9.36226 8.11066 9.88601 8.75746 9.88601C9.40425 9.88601 9.928 9.36226 9.928 8.71547C9.928 8.06951 9.405 7.5458 8.75708 7.54492ZM6.08691 8.71547C6.08691 7.24025 7.28224 6.04492 8.75746 6.04492H8.75823C10.2321 6.04644 11.428 7.23954 11.428 8.71547C11.428 10.1907 10.2327 11.386 8.75746 11.386C7.28224 11.386 6.08691 10.1907 6.08691 8.71547Z" fill="currentColor"/>
<path fill-rule="evenodd" clip-rule="evenodd" d="M2.25 22.6035L2.25 2.60352L22.25 2.60351L22.25 22.6035L2.25 22.6035ZM3.75 21.1035L20.75 21.1035L20.75 4.10351L3.75 4.10352L3.75 21.1035Z" fill="currentColor"/>
</svg>
