<svg width="25" height="25" viewBox="0 0 25 25" fill="none" xmlns="http://www.w3.org/2000/svg">
<path fill-rule="evenodd" clip-rule="evenodd" d="M7.0088 7.74358C7.02161 4.81599 9.4039 2.45395 12.3304 2.46587C15.2569 2.46675 17.6298 4.8402 17.6298 7.76686V10.4483H16.1298V7.76686C16.1298 5.66808 14.4276 3.96587 12.3288 3.96587H12.3255C10.2273 3.95668 8.51882 5.64945 8.50879 7.74858V10.4483H7.00879L7.0088 7.74358Z" fill="currentColor"/>
<path fill-rule="evenodd" clip-rule="evenodd" d="M12.9316 13.918V17.639H11.4316V13.918H12.9316Z" fill="currentColor"/>
<path fill-rule="evenodd" clip-rule="evenodd" d="M3.95605 22.4658L3.95605 9.09229L20.6811 9.09229L20.6811 22.4658L3.95605 22.4658ZM5.45605 20.9658L19.1811 20.9658L19.1811 10.5923L5.45605 10.5923L5.45605 20.9658Z" fill="currentColor"/>
</svg>
