<svg width="25" height="25" viewBox="0 0 25 25" fill="none" xmlns="http://www.w3.org/2000/svg">
<path fill-rule="evenodd" clip-rule="evenodd" d="M8.55469 22.1387L8.55469 16.0137L10.0547 16.0137L10.0547 20.6387L19.9835 20.6387L19.9835 3.63867L10.0547 3.63867L10.0547 8.26367L8.55469 8.26367L8.55469 2.13867L21.4835 2.13867L21.4835 22.1387L8.55469 22.1387Z" fill="currentColor"/>
<path fill-rule="evenodd" clip-rule="evenodd" d="M18.457 12.8887L3.01776 12.8887L3.01776 11.3887L18.457 11.3887L18.457 12.8887Z" fill="currentColor"/>
<path fill-rule="evenodd" clip-rule="evenodd" d="M17.7068 11.3887C14.7619 11.3887 12.3613 13.9735 12.3613 16.7342L12.3613 17.4842L13.8613 17.4842L13.8613 16.7342C13.8613 14.7699 15.622 12.8887 17.7068 12.8887L18.4568 12.8887L18.4568 11.3887L17.7068 11.3887Z" fill="currentColor"/>
<path fill-rule="evenodd" clip-rule="evenodd" d="M17.7068 12.8887C14.7619 12.8887 12.3613 10.3038 12.3613 7.54316L12.3613 6.79316L13.8613 6.79316L13.8613 7.54316C13.8613 9.50748 15.622 11.3887 17.7068 11.3887L18.4568 11.3887L18.4568 12.8887L17.7068 12.8887Z" fill="currentColor"/>
</svg>
