<svg width="25" height="25" viewBox="0 0 25 25" fill="none" xmlns="http://www.w3.org/2000/svg">
<path fill-rule="evenodd" clip-rule="evenodd" d="M6.46875 15.5977C4.96746 15.5977 3.75 16.8151 3.75 18.3164C3.75 19.8177 4.96714 21.0352 6.46875 21.0352C7.97004 21.0352 9.1875 19.8177 9.1875 18.3164C9.1875 16.8148 7.97009 15.5977 6.46875 15.5977ZM2.25 18.3164C2.25 15.9867 4.13904 14.0977 6.46875 14.0977C8.79841 14.0977 10.6875 15.9863 10.6875 18.3164C10.6875 20.6461 8.79846 22.5352 6.46875 22.5352C4.13861 22.5352 2.25 20.6461 2.25 18.3164Z" fill="currentColor"/>
<path fill-rule="evenodd" clip-rule="evenodd" d="M18.0312 15.5977C16.53 15.5977 15.3125 16.8151 15.3125 18.3164C15.3125 19.8177 16.5296 21.0352 18.0312 21.0352C19.5325 21.0352 20.75 19.8177 20.75 18.3164C20.75 16.8148 19.5326 15.5977 18.0312 15.5977ZM13.8125 18.3164C13.8125 15.9867 15.7015 14.0977 18.0312 14.0977C20.3609 14.0977 22.25 15.9863 22.25 18.3164C22.25 20.6461 20.361 22.5352 18.0312 22.5352C15.7011 22.5352 13.8125 20.6461 13.8125 18.3164Z" fill="currentColor"/>
<path fill-rule="evenodd" clip-rule="evenodd" d="M12.25 4.03516C10.7487 4.03516 9.53125 5.25262 9.53125 6.75391C9.53125 8.25525 10.7484 9.47266 12.25 9.47266C13.7513 9.47266 14.9688 8.25519 14.9688 6.75391C14.9688 5.2523 13.7513 4.03516 12.25 4.03516ZM8.03125 6.75391C8.03125 4.42419 9.92029 2.53516 12.25 2.53516C14.5797 2.53516 16.4688 4.42376 16.4688 6.75391C16.4688 9.08362 14.5797 10.9727 12.25 10.9727C9.91986 10.9727 8.03125 9.08357 8.03125 6.75391Z" fill="currentColor"/>
</svg>
