<svg width="25" height="25" viewBox="0 0 25 25" fill="none" xmlns="http://www.w3.org/2000/svg">
<path fill-rule="evenodd" clip-rule="evenodd" d="M11.5001 3.58661V2.13867H13.0001V3.58661C16.5458 3.9611 19.3087 6.96084 19.3087 10.6059V13.3991C19.3087 15.1333 19.8359 16.8265 20.8203 18.2543L21.631 19.43H2.86914L3.67981 18.2543C4.66424 16.8265 5.1914 15.1333 5.1914 13.3991V10.6059C5.1914 6.96085 7.95427 3.9611 11.5001 3.58661ZM12.2501 5.04724C9.1801 5.04724 6.6914 7.53594 6.6914 10.6059V13.3991C6.6914 14.9793 6.319 16.5306 5.61248 17.93H18.8876C18.1811 16.5306 17.8087 14.9793 17.8087 13.3991V10.6059C17.8087 7.53593 15.32 5.04724 12.2501 5.04724Z" fill="currentColor"/>
<path fill-rule="evenodd" clip-rule="evenodd" d="M8.27148 18.9101V18.6797H9.77148V18.9101C9.77148 20.279 10.8812 21.3886 12.25 21.3886C13.6189 21.3886 14.7285 20.279 14.7285 18.9101V18.6797H16.2285V18.9101C16.2285 21.1074 14.4473 22.8886 12.25 22.8886C10.0527 22.8886 8.27148 21.1074 8.27148 18.9101Z" fill="currentColor"/>
</svg>
