<svg width="25" height="25" viewBox="0 0 25 25" fill="none" xmlns="http://www.w3.org/2000/svg">
<path fill-rule="evenodd" clip-rule="evenodd" d="M3.8252 2.13867H15.1375L20.6745 7.90515V22.1387H3.8252V2.13867ZM5.3252 3.63867V20.6387H19.1745V8.50871L14.4983 3.63867H5.3252Z" fill="currentColor"/>
<path fill-rule="evenodd" clip-rule="evenodd" d="M15.0928 2.69336V8.03878H20.1998V9.53878H13.5928V2.69336H15.0928Z" fill="currentColor"/>
<path fill-rule="evenodd" clip-rule="evenodd" d="M10.3643 9.86914L10.3643 19.2155L11.8643 19.2155L11.8643 9.86914L10.3643 9.86914Z" fill="currentColor"/>
<path fill-rule="evenodd" clip-rule="evenodd" d="M11.8643 10.6202C11.8643 12.4659 10.2555 13.957 8.52746 13.957L7.77746 13.957L7.77746 12.457L8.52746 12.457C9.45913 12.457 10.3643 11.6058 10.3643 10.6202L10.3643 9.87023L11.8643 9.87023L11.8643 10.6202Z" fill="currentColor"/>
<path fill-rule="evenodd" clip-rule="evenodd" d="M10.3643 10.6202C10.3643 12.4659 11.9731 13.957 13.7011 13.957L14.4511 13.957L14.4511 12.457L13.7011 12.457C12.7694 12.457 11.8643 11.6058 11.8643 10.6202L11.8643 9.87023L10.3643 9.87023L10.3643 10.6202Z" fill="currentColor"/>
</svg>
