<svg width="25" height="25" viewBox="0 0 25 25" fill="none" xmlns="http://www.w3.org/2000/svg">
<path fill-rule="evenodd" clip-rule="evenodd" d="M12.25 4.10352C7.55544 4.10352 3.75 7.90895 3.75 12.6035C3.75 17.2981 7.55544 21.1035 12.25 21.1035C16.9437 21.1035 20.75 17.298 20.75 12.6035C20.75 7.909 16.9437 4.10352 12.25 4.10352ZM2.25 12.6035C2.25 7.08053 6.72701 2.60352 12.25 2.60352C17.772 2.60352 22.25 7.08048 22.25 12.6035C22.25 18.1266 17.772 22.6035 12.25 22.6035C6.72701 22.6035 2.25 18.1265 2.25 12.6035Z" fill="currentColor"/>
<path fill-rule="evenodd" clip-rule="evenodd" d="M9.91406 8.37207L16.5704 12.5988L9.91406 16.8256V8.37207ZM11.4141 11.1014V14.0963L13.7722 12.5988L11.4141 11.1014Z" fill="currentColor"/>
</svg>
