<svg width="25" height="24" viewBox="0 0 25 24" fill="none" xmlns="http://www.w3.org/2000/svg">
<path fill-rule="evenodd" clip-rule="evenodd" d="M12.216 3.5C10.1884 3.5 8.54492 5.14275 8.54492 7.16973C8.54492 9.19672 10.1884 10.8395 12.216 10.8395C14.2421 10.8395 15.8857 9.19686 15.8857 7.16973C15.8857 5.1426 14.2421 3.5 12.216 3.5ZM7.04492 7.16973C7.04492 4.31374 9.36055 2 12.216 2C15.0702 2 17.3857 4.31389 17.3857 7.16973C17.3857 10.0256 15.0702 12.3395 12.216 12.3395C9.36055 12.3395 7.04492 10.0257 7.04492 7.16973Z" fill="currentColor"/>
<path fill-rule="evenodd" clip-rule="evenodd" d="M6.12869 19.1855C7.91266 20.1227 9.98916 20.5061 12.2479 20.5006H12.2515C14.5102 20.5061 16.5867 20.1227 18.3706 19.1855C17.3462 16.7397 15.0593 15.5622 12.2516 15.5694H12.2478C9.4366 15.5622 7.15342 16.7369 6.12869 19.1855ZM12.2497 14.0694C8.75025 14.061 5.63329 15.6886 4.49171 19.2986L4.31445 19.8591L4.81642 20.1651C7.02078 21.5089 9.58343 22.0069 12.2497 22.0006C14.916 22.0069 17.4786 21.5089 19.683 20.1651L20.1849 19.8591L20.0077 19.2986C18.8673 15.6922 15.7457 14.061 12.2497 14.0694Z" fill="currentColor"/>
</svg>
