<svg width="25" height="25" viewBox="0 0 25 25" fill="none" xmlns="http://www.w3.org/2000/svg">
<path fill-rule="evenodd" clip-rule="evenodd" d="M14.3506 12.139C14.3506 10.9792 13.4104 10.0391 12.2507 10.0391C11.0909 10.0391 10.1508 10.9792 10.1508 12.139C10.1508 13.2987 11.0909 14.2389 12.2507 14.2389C13.4104 14.2389 14.3506 13.2987 14.3506 12.139ZM12.2507 8.53906C14.2389 8.53906 15.8506 10.1508 15.8506 12.139C15.8506 14.1271 14.2389 15.7389 12.2507 15.7389C10.2625 15.7389 8.65079 14.1271 8.65079 12.139C8.65079 10.1508 10.2625 8.53906 12.2507 8.53906Z" fill="currentColor"/>
<path fill-rule="evenodd" clip-rule="evenodd" d="M6.8168 2.72852L17.6828 2.72852L23.1158 12.1388L17.6828 21.549H6.8168L1.38379 12.1388L6.8168 2.72852ZM7.68283 4.22852L3.11584 12.1388L7.68283 20.049H16.8168L21.3838 12.1388L16.8168 4.22852L7.68283 4.22852Z" fill="currentColor"/>
</svg>
