<svg width="25" height="25" viewBox="0 0 25 25" fill="none" xmlns="http://www.w3.org/2000/svg">
<path fill-rule="evenodd" clip-rule="evenodd" d="M16.4875 9.29379L11.5285 14.2553L8.57617 11.2982L9.63767 10.2384L11.5291 12.1328L15.4266 8.2334L16.4875 9.29379Z" fill="currentColor"/>
<path fill-rule="evenodd" clip-rule="evenodd" d="M3.63281 2.85352H20.8685V12.6538C20.8685 16.2783 18.6875 18.7131 16.6228 20.2C15.5859 20.9468 14.5538 21.4741 13.7831 21.8147C13.3968 21.9854 13.0734 22.1104 12.8442 22.1934C12.7296 22.235 12.6384 22.2661 12.5744 22.2872C12.5424 22.2978 12.5173 22.3059 12.4994 22.3116L12.478 22.3183L12.4716 22.3202L12.4694 22.3209C12.4691 22.321 12.468 22.3213 12.2506 21.6035C12.0333 22.3213 12.033 22.3212 12.0327 22.3211L12.0297 22.3202L12.0232 22.3183L12.0019 22.3116C11.984 22.3059 11.9588 22.2978 11.9268 22.2872C11.8629 22.2661 11.7716 22.235 11.657 22.1934C11.4279 22.1104 11.1045 21.9854 10.7181 21.8147C9.94751 21.4741 8.91538 20.9468 7.87843 20.2C5.81372 18.7131 3.63281 16.2783 3.63281 12.6538V2.85352ZM12.2506 21.6035L12.0327 22.3211L12.2506 22.3871L12.468 22.3213L12.2506 21.6035ZM12.2506 20.8127C12.2761 20.8037 12.3037 20.7939 12.3332 20.7832C12.5343 20.7103 12.8256 20.5979 13.1768 20.4427C13.8814 20.1313 14.8162 19.6526 15.7463 18.9828C17.6155 17.6367 19.3685 15.5967 19.3685 12.6538V4.35352H5.13281V12.6538C5.13281 15.5967 6.88581 17.6367 8.75501 18.9828C9.68502 19.6526 10.6199 20.1313 11.3244 20.4427C11.6757 20.5979 11.967 20.7103 12.1681 20.7832C12.1976 20.7939 12.2251 20.8037 12.2506 20.8127Z" fill="currentColor"/>
</svg>
