<svg width="25" height="24" viewBox="0 0 25 24" fill="none" xmlns="http://www.w3.org/2000/svg">
<path fill-rule="evenodd" clip-rule="evenodd" d="M12.249 0.588867L12.9524 2.48975C14.4622 6.5699 17.6792 9.78684 21.7593 11.2966L23.6602 12L21.7593 12.7034C17.6792 14.2132 14.4622 17.4302 12.9524 21.5103L12.249 23.4112L11.5457 21.5103C10.0359 17.4302 6.81892 14.2132 2.73877 12.7034L0.837891 12L2.73877 11.2966C6.81892 9.78684 10.0359 6.5699 11.5457 2.48975L12.249 0.588867ZM4.88494 12C8.07352 13.5892 10.6598 16.1756 12.249 19.3641C13.8383 16.1756 16.4246 13.5892 19.6132 12C16.4246 10.4108 13.8383 7.8245 12.249 4.63592C10.6598 7.8245 8.07352 10.4108 4.88494 12Z" fill="currentColor"/>
</svg>
