<svg width="25" height="24" viewBox="0 0 25 24" fill="none" xmlns="http://www.w3.org/2000/svg">
<path fill-rule="evenodd" clip-rule="evenodd" d="M12.2502 0.84375L14.5983 6.33122L20.1389 4.11139L17.9191 9.65201L23.4066 12.0002L17.9191 14.3483L20.1389 19.8889L14.5983 17.6691L12.2502 23.1566L9.90201 17.6691L4.36139 19.8889L6.58122 14.3483L1.09375 12.0002L6.58122 9.65201L4.36139 4.11139L9.90201 6.33122L12.2502 0.84375ZM12.2502 4.65659L10.7045 8.26865L7.05747 6.80747L8.51865 10.4545L4.90659 12.0002L8.51865 13.5458L7.05747 17.1929L10.7045 15.7317L12.2502 19.3438L13.7958 15.7317L17.4429 17.1929L15.9817 13.5458L19.5938 12.0002L15.9817 10.4545L17.4429 6.80747L13.7958 8.26865L12.2502 4.65659Z" fill="currentColor"/>
</svg>
