<svg width="25" height="24" viewBox="0 0 25 24" fill="none" xmlns="http://www.w3.org/2000/svg">
<path fill-rule="evenodd" clip-rule="evenodd" d="M11.478 2.67753C11.3922 3.00731 11.072 3.92109 10.9116 4.29391C9.8888 6.67101 8.11764 8.67261 5.8744 9.98648C5.10356 10.438 4.02106 10.905 3.17675 11.1502L2.80176 11.2592V11.9879V12.7166L2.94414 12.7534C3.30691 12.8471 4.2271 13.1768 4.6622 13.369C5.57659 13.7728 6.57916 14.382 7.37488 15.0174C7.84868 15.3957 8.8357 16.3827 9.21408 16.8565C10.1278 18.0005 10.8397 19.3182 11.2843 20.688C11.3956 21.0312 11.4999 21.3462 11.516 21.388L11.5451 21.4641L12.2539 21.455L12.9626 21.446L13.1229 20.9267C13.5784 19.4516 14.2946 18.0937 15.2524 16.89C15.637 16.4066 16.4517 15.5775 16.9612 15.151C17.8586 14.3997 18.8846 13.7707 19.9719 13.3051C20.319 13.1565 21.2412 12.8353 21.5549 12.7537L21.6973 12.7166V11.9859V11.2551L21.4712 11.195C21.0632 11.0864 20.2819 10.8058 19.8212 10.6023C17.4258 9.54468 15.4145 7.70985 14.1304 5.41104C13.8642 4.93457 13.6868 4.56382 13.4699 4.03077C13.3246 3.67366 13.0511 2.85823 13.0048 2.64403L12.9813 2.53516H12.2482H11.5151L11.478 2.67753ZM18.9712 3.05883C18.9428 3.26894 18.768 3.66796 18.5888 3.93168C18.1439 4.58623 17.5074 5.0344 16.7892 5.19872C16.698 5.21955 16.711 5.22743 16.9274 5.28287C17.3891 5.40112 17.8348 5.6772 18.232 6.09089C18.6116 6.48633 18.8377 6.86886 18.9494 7.30467C19.0045 7.51977 19.0127 7.53347 19.0327 7.44292C19.0957 7.15804 19.2079 6.86558 19.344 6.63165C19.5428 6.28982 20.0808 5.74778 20.4108 5.55673C20.6683 5.40772 21.0989 5.24927 21.2509 5.24766C21.3755 5.24632 21.2947 5.19922 21.111 5.16612C20.6255 5.07869 19.9356 4.59735 19.5311 4.0638C19.3519 3.82729 19.1001 3.31762 19.0656 3.12141C19.0271 2.90265 18.9952 2.88148 18.9712 3.05883ZM12.4338 5.40749C12.5259 5.6046 12.7125 5.96232 12.8484 6.20241C14.193 8.57814 16.2591 10.5373 18.6551 11.7084C18.9443 11.8498 19.1818 11.973 19.1828 11.9823C19.1838 11.9916 18.9701 12.1046 18.708 12.2335C15.9752 13.5776 13.6832 15.8982 12.4107 18.6095L12.2483 18.9556L12.0146 18.4827C11.7023 17.8508 11.5331 17.5575 11.1245 16.9402C10.0911 15.3788 8.85262 14.1405 7.29113 13.1071C6.66771 12.6946 6.35399 12.514 5.73965 12.2139L5.2754 11.9872L5.65723 11.8057C8.37173 10.5155 10.651 8.25684 11.9976 5.52249C12.1262 5.26133 12.2393 5.048 12.2489 5.0484C12.2584 5.0488 12.3417 5.21041 12.4338 5.40749Z" fill="currentColor"/>
</svg>
