<svg width="25" height="24" viewBox="0 0 25 24" fill="none" xmlns="http://www.w3.org/2000/svg">
<path fill-rule="evenodd" clip-rule="evenodd" d="M16.1543 20.8994L16.1543 5.46014L17.6543 5.46014L17.6543 20.8994L16.1543 20.8994Z" fill="currentColor"/>
<path fill-rule="evenodd" clip-rule="evenodd" d="M17.6543 20.1502C17.6543 17.2052 15.0694 14.8047 12.3088 14.8047H11.5588V16.3047H12.3088C14.2731 16.3047 16.1543 18.0654 16.1543 20.1502V20.9002H17.6543V20.1502Z" fill="currentColor"/>
<path fill-rule="evenodd" clip-rule="evenodd" d="M16.1543 20.1502C16.1543 17.2052 18.7392 14.8047 21.4998 14.8047H22.2498V16.3047H21.4998C19.5355 16.3047 17.6543 18.0654 17.6543 20.1502V20.9002H16.1543V20.1502Z" fill="currentColor"/>
<path fill-rule="evenodd" clip-rule="evenodd" d="M6.8457 3.09961L6.8457 18.5389L8.3457 18.5389L8.3457 3.09961L6.8457 3.09961Z" fill="currentColor"/>
<path fill-rule="evenodd" clip-rule="evenodd" d="M8.3457 3.8498C8.3457 6.79479 5.76084 9.19531 3.00019 9.19531L2.25019 9.19531L2.25019 7.69531L3.00019 7.69531C4.96451 7.69531 6.8457 5.93462 6.8457 3.8498L6.8457 3.0998L8.3457 3.0998L8.3457 3.8498Z" fill="currentColor"/>
<path fill-rule="evenodd" clip-rule="evenodd" d="M6.8457 3.8498C6.8457 6.79479 9.43057 9.19531 12.1912 9.19531L12.9412 9.19531L12.9412 7.69531L12.1912 7.69531C10.2269 7.69531 8.3457 5.93462 8.3457 3.8498L8.3457 3.0998L6.8457 3.0998L6.8457 3.8498Z" fill="currentColor"/>
</svg>
