<svg width="25" height="24" viewBox="0 0 25 24" fill="none" xmlns="http://www.w3.org/2000/svg">
<path fill-rule="evenodd" clip-rule="evenodd" d="M14.7109 4.08203V7.82053H13.2109V4.08203H14.7109Z" fill="currentColor"/>
<path fill-rule="evenodd" clip-rule="evenodd" d="M14.7109 16.5781V19.9503H13.2109V16.5781H14.7109Z" fill="currentColor"/>
<path fill-rule="evenodd" clip-rule="evenodd" d="M14.7109 9.21973V15.1792H13.2109V9.21973H14.7109Z" fill="currentColor"/>
<path fill-rule="evenodd" clip-rule="evenodd" d="M2.25 3.84961H22.25V10.7612H21.5C20.7906 10.7612 20.2366 11.3218 20.2366 12.0006C20.2366 12.6789 20.7901 13.2389 21.5 13.2389H22.25V20.1496H2.25V13.2389H3C3.70991 13.2389 4.26343 12.6789 4.26343 12.0006C4.26343 11.3604 3.74966 10.8393 3 10.8393H2.25V3.84961ZM3.75 5.34961V9.43598C4.88872 9.73613 5.76343 10.7101 5.76343 12.0006C5.76343 13.2646 4.90887 14.3152 3.75 14.6372V18.6496H20.75V14.6372C19.5911 14.3152 18.7366 13.2646 18.7366 12.0006C18.7366 10.7368 19.5909 9.68528 20.75 9.36302V5.34961H3.75Z" fill="currentColor"/>
</svg>
