<svg width="25" height="25" viewBox="0 0 25 25" fill="none" xmlns="http://www.w3.org/2000/svg">
<path fill-rule="evenodd" clip-rule="evenodd" d="M22.8047 6.26596L22.1576 6.64505C19.1754 8.39196 16.8701 10.6938 15.306 12.5698C14.5256 13.5059 13.934 14.3308 13.539 14.9193C13.3415 15.2134 13.1935 15.448 13.0958 15.6074C13.0469 15.6871 13.0107 15.7479 12.9871 15.7879L12.9614 15.8321L12.9557 15.842L12.9548 15.8435L12.7395 16.2245H11.8674L11.6453 15.8887L11.6428 15.885L11.6318 15.8687C11.6216 15.8536 11.6056 15.8302 11.584 15.7993C11.541 15.7375 11.476 15.646 11.3911 15.5312C11.2211 15.3014 10.9724 14.9802 10.6611 14.6193C10.0323 13.8903 9.17555 13.0319 8.21988 12.4277L7.58594 12.027L8.38749 10.7591L9.02143 11.1599C10.1548 11.8764 11.123 12.8583 11.7969 13.6395C11.9594 13.8279 12.1064 14.0065 12.236 14.1693C12.2548 14.1412 12.2739 14.1125 12.2936 14.0833C12.7128 13.4587 13.3353 12.5912 14.1539 11.6092C15.7881 9.64914 18.221 7.21265 21.3994 5.35077L22.0465 4.97168L22.8047 6.26596Z" fill="currentColor"/>
<path fill-rule="evenodd" clip-rule="evenodd" d="M1.97168 12.5352C1.97168 7.01231 6.44883 2.53516 11.9717 2.53516C17.4945 2.53516 21.9717 7.01231 21.9717 12.5352C21.9717 18.058 17.4945 22.5352 11.9717 22.5352C6.44883 22.5352 1.97168 18.058 1.97168 12.5352ZM11.9717 4.03516C7.27726 4.03516 3.47168 7.84074 3.47168 12.5352C3.47168 17.2296 7.27726 21.0352 11.9717 21.0352C16.6661 21.0352 20.4717 17.2296 20.4717 12.5352C20.4717 7.84074 16.6661 4.03516 11.9717 4.03516Z" fill="currentColor"/>
</svg>
