<svg width="25" height="25" viewBox="0 0 25 25" fill="none" xmlns="http://www.w3.org/2000/svg">
<path fill-rule="evenodd" clip-rule="evenodd" d="M7.00782 7.74358C7.02063 4.81599 9.40292 2.45394 12.3295 2.46587C13.8534 2.46633 15.2281 3.11116 16.1939 4.14036L16.7071 4.68728L15.6133 5.71369L15.1001 5.16678C14.4056 4.42663 13.4209 3.96587 12.3278 3.96587H12.3245C10.2263 3.95668 8.51784 5.64945 8.50781 7.74858V10.4483H7.00781L7.00782 7.74358Z" fill="currentColor"/>
<path fill-rule="evenodd" clip-rule="evenodd" d="M12.9316 13.918V17.639H11.4316V13.918H12.9316Z" fill="currentColor"/>
<path fill-rule="evenodd" clip-rule="evenodd" d="M3.95508 22.4658L3.95508 9.09229L20.6801 9.09229L20.6801 22.4658L3.95508 22.4658ZM5.45508 20.9658L19.1801 20.9658L19.1801 10.5923L5.45508 10.5923L5.45508 20.9658Z" fill="currentColor"/>
</svg>
