<svg width="25" height="24" viewBox="0 0 25 24" fill="none" xmlns="http://www.w3.org/2000/svg">
<path fill-rule="evenodd" clip-rule="evenodd" d="M9.73137 3.86523C7.80046 3.86523 6.23535 5.42967 6.23535 7.36C6.23535 9.29034 7.80046 10.8548 9.73137 10.8548C11.6609 10.8548 13.2261 9.29048 13.2261 7.36C13.2261 5.42952 11.6609 3.86523 9.73137 3.86523ZM4.73535 7.36C4.73535 4.60066 6.97261 2.36523 9.73137 2.36523C12.489 2.36523 14.7261 4.60081 14.7261 7.36C14.7261 10.1192 12.489 12.3548 9.73137 12.3548C6.97261 12.3548 4.73535 10.1193 4.73535 7.36Z" fill="currentColor"/>
<path fill-rule="evenodd" clip-rule="evenodd" d="M16.3096 5.41602C15.5771 5.41602 14.9193 5.73084 14.4623 6.2348L13.9585 6.79038L12.8473 5.78275L13.3512 5.22717C14.0806 4.42277 15.1365 3.91602 16.3096 3.91602C18.5132 3.91602 20.3008 5.70243 20.3008 7.90729C20.3008 10.1121 18.5132 11.8986 16.3096 11.8986C14.9021 11.8986 13.6651 11.1698 12.9552 10.0723L12.5479 9.44256L13.8074 8.62791L14.2147 9.25767C14.6597 9.94576 15.4319 10.3986 16.3096 10.3986C17.685 10.3986 18.8008 9.28343 18.8008 7.90729C18.8008 6.53115 17.685 5.41602 16.3096 5.41602Z" fill="currentColor"/>
<path fill-rule="evenodd" clip-rule="evenodd" d="M3.92313 18.8867C5.6256 19.7748 7.60619 20.139 9.76202 20.1337H9.76568C11.9215 20.139 13.902 19.7748 15.6045 18.8867C14.621 16.5682 12.4436 15.4502 9.76577 15.4571H9.76193C7.08076 15.4502 4.90682 16.5655 3.92313 18.8867ZM9.76385 13.9571C6.39346 13.949 3.38593 15.5176 2.28468 19L2.10742 19.5605L2.60938 19.8665C4.73254 21.1608 7.1996 21.6398 9.76385 21.6337C12.3281 21.6398 14.7952 21.1608 16.9183 19.8665L17.4203 19.5605L17.243 19C16.1429 15.521 13.1309 13.949 9.76385 13.9571Z" fill="currentColor"/>
<path fill-rule="evenodd" clip-rule="evenodd" d="M16.3335 14.2656C14.9686 14.2622 13.8072 14.6532 12.9905 15.4048L12.4386 15.9127L11.4229 14.8089L11.9747 14.301C13.1338 13.2343 14.6923 12.7618 16.3354 12.7656C18.9631 12.7595 21.3465 13.992 22.2155 16.7403L22.3927 17.3008L21.8908 17.6068C20.2329 18.6174 18.3134 18.9869 16.3336 18.9821L15.5836 18.9803L15.5872 17.4803L16.3372 17.4821C17.9008 17.4859 19.3304 17.2321 20.5645 16.6254C19.8179 15.0364 18.2678 14.2607 16.3373 14.2656H16.3335Z" fill="currentColor"/>
</svg>
