<svg width="25" height="24" viewBox="0 0 25 24" fill="none" xmlns="http://www.w3.org/2000/svg">
<path fill-rule="evenodd" clip-rule="evenodd" d="M12.1998 4.14258C10.3419 4.14258 8.83594 5.64785 8.83594 7.50518C8.83594 9.3625 10.3419 10.8678 12.1998 10.8678C14.0563 10.8678 15.5623 9.36265 15.5623 7.50518C15.5623 5.64771 14.0563 4.14258 12.1998 4.14258ZM7.33594 7.50518C7.33594 4.81885 9.514 2.64258 12.1998 2.64258C14.8844 2.64258 17.0623 4.81899 17.0623 7.50518C17.0623 10.1914 14.8844 12.3678 12.1998 12.3678C9.514 12.3678 7.33594 10.1915 7.33594 7.50518Z" fill="currentColor"/>
<path fill-rule="evenodd" clip-rule="evenodd" d="M6.60306 18.6618C8.24393 19.5128 10.1521 19.8625 12.2301 19.8574H12.2338C14.3118 19.8625 16.2199 19.5128 17.8608 18.6619C16.9083 16.4394 14.8135 15.3665 12.2339 15.3731H12.23C9.64712 15.3665 7.55571 16.4369 6.60306 18.6618ZM12.232 13.8731C8.95904 13.8653 6.03417 15.3893 4.96339 18.7753L4.78613 19.3358L5.2881 19.6418C7.34991 20.8987 9.74476 21.3633 12.232 21.3574C14.7191 21.3633 17.114 20.8987 19.1758 19.6418L19.6778 19.3358L19.5005 18.7753C18.4308 15.3925 15.5017 13.8653 12.232 13.8731Z" fill="currentColor"/>
<path fill-rule="evenodd" clip-rule="evenodd" d="M6.84668 13.0235C4.48192 13.0174 2.32188 14.1287 1.53507 16.617L1.35782 17.1775L1.85978 17.4835C2.66704 17.9756 3.54339 18.2986 4.458 18.4903L5.19204 18.6442L5.49983 17.1761L4.76578 17.0222C4.20956 16.9056 3.68407 16.7345 3.19339 16.5013C3.85421 15.1722 5.18061 14.5192 6.84284 14.5235L7.59284 14.5254L7.59668 13.0254L6.84668 13.0235Z" fill="currentColor"/>
<path fill-rule="evenodd" clip-rule="evenodd" d="M8.9549 5.71612L8.26238 5.42817C6.41011 4.65803 4.28313 5.53484 3.51254 7.38817C2.74196 9.24149 3.62026 11.3679 5.47253 12.138C7.00238 12.7741 8.71716 12.2873 9.70311 11.0572L10.1722 10.472L9.00173 9.53388L8.53267 10.1191C7.95345 10.8418 6.94553 11.126 6.04842 10.753C4.96082 10.3008 4.44517 9.05217 4.89759 7.96405C5.35001 6.87593 6.5989 6.36102 7.6865 6.81322L8.37902 7.10116L8.9549 5.71612Z" fill="currentColor"/>
<path fill-rule="evenodd" clip-rule="evenodd" d="M17.6533 13.0235C20.0181 13.0174 22.1781 14.1287 22.9649 16.617L23.1422 17.1775L22.6402 17.4835C21.833 17.9756 20.9566 18.2986 20.042 18.4903L19.308 18.6442L19.0002 17.1761L19.7342 17.0222C20.2904 16.9056 20.8159 16.7345 21.3066 16.5013C20.6458 15.1722 19.3194 14.5192 17.6572 14.5235L16.9072 14.5254L16.9033 13.0254L17.6533 13.0235Z" fill="currentColor"/>
<path fill-rule="evenodd" clip-rule="evenodd" d="M15.2758 5.91814L15.939 5.56781C17.4685 4.75981 19.403 5.13859 20.5021 6.55254C21.7339 8.13723 21.4471 10.4199 19.8633 11.651C18.2789 12.8826 15.996 12.5976 14.7641 11.0128L14.3038 10.4206L15.4881 9.50005L15.9484 10.0922C16.6716 11.0225 18.012 11.1902 18.9427 10.4667C19.8727 9.74386 20.041 8.40352 19.3178 7.47312C18.6732 6.64395 17.5371 6.42004 16.6396 6.89412L15.9765 7.24445L15.2758 5.91814Z" fill="currentColor"/>
</svg>
