<svg width="25" height="25" viewBox="0 0 25 25" fill="none" xmlns="http://www.w3.org/2000/svg">
<path fill-rule="evenodd" clip-rule="evenodd" d="M13 16.9639V22.8537H11.5V16.9639H13Z" fill="currentColor"/>
<path fill-rule="evenodd" clip-rule="evenodd" d="M15.7197 22.8535H8.77949V21.3535H15.7197V22.8535Z" fill="currentColor"/>
<path fill-rule="evenodd" clip-rule="evenodd" d="M21.5049 7.46289V13.3528H20.0049V7.46289H21.5049Z" fill="currentColor"/>
<path fill-rule="evenodd" clip-rule="evenodd" d="M4.49512 7.46387V13.3537H2.99512V7.46387H4.49512Z" fill="currentColor"/>
<path fill-rule="evenodd" clip-rule="evenodd" d="M12.2504 3.85352C10.3013 3.85352 8.71484 5.44229 8.71484 7.40896V13.4091C8.71484 15.3755 10.301 16.9634 12.2504 16.9634C14.2007 16.9634 15.7859 15.3756 15.7859 13.4091V7.40896C15.7859 5.44217 14.2005 3.85352 12.2504 3.85352ZM7.21484 7.40896C7.21484 4.62043 9.46629 2.35352 12.2504 2.35352C15.0357 2.35352 17.2859 4.62055 17.2859 7.40896V13.4091C17.2859 16.1977 15.0355 18.4634 12.2504 18.4634C9.46654 18.4634 7.21484 16.1979 7.21484 13.4091V7.40896Z" fill="currentColor"/>
</svg>
