<svg width="25" height="25" viewBox="0 0 25 25" fill="none" xmlns="http://www.w3.org/2000/svg">
<path fill-rule="evenodd" clip-rule="evenodd" d="M13.0381 6.6875H16.6905V8.1875H13.0381V6.6875Z" fill="currentColor"/>
<path fill-rule="evenodd" clip-rule="evenodd" d="M11.958 10.2988H16.6928V11.7988H11.958V10.2988Z" fill="currentColor"/>
<path fill-rule="evenodd" clip-rule="evenodd" d="M12.998 18.582V22.8534H11.498V18.582H12.998Z" fill="currentColor"/>
<path fill-rule="evenodd" clip-rule="evenodd" d="M12.2482 3.85352C10.6249 3.85352 9.30273 5.17685 9.30273 6.81615V11.9901C9.30273 13.6292 10.6247 14.9518 12.2482 14.9518C13.8726 14.9518 15.1937 13.6293 15.1937 11.9901V6.81615C15.1937 5.17673 13.8723 3.85352 12.2482 3.85352ZM7.80273 6.81615C7.80273 4.35499 9.78997 2.35352 12.2482 2.35352C14.7075 2.35352 16.6937 4.35511 16.6937 6.81615V11.9901C16.6937 14.4514 14.7073 16.4518 12.2482 16.4518C9.79022 16.4518 7.80273 14.4515 7.80273 11.9901V6.81615Z" fill="currentColor"/>
<path fill-rule="evenodd" clip-rule="evenodd" d="M5.72168 11.2695V12.0195C5.72168 15.647 8.64726 18.5818 12.2492 18.5818C15.8522 18.5818 18.7777 15.6469 18.7777 12.0195V11.2695H20.2777V12.0195C20.2777 16.4686 16.6873 20.0818 12.2492 20.0818C7.81203 20.0818 4.22168 16.4686 4.22168 12.0195V11.2695H5.72168Z" fill="currentColor"/>
</svg>
