<svg width="25" height="24" viewBox="0 0 25 24" fill="none" xmlns="http://www.w3.org/2000/svg">
<path fill-rule="evenodd" clip-rule="evenodd" d="M19.6061 4.33105L20.034 4.94702C22.9837 9.19336 22.9938 14.7976 20.0337 19.0532L19.6054 19.6689L18.374 18.8124L18.8023 18.1967C21.4033 14.4573 21.3952 9.53592 18.802 5.80279L18.3741 5.18682L19.6061 4.33105Z" fill="currentColor"/>
<path fill-rule="evenodd" clip-rule="evenodd" d="M16.976 6.97168L17.3486 7.62257C18.9057 10.3426 18.9063 13.6669 17.3481 16.3803L16.9746 17.0307L15.6738 16.2837L16.0473 15.6333C17.3395 13.3832 17.34 10.6269 16.0468 8.36779L15.6742 7.71689L16.976 6.97168Z" fill="currentColor"/>
<path fill-rule="evenodd" clip-rule="evenodd" d="M11.2286 3.7373H13.034V20.2627H11.2286L7.1027 16.6863H2.25222L2.25161 15.937C2.24946 13.3124 2.24946 10.6878 2.25161 8.06316L2.25222 7.31378H7.10269L11.2286 3.7373ZM11.534 5.45769L7.66233 8.81378H3.75106C3.74965 10.938 3.74965 13.0622 3.75106 15.1863H7.66232L11.534 18.5423V5.45769Z" fill="currentColor"/>
</svg>
