<svg width="25" height="24" viewBox="0 0 25 24" fill="none" xmlns="http://www.w3.org/2000/svg">
<path fill-rule="evenodd" clip-rule="evenodd" d="M18.8432 6.97168L19.2158 7.62257C20.7729 10.3426 20.7735 13.6669 19.2153 16.3803L18.8418 17.0307L17.541 16.2837L17.9145 15.6333C19.2066 13.3832 19.2072 10.6269 17.914 8.36779L17.5414 7.71689L18.8432 6.97168Z" fill="currentColor"/>
<path fill-rule="evenodd" clip-rule="evenodd" d="M13.0958 3.7373H14.9012V20.2627H13.0958L8.96989 16.6863H4.11941L4.1188 15.937C4.11665 13.3124 4.11665 10.6878 4.1188 8.06316L4.11941 7.31378H8.96988L13.0958 3.7373ZM13.4012 5.45769L9.52952 8.81378H5.61824C5.61684 10.938 5.61684 13.0622 5.61824 15.1863H9.52951L13.4012 18.5423V5.45769Z" fill="currentColor"/>
</svg>
