<svg width="25" height="25" viewBox="0 0 25 25" fill="none" xmlns="http://www.w3.org/2000/svg">
<path d="M14.624 10.9639H17.296" stroke="currentColor" stroke-width="1.5" stroke-linecap="square"/>
<path fill-rule="evenodd" clip-rule="evenodd" d="M7.90877 20.0273C8.19877 20.0273 8.43277 20.2623 8.43277 20.5513C8.43277 20.8413 8.19877 21.0763 7.90877 21.0763C7.61877 21.0763 7.38477 20.8413 7.38477 20.5513C7.38477 20.2623 7.61877 20.0273 7.90877 20.0273Z" fill="currentColor"/>
<path fill-rule="evenodd" clip-rule="evenodd" d="M7.90877 20.0273C8.19877 20.0273 8.43277 20.2623 8.43277 20.5513C8.43277 20.8413 8.19877 21.0763 7.90877 21.0763C7.61877 21.0763 7.38477 20.8413 7.38477 20.5513C7.38477 20.2623 7.61877 20.0273 7.90877 20.0273Z" stroke="currentColor" stroke-width="1.5" stroke-linecap="square"/>
<path fill-rule="evenodd" clip-rule="evenodd" d="M18.775 20.0273C19.065 20.0273 19.3 20.2623 19.3 20.5513C19.3 20.8413 19.065 21.0763 18.775 21.0763C18.485 21.0763 18.251 20.8413 18.251 20.5513C18.251 20.2623 18.485 20.0273 18.775 20.0273Z" fill="currentColor"/>
<path fill-rule="evenodd" clip-rule="evenodd" d="M18.775 20.0273C19.065 20.0273 19.3 20.2623 19.3 20.5513C19.3 20.8413 19.065 21.0763 18.775 21.0763C18.485 21.0763 18.251 20.8413 18.251 20.5513C18.251 20.2623 18.485 20.0273 18.775 20.0273Z" stroke="currentColor" stroke-width="1.5" stroke-linecap="square"/>
<path d="M8.734 7.05316H21.5L20.231 16.6882H6.744L5.467 3.99316H3" stroke="currentColor" stroke-width="1.5" stroke-linecap="square"/>
</svg>
