<svg width="25" height="25" viewBox="0 0 25 25" fill="none" xmlns="http://www.w3.org/2000/svg">
<path d="M5.7175 16.1707L6.18381 16.7581L7.35863 15.8254L6.89232 15.238L5.7175 16.1707ZM3.05091 6.70735L2.40252 6.33039L2.33752 6.4422L2.31372 6.56932L3.05091 6.70735ZM6.52291 3.23535L7.12927 2.79396L6.72944 2.2447L6.14344 2.58843L6.52291 3.23535ZM9.76291 7.68635L10.413 8.06044L10.6558 7.63853L10.3693 7.24496L9.76291 7.68635ZM7.46986 10.1673L7.09577 10.8173L8.39586 11.5655L8.76995 10.9154L7.46986 10.1673ZM11.5292 14.2663L10.9442 13.797L10.0056 14.9671L10.5906 15.4364L11.5292 14.2663ZM14.0739 16.4954L13.8752 17.2186L14.177 17.3015L14.4483 17.1452L14.0739 16.4954ZM16.9279 14.8514L17.3731 14.2478L16.9784 13.9567L16.5535 14.2015L16.9279 14.8514ZM21.5379 18.2514L22.1926 18.6173L22.5152 18.0402L21.9831 17.6478L21.5379 18.2514ZM18.0669 21.7234L18.1012 22.4726L18.2785 22.4645L18.4334 22.3777L18.0669 21.7234ZM8.76575 17.2565L8.21386 16.7486L7.19816 17.8524L7.75006 18.3602L8.76575 17.2565ZM6.89232 15.238C5.72546 13.7682 4.84248 12.1851 4.30643 10.6987C3.76622 9.20069 3.59846 7.85816 3.7881 6.84538L2.31372 6.56932C2.05735 7.93854 2.30359 9.56652 2.89538 11.2075C3.49133 12.8601 4.45836 14.5845 5.7175 16.1707L6.89232 15.238ZM3.69929 7.08431C4.50088 5.70554 5.52114 4.69247 6.90237 3.88227L6.14344 2.58843C4.54467 3.52623 3.33693 4.72316 2.40252 6.33039L3.69929 7.08431ZM5.91654 3.67674L9.15654 8.12774L10.3693 7.24496L7.12927 2.79396L5.91654 3.67674ZM9.11286 7.31226L7.46986 10.1673L8.76995 10.9154L10.413 8.06044L9.11286 7.31226ZM10.5906 15.4364C11.4224 16.1037 12.2319 16.5452 12.8354 16.8209C13.1377 16.959 13.3902 17.0564 13.5705 17.1201C13.6607 17.152 13.733 17.1755 13.7847 17.1916C13.8105 17.1997 13.8312 17.2059 13.8464 17.2103C13.854 17.2126 13.8603 17.2143 13.8651 17.2157C13.8675 17.2164 13.8695 17.217 13.8712 17.2174C13.8721 17.2177 13.8728 17.2179 13.8735 17.2181C13.8738 17.2182 13.8741 17.2183 13.8744 17.2183C13.8746 17.2184 13.8748 17.2184 13.8749 17.2185C13.875 17.2185 13.8752 17.2186 14.0739 16.4954C14.2726 15.7721 14.2728 15.7722 14.2729 15.7722C14.273 15.7723 14.2731 15.7723 14.2732 15.7723C14.2734 15.7724 14.2736 15.7724 14.2738 15.7725C14.2741 15.7726 14.2743 15.7726 14.2744 15.7727C14.2747 15.7727 14.2747 15.7727 14.2742 15.7726C14.2734 15.7724 14.2712 15.7717 14.2677 15.7707C14.2606 15.7686 14.2483 15.765 14.231 15.7596C14.1964 15.7488 14.142 15.7312 14.0705 15.7059C13.9274 15.6553 13.7164 15.5743 13.4587 15.4565C12.9419 15.2205 12.2444 14.84 11.5292 14.2663L10.5906 15.4364ZM14.4483 17.1452L17.3023 15.5012L16.5535 14.2015L13.6995 15.8455L14.4483 17.1452ZM16.4827 15.4549L21.0927 18.8549L21.9831 17.6478L17.3731 14.2478L16.4827 15.4549ZM20.8833 17.8854C20.094 19.2971 19.1119 20.2785 17.7004 21.069L18.4334 22.3777C20.0859 21.4522 21.2678 20.2716 22.1926 18.6173L20.8833 17.8854ZM18.0326 20.9741C14.4824 21.1366 11.2689 19.5598 8.76575 17.2565L7.75006 18.3602C10.4589 20.8529 14.0454 22.6581 18.1012 22.4726L18.0326 20.9741Z" fill="currentColor"/>
<path d="M4.2666 22.0187L18.8806 6.42969" stroke="currentColor" stroke-width="1.5" stroke-linecap="square" stroke-linejoin="round"/>
</svg>
