<svg width="25" height="25" viewBox="0 0 25 25" fill="none" xmlns="http://www.w3.org/2000/svg">
<path d="M9.9082 14.6703L14.3832 10.1953" stroke="currentColor" stroke-width="1.5" stroke-linecap="square" stroke-linejoin="round"/>
<path d="M14.3163 14.6074H14.3243" stroke="currentColor" stroke-width="1.5" stroke-linecap="square" stroke-linejoin="round"/>
<path d="M9.96525 10.2549H9.97225" stroke="currentColor" stroke-width="1.5" stroke-linecap="square" stroke-linejoin="round"/>
<path d="M5.134 15.1942C4.66 14.1632 3.936 13.2452 3 12.5352C5.019 11.0052 6.054 8.50416 5.709 5.99516C8.219 6.34016 10.719 5.30416 12.25 3.28516C13.781 5.30416 16.281 6.34016 18.791 5.99516C18.618 7.25016 18.791 8.50216 19.259 9.63216" stroke="currentColor" stroke-width="1.5" stroke-linecap="square"/>
<path d="M21.5 12.5352C19.481 14.0662 18.446 16.5662 18.791 19.0762C16.281 18.7312 13.781 19.7662 12.25 21.7852C10.719 19.7662 8.21898 18.7312 5.70898 19.0762" stroke="currentColor" stroke-width="1.5" stroke-linecap="square"/>
</svg>
