<svg width="25" height="25" viewBox="0 0 25 25" fill="none" xmlns="http://www.w3.org/2000/svg">
<path d="M13.4951 7.85742H19.1371" stroke="currentColor" stroke-width="1.5" stroke-linecap="square"/>
<path fill-rule="evenodd" clip-rule="evenodd" d="M9.51 7.79752C9.51 6.35552 8.333 5.18652 6.88 5.18652C5.428 5.18652 4.25 6.35552 4.25 7.79752C4.25 9.23952 5.428 10.4085 6.88 10.4085C8.333 10.4085 9.51 9.23952 9.51 7.79752Z" stroke="currentColor" stroke-width="1.5" stroke-linecap="square"/>
<path d="M11.0053 17.4707H5.36328" stroke="currentColor" stroke-width="1.5" stroke-linecap="square"/>
<path fill-rule="evenodd" clip-rule="evenodd" d="M14.9902 17.4098C14.9902 15.9678 16.1672 14.7988 17.6202 14.7988C19.0722 14.7988 20.2502 15.9678 20.2502 17.4098C20.2502 18.8518 19.0722 20.0218 17.6202 20.0218C16.1672 20.0218 14.9902 18.8518 14.9902 17.4098Z" stroke="currentColor" stroke-width="1.5" stroke-linecap="square"/>
</svg>
