<svg width="25" height="24" viewBox="0 0 25 24" fill="none" xmlns="http://www.w3.org/2000/svg">
<path d="M5.23975 18.9792C4.15475 17.8952 3.41675 16.5132 3.11775 15.0092C2.81875 13.5052 2.97175 11.9462 3.55875 10.5292C4.14575 9.11219 5.13975 7.90119 6.41475 7.04919C7.68975 6.19719 9.18875 5.74219 10.7228 5.74219V13.4962H18.4757C18.4757 15.0302 18.0218 16.5292 17.1698 17.8042C16.3178 19.0792 15.1067 20.0732 13.6897 20.6602C12.2727 21.2472 10.7138 21.4002 9.20975 21.1012" stroke="currentColor" stroke-width="1.5" stroke-linecap="square"/>
<path d="M13.7773 10.504V2.75C15.8343 2.75 17.8063 3.567 19.2603 5.021C20.7143 6.475 21.5313 8.448 21.5313 10.504H17.5483" stroke="currentColor" stroke-width="1.5" stroke-linecap="square"/>
</svg>
