<svg width="25" height="25" viewBox="0 0 25 25" fill="none" xmlns="http://www.w3.org/2000/svg">
<path fill-rule="evenodd" clip-rule="evenodd" d="M6.469 14.8477C8.384 14.8477 9.938 16.4007 9.938 18.3167C9.938 20.2317 8.384 21.7847 6.469 21.7847C4.553 21.7847 3 20.2317 3 18.3167C3 16.4007 4.553 14.8477 6.469 14.8477Z" stroke="currentColor" stroke-width="1.5" stroke-linecap="square" stroke-linejoin="round"/>
<path d="M18.0315 21.7847C16.1155 21.7847 14.5625 20.2317 14.5625 18.3157C14.5625 16.4007 16.1165 14.8477 18.0315 14.8477C19.9475 14.8477 21.5005 16.3997 21.5005 18.3157" stroke="currentColor" stroke-width="1.5" stroke-linecap="square" stroke-linejoin="round"/>
<path d="M12.2503 3.28516C14.1653 3.28516 15.7193 4.83816 15.7193 6.75416C15.7193 8.66916 14.1653 10.2222 12.2503 10.2222C10.3343 10.2222 8.78125 8.66916 8.78125 6.75416" stroke="currentColor" stroke-width="1.5" stroke-linecap="square" stroke-linejoin="round"/>
</svg>
