<svg width="25" height="25" viewBox="0 0 25 25" fill="none" xmlns="http://www.w3.org/2000/svg">
<path d="M11.5009 4.29667V5.04667H13.0009V4.29667H11.5009ZM13.0009 2.13867V1.38867H11.5009V2.13867H13.0009ZM19.3089 13.3987V12.6487H17.8089V13.3987H19.3089ZM20.2029 18.6797V19.4297H21.6304L20.8205 18.2542L20.2029 18.6797ZM4.29785 18.6797L3.68044 18.2539L2.86957 19.4297H4.29785V18.6797ZM17.7428 9.74301L17.8581 10.4841L19.3403 10.2534L19.2249 9.51234L17.7428 9.74301ZM13.0009 4.29667V2.13867H11.5009V4.29667H13.0009ZM17.8089 13.3987C17.8089 15.4369 18.4292 17.4272 19.5852 19.1052L20.8205 18.2542C19.8365 16.8261 19.3089 15.1325 19.3089 13.3987H17.8089ZM20.2029 17.9297H4.29785V19.4297H20.2029V17.9297ZM4.91527 19.1055C6.07269 17.4272 6.69185 15.4366 6.69185 13.3987H5.19185C5.19185 15.1327 4.66502 16.8262 3.68044 18.2539L4.91527 19.1055ZM6.69185 13.3987V10.6057H5.19185V13.3987H6.69185ZM6.69185 10.6057C6.69185 7.53581 9.18014 5.04667 12.2509 5.04667V3.54667C8.35156 3.54667 5.19185 6.70754 5.19185 10.6057H6.69185ZM12.2509 5.04667C15.0264 5.04667 17.3287 7.08261 17.7428 9.74301L19.2249 9.51234C18.699 6.13274 15.7773 3.54667 12.2509 3.54667V5.04667Z" fill="currentColor"/>
<path d="M15.4804 18.6797V18.9097C15.4804 20.6927 14.0344 22.1387 12.2514 22.1387C10.4684 22.1387 9.02344 20.6927 9.02344 18.9097V18.6797" stroke="currentColor" stroke-width="1.5" stroke-linecap="square"/>
</svg>
