<svg width="25" height="25" viewBox="0 0 25 25" fill="none" xmlns="http://www.w3.org/2000/svg">
<path d="M10.306 3.36621V10.1722H3.5V3.36621H6.632" stroke="currentColor" stroke-width="1.5" stroke-linecap="square"/>
<path d="M21.0003 20.8656H14.1943V14.0596H21.0003V17.7796" stroke="currentColor" stroke-width="1.5" stroke-linecap="square"/>
<path d="M16.6253 4.11621H17.3753V2.61621H16.6253V4.11621ZM14.1953 3.36621V2.61621H13.4453V3.36621H14.1953ZM13.4453 7.48621V8.23621H14.9453V7.48621H13.4453ZM20.2498 5.06721V5.81721H21.7498V5.06721H20.2498ZM20.9998 3.36621H21.7498V2.61621H20.9998V3.36621ZM19.2988 2.61621H18.5488V4.11621H19.2988V2.61621ZM21.7498 7.74121V6.99121H20.2498V7.74121H21.7498ZM20.9998 10.1712V10.9212H21.7498V10.1712H20.9998ZM19.2988 9.42121H18.5488V10.9212H19.2988V9.42121ZM14.1953 9.4209H13.4453V10.9209H14.1953V9.4209ZM16.4153 10.9209H17.1653V9.4209H16.4153V10.9209ZM16.6253 2.61621H14.1953V4.11621H16.6253V2.61621ZM13.4453 3.36621V7.48621H14.9453V3.36621H13.4453ZM21.7498 5.06721V3.36621H20.2498V5.06721H21.7498ZM20.9998 2.61621H19.2988V4.11621H20.9998V2.61621ZM20.2498 7.74121V10.1712H21.7498V7.74121H20.2498ZM20.9998 9.42121H19.2988V10.9212H20.9998V9.42121ZM14.1953 10.9209H16.4153V9.4209H14.1953V10.9209Z" fill="currentColor"/>
<path d="M16.5176 5.73047V7.94947H18.3466" stroke="currentColor" stroke-width="1.5" stroke-linecap="square"/>
<path d="M18.9434 5.72156V5.73156" stroke="currentColor" stroke-width="1.5" stroke-linecap="square"/>
<path d="M6.90234 6.72005V6.81705" stroke="currentColor" stroke-width="1.5" stroke-linecap="square"/>
<path d="M6.90234 17.4144V17.5114" stroke="currentColor" stroke-width="1.5" stroke-linecap="square"/>
<path d="M17.5977 17.4144V17.5114" stroke="currentColor" stroke-width="1.5" stroke-linecap="square"/>
<path d="M3.5 20.8656V14.0596H10.306V20.8656L7.015 20.9106" stroke="currentColor" stroke-width="1.5" stroke-linecap="square"/>
</svg>
