<svg width="25" height="24" viewBox="0 0 25 24" fill="none" xmlns="http://www.w3.org/2000/svg">
<path d="M12.2317 20.5749C9.83373 20.5799 7.58673 20.1319 5.67773 18.9689C6.62573 15.9699 9.19773 14.5819 12.2317 14.5899C15.2617 14.5819 17.8377 15.9739 18.7847 18.9689C17.7657 19.5899 16.6507 20.0069 15.4677 20.2599" stroke="currentColor" stroke-width="1.5" stroke-linecap="square"/>
<path d="M6.845 13.7403C4.72 13.7353 2.914 14.7103 2.25 16.8103C2.613 17.0313 2.992 17.2153 3.387 17.3663" stroke="currentColor" stroke-width="1.5" stroke-linecap="square"/>
<path d="M17.6562 13.7403C19.7803 13.7353 21.5862 14.7103 22.2502 16.8103C21.8612 17.0483 21.4512 17.2423 21.0252 17.3993" stroke="currentColor" stroke-width="1.5" stroke-linecap="square"/>
<path d="M12.9833 3.4248C14.8973 3.7698 16.3493 5.4448 16.3493 7.4578C16.3493 9.7218 14.5143 11.5568 12.2503 11.5568C9.98734 11.5568 8.15234 9.7218 8.15234 7.4578C8.15234 6.2088 8.71134 5.0898 9.59334 4.3378" stroke="currentColor" stroke-width="1.5" stroke-linecap="square"/>
<path d="M17.6562 5.86719C19.2463 5.86719 20.5363 7.15619 20.5363 8.74719C20.5363 10.3372 19.2463 11.6272 17.6562 11.6272" stroke="currentColor" stroke-width="1.5" stroke-linecap="square"/>
<path d="M6.84484 5.86719C5.25384 5.86719 3.96484 7.15619 3.96484 8.74719C3.96484 10.3372 5.25384 11.6272 6.84484 11.6272" stroke="currentColor" stroke-width="1.5" stroke-linecap="square"/>
</svg>
