<svg width="25" height="24" viewBox="0 0 25 24" fill="none" xmlns="http://www.w3.org/2000/svg">
<path d="M6.223 20.5151C5.076 20.2501 3.994 19.8321 3 19.2261C3.979 16.1321 6.633 14.6991 9.764 14.7071C12.892 14.6991 15.551 16.1351 16.528 19.2261C14.558 20.4271 12.239 20.8901 9.764 20.8841" stroke="currentColor" stroke-width="1.5" stroke-linecap="square"/>
<path d="M19.0624 17.9456C19.9294 17.7436 20.7484 17.4256 21.5004 16.9676C20.7544 14.6066 18.7234 13.5106 16.3354 13.5166C14.8314 13.5126 13.4714 13.9446 12.4834 14.8536" stroke="currentColor" stroke-width="1.5" stroke-linecap="square"/>
<path d="M9.76434 3.11621C12.1043 3.11621 14.0013 5.01321 14.0013 7.35321C14.0013 9.69321 12.1043 11.5902 9.76434 11.5902C7.42434 11.5902 5.52734 9.69321 5.52734 7.35321C5.52734 6.72121 5.66534 6.12121 5.91334 5.58321" stroke="currentColor" stroke-width="1.5" stroke-linecap="square"/>
<path d="M13.9639 5.67002C14.5539 5.05202 15.3869 4.66602 16.3099 4.66602C18.0999 4.66602 19.5509 6.11702 19.5509 7.90702C19.5509 9.69802 18.0999 11.149 16.3099 11.149" stroke="currentColor" stroke-width="1.5" stroke-linecap="square"/>
</svg>
