<svg width="25" height="25" viewBox="0 0 25 25" fill="none" xmlns="http://www.w3.org/2000/svg">
<path fill-rule="evenodd" clip-rule="evenodd" d="M6.46875 14.8477C8.38425 14.8477 9.9375 16.4005 9.9375 18.3164C9.9375 20.2319 8.38425 21.7852 6.46875 21.7852C4.55287 21.7852 3 20.2319 3 18.3164C3 16.4009 4.55325 14.8477 6.46875 14.8477Z" stroke="black" stroke-width="1.5" stroke-linecap="round" stroke-linejoin="round"/>
<path fill-rule="evenodd" clip-rule="evenodd" d="M18.0312 14.8477C19.9467 14.8477 21.5 16.4005 21.5 18.3164C21.5 20.2319 19.9467 21.7852 18.0312 21.7852C16.1154 21.7852 14.5625 20.2319 14.5625 18.3164C14.5625 16.4009 16.1158 14.8477 18.0312 14.8477Z" stroke="black" stroke-width="1.5" stroke-linecap="round" stroke-linejoin="round"/>
<path fill-rule="evenodd" clip-rule="evenodd" d="M12.25 3.28516C14.1655 3.28516 15.7188 4.83803 15.7188 6.75391C15.7188 8.66941 14.1655 10.2227 12.25 10.2227C10.3341 10.2227 8.78125 8.66941 8.78125 6.75391C8.78125 4.83841 10.3345 3.28516 12.25 3.28516Z" stroke="black" stroke-width="1.5" stroke-linecap="round" stroke-linejoin="round"/>
</svg>
